<?xml version="1.0" encoding="UTF-8"?>
<svg width="110px" height="99px" viewBox="0 0 110 99" version="1.1" xmlns="http://www.w3.org/2000/svg" xmlns:xlink="http://www.w3.org/1999/xlink">
    <!-- Generator: Sketch 51.2 (57519) - http://www.bohemiancoding.com/sketch -->
    <title>partners</title>
    <desc>Created with Sketch.</desc>
    <defs></defs>
    <g id="design" stroke="none" stroke-width="1" fill="none" fill-rule="evenodd">
        <g id="home" transform="translate(-586.000000, -1495.000000)" fill-rule="nonzero">
            <g id="partners" transform="translate(586.000000, 1495.000000)">
                <path d="M71.2857143,17.3904762 C69.8571429,17.3904762 68.7142857,16.6173333 68.7142857,15.672381 L68.7142857,8.8 C68.7142857,7.85504762 69.8714286,7.08190476 71.2857143,7.08190476 C72.7,7.08190476 73.8571429,7.85504762 73.8571429,8.8 L73.8571429,15.6866984 C73.8571429,16.6602857 72.7,17.3904762 71.2857143,17.3904762 Z" id="Shape" fill="#C1C9D1"></path>
                <path d="M38.5714286,17.3904762 C37.1428571,17.3904762 36,16.6173333 36,15.672381 L36,8.8 C36,7.85504762 37.1571429,7.08190476 38.5714286,7.08190476 C39.9857143,7.08190476 41.1428571,7.85504762 41.1428571,8.8 L41.1428571,15.6866984 C41.2,16.6602857 40,17.3904762 38.5714286,17.3904762 Z" id="Shape" fill="#C1C9D1"></path>
                <path d="M104.842857,58.782254 L5.15714286,58.782254 C4.210369,58.782254 3.44285714,59.5514714 3.44285714,60.5003492 L3.44285714,89.7795556 C3.44285714,94.5239445 7.28041643,98.3700317 12.0142857,98.3700317 L97.9714286,98.3700317 C102.705298,98.3700317 106.542857,94.5239445 106.542857,89.7795556 L106.542857,60.5003492 C106.54289,59.5570347 105.784047,58.7901149 104.842857,58.782254 Z" id="Shape" fill="#C1C9D1"></path>
                <path d="M101.428571,15.7153333 L8.57142857,15.7153333 C3.83755929,15.7153333 5.48152967e-15,19.5614205 4.90179999e-15,24.3058095 L4.90179999e-15,54.3008889 C-0.0106124262,57.782765 2.07692739,60.9266877 5.28571429,62.2613968 C19.4081861,68.2843909 34.5066964,71.6804934 49.8428571,72.283619 L60.2285714,72.283619 C75.5407252,71.6731324 90.6144947,68.2771508 104.714286,62.2613968 C107.910318,60.9111957 109.991428,57.7769554 110,54.3008889 L110,24.320127 C110.003793,22.0393114 109.102409,19.8506102 107.494543,18.2364854 C105.886677,16.6223607 103.704333,15.7153302 101.428571,15.7153333 Z" id="Shape" fill="#DDE1E6"></path>
                <path d="M75.6285714,53.6136508 C75.6207129,49.8134994 72.5488682,46.7348284 68.7571429,46.7269524 L41.2571429,46.7269524 C37.4654175,46.7348284 34.3935728,49.8134994 34.3857143,53.6136508 L34.3857143,70.7086984 C39.5055656,71.557712 44.6722855,72.0932231 49.8571429,72.312254 L60.2428571,72.312254 C65.4039275,72.0917745 70.546794,71.5562633 75.6428571,70.7086984 L75.6285714,53.6136508 Z" id="Shape" fill="#ECF0F1"></path>
                <path d="M56.7142857,77.724254 L53.2857143,77.724254 C51.3842768,77.724254 49.8428571,76.1794089 49.8428571,74.273746 L49.8428571,67.3870476 C49.8428571,65.4813847 51.3842768,63.9365397 53.2857143,63.9365397 L56.7142857,63.9365397 C58.6157232,63.9365397 60.1571429,65.4813847 60.1571429,67.3870476 L60.1571429,74.273746 C60.1571429,76.1794089 58.6157232,77.724254 56.7142857,77.724254 Z" id="Shape" fill="#DDE1E6"></path>
                <path d="M73.9142857,9.6304127 C73.5805122,9.63102889 73.2484376,9.58279519 72.9285714,9.4872381 C67.0973867,7.83424944 61.0595782,7.02902656 55,7.09622222 C48.964318,7.03587372 42.951049,7.84103173 37.1428571,9.4872381 C35.9472894,9.90895704 34.6172108,9.63821968 33.6805179,8.78247934 C32.743825,7.92673899 32.352017,6.62440155 32.6605989,5.3923535 C32.9691809,4.16030544 33.9282434,3.19781599 35.1571429,2.88688889 C41.6099355,1.04940973 48.2920858,0.14779785 55,0.20952381 C61.7270339,0.142315349 68.4288168,1.04397964 74.9,2.88688889 C76.5157093,3.39321559 77.5244111,5.00161248 77.2790327,6.68030845 C77.0336544,8.35900443 75.6070132,9.60983851 73.9142857,9.6304127 Z" id="Shape" fill="#AFB8BF"></path>
                <path d="M58.3857143,63.9508571 L51.5142857,63.9508571 C50.5675119,63.9508571 49.8,64.7200746 49.8,65.6689524 L49.8,69.1194603 C49.8,70.0345919 50.1627286,70.9122421 50.8083895,71.5593379 C51.4540505,72.2064336 52.3297547,72.5699683 53.2428571,72.5699683 L56.6857143,72.5699683 C58.5871518,72.5699683 60.1285714,71.0251232 60.1285714,69.1194603 L60.1285714,65.6689524 C60.1286353,65.2082802 59.9441068,64.7668798 59.6164097,64.4438385 C59.2887126,64.1207972 58.8453012,63.9431793 58.3857143,63.9508571 Z" id="Shape" fill="#DDE1E6"></path>
            </g>
        </g>
    </g>
</svg>