<?xml version="1.0" encoding="UTF-8"?>
<svg width="70px" height="63px" viewBox="0 0 70 63" version="1.1" xmlns="http://www.w3.org/2000/svg" xmlns:xlink="http://www.w3.org/1999/xlink">
    <!-- Generator: sketchtool 52.4 (67378) - http://www.bohemiancoding.com/sketch -->
    <title>0F170BA2-7BD9-4A27-8358-92CB4F868FFE</title>
    <desc>Created with sketchtool.</desc>
    <g id="design" stroke="none" stroke-width="1" fill="none" fill-rule="evenodd">
        <g id="home-2" transform="translate(-625.000000, -987.000000)" fill-rule="nonzero">
            <g id="partners" transform="translate(625.000000, 987.000000)">
                <g id="Shape">
                    <path d="M45.3636364,11.0666667 C44.4545455,11.0666667 43.7272727,10.5746667 43.7272727,9.97333333 L43.7272727,5.6 C43.7272727,4.99866667 44.4636364,4.50666667 45.3636364,4.50666667 C46.2636364,4.50666667 47,4.99866667 47,5.6 L47,9.98244444 C47,10.602 46.2636364,11.0666667 45.3636364,11.0666667 Z" fill="#C1C9D1"></path>
                    <path d="M24.5454545,11.0666667 C23.6363636,11.0666667 22.9090909,10.5746667 22.9090909,9.97333333 L22.9090909,5.6 C22.9090909,4.99866667 23.6454545,4.50666667 24.5454545,4.50666667 C25.4454545,4.50666667 26.1818182,4.99866667 26.1818182,5.6 L26.1818182,9.98244444 C26.2181818,10.602 25.4545455,11.0666667 24.5454545,11.0666667 Z" fill="#C1C9D1"></path>
                    <path d="M66.7181818,37.4068889 L3.28181818,37.4068889 C2.67932573,37.4068889 2.19090909,37.8963909 2.19090909,38.5002222 L2.19090909,57.1324444 C2.19090909,60.1516011 4.63299227,62.5991111 7.64545455,62.5991111 L62.3454545,62.5991111 C65.3579168,62.5991111 67.8,60.1516011 67.8,57.1324444 L67.8,38.5002222 C67.8000208,37.8999312 67.317121,37.4118913 66.7181818,37.4068889 Z" fill="#C1C9D1"></path>
                    <path d="M64.5454545,10.0006667 L5.45454545,10.0006667 C2.44208318,10.0006667 5.06424499e-14,12.4481767 5.02735264e-14,15.4673333 L5.02735264e-14,34.5551111 C-0.0067533621,36.7708504 1.32168106,38.7715285 3.36363636,39.6208889 C12.3506639,43.4537033 21.9588068,45.6148595 31.7181818,45.9986667 L38.3272727,45.9986667 C48.0713706,45.6101752 57.6637693,43.449096 66.6363636,39.6208889 C68.6702021,38.76167 69.9945453,36.7671534 70,34.5551111 L70,15.4764444 C70.0024137,14.0250163 69.4288057,12.6322065 68.4056183,11.6050362 C67.3824309,10.5778659 65.9936664,10.0006647 64.5454545,10.0006667 Z" fill="#DDE1E6"></path>
                    <path d="M48.1272727,34.1177778 C48.1222718,31.6994996 46.1674616,29.7403453 43.7545455,29.7353333 L26.2545455,29.7353333 C23.8416293,29.7403453 21.8868191,31.6994996 21.8818182,34.1177778 L21.8818182,44.9964444 C25.1399054,45.5367258 28.427818,45.8775056 31.7272727,46.0168889 L38.3363636,46.0168889 C41.6206812,45.8765838 44.8934144,45.5358039 48.1363636,44.9964444 L48.1272727,34.1177778 Z" fill="#ECF0F1"></path>
                    <path d="M36.0909091,49.4608889 L33.9090909,49.4608889 C32.6990852,49.4608889 31.7181818,48.4778057 31.7181818,47.2651111 L31.7181818,42.8826667 C31.7181818,41.6699721 32.6990852,40.6868889 33.9090909,40.6868889 L36.0909091,40.6868889 C37.3009148,40.6868889 38.2818182,41.6699721 38.2818182,42.8826667 L38.2818182,47.2651111 C38.2818182,48.4778057 37.3009148,49.4608889 36.0909091,49.4608889 Z" fill="#DDE1E6"></path>
                    <path d="M47.0363636,6.12844444 C46.8239623,6.12883656 46.6126421,6.09814239 46.4090909,6.03733333 C42.698337,4.98543146 38.8560952,4.4730169 35,4.51577778 C31.1591114,4.47737419 27.3324857,4.98974746 23.6363636,6.03733333 C22.8755478,6.30569993 22.0291341,6.13341252 21.4330568,5.58885049 C20.8369796,5.04428845 20.5876472,4.21552826 20.7840175,3.43149768 C20.9803878,2.6474671 21.5907004,2.03497381 22.3727273,1.83711111 C26.4790499,0.66780619 30.7313273,0.0940531773 35,0.133333333 C39.2808398,0.0905643127 43.5456107,0.664350679 47.6636364,1.83711111 C48.691815,2.15931901 49.3337161,3.18284431 49.1775663,4.25110538 C49.0214164,5.31936645 48.1135539,6.11535178 47.0363636,6.12844444 Z" fill="#AFB8BF"></path>
                    <path d="M37.1545455,40.696 L32.7818182,40.696 C32.1793257,40.696 31.6909091,41.185502 31.6909091,41.7893333 L31.6909091,43.9851111 C31.6909091,44.5674676 31.9217364,45.1259723 32.3326115,45.5377605 C32.7434867,45.9495487 33.300753,46.1808889 33.8818182,46.1808889 L36.0727273,46.1808889 C37.282733,46.1808889 38.2636364,45.1978057 38.2636364,43.9851111 L38.2636364,41.7893333 C38.263677,41.4961783 38.1462498,41.2152871 37.9377153,41.0097154 C37.7291807,40.8041437 37.4470098,40.6911141 37.1545455,40.696 Z" fill="#DDE1E6"></path>
                </g>
            </g>
        </g>
    </g>
</svg>