<?xml version="1.0" encoding="UTF-8"?>
<svg width="94px" height="112px" viewBox="0 0 94 112" version="1.1" xmlns="http://www.w3.org/2000/svg" xmlns:xlink="http://www.w3.org/1999/xlink">
    <!-- Generator: Sketch 51.2 (57519) - http://www.bohemiancoding.com/sketch -->
    <title>integration</title>
    <desc>Created with Sketch.</desc>
    <defs></defs>
    <g id="design" stroke="none" stroke-width="1" fill="none" fill-rule="evenodd">
        <g id="home" transform="translate(-604.000000, -1186.000000)" fill-rule="nonzero">
            <g id="integration" transform="translate(604.000000, 1186.000000)">
                <path d="M73.6028319,62.3881481 L48.1978761,62.3881481 L48.1978761,50.2755556 L45.0867257,50.2755556 L45.0867257,62.3881481 L19.6817699,62.3881481 C18.8226494,62.3881481 18.1261947,63.0827369 18.1261947,63.9395556 L18.1261947,77.5952593 L21.2373451,77.5952593 L21.2373451,65.4826667 L72.0472566,65.4826667 L72.0472566,77.5952593 L75.1584071,77.5952593 L75.1584071,63.9395556 C75.1584071,63.0827369 74.4619523,62.3881481 73.6028319,62.3881481 Z" id="Shape" fill="#DDE1E6"></path>
                <rect id="Rectangle-path" fill="#DDE1E6" x="37.159115" y="36.0391111" width="18.9164602" height="15.5638519"></rect>
                <path d="M62.6555752,53.9259259 L30.5874336,53.9259259 C29.3194269,53.9259259 28.2915044,52.9007575 28.2915044,51.6361481 C28.2915044,50.3715388 29.3194269,49.3463704 30.5874336,49.3463704 L62.6555752,49.3463704 C63.9235819,49.3463704 64.9515044,50.3715388 64.9515044,51.6361481 C64.9515044,52.9007575 63.9235819,53.9259259 62.6555752,53.9259259 Z" id="Shape" fill="#ECF0F1"></path>
                <path d="M75.699115,33.1851852 C75.699115,36.429037 73.0621239,39.0506667 68.1541593,39.0506667 L21.7530973,39.0506667 C20.1642478,39.0506667 17.5355752,36.4207407 17.5355752,33.1851852 L17.5355752,5.80740741 C17.567511,2.59069359 20.1913006,-0.000157678147 23.4168142,0 L69.8261947,0 C73.0710642,0.00457733922 75.6991183,2.62930265 75.699115,5.86548148 L75.699115,33.1851852 Z" id="Shape" fill="#C1C9D1"></path>
                <rect id="Rectangle-path" fill="#DDE1E6" x="67.1975221" y="99.9205926" width="12.8023009" height="10.528"></rect>
                <path d="M84.4585841,112 L62.7470796,112 C61.8879592,112 61.1915044,111.305411 61.1915044,110.448593 C61.1915044,109.591774 61.8879592,108.897185 62.7470796,108.897185 L84.4502655,108.897185 C85.309386,108.897185 86.0058407,109.591774 86.0058407,110.448593 C86.0058407,111.305411 85.309386,112 84.4502655,112 L84.4585841,112 Z" id="Shape" fill="#ECF0F1"></path>
                <path d="M93.2929204,98.0124444 C93.2929204,100.207183 91.5089534,101.98637 89.3083186,101.98637 L57.8973451,101.98637 C56.840563,101.98637 55.827064,101.56769 55.0798062,100.822434 C54.3325484,100.077179 53.9127434,99.0663951 53.9127434,98.0124444 L53.9127434,79.5034074 C53.9038701,78.4437187 54.3197547,77.4243888 55.0679764,76.6719404 C55.8161981,75.9194919 56.8347725,75.4962593 57.8973451,75.4962963 L89.3083186,75.4962963 C90.3651007,75.4962963 91.3785997,75.9149766 92.1258575,76.6602323 C92.8731153,77.4054879 93.2929204,78.4162715 93.2929204,79.4702222 L93.2929204,97.9875556 L93.2929204,98.0124444 Z" id="Shape" fill="#C1C9D1"></path>
                <rect id="Rectangle-path" fill="#DDE1E6" x="13.2847788" y="99.9205926" width="12.8023009" height="10.528"></rect>
                <path d="M30.5375221,112 L8.83433628,112 C7.97521581,112 7.27876106,111.305411 7.27876106,110.448593 C7.27876106,109.591774 7.97521581,108.897185 8.83433628,108.897185 L30.5375221,108.897185 C31.3966426,108.897185 32.0930973,109.591774 32.0930973,110.448593 C32.0930973,111.305411 31.3966426,112 30.5375221,112 Z" id="Shape" fill="#ECF0F1"></path>
                <path d="M39.3718584,98.0124444 C39.3718584,100.207183 37.5878914,101.98637 35.3872566,101.98637 L3.98460177,101.98637 C1.78396698,101.98637 -5.89290986e-16,100.207183 -8.58796541e-16,98.0124444 L-8.58796541e-16,79.5034074 C-0.00887325818,78.4437187 0.407011332,77.4243888 1.15523302,76.6719404 C1.90345471,75.9194919 2.92202918,75.4962593 3.98460177,75.4962963 L35.3872566,75.4962963 C37.5878914,75.4962963 39.3718584,77.2754835 39.3718584,79.4702222 L39.3718584,98.0124444 Z" id="Shape" fill="#C1C9D1"></path>
                <path d="M57.3316814,18.4841481 L56.1421239,18.4841481 C55.9110879,17.4919509 55.5176109,16.5445302 54.9775221,15.68 L55.8093805,14.8503704 C55.9521256,14.7086852 56.0323762,14.5161119 56.0323762,14.3152593 C56.0323762,14.1144066 55.9521256,13.9218333 55.8093805,13.7801481 L53.8711504,11.8471111 C53.7290847,11.7047485 53.535994,11.6247129 53.3346018,11.6247129 C53.1332095,11.6247129 52.9401189,11.7047485 52.7980531,11.8471111 L51.9661947,12.6767407 C51.099342,12.138099 50.149376,11.7456762 49.1545133,11.5152593 L49.1545133,10.3288889 C49.1545133,9.91193436 48.8155968,9.57392593 48.3975221,9.57392593 L45.6690265,9.57392593 C45.2509519,9.57392593 44.9120354,9.91193436 44.9120354,10.3288889 L44.9120354,11.5152593 C43.9171727,11.7456762 42.9672067,12.138099 42.100354,12.6767407 L41.2684956,11.8471111 C41.1264298,11.7047485 40.9333391,11.6247129 40.7319469,11.6247129 C40.5305547,11.6247129 40.337464,11.7047485 40.1953982,11.8471111 L38.2654867,13.7718519 C38.1227417,13.913537 38.042491,14.1061103 38.042491,14.306963 C38.042491,14.5078156 38.1227417,14.7003889 38.2654867,14.8420741 L39.0973451,15.6717037 C38.5571208,16.5361643 38.1636342,17.4836082 37.9327434,18.4758519 L36.7431858,18.4758519 C36.3251112,18.4758519 35.9861947,18.8138603 35.9861947,19.2308148 L35.9861947,21.9602963 C35.9861947,22.3772508 36.3251112,22.7152593 36.7431858,22.7152593 L37.9327434,22.7152593 C38.1629118,23.7103339 38.5564159,24.660623 39.0973451,25.5277037 L38.2654867,26.3573333 C38.1227417,26.4990185 38.042491,26.6915918 38.042491,26.8924444 C38.042491,27.0932971 38.1227417,27.2858704 38.2654867,27.4275556 L40.2037168,29.3605926 C40.3457826,29.5029552 40.5388733,29.5829908 40.7402655,29.5829908 C40.9416577,29.5829908 41.1347484,29.5029552 41.2768142,29.3605926 L42.1086726,28.530963 C42.9761322,29.0665658 43.9260482,29.4561651 44.920354,29.6841481 L44.920354,30.8705185 C44.920354,31.287473 45.2592705,31.6254815 45.6773451,31.6254815 L48.4141593,31.6254815 C48.832234,31.6254815 49.1711504,31.287473 49.1711504,30.8705185 L49.1711504,29.6841481 C50.1660132,29.4537312 51.1159792,29.0613084 51.9828319,28.5226667 L52.8146903,29.3522963 C52.956756,29.4946589 53.1498467,29.5746945 53.3512389,29.5746945 C53.5526312,29.5746945 53.7457218,29.4946589 53.8877876,29.3522963 L55.8260177,27.4192593 C55.9687627,27.2775741 56.0490134,27.0850008 56.0490134,26.8841481 C56.0490134,26.6832955 55.9687627,26.4907222 55.8260177,26.349037 L54.9941593,25.5194074 C55.5339776,24.6547386 55.9274356,23.7073638 56.1587611,22.7152593 L57.3483186,22.7152593 C57.7663933,22.7152593 58.1053097,22.3772508 58.1053097,21.9602963 L58.1053097,19.2391111 C58.1053589,19.0359742 58.023325,18.8413884 57.8777427,18.6993186 C57.7321604,18.5572488 57.5353149,18.4796836 57.3316814,18.4841481 Z M47.0415929,24.416 C44.9282484,24.416 43.2150442,22.7073859 43.2150442,20.5997037 C43.2150442,18.4920215 44.9282484,16.7834074 47.0415929,16.7834074 C49.1549374,16.7834074 50.8681416,18.4920215 50.8681416,20.5997037 C50.8681416,22.7073859 49.1549374,24.416 47.0415929,24.416 Z" id="Shape" fill="#ECF0F1"></path>
                <path d="M47.0415929,15.090963 C43.9910261,15.090963 41.5180531,17.5573102 41.5180531,20.5997037 C41.5180531,23.6420972 43.9910261,26.1084444 47.0415929,26.1084444 C50.0921597,26.1084444 52.5651327,23.6420972 52.5651327,20.5997037 C52.5651327,19.1386948 51.98319,17.7375251 50.9473254,16.7044358 C49.9114607,15.6713465 48.5065268,15.090963 47.0415929,15.090963 Z M47.0415929,24.416 C44.9282484,24.416 43.2150442,22.7073859 43.2150442,20.5997037 C43.2150442,18.4920215 44.9282484,16.7834074 47.0415929,16.7834074 C49.1549374,16.7834074 50.8681416,18.4920215 50.8681416,20.5997037 C50.8681416,22.7073859 49.1549374,24.416 47.0415929,24.416 Z" id="Shape" fill="#DDE1E6"></path>
            </g>
        </g>
    </g>
</svg>