<?xml version="1.0" encoding="UTF-8"?>
<svg width="54px" height="49px" viewBox="0 0 54 49" version="1.1" xmlns="http://www.w3.org/2000/svg" xmlns:xlink="http://www.w3.org/1999/xlink">
    <!-- Generator: sketchtool 52.4 (67378) - http://www.bohemiancoding.com/sketch -->
    <title>58A823F2-AB81-4409-92B2-761ECE1CEAF8</title>
    <desc>Created with sketchtool.</desc>
    <g id="desktop" stroke="none" stroke-width="1" fill="none" fill-rule="evenodd">
        <g id="home-new-hover" transform="translate(-1352.000000, -699.000000)" fill-rule="nonzero">
            <g id="partners-color" transform="translate(1352.000000, 699.000000)">
                <g id="Shape">
                    <path d="M34.9948052,8.60740741 C34.2935065,8.60740741 33.7324675,8.22474074 33.7324675,7.75703704 L33.7324675,4.35555556 C33.7324675,3.88785185 34.3005195,3.50518519 34.9948052,3.50518519 C35.6890909,3.50518519 36.2571429,3.88785185 36.2571429,4.35555556 L36.2571429,7.76412346 C36.2571429,8.246 35.6890909,8.60740741 34.9948052,8.60740741 Z" fill="#C1C9D1"></path>
                    <path d="M18.9350649,8.60740741 C18.2337662,8.60740741 17.6727273,8.22474074 17.6727273,7.75703704 L17.6727273,4.35555556 C17.6727273,3.88785185 18.2407792,3.50518519 18.9350649,3.50518519 C19.6293506,3.50518519 20.1974026,3.88785185 20.1974026,4.35555556 L20.1974026,7.76412346 C20.2254545,8.246 19.6363636,8.60740741 18.9350649,8.60740741 Z" fill="#C1C9D1"></path>
                    <path d="M51.4683117,29.0942469 L2.53168831,29.0942469 C2.06690842,29.0942469 1.69012987,29.4749707 1.69012987,29.9446173 L1.69012987,44.4363457 C1.69012987,46.7845786 3.57402261,48.6881975 5.89792208,48.6881975 L48.0950649,48.6881975 C50.4189644,48.6881975 52.3028571,46.7845786 52.3028571,44.4363457 L52.3028571,29.9446173 C52.3028732,29.4777243 51.9303505,29.0981377 51.4683117,29.0942469 Z" fill="#C1C9D1"></path>
                    <path d="M49.7922078,7.7782963 L4.20779221,7.7782963 C1.88389274,7.7782963 3.90670366e-14,9.68191521 3.87824403e-14,12.0301481 L3.87824403e-14,26.8761975 C-0.00520973648,28.5995503 1.01958254,30.1556333 2.59480519,30.8162469 C9.527655,33.7973248 16.939651,35.478224 24.4683117,35.7767407 L29.5667532,35.7767407 C37.0836287,35.4745807 44.4834792,33.7937413 51.4051948,30.8162469 C52.9741559,30.1479655 53.9957921,28.5966749 54,26.8761975 L54,12.0372346 C54.001862,10.908346 53.5593644,9.82504947 52.7700484,9.02613925 C51.9807324,8.22722904 50.9093998,7.77829473 49.7922078,7.7782963 Z" fill="#656D88"></path>
                    <path d="M37.1267532,26.5360494 C37.1228954,24.6551664 35.6148989,23.1313797 33.7535065,23.1274815 L20.2535065,23.1274815 C18.3921141,23.1313797 16.8841176,24.6551664 16.8802597,26.5360494 L16.8802597,34.9972346 C19.3936413,35.4174534 21.930031,35.6825044 24.4753247,35.7909136 L29.5737662,35.7909136 C32.1073826,35.6817874 34.6320625,35.4167364 37.1337662,34.9972346 L37.1267532,26.5360494 Z" fill="#0461B1"></path>
                    <path d="M27.8415584,38.4695802 L26.1584416,38.4695802 C25.2250086,38.4695802 24.4683117,37.70496 24.4683117,36.7617531 L24.4683117,33.3531852 C24.4683117,32.4099783 25.2250086,31.645358 26.1584416,31.645358 L27.8415584,31.645358 C28.7749914,31.645358 29.5316883,32.4099783 29.5316883,33.3531852 L29.5316883,36.7617531 C29.5316883,37.70496 28.7749914,38.4695802 27.8415584,38.4695802 Z" fill="#EA5340"></path>
                    <path d="M36.2851948,4.7665679 C36.1213424,4.76687288 35.9583239,4.74299964 35.8012987,4.6957037 C32.9387171,3.8775578 29.974702,3.47901315 27,3.5122716 C24.0370288,3.48240215 21.0850604,3.88091469 18.2337662,4.6957037 C17.6468512,4.90443328 16.9939035,4.77043196 16.5340724,4.34688371 C16.0742414,3.92333546 15.8818992,3.2787442 16.0333849,2.66894264 C16.1848706,2.05914108 16.6556831,1.58275741 17.258961,1.4288642 C20.4266956,0.519404815 23.7070239,0.0731524712 27,0.103703704 C30.3023621,0.0704389099 33.5923282,0.516717195 36.7690909,1.4288642 C37.5622573,1.67947034 38.0574382,2.47554557 37.9369797,3.3064153 C37.8165213,4.13728502 37.1161701,4.75638472 36.2851948,4.7665679 Z" fill="#0461B1"></path>
                    <path d="M28.6620779,31.6524444 L25.2888312,31.6524444 C24.8240513,31.6524444 24.4472727,32.0331682 24.4472727,32.5028148 L24.4472727,34.210642 C24.4472727,34.6635859 24.6253395,35.0979784 24.9423003,35.4182581 C25.2592611,35.7385379 25.6891523,35.9184691 26.1374026,35.9184691 L27.8275325,35.9184691 C28.7609654,35.9184691 29.5176623,35.1538489 29.5176623,34.210642 L29.5176623,32.5028148 C29.5176937,32.2748054 29.427107,32.0563344 29.2662375,31.8964453 C29.105368,31.7365562 28.8876933,31.6486443 28.6620779,31.6524444 Z" fill="#EA5340"></path>
                </g>
            </g>
        </g>
    </g>
</svg>