<?xml version="1.0" encoding="UTF-8"?>
<svg width="120px" height="123px" viewBox="0 0 120 123" version="1.1" xmlns="http://www.w3.org/2000/svg" xmlns:xlink="http://www.w3.org/1999/xlink">
    <!-- Generator: Sketch 51.2 (57519) - http://www.bohemiancoding.com/sketch -->
    <title>features</title>
    <desc>Created with Sketch.</desc>
    <defs></defs>
    <g id="design" stroke="none" stroke-width="1" fill="none" fill-rule="evenodd">
        <g id="home" transform="translate(-1471.000000, -579.000000)" fill-rule="nonzero">
            <g id="features" transform="translate(1471.000000, 579.000000)">
                <path d="M86.3729323,69.9394161 L81.5639098,69.9394161 C80.6293047,65.9367176 79.0380508,62.1146844 76.8541353,58.6270073 L80.3007519,55.2422628 C81.4937517,54.0510261 81.4937517,52.1240104 80.3007519,50.9327737 L72.4240602,43.0948905 C71.2269252,41.9077686 69.2903681,41.9077686 68.0932331,43.0948905 L64.6917293,46.5245255 C61.1867079,44.3515163 57.3457753,42.7681129 53.3233083,41.8379562 L53.3233083,37.0526277 C53.325714,36.2423084 53.0032867,35.4644875 52.4274648,34.8915027 C51.8516429,34.3185179 51.0699707,33.9976791 50.2556391,34.000073 L39.1849624,34.000073 C38.3659573,33.9904524 37.5772918,34.3080978 36.9955891,34.8818718 C36.4138863,35.4556457 36.0877524,36.2376048 36.0902256,37.0526277 L36.0902256,41.8379562 C32.0645787,42.7670214 28.2205019,44.3504643 24.712782,46.5245255 L21.3473684,43.0948905 C20.1502334,41.9077686 18.2136763,41.9077686 17.0165414,43.0948905 L9.18496241,50.8878832 C7.99196261,52.0791199 7.99196261,54.0061356 9.18496241,55.1973723 L12.5864662,58.5821168 C10.3975472,62.0833677 8.80611518,65.9209973 7.87669173,69.9394161 L3.06766917,69.9394161 C2.2533376,69.9370222 1.47166539,70.2578609 0.895843506,70.8308457 C0.320021617,71.4038305 -0.00240572203,72.1816514 9.03709616e-16,72.9919708 L9.03709616e-16,84.0081022 C-0.0096681846,84.8230721 0.309549949,85.6078518 0.886164905,86.1866885 C1.46277986,86.7655252 2.24861071,87.0900522 3.06766917,87.0875912 L7.87669173,87.0875912 C8.81035709,91.0934037 10.4016403,94.9185407 12.5864662,98.4089781 L9.18496241,101.793723 C7.99196261,102.984959 7.99196261,104.911975 9.18496241,106.103212 L17.0165414,113.896204 C18.2136763,115.083326 20.1502334,115.083326 21.3473684,113.896204 L24.7488722,110.51146 C28.2481976,112.668605 32.0795584,114.2397 36.0902256,115.162117 L36.0902256,119.947445 C36.087828,120.756206 36.4090186,121.532661 36.9828862,122.105385 C37.5567538,122.67811 38.336103,123.000004 39.1488722,123 L50.2556391,123 C51.0684083,123.000004 51.8477575,122.67811 52.4216251,122.105385 C52.9954927,121.532661 53.3166833,120.756206 53.3142857,119.947445 L53.3142857,115.162117 C57.3399326,114.233052 61.1840094,112.649609 64.6917293,110.475547 L68.0932331,113.860292 C69.2903681,115.047414 71.2269252,115.047414 72.4240602,113.860292 L80.3007519,106.067299 C81.4937517,104.876063 81.4937517,102.949047 80.3007519,101.75781 L76.8992481,98.3730657 C79.0634805,94.8901821 80.6392643,91.0778009 81.5639098,87.0875912 L86.3729323,87.0875912 C88.0621762,87.0875912 89.4315789,85.7249356 89.4315789,84.0440146 L89.4315789,72.9919708 C89.4339765,72.1832096 89.1127859,71.4067555 88.5389183,70.8340309 C87.9650507,70.2613063 87.1857015,69.9394125 86.3729323,69.9394161 Z M44.724812,93.9019708 C38.4618219,93.9056026 32.8134967,90.1542515 30.4142248,84.3975541 C28.0149529,78.6408566 29.3373595,72.0128072 33.7646721,67.6047393 C38.1919847,63.1966713 44.8520802,61.8769167 50.638679,64.2610113 C56.4252778,66.6451059 60.1984952,72.2634141 60.1984962,78.4955474 C60.1984977,87.0007752 53.2721511,93.8970144 44.724812,93.9019708 Z" id="Shape" fill="#DDE1E6"></path>
                <path d="M44.724812,56.2478102 C32.3768877,56.2478102 22.3669173,66.2084615 22.3669173,78.4955474 C22.3669173,90.7826334 32.3768877,100.743285 44.724812,100.743285 C57.0727363,100.743285 67.0827068,90.7826334 67.0827068,78.4955474 C67.0827068,72.5950807 64.7271496,66.9362817 60.534231,62.7640216 C56.3413124,58.5917615 50.6544944,56.2478102 44.724812,56.2478102 Z M44.724812,93.9019708 C38.4618219,93.9056026 32.8134967,90.1542515 30.4142248,84.3975541 C28.0149529,78.6408566 29.3373595,72.0128072 33.7646721,67.6047393 C38.1919847,63.1966713 44.8520802,61.8769167 50.638679,64.2610113 C56.4252778,66.6451059 60.1984952,72.2634141 60.1984962,78.4955474 C60.1984977,87.0007752 53.2721511,93.8970144 44.724812,93.9019708 Z" id="Shape" fill="#C1C9D1"></path>
                <path d="M118.042105,18.1716788 L115.606015,18.1716788 C115.133183,16.1480553 114.328414,14.2158113 113.22406,12.4526277 L114.947368,10.7737226 C115.551945,10.1709141 115.551945,9.19485233 114.947368,8.5920438 L110.977444,4.62372263 C110.37165,4.02212526 109.390756,4.02212526 108.784962,4.62372263 L107.061654,6.33854015 C105.289665,5.23977384 103.347879,4.43897973 101.314286,3.96832117 L101.314286,1.54423358 C101.314343,0.698340327 100.630475,0.00983596611 99.7804511,0 L94.1774436,0 C93.3203641,1.19221959e-16 92.6255639,0.691376922 92.6255639,1.54423358 L92.6255639,3.96832117 C90.5919206,4.4388234 88.6501093,5.23962784 86.8781955,6.33854015 L85.1548872,4.62372263 C84.5490939,4.02212526 83.5681993,4.02212526 82.962406,4.62372263 L79.0105263,8.55613139 C78.4059502,9.15893992 78.4059502,10.1350017 79.0105263,10.7378102 L80.7338346,12.4526277 C79.6285978,14.215359 78.8237657,16.1477533 78.3518797,18.1716788 L75.9157895,18.1716788 C75.4978754,18.1715664 75.0975792,18.3391824 74.8054853,18.6365966 C74.5133913,18.9340108 74.3541908,19.3360822 74.3639098,19.7518248 L74.3639098,25.3272263 C74.3639098,26.1800829 75.05871,26.8714599 75.9157895,26.8714599 L78.3518797,26.8714599 C78.8247116,28.8950834 79.6294811,30.8273274 80.7338346,32.5905109 L79.0105263,34.3053285 C78.4059502,34.908137 78.4059502,35.8841988 79.0105263,36.4870073 L83.0075188,40.4014599 C83.6133121,41.0030572 84.5942067,41.0030572 85.2,40.4014599 L86.9233083,38.6866423 C88.6953729,39.7852628 90.6371342,40.5860466 92.6706767,41.0568613 L92.6706767,43.4809489 C92.6682583,43.8912381 92.8309828,44.2854197 93.1225425,44.575543 C93.4141023,44.8656662 93.8102357,45.0275889 94.2225564,45.0251825 L99.8255639,45.0251825 C100.682643,45.0251825 101.377444,44.3338056 101.377444,43.4809489 L101.377444,41.0568613 C103.411087,40.5863591 105.352898,39.7855546 107.124812,38.6866423 L108.793985,40.4014599 C109.398725,40.9971083 110.372704,40.9971083 110.977444,40.4014599 L114.938346,36.460073 C115.542922,35.8572645 115.542922,34.8812027 114.938346,34.2783942 L113.215038,32.5635766 C114.318805,30.8000932 115.123533,28.8679485 115.596992,26.8445255 L118.033083,26.8445255 C118.445403,26.846932 118.841537,26.6850093 119.133097,26.394886 C119.424656,26.1047628 119.587381,25.7105812 119.584962,25.300292 L119.584962,19.7518248 C119.594651,19.3376349 119.436678,18.9369426 119.146544,18.6397963 C118.85641,18.3426501 118.458452,18.1739754 118.042105,18.1716788 Z M96.9744361,30.2921168 C92.6541575,30.2921168 89.1518797,26.8070947 89.1518797,22.5081022 C89.1518797,18.2091096 92.6541575,14.7240876 96.9744361,14.7240876 C101.294715,14.7240876 104.796992,18.2091096 104.796992,22.5081022 C104.79202,26.8050437 101.292654,30.2871692 96.9744361,30.2921168 Z" id="Shape" fill="#DDE1E6"></path>
                <path d="M96.9744361,11.249562 C92.4010647,11.2459301 88.2759872,13.984494 86.5233041,18.1878784 C84.770621,22.3912629 85.735623,27.2313719 88.9681947,30.450586 C92.2007664,33.6698 97.0640688,34.6339115 101.289664,32.8932204 C105.515259,31.1525293 108.270675,27.0499639 108.270677,22.4991241 C108.270679,16.289667 103.214637,11.2545177 96.9744361,11.249562 Z M96.9744361,30.2921168 C92.6541575,30.2921168 89.1518797,26.8070947 89.1518797,22.5081022 C89.1518797,18.2091096 92.6541575,14.7240876 96.9744361,14.7240876 C101.294715,14.7240876 104.796992,18.2091096 104.796992,22.5081022 C104.79202,26.8050437 101.292654,30.2871692 96.9744361,30.2921168 Z" id="Shape" fill="#C1C9D1"></path>
            </g>
        </g>
    </g>
</svg>