<?xml version="1.0" encoding="UTF-8"?>
<svg width="139px" height="124px" viewBox="0 0 139 124" version="1.1" xmlns="http://www.w3.org/2000/svg" xmlns:xlink="http://www.w3.org/1999/xlink">
    <!-- Generator: Sketch 51.2 (57519) - http://www.bohemiancoding.com/sketch -->
    <title>about color</title>
    <desc>Created with Sketch.</desc>
    <defs></defs>
    <g id="design" stroke="none" stroke-width="1" fill="none" fill-rule="evenodd">
        <g id="home-hovers-active" transform="translate(-558.000000, -578.000000)" fill-rule="nonzero">
            <g id="about-color" transform="translate(558.000000, 578.000000)">
                <path d="M138.034491,33.5881879 C137.76371,32.5677888 137.095154,31.6984924 136.178383,31.1747651 L84.531976,1.36483221 C83.6158621,0.829286949 82.5237292,0.681873003 81.4983815,0.955363623 C80.4730339,1.22885424 79.5994537,1.90058217 79.0718563,2.82120805 L34.5002994,80.0673826 C33.4071393,81.9683269 34.0586374,84.395271 35.9568862,85.4934228 L87.5616766,115.303356 C89.4628964,116.396357 91.8901921,115.744954 92.988503,113.84698 L137.63497,36.6174497 C138.168838,35.7020513 138.312778,34.6106681 138.034491,33.5881879 Z" id="Shape" fill="#E1F0FF"></path>
                <path d="M77.9149102,13.5983893 L72.9208982,13.5983893 L34.5002994,80.0673826 C33.4071393,81.9683269 34.0586374,84.395271 35.9568862,85.4934228 L86.6877246,114.77906 L86.6877246,22.3616107 C86.6785515,17.5223729 82.7548556,13.6029675 77.9149102,13.5983893 Z" id="Shape" fill="#D1D6DE"></path>
                <path d="M113.405689,37.5412081 L90.3999401,24.2257718 C89.4491795,23.6237343 89.143038,22.3787706 89.7061938,21.4045629 C90.2693495,20.4303553 91.5010845,20.0741272 92.4974251,20.5973154 L115.503174,33.9127517 C116.323237,34.3882115 116.722419,35.3545328 116.476953,36.27003 C116.231486,37.1855271 115.402392,37.8226135 114.454431,37.8241611 C114.086013,37.8239514 113.724202,37.726334 113.405689,37.5412081 Z" id="Shape" fill="#0461B1"></path>
                <path d="M111.874192,59.0872483 C111.505773,59.0870387 111.143962,58.9894212 110.825449,58.8042953 L73.245509,37.141745 C72.2947484,36.5397074 71.9886069,35.2947437 72.5517626,34.3205361 C73.1149184,33.3463284 74.3466534,32.9901003 75.342994,33.5132886 L112.906287,55.2008054 C113.726351,55.6762652 114.125533,56.6425865 113.880066,57.5580837 C113.6346,58.4735808 112.805506,59.1106672 111.857545,59.1122148 L111.874192,59.0872483 Z" id="Shape" fill="#656D88"></path>
                <path d="M106.971737,67.6091275 C106.603318,67.6089179 106.241507,67.5113004 105.922994,67.3261745 L68.3513772,45.6386577 C67.6700107,45.2808654 67.2393427,44.5787058 67.2293227,43.8092639 C67.2193028,43.039822 67.6315403,42.326689 68.3033589,41.9512802 C68.9751774,41.5758713 69.7986665,41.5984865 70.4488623,42.0102013 L108.012156,63.6977181 C108.832219,64.1731779 109.231401,65.1394993 108.985935,66.0549964 C108.740468,66.9704935 107.911374,67.60758 106.963413,67.6091275 L106.971737,67.6091275 Z" id="Shape" fill="#656D88"></path>
                <path d="M102.060958,76.1060403 C101.69254,76.1058306 101.330729,76.0082132 101.012216,75.8230872 L63.4489222,54.1355705 C62.4981616,53.5335329 62.1920201,52.2885692 62.7551758,51.3143616 C63.3183315,50.3401539 64.5500665,49.9839258 65.5464072,50.5071141 L103.109701,72.1946309 C103.929764,72.6700907 104.328946,73.636412 104.08348,74.5519092 C103.838013,75.4674063 103.008919,76.1044927 102.060958,76.1060403 Z" id="Shape" fill="#656D88"></path>
                <path d="M97.1501796,84.602953 C96.7817613,84.6027434 96.4199502,84.5051259 96.1014371,84.32 L58.5381437,62.6324832 C57.5873831,62.0304457 57.2812416,60.785482 57.8443974,59.8112743 C58.4075531,58.8370667 59.6392881,58.4808386 60.6356287,59.0040268 L98.2155689,80.7248322 C99.0356324,81.200292 99.4348145,82.1666134 99.1893478,83.0821105 C98.9438811,83.9976076 98.114787,84.6346941 97.1668263,84.6362416 L97.1501796,84.602953 Z" id="Shape" fill="#656D88"></path>
                <path d="M73.9946108,8.84644295 L12.0771856,8.84644295 C7.24699256,8.86474535 3.33846346,12.7801449 3.32934132,17.6096644 L3.32934132,114.604295 C3.33850175,119.44029 7.25713706,123.358358 12.0938323,123.367517 L73.9946108,123.367517 C78.8313061,123.358358 82.7499414,119.44029 82.7591018,114.604295 L82.7591018,17.6096644 C82.7499414,12.7736698 78.8313061,8.85560206 73.9946108,8.84644295 Z" id="Shape" fill="#0461B1"></path>
                <path d="M73.9946108,8.84644295 L66.461976,8.84644295 C71.3019215,8.85102122 75.2256173,12.7704266 75.2347904,17.6096644 L75.2347904,114.604295 C75.22563,119.44029 71.3069947,123.358358 66.4702994,123.367517 L73.9946108,123.367517 C78.8313061,123.358358 82.7499414,119.44029 82.7591018,114.604295 C82.7591018,106.562225 82.7591018,100.530672 82.7591018,96.5096367 C82.7591018,78.9763095 82.7591018,52.6763188 82.7591018,17.6096644 C82.7499414,12.7736698 78.8313061,8.85560206 73.9946108,8.84644295 Z" id="Shape" fill="#065396"></path>
                <path d="M0,28.578255 L0,35.1527517 C0,35.7602685 0.241377246,36.2512752 0.541017964,36.2512752 L9.44700599,36.2512752 C9.74664671,36.2512752 9.98802395,35.7602685 9.98802395,35.1527517 L9.98802395,28.578255 C9.98802395,27.9707383 9.74664671,27.4797315 9.44700599,27.4797315 L0.541017964,27.4797315 C0.241377246,27.4630872 0,27.9707383 0,28.578255 Z" id="Shape" fill="#EA5340"></path>
                <path d="M0,62.8322148 L0,69.4067114 C0,70.0142282 0.241377246,70.5052349 0.541017964,70.5052349 L9.44700599,70.5052349 C9.74664671,70.5052349 9.98802395,70.0142282 9.98802395,69.4067114 L9.98802395,62.8322148 C9.98802395,62.224698 9.74664671,61.7336913 9.44700599,61.7336913 L0.541017964,61.7336913 C0.241377246,61.7420134 0,62.2330201 0,62.8322148 Z" id="Shape" fill="#EA5340"></path>
                <path d="M0,97.0944966 L0,103.668993 C0,104.27651 0.241377246,104.767517 0.541017964,104.767517 L9.44700599,104.767517 C9.74664671,104.767517 9.98802395,104.27651 9.98802395,103.668993 L9.98802395,97.0944966 C9.98802395,96.4869799 9.74664671,95.9959732 9.44700599,95.9959732 L0.541017964,95.9959732 C0.241377246,95.9959732 0,96.4869799 0,97.0944966 Z" id="Shape" fill="#EA5340"></path>
                <path d="M58.4882036,44.2072483 L27.5919162,44.2072483 C26.7598843,44.2072483 26.0853892,43.5328509 26.0853892,42.7009396 L26.0853892,31.7989262 C26.0853892,30.9670148 26.7598843,30.2926174 27.5919162,30.2926174 L58.4882036,30.2926174 C58.8877594,30.2926174 59.2709504,30.4513174 59.553479,30.7338051 C59.8360076,31.0162927 59.9947305,31.3994283 59.9947305,31.7989262 L59.9947305,42.7009396 C59.9947305,43.1004375 59.8360076,43.483573 59.553479,43.7660607 C59.2709504,44.0485484 58.8877594,44.2072483 58.4882036,44.2072483 Z" id="Shape" fill="#065396"></path>
            </g>
        </g>
    </g>
</svg>