<?xml version="1.0" encoding="UTF-8"?>
<svg width="139px" height="124px" viewBox="0 0 139 124" version="1.1" xmlns="http://www.w3.org/2000/svg" xmlns:xlink="http://www.w3.org/1999/xlink">
    <!-- Generator: Sketch 51.2 (57519) - http://www.bohemiancoding.com/sketch -->
    <title>about_1</title>
    <desc>Created with Sketch.</desc>
    <defs></defs>
    <g id="design" stroke="none" stroke-width="1" fill="none" fill-rule="evenodd">
        <g id="home" transform="translate(-557.000000, -578.000000)" fill-rule="nonzero">
            <g id="about_1" transform="translate(557.000000, 578.000000)">
                <path d="M138.860639,32.9407918 C138.588648,31.9149884 137.917105,31.041088 136.996238,30.514587 L85.1190683,0.546774131 C84.1988611,0.00839249873 83.1018483,-0.139802184 82.0719193,0.135136903 C81.0419903,0.41007599 80.1645068,1.08536154 79.6345521,2.01086326 L34.863844,79.6661505 C33.7657995,81.5771627 34.4202086,84.0169604 36.326939,85.1209283 L88.162306,115.088741 C90.0720206,116.187532 92.5101618,115.532678 93.6133801,113.624652 L138.459333,35.9860972 C138.995586,35.0658507 139.140169,33.9686873 138.860639,32.9407918 Z" id="Shape" fill="#DDE1E6"></path>
                <path d="M78.3056258,12.5675676 L73.3082569,12.5675676 L34.8618316,79.7168453 C33.7679367,81.6372451 34.4198727,84.089028 36.3193975,85.198419 L87.0843373,114.783784 L87.0843373,21.4204772 C87.0751581,16.5317117 83.1488247,12.5721927 78.3056258,12.5675676 Z" id="Shape" fill="#D1D6DE"></path>
                <path d="M115.095424,36.8648649 C114.720103,36.8646537 114.351512,36.766327 114.02703,36.5798559 L90.5901927,23.167668 C89.6216165,22.561256 89.3097384,21.3072462 89.8834467,20.3259599 C90.457155,19.3446735 91.7119707,18.985857 92.7269811,19.5128468 L116.163819,32.9250347 C116.999249,33.4039493 117.405911,34.377292 117.155845,35.2994412 C116.905778,36.2215905 116.061148,36.8633061 115.095424,36.8648649 Z" id="Shape" fill="#C1C9D1"></path>
                <path d="M112.630012,58.6235535 C112.259952,58.6233428 111.89653,58.525222 111.576598,58.3391417 L73.8292702,36.5649073 C72.8742747,35.9597659 72.5667697,34.7083836 73.1324338,33.7291533 C73.6980979,32.749923 74.9353193,32.3918584 75.9360978,32.917744 L113.666705,54.7170735 C114.490421,55.1949846 114.891381,56.1662879 114.644821,57.086505 C114.398261,58.0067221 113.565474,58.6470931 112.613291,58.6486486 L112.630012,58.6235535 Z" id="Shape" fill="#C1C9D1"></path>
                <path d="M107.604903,67.027027 C107.236142,67.026817 106.873994,66.9290165 106.555184,66.7435433 L68.9485794,45.0153499 C68.2665783,44.6568866 67.8355093,43.95341 67.82548,43.1825249 C67.8154507,42.4116399 68.2280721,41.6971693 68.9005163,41.3210564 C69.5729604,40.9449434 70.3972164,40.967601 71.0480177,41.3800881 L108.646291,63.1082815 C109.467119,63.5846331 109.866672,64.5527668 109.620977,65.469981 C109.375282,66.3871952 108.545416,67.0254766 107.596572,67.027027 L107.604903,67.027027 Z" id="Shape" fill="#C1C9D1"></path>
                <path d="M102.565098,75.4054054 C102.195039,75.4051947 101.831616,75.307074 101.511684,75.1209936 L63.7810774,53.3216641 C62.826082,52.7165227 62.5185769,51.4651404 63.084241,50.4859101 C63.6499051,49.5066798 64.8871265,49.1486151 65.887905,49.6745007 L103.618512,71.4738302 C104.442228,71.9517414 104.843188,72.9230447 104.596628,73.8432618 C104.350068,74.7634789 103.517281,75.4038499 102.565098,75.4054054 Z" id="Shape" fill="#C1C9D1"></path>
                <path d="M97.5251272,84.5882045 C97.1552156,84.587994 96.7919379,84.4899995 96.4721339,84.3041586 L58.7565898,62.5328764 C57.8019756,61.9285135 57.4945933,60.6787413 58.0600316,59.7007709 C58.6254699,58.7228005 59.8621974,58.3651965 60.8625764,58.8904055 L98.5948346,80.6951049 C99.418222,81.1724011 99.8190221,82.1424547 99.5725605,83.0614879 C99.3260989,83.980521 98.4936442,84.6200681 97.5418413,84.6216216 L97.5251272,84.5882045 Z" id="Shape" fill="#C1C9D1"></path>
                <path d="M74.1200312,8.37837838 L12.1102852,8.37837838 C7.27289017,8.39685666 3.35853334,12.3498833 3.34939759,17.2258144 L3.34939759,115.152564 C3.35857168,120.035033 7.2830498,123.990753 12.1269567,124 L74.1200312,124 C78.9639381,123.990753 82.8884163,120.035033 82.8975904,115.152564 L82.8975904,17.2258144 C82.8884163,12.3433458 78.9639381,8.3876255 74.1200312,8.37837838 Z" id="Shape" fill="#DDE1E6"></path>
                <path d="M74.7285157,8.37837838 L66.9879518,8.37837838 C71.961498,8.38300065 75.9935027,12.3400715 76.002929,17.2258144 L76.002929,115.152564 C75.9935157,120.035033 71.9667112,123.990753 66.9965049,124 L74.7285157,124 C79.698722,123.990753 83.7255265,120.035033 83.7349398,115.152564 L83.7349398,17.2258144 C83.7255265,12.3433458 79.698722,8.3876255 74.7285157,8.37837838 Z" id="Shape" fill="#C1C9D1"></path>
                <path d="M0,27.9653896 L0,34.8728664 C0,35.5111522 0.242831325,36.027027 0.544277108,36.027027 L9.50391566,36.027027 C9.80536145,36.027027 10.0481928,35.5111522 10.0481928,34.8728664 L10.0481928,27.9653896 C10.0481928,27.3271038 9.80536145,26.811229 9.50391566,26.811229 L0.544277108,26.811229 C0.242831325,26.7937417 0,27.3271038 0,27.9653896 Z" id="Shape" fill="#C1C9D1"></path>
                <path d="M0,62.3163752 L0,69.2241653 C0,69.8624801 0.242831325,70.3783784 0.544277108,70.3783784 L9.50391566,70.3783784 C9.80536145,70.3783784 10.0481928,69.8624801 10.0481928,69.2241653 L10.0481928,62.3163752 C10.0481928,61.6780604 9.80536145,61.1621622 9.50391566,61.1621622 L0.544277108,61.1621622 C0.242831325,61.1709062 0,61.6868045 0,62.3163752 Z" id="Shape" fill="#C1C9D1"></path>
                <path d="M0,96.6677266 L0,103.575517 C0,104.213831 0.242831325,104.72973 0.544277108,104.72973 L9.50391566,104.72973 C9.80536145,104.72973 10.0481928,104.213831 10.0481928,103.575517 L10.0481928,96.6677266 C10.0481928,96.0294118 9.80536145,95.5135135 9.50391566,95.5135135 L0.544277108,95.5135135 C0.242831325,95.5135135 0,96.0294118 0,96.6677266 Z" id="Shape" fill="#C1C9D1"></path>
                <path d="M58.7638817,43.5675676 L27.4831062,43.5675676 C26.6407202,43.5675676 25.9578313,42.8772434 25.9578313,42.0256854 L25.9578313,30.8662065 C25.9578313,30.0146485 26.6407202,29.3243243 27.4831062,29.3243243 L58.7638817,29.3243243 C59.1684098,29.3243243 59.5563694,29.4867722 59.842414,29.7759312 C60.1284585,30.0650902 60.2891566,30.4572739 60.2891566,30.8662065 L60.2891566,42.0256854 C60.2891566,42.434618 60.1284585,42.8268017 59.842414,43.1159607 C59.5563694,43.4051197 59.1684098,43.5675676 58.7638817,43.5675676 Z" id="Shape" fill="#C1C9D1"></path>
            </g>
        </g>
    </g>
</svg>