<?xml version="1.0" encoding="UTF-8"?>
<svg width="20px" height="20px" viewBox="0 0 20 20" version="1.1" xmlns="http://www.w3.org/2000/svg" xmlns:xlink="http://www.w3.org/1999/xlink">
    <!-- Generator: Sketch 52.4 (67378) - http://www.bohemiancoding.com/sketch -->
    <title>search</title>
    <desc>Created with Sketch.</desc>
    <g id="design" stroke="none" stroke-width="1" fill="none" fill-rule="evenodd">
        <g id="home" transform="translate(-1260.000000, -352.000000)" fill="#4FC2A0" fill-rule="nonzero">
            <g id="search" transform="translate(1260.000000, 352.000000)">
                <path d="M14.32,12.91 L19.32,17.91 C19.6597768,18.3067603 19.6369323,18.8981942 19.2675632,19.2675632 C18.8981942,19.6369323 18.3067603,19.6597768 17.91,19.32 L12.91,14.32 C9.57396751,16.9114945 4.79796777,16.4625999 2.00324212,13.2948775 C-0.791483525,10.1271551 -0.641657117,5.3324464 2.34539464,2.34539464 C5.3324464,-0.641657117 10.1271551,-0.791483525 13.2948775,2.00324212 C16.4625999,4.79796777 16.9114945,9.57396751 14.32,12.91 Z M12.24,12.25 C14.581228,9.90616597 14.5798196,6.10838964 12.236854,3.76629267 C9.8938883,1.4241957 6.0961117,1.4241957 3.75314604,3.76629267 C1.41018038,6.10838964 1.40877204,9.90616597 3.75,12.25 C4.87673605,13.3753377 6.40461687,14.0065973 7.9970727,14.0047217 C9.58952853,14.002846 11.115918,13.3679888 12.24,12.24 L12.24,12.25 Z" id="Shape"></path>
            </g>
        </g>
    </g>
</svg>