<?xml version="1.0" encoding="UTF-8"?>
<svg width="35px" height="53px" viewBox="0 0 35 53" version="1.1" xmlns="http://www.w3.org/2000/svg" xmlns:xlink="http://www.w3.org/1999/xlink">
    <!-- Generator: sketchtool 52.4 (67378) - http://www.bohemiancoding.com/sketch -->
    <title>4F49AFB1-32C6-4926-B28B-8DC4ABFED9B9</title>
    <desc>Created with sketchtool.</desc>
    <g id="desktop" stroke="none" stroke-width="1" fill="none" fill-rule="evenodd">
        <g id="home-new" transform="translate(-1362.000000, -808.000000)">
            <g id="suggest" transform="translate(1362.000000, 808.000000)">
                <polygon id="Path" fill="#C1C9D1" points="12.2570717 32.1007449 17.4938713 32.1007449 17.4938713 35.2357977 12.2570717 35.2357977"></polygon>
                <polygon id="Path" fill="#C1C9D1" points="17.4938713 32.1007449 22.7306708 32.1007449 22.7306708 35.2357977 17.4938713 35.2357977"></polygon>
                <path d="M25.8728448,17.4711253 C25.8728448,15.7396729 24.466056,14.3360723 22.7306708,14.3360723 C20.9952856,14.3360723 19.5884968,15.7396729 19.5884968,17.4711253 L19.5884968,20.6061781 L22.7306708,20.6061781 C24.466056,20.6061781 25.8728448,19.2025776 25.8728448,17.4711253 Z" id="Path" fill="#ECF0F1"></path>
                <path d="M12.2570717,20.6061781 L15.3992457,20.6061781 L15.3992457,17.4711253 C15.3992457,15.7396729 13.9924569,14.3360723 12.2570717,14.3360723 C10.5216865,14.3360723 9.11489769,15.7396729 9.11489769,17.4711253 C9.11489769,19.2025776 10.5216865,20.6061781 12.2570717,20.6061781 Z" id="Path" fill="#ECF0F1"></path>
                <path d="M10.1624461,40.4602588 C10.1624461,41.6145604 11.1001481,42.5501373 12.2570717,42.5501373 L22.7306708,42.5501373 C23.8875943,42.5501373 24.8252963,41.6145604 24.8252963,40.4602588 C24.8252963,39.3064276 23.8875943,38.3703803 22.7306708,38.3703803 L12.2570717,38.3703803 C11.1001481,38.3703803 10.1624461,39.3064276 10.1624461,40.4602588 Z" id="Path" fill="#C1C9D1"></path>
                <path d="M10.1624461,44.6400158 C10.1624461,45.7943173 11.1001481,46.7303646 12.2570717,46.7303646 L22.7306708,46.7303646 C23.8875943,46.7303646 24.8252963,45.7943173 24.8252963,44.6400158 C24.8252963,43.4857142 23.8875943,42.5501373 22.7306708,42.5501373 L12.2570717,42.5501373 C11.1001481,42.5501373 10.1624461,43.4861846 10.1624461,44.6400158 Z" id="Path" fill="#C1C9D1"></path>
                <path d="M13.3046201,48.820243 C13.3046201,51.1288462 15.1800243,53 17.4938713,53 C19.8077182,53 21.6831223,51.1288462 21.6831223,48.820243 L21.6831223,46.7303646 L13.3046201,46.7303646 L13.3046201,48.820243 Z" id="Path" fill="#DDE1E6"></path>
                <path d="M10.1624461,36.2805019 C10.1624461,37.4348034 11.1001481,38.3703803 12.2570717,38.3703803 L22.7306708,38.3703803 C23.8875943,38.3703803 24.8252963,37.4348034 24.8252963,36.2805019 C24.8252963,35.1262003 23.8875943,34.1906234 22.7306708,34.1906234 L12.2570717,34.1906234 C11.1001481,34.1906234 10.1624461,35.1262003 10.1624461,36.2805019 Z" id="Path" fill="#C1C9D1"></path>
                <path d="M15.3992457,20.6061781 L12.2570717,20.6061781 C10.5216865,20.6061781 9.11489769,19.2025776 9.11489769,17.4711253 C9.11489769,15.7396729 10.5216865,14.3360723 12.2570717,14.3360723 C13.9924569,14.3360723 15.3992457,15.7396729 15.3992457,17.4711253 L15.3992457,20.6061781 L17.4938713,20.6061781 L17.4938713,0.751627025 C8.23895474,0.754919684 0.739224138,8.24329809 0.742524276,17.4772401 C0.745352879,24.2854554 4.88510231,30.4125671 11.2099946,32.9681174 C13.204674,33.7809263 15.3393723,34.1962679 17.4938713,34.1906801 L17.4938713,20.6061781 L15.3992457,20.6061781 Z" id="Path" fill="#ECF0F1"></path>
                <path d="M17.4938713,0.751627025 L17.4938713,20.6061781 L19.5884968,20.6061781 L19.5884968,17.4711253 C19.5884968,15.7396729 20.9952856,14.3360723 22.7306708,14.3360723 C24.466056,14.3360723 25.8728448,15.7396729 25.8728448,17.4711253 C25.8728448,19.2025776 24.466056,20.6061781 22.7306708,20.6061781 L17.4938713,20.6061781 L17.4938713,34.1906712 C19.6483701,34.1957975 21.7830684,33.7809263 23.7777478,32.9681174 C32.3561422,29.5019201 36.4935345,19.7538577 33.0199353,11.1949046 C30.4581089,4.88481682 24.3175512,0.753978993 17.4938713,0.751627025 Z" id="Path" fill="#ECF0F1"></path>
                <path d="M20.6360453,20.6061781 L20.6360453,34.1906234 L18.5409483,34.1906234 L18.5409483,20.6061781 C18.5409483,20.0290273 19.0100351,19.5610038 19.5884968,19.5610038 C20.1669585,19.5610038 20.6360453,20.0290273 20.6360453,20.6061781 Z" id="Path" fill="#C1C9D1"></path>
                <path d="M16.4463227,20.6061781 L16.4463227,34.1906234 L14.3516971,34.1906234 L14.3516971,20.6061781 C14.3516971,20.0290273 14.8207839,19.5610038 15.3992457,19.5610038 C15.9777075,19.5610038 16.4463227,20.0290273 16.4463227,20.6061781 Z" id="Path" fill="#C1C9D1"></path>
                <path d="M22.7306708,21.6508821 C22.1522091,21.6508821 21.6831223,21.1828586 21.6831223,20.6061781 C21.6831223,20.0290273 22.1522091,19.5610038 22.7306708,19.5610038 C23.8875943,19.5610038 24.8252963,18.6254267 24.8252963,17.4711253 C24.8252963,16.3168237 23.8875943,15.3812468 22.7306708,15.3812468 C21.5737473,15.3812468 20.6360453,16.3168237 20.6360453,17.4711253 C20.6360453,18.0482761 20.1669585,18.5158293 19.5884968,18.5158293 C19.0100351,18.5158293 18.5414197,18.0482761 18.5414197,17.4711253 C18.5414197,15.1625222 20.4168238,13.2913683 22.7306708,13.2913683 C25.0445178,13.2913683 26.9199218,15.1625222 26.9199218,17.4711253 C26.9199218,19.7797284 25.0445178,21.6508821 22.7306708,21.6508821 Z" id="Path" fill="#C1C9D1"></path>
                <path d="M12.2570717,21.6508821 C9.94322471,21.6508821 8.06782055,19.7797284 8.06782055,17.4711253 C8.06782055,15.1625222 9.94322471,13.2913683 12.2570717,13.2913683 C14.5709187,13.2913683 16.4463227,15.1625222 16.4463227,17.4711253 C16.4463227,18.0482761 15.9777075,18.5158293 15.3992457,18.5158293 C14.8207839,18.5158293 14.3516971,18.0482761 14.3516971,17.4711253 C14.3516971,16.3168237 13.4139951,15.3812468 12.2570717,15.3812468 C11.1001481,15.3812468 10.1624461,16.3168237 10.1624461,17.4711253 C10.1624461,18.6254267 11.1001481,19.5610038 12.2570717,19.5610038 C12.8355333,19.5610038 13.3046201,20.0290273 13.3046201,20.6061781 C13.3046201,21.1828586 12.8355333,21.6508821 12.2570717,21.6508821 Z" id="Path" fill="#C1C9D1"></path>
                <path d="M22.7306708,21.6508821 L12.2570717,21.6508821 C11.6786099,21.6508821 11.2099946,21.1828586 11.2099946,20.6061781 C11.2099946,20.0290273 11.6790813,19.5610038 12.2570717,19.5610038 L22.7306708,19.5610038 C23.3091325,19.5610038 23.7777478,20.0290273 23.7777478,20.6061781 C23.7777478,21.1828586 23.3091325,21.6508821 22.7306708,21.6508821 Z" id="Path" fill="#C1C9D1"></path>
                <path d="M15.3992457,21.6508821 C14.8207839,21.6508821 14.3516971,21.1828586 14.3516971,20.6061781 L14.3516971,17.4711253 C14.3516971,16.8939745 14.8207839,16.4259508 15.3992457,16.4259508 C15.9777075,16.4259508 16.4463227,16.8939745 16.4463227,17.4711253 L16.4463227,20.6061781 C16.4463227,21.1833289 15.9777075,21.6508821 15.3992457,21.6508821 Z" id="Path" fill="#C1C9D1"></path>
                <path d="M19.5884968,21.6508821 C19.0100351,21.6508821 18.5414197,21.1828586 18.5414197,20.6061781 L18.5414197,17.4711253 C18.5414197,16.8939745 19.0100351,16.4259508 19.5884968,16.4259508 C20.1669585,16.4259508 20.6360453,16.8939745 20.6360453,17.4711253 L20.6360453,20.6061781 C20.6360453,21.1833289 20.1669585,21.6508821 19.5884968,21.6508821 Z" id="Path" fill="#C1C9D1"></path>
            </g>
        </g>
    </g>
</svg>