<?xml version="1.0" encoding="UTF-8"?>
<svg width="116px" height="116px" viewBox="0 0 116 116" version="1.1" xmlns="http://www.w3.org/2000/svg" xmlns:xlink="http://www.w3.org/1999/xlink">
    <!-- Generator: Sketch 51.2 (57519) - http://www.bohemiancoding.com/sketch -->
    <title>front-end color_1</title>
    <desc>Created with Sketch.</desc>
    <defs></defs>
    <g id="design" stroke="none" stroke-width="1" fill="none" fill-rule="evenodd">
        <g id="home-hovers-active" transform="translate(-1028.000000, -884.000000)" fill-rule="nonzero">
            <g id="front-end-color_1" transform="translate(1028.000000, 884.000000)">
                <rect id="Rectangle-path" fill="#E1F0FF" x="0" y="0" width="116" height="116" rx="10.06"></rect>
                <path d="M10,0 L106,0 C111.522847,3.38176876e-16 116,4.4771525 116,10 L116,11 L0,11 L0,10 C-6.76353751e-16,4.4771525 4.4771525,1.01453063e-15 10,0 Z" id="Shape" fill="#656D88"></path>
                <circle id="Oval" fill="#EA5340" cx="8" cy="6" r="2"></circle>
                <circle id="Oval" fill="#F0C419" cx="14" cy="6" r="2"></circle>
                <circle id="Oval" fill="#4FC2A0" cx="20" cy="6" r="2"></circle>
                <rect id="Rectangle-path" fill="#0461B1" x="6" y="18" width="103" height="37" rx="2.56"></rect>
                <rect id="Rectangle-path" fill="#EA5340" x="7" y="63" width="50" height="37" rx="2.56"></rect>
                <path d="M84,67 L66,67 C64.8954305,67 64,66.1045695 64,65 C64,63.8954305 64.8954305,63 66,63 L84,63 C85.1045695,63 86,63.8954305 86,65 C86,66.1045695 85.1045695,67 84,67 Z" id="Shape" fill="#0461B1"></path>
                <path d="M105.82,91 L86.18,91 C85.0754305,91 84.18,90.1045695 84.18,89 C84.18,87.8954305 85.0754305,87 86.18,87 L105.82,87 C106.924569,87 107.82,87.8954305 107.82,89 C107.82,90.1045695 106.924569,91 105.82,91 Z" id="Shape" fill="#0461B1"></path>
                <path d="M96,67 L92,67 C90.8954305,67 90,66.1045695 90,65 C90,63.8954305 90.8954305,63 92,63 L96,63 C97.1045695,63 98,63.8954305 98,65 C98,66.1045695 97.1045695,67 96,67 Z" id="Shape" fill="#C1C9D1"></path>
                <path d="M70,91 L66,91 C64.8954305,91 64,90.1045695 64,89 C64,87.8954305 64.8954305,87 66,87 L70,87 C71.1045695,87 72,87.8954305 72,89 C72,90.1045695 71.1045695,91 70,91 Z" id="Shape" fill="#C1C9D1"></path>
                <path d="M80,91 L76,91 C74.8954305,91 74,90.1045695 74,89 C74,87.8954305 74.8954305,87 76,87 L80,87 C81.1045695,87 82,87.8954305 82,89 C82,90.1045695 81.1045695,91 80,91 Z" id="Shape" fill="#C1C9D1"></path>
                <path d="M92,75 L66,75 C64.8954305,75 64,74.1045695 64,73 C64,71.8954305 64.8954305,71 66,71 L92,71 C93.1045695,71 94,71.8954305 94,73 C94,74.1045695 93.1045695,75 92,75 Z" id="Shape" fill="#C1C9D1"></path>
                <rect id="Rectangle-path" fill="#C1C9D1" x="64" y="79" width="44" height="4" rx="2"></rect>
                <rect id="Rectangle-path" fill="#C1C9D1" x="64" y="96" width="44" height="4" rx="2"></rect>
            </g>
        </g>
    </g>
</svg>