<?xml version="1.0" encoding="UTF-8"?>
<svg width="74px" height="74px" viewBox="0 0 74 74" version="1.1" xmlns="http://www.w3.org/2000/svg" xmlns:xlink="http://www.w3.org/1999/xlink">
    <!-- Generator: sketchtool 52.4 (67378) - http://www.bohemiancoding.com/sketch -->
    <title>B541E84E-59E4-4362-B136-904FCB34C0A5</title>
    <desc>Created with sketchtool.</desc>
    <g id="design" stroke="none" stroke-width="1" fill="none" fill-rule="evenodd">
        <g id="home-2-hover" transform="translate(-1069.000000, -652.000000)" fill-rule="nonzero">
            <g id="front-end-color" transform="translate(1069.000000, 652.000000)">
                <g>
                    <rect id="Rectangle-path" fill="#E1F0FF" x="0" y="0" width="74" height="74" rx="6.41758621"></rect>
                    <path d="M6.37931034,6.27053964e-13 L67.6206897,6.27053964e-13 C71.1438855,6.27269698e-13 74,2.85611453 74,6.37931034 L74,7.01724138 L0,7.01724138 L0,6.37931034 C-4.31467048e-16,2.85611453 2.85611453,6.27701165e-13 6.37931034,6.27053964e-13 Z" id="Shape" fill="#656D88"></path>
                    <circle id="Oval" fill="#EA5340" cx="5.10344828" cy="3.82758621" r="1.27586207"></circle>
                    <circle id="Oval" fill="#F0C419" cx="8.93103448" cy="3.82758621" r="1.27586207"></circle>
                    <circle id="Oval" fill="#4FC2A0" cx="12.7586207" cy="3.82758621" r="1.27586207"></circle>
                    <rect id="Rectangle-path" fill="#0461B1" x="3.82758621" y="11.4827586" width="65.7068966" height="23.6034483" rx="1.63310345"></rect>
                    <rect id="Rectangle-path" fill="#EA5340" x="4.46551724" y="40.1896552" width="31.8965517" height="23.6034483" rx="1.63310345"></rect>
                    <path d="M53.5862069,42.7413793 L42.1034483,42.7413793 C41.3988091,42.7413793 40.8275862,42.1701564 40.8275862,41.4655172 C40.8275862,40.7608781 41.3988091,40.1896552 42.1034483,40.1896552 L53.5862069,40.1896552 C54.2908461,40.1896552 54.862069,40.7608781 54.862069,41.4655172 C54.862069,42.1701564 54.2908461,42.7413793 53.5862069,42.7413793 Z" id="Shape" fill="#656D88"></path>
                    <path d="M67.5058621,58.0517241 L54.9768966,58.0517241 C54.2722574,58.0517241 53.7010345,57.4805012 53.7010345,56.7758621 C53.7010345,56.0712229 54.2722574,55.5 54.9768966,55.5 L67.5058621,55.5 C68.2105012,55.5 68.7817241,56.0712229 68.7817241,56.7758621 C68.7817241,57.4805012 68.2105012,58.0517241 67.5058621,58.0517241 Z" id="Shape" fill="#656D88"></path>
                    <path d="M61.2413793,42.7413793 L58.6896552,42.7413793 C57.985016,42.7413793 57.4137931,42.1701564 57.4137931,41.4655172 C57.4137931,40.7608781 57.985016,40.1896552 58.6896552,40.1896552 L61.2413793,40.1896552 C61.9460185,40.1896552 62.5172414,40.7608781 62.5172414,41.4655172 C62.5172414,42.1701564 61.9460185,42.7413793 61.2413793,42.7413793 Z" id="Shape" fill="#C1C9D1"></path>
                    <path d="M44.6551724,58.0517241 L42.1034483,58.0517241 C41.3988091,58.0517241 40.8275862,57.4805012 40.8275862,56.7758621 C40.8275862,56.0712229 41.3988091,55.5 42.1034483,55.5 L44.6551724,55.5 C45.3598116,55.5 45.9310345,56.0712229 45.9310345,56.7758621 C45.9310345,57.4805012 45.3598116,58.0517241 44.6551724,58.0517241 Z" id="Shape" fill="#C1C9D1"></path>
                    <path d="M51.0344828,58.0517241 L48.4827586,58.0517241 C47.7781195,58.0517241 47.2068966,57.4805012 47.2068966,56.7758621 C47.2068966,56.0712229 47.7781195,55.5 48.4827586,55.5 L51.0344828,55.5 C51.7391219,55.5 52.3103448,56.0712229 52.3103448,56.7758621 C52.3103448,57.4805012 51.7391219,58.0517241 51.0344828,58.0517241 Z" id="Shape" fill="#C1C9D1"></path>
                    <path d="M58.6896552,47.8448276 L42.1034483,47.8448276 C41.3988091,47.8448276 40.8275862,47.2736047 40.8275862,46.5689655 C40.8275862,45.8643264 41.3988091,45.2931034 42.1034483,45.2931034 L58.6896552,45.2931034 C59.3942943,45.2931034 59.9655172,45.8643264 59.9655172,46.5689655 C59.9655172,47.2736047 59.3942943,47.8448276 58.6896552,47.8448276 Z" id="Shape" fill="#C1C9D1"></path>
                    <rect id="Rectangle-path" fill="#C1C9D1" x="40.8275862" y="50.3965517" width="28.0689655" height="2.55172414" rx="1.27586207"></rect>
                    <rect id="Rectangle-path" fill="#C1C9D1" x="40.8275862" y="61.2413793" width="28.0689655" height="2.55172414" rx="1.27586207"></rect>
                </g>
            </g>
        </g>
    </g>
</svg>