<?xml version="1.0" encoding="UTF-8" standalone="no"?>
<!DOCTYPE svg PUBLIC "-//W3C//DTD SVG 1.1//EN"
 "http://www.w3.org/Graphics/SVG/1.1/DTD/svg11.dtd">
<!-- Generated by graphviz version 2.38.0 (20140413.2041)
 -->
<!-- Title: Statemachine Pages: 1 -->
<svg width="899pt" height="1448pt"
 viewBox="0.00 0.00 899.00 1448.17" xmlns="http://www.w3.org/2000/svg" xmlns:xlink="http://www.w3.org/1999/xlink">
<g id="graph0" class="graph" transform="scale(1 1) rotate(0) translate(4 1444.17)">
<title>Statemachine</title>
<polygon fill="white" stroke="none" points="-4,4 -4,-1444.17 895,-1444.17 895,4 -4,4"/>
<g id="clust1" class="cluster"><title>cluster_DummyPayment01</title>
<polygon fill="#cfcfcf" stroke="#ffffff" points="8,-268.477 8,-1432.17 593,-1432.17 593,-268.477 8,-268.477"/>
<text text-anchor="middle" x="300.5" y="-1418.57" font-family="Verdana" font-size="12.00">DummyPayment01</text>
</g>
<g id="clust2" class="cluster"><title>cluster_DummyRefund</title>
<polygon fill="#cfcfcf" stroke="#ffffff" points="601,-8 601,-364.953 883,-364.953 883,-8 601,-8"/>
<text text-anchor="middle" x="742" y="-351.353" font-family="Verdana" font-size="12.00">DummyRefund</text>
</g>
<!-- new -->
<g id="node1" class="node"><title>new</title>
<ellipse fill="#f9f9f9" stroke="black" cx="262" cy="-1379.13" rx="48.1667" ry="24.0833"/>
<text text-anchor="start" x="246.5" y="-1381.93" font-family="Verdana" font-size="14.00">new</text>
<text text-anchor="start" x="236" y="-1369.53" font-family="Verdana" font-size="12.00" fill="blue">reserved</text>
</g>
<!-- c847a905f91ca0714bbfad54a60e05a9 -->
<g id="node10" class="node"><title>c847a905f91ca0714bbfad54a60e05a9</title>
<polygon fill="#f9f9f9" stroke="black" points="262,-1284.09 235,-1266.09 262,-1248.09 289,-1266.09 262,-1284.09"/>
<text text-anchor="middle" x="262" y="-1265.79" font-family="Verdana" font-size="1.00" fill="white">?</text>
</g>
<!-- new&#45;&gt;c847a905f91ca0714bbfad54a60e05a9 -->
<g id="edge1" class="edge"><title>new&#45;&gt;c847a905f91ca0714bbfad54a60e05a9</title>
<path fill="none" stroke="#70ab28" d="M262,-1344.61C262,-1328.57 262,-1309.6 262,-1294.44"/>
<polygon fill="#70ab28" stroke="#70ab28" points="262,-1344.85 257.5,-1354.85 262,-1349.85 262,-1354.85 262,-1354.85 262,-1354.85 262,-1349.85 266.5,-1354.85 262,-1344.85 262,-1344.85"/>
<polygon fill="#70ab28" stroke="#70ab28" points="265.5,-1294.17 262,-1284.17 258.5,-1294.17 265.5,-1294.17"/>
<text text-anchor="start" x="262" y="-1317.49" font-family="Verdana" font-size="12.00"> &#160;</text>
<text text-anchor="start" x="270" y="-1317.49" font-family="Verdana" font-weight="bold" font-size="12.00">authorize (on enter)</text>
</g>
<!-- payment pending -->
<g id="node2" class="node"><title>payment pending</title>
<ellipse fill="#f9f9f9" stroke="black" cx="262" cy="-1143.14" rx="54.3945" ry="33.8824"/>
<text text-anchor="start" x="231.5" y="-1152.94" font-family="Verdana" font-size="14.00">payment</text>
<text text-anchor="start" x="234.5" y="-1138.94" font-family="Verdana" font-size="14.00">pending</text>
<text text-anchor="start" x="236" y="-1126.54" font-family="Verdana" font-size="12.00" fill="blue">reserved</text>
</g>
<!-- 3f0ddeb30ca218492a0757bd4ea39ab4 -->
<g id="node11" class="node"><title>3f0ddeb30ca218492a0757bd4ea39ab4</title>
<polygon fill="#f9f9f9" stroke="black" points="262,-1003.2 235,-985.203 262,-967.203 289,-985.203 262,-1003.2"/>
<text text-anchor="middle" x="262" y="-984.903" font-family="Verdana" font-size="1.00" fill="white">?</text>
</g>
<!-- payment pending&#45;&gt;3f0ddeb30ca218492a0757bd4ea39ab4 -->
<g id="edge4" class="edge"><title>payment pending&#45;&gt;3f0ddeb30ca218492a0757bd4ea39ab4</title>
<path fill="none" stroke="#70ab28" d="M262,-1109.07C262,-1080.63 262,-1040.09 262,-1013.47"/>
<polygon fill="#70ab28" stroke="#70ab28" points="265.5,-1013.33 262,-1003.33 258.5,-1013.33 265.5,-1013.33"/>
<text text-anchor="start" x="262" y="-1071.6" font-family="Verdana" font-size="12.00"> &#160;</text>
<text text-anchor="start" x="270" y="-1071.6" font-family="Verdana" font-weight="bold" font-size="12.00">pay</text>
<text text-anchor="start" x="262" y="-1059.6" font-family="Verdana" font-size="12.00"> &#160;timeout: 1 hour</text>
<text text-anchor="start" x="262" y="-1047.6" font-family="Verdana" font-size="12.00"> &#160;c:DummyPayment/Pay (by order)</text>
<text text-anchor="start" x="300" y="-1035.6" font-family="Verdana" font-size="12.00"> &#160;manually executable</text>
</g>
<!-- invalid -->
<g id="node3" class="node"><title>invalid</title>
<ellipse fill="#f9f9f9" stroke="black" cx="472" cy="-1143.14" rx="108.793" ry="24.0774"/>
<ellipse fill="none" stroke="black" cx="472" cy="-1143.14" rx="112.789" ry="28.0833"/>
<text text-anchor="start" x="449" y="-1145.94" font-family="Verdana" font-size="14.00">invalid</text>
<text text-anchor="start" x="403" y="-1133.54" font-family="Verdana" font-size="12.00" fill="violet">exclude from customer</text>
</g>
<!-- cancelled -->
<g id="node4" class="node"><title>cancelled</title>
<ellipse fill="#f9f9f9" stroke="black" cx="129" cy="-868.161" rx="108.793" ry="24.0774"/>
<ellipse fill="none" stroke="black" cx="129" cy="-868.161" rx="112.789" ry="28.0833"/>
<text text-anchor="start" x="97" y="-870.961" font-family="Verdana" font-size="14.00">cancelled</text>
<text text-anchor="start" x="60" y="-858.561" font-family="Verdana" font-size="12.00" fill="violet">exclude from customer</text>
</g>
<!-- paid -->
<g id="node5" class="node"><title>paid</title>
<ellipse fill="#f9f9f9" stroke="black" cx="333" cy="-868.161" rx="48.1667" ry="24.0833"/>
<text text-anchor="start" x="318.5" y="-870.961" font-family="Verdana" font-size="14.00">paid</text>
<text text-anchor="start" x="307" y="-858.561" font-family="Verdana" font-size="12.00" fill="blue">reserved</text>
</g>
<!-- exported -->
<g id="node6" class="node"><title>exported</title>
<ellipse fill="#f9f9f9" stroke="black" cx="333" cy="-722.078" rx="55.3091" ry="24.0833"/>
<text text-anchor="start" x="302" y="-724.878" font-family="Verdana" font-size="14.00">exported</text>
<text text-anchor="start" x="307" y="-712.478" font-family="Verdana" font-size="12.00" fill="blue">reserved</text>
</g>
<!-- paid&#45;&gt;exported -->
<g id="edge7" class="edge"><title>paid&#45;&gt;exported</title>
<path fill="none" stroke="#70ab28" d="M333,-833.906C333,-810.597 333,-779.57 333,-756.274"/>
<polygon fill="#70ab28" stroke="#70ab28" points="333,-834.012 328.5,-844.012 333,-839.012 333,-844.012 333,-844.012 333,-844.012 333,-839.012 337.5,-844.012 333,-834.012 333,-834.012"/>
<polygon fill="#70ab28" stroke="#70ab28" points="336.5,-756.17 333,-746.17 329.5,-756.17 336.5,-756.17"/>
<text text-anchor="start" x="333" y="-802.52" font-family="Verdana" font-size="12.00"> &#160;</text>
<text text-anchor="start" x="341" y="-802.52" font-family="Verdana" font-weight="bold" font-size="12.00">export (on enter)</text>
<text text-anchor="start" x="333" y="-790.52" font-family="Verdana" font-size="12.00"> &#160;c:Oms/SendOrderConfirmation (by order)</text>
<text text-anchor="start" x="396" y="-778.52" font-family="Verdana" font-size="12.00"> &#160;manually executable</text>
</g>
<!-- shipped -->
<g id="node7" class="node"><title>shipped</title>
<ellipse fill="#f9f9f9" stroke="black" cx="333" cy="-579.995" rx="48.5816" ry="24.0833"/>
<text text-anchor="start" x="306.5" y="-582.795" font-family="Verdana" font-size="14.00">shipped</text>
<text text-anchor="start" x="307" y="-570.395" font-family="Verdana" font-size="12.00" fill="blue">reserved</text>
</g>
<!-- exported&#45;&gt;shipped -->
<g id="edge8" class="edge"><title>exported&#45;&gt;shipped</title>
<path fill="none" stroke="#70ab28" d="M333,-697.946C333,-675.134 333,-640.035 333,-614.238"/>
<polygon fill="#70ab28" stroke="#70ab28" points="336.5,-614.161 333,-604.161 329.5,-614.161 336.5,-614.161"/>
<text text-anchor="start" x="333" y="-660.437" font-family="Verdana" font-size="12.00"> &#160;</text>
<text text-anchor="start" x="341" y="-660.437" font-family="Verdana" font-weight="bold" font-size="12.00">ship</text>
<text text-anchor="start" x="333" y="-648.437" font-family="Verdana" font-size="12.00"> &#160;c:Oms/SendOrderShipped (by order)</text>
<text text-anchor="start" x="381.5" y="-636.437" font-family="Verdana" font-size="12.00"> &#160;manually executable</text>
</g>
<!-- delivered -->
<g id="node8" class="node"><title>delivered</title>
<ellipse fill="#f9f9f9" stroke="black" cx="333" cy="-455.953" rx="51.9908" ry="18"/>
<text text-anchor="middle" x="333" y="-452.253" font-family="Verdana" font-size="14.00">delivered</text>
</g>
<!-- shipped&#45;&gt;delivered -->
<g id="edge9" class="edge"><title>shipped&#45;&gt;delivered</title>
<path fill="none" stroke="#70ab28" d="M333,-555.753C333,-535.4 333,-505.805 333,-484.315"/>
<polygon fill="#70ab28" stroke="#70ab28" points="336.5,-484.2 333,-474.2 329.5,-484.2 336.5,-484.2"/>
<text text-anchor="start" x="333" y="-518.353" font-family="Verdana" font-size="12.00"> &#160;</text>
<text text-anchor="start" x="341" y="-518.353" font-family="Verdana" font-weight="bold" font-size="12.00">stock&#45;update</text>
<text text-anchor="start" x="333" y="-506.353" font-family="Verdana" font-size="12.00"> &#160;manually executable</text>
</g>
<!-- closed -->
<g id="node9" class="node"><title>closed</title>
<ellipse fill="#f9f9f9" stroke="black" cx="333" cy="-298.477" rx="38.2082" ry="18"/>
<ellipse fill="none" stroke="black" cx="333" cy="-298.477" rx="42.1937" ry="22"/>
<text text-anchor="middle" x="333" y="-294.777" font-family="Verdana" font-size="14.00">closed</text>
</g>
<!-- delivered&#45;&gt;closed -->
<g id="edge11" class="edge"><title>delivered&#45;&gt;closed</title>
<path fill="none" stroke="#70ab28" d="M333,-437.721C333,-411.936 333,-362.908 333,-330.71"/>
<polygon fill="#70ab28" stroke="#70ab28" points="336.5,-330.494 333,-320.494 329.5,-330.494 336.5,-330.494"/>
<text text-anchor="start" x="333" y="-400.353" font-family="Verdana" font-size="12.00"> &#160;</text>
<text text-anchor="start" x="341" y="-400.353" font-family="Verdana" font-weight="bold" font-size="12.00">close</text>
<text text-anchor="start" x="333" y="-388.353" font-family="Verdana" font-size="12.00"> &#160;timeout: 1 hour</text>
<text text-anchor="start" x="333" y="-376.353" font-family="Verdana" font-size="12.00"> &#160;manually executable</text>
</g>
<!-- ready for return -->
<g id="node12" class="node"><title>ready for return</title>
<ellipse fill="#f9f9f9" stroke="black" cx="655" cy="-298.477" rx="43.2674" ry="37.4533"/>
<text text-anchor="start" x="635" y="-309.777" font-family="Verdana" font-size="14.00">ready</text>
<text text-anchor="start" x="645.5" y="-294.777" font-family="Verdana" font-size="14.00">for</text>
<text text-anchor="start" x="632.5" y="-279.777" font-family="Verdana" font-size="14.00">return</text>
</g>
<!-- delivered&#45;&gt;ready for return -->
<g id="edge10" class="edge"><title>delivered&#45;&gt;ready for return</title>
<path fill="none" stroke="black" d="M379.638,-447.8C436.564,-437.284 533.779,-413.403 603,-364.953 612.658,-358.193 621.421,-349.133 628.886,-339.912"/>
<polygon fill="black" stroke="black" points="631.785,-341.884 635.101,-331.821 626.233,-337.62 631.785,-341.884"/>
<text text-anchor="start" x="591" y="-394.353" font-family="Verdana" font-size="12.00"> &#160;</text>
<text text-anchor="start" x="599" y="-394.353" font-family="Verdana" font-weight="bold" font-size="12.00">return</text>
<text text-anchor="start" x="591" y="-382.353" font-family="Verdana" font-size="12.00"> &#160;manually executable</text>
</g>
<!-- c847a905f91ca0714bbfad54a60e05a9&#45;&gt;payment pending -->
<g id="edge2" class="edge"><title>c847a905f91ca0714bbfad54a60e05a9&#45;&gt;payment pending</title>
<path fill="none" stroke="#70ab28" d="M259.865,-1249.37C258.767,-1240.49 257.548,-1229.19 257,-1219.09 256.444,-1208.83 256.704,-1197.79 257.329,-1187.43"/>
<polygon fill="#70ab28" stroke="#70ab28" points="260.828,-1187.56 258.06,-1177.34 253.847,-1187.06 260.828,-1187.56"/>
<text text-anchor="middle" x="348" y="-1209.49" font-family="Verdana" font-size="12.00"> &#160;DummyPayment/IsAuthorized</text>
</g>
<!-- c847a905f91ca0714bbfad54a60e05a9&#45;&gt;invalid -->
<g id="edge3" class="edge"><title>c847a905f91ca0714bbfad54a60e05a9&#45;&gt;invalid</title>
<path fill="none" stroke="black" d="M288.598,-1265.8C327.761,-1265.39 401.039,-1258.87 445,-1219.09 455.891,-1209.23 462.392,-1194.65 466.272,-1180.96"/>
<polygon fill="black" stroke="black" points="469.675,-1181.78 468.659,-1171.24 462.876,-1180.11 469.675,-1181.78"/>
<text text-anchor="middle" x="470.5" y="-1209.49" font-family="Verdana" font-size="12.00"> &#160;else</text>
</g>
<!-- 3f0ddeb30ca218492a0757bd4ea39ab4&#45;&gt;cancelled -->
<g id="edge6" class="edge"><title>3f0ddeb30ca218492a0757bd4ea39ab4&#45;&gt;cancelled</title>
<path fill="none" stroke="black" d="M250.66,-974.395C232.343,-958.551 195.431,-926.623 167.044,-902.069"/>
<polygon fill="black" stroke="black" points="169.139,-899.253 159.286,-895.358 164.56,-904.548 169.139,-899.253"/>
<text text-anchor="middle" x="223.5" y="-928.603" font-family="Verdana" font-size="12.00"> &#160;else</text>
</g>
<!-- 3f0ddeb30ca218492a0757bd4ea39ab4&#45;&gt;paid -->
<g id="edge5" class="edge"><title>3f0ddeb30ca218492a0757bd4ea39ab4&#45;&gt;paid</title>
<path fill="none" stroke="#70ab28" d="M269.598,-971.892C280.066,-954.93 299.278,-923.801 313.82,-900.239"/>
<polygon fill="#70ab28" stroke="#70ab28" points="316.863,-901.972 319.137,-891.624 310.906,-898.296 316.863,-901.972"/>
<text text-anchor="middle" x="374.5" y="-928.603" font-family="Verdana" font-size="12.00"> &#160;DummyPayment/IsPayed</text>
</g>
<!-- returned -->
<g id="node13" class="node"><title>returned</title>
<ellipse fill="#f9f9f9" stroke="black" cx="659" cy="-172" rx="50.0912" ry="18"/>
<text text-anchor="middle" x="659" y="-168.3" font-family="Verdana" font-size="14.00">returned</text>
</g>
<!-- ready for return&#45;&gt;returned -->
<g id="edge12" class="edge"><title>ready for return&#45;&gt;returned</title>
<path fill="none" stroke="black" d="M656.505,-250.641C657.048,-233.738 657.643,-215.218 658.116,-200.506"/>
<polygon fill="black" stroke="black" points="656.5,-250.808 651.681,-260.658 656.339,-255.805 656.178,-260.803 656.178,-260.803 656.178,-260.803 656.339,-255.805 660.676,-260.947 656.5,-250.808 656.5,-250.808"/>
<polygon fill="black" stroke="black" points="661.628,-200.195 658.451,-190.088 654.631,-199.97 661.628,-200.195"/>
<text text-anchor="start" x="657" y="-223.4" font-family="Verdana" font-size="12.00"> &#160;</text>
<text text-anchor="start" x="665" y="-223.4" font-family="Verdana" font-weight="bold" font-size="12.00">execute&#45;return (on enter)</text>
</g>
<!-- refunded -->
<g id="node14" class="node"><title>refunded</title>
<ellipse fill="#f9f9f9" stroke="black" cx="664" cy="-38" rx="50.8774" ry="18"/>
<ellipse fill="none" stroke="black" cx="664" cy="-38" rx="54.8917" ry="22"/>
<text text-anchor="middle" x="664" y="-34.3" font-family="Verdana" font-size="14.00">refunded</text>
</g>
<!-- returned&#45;&gt;refunded -->
<g id="edge13" class="edge"><title>returned&#45;&gt;refunded</title>
<path fill="none" stroke="black" d="M659.654,-153.743C660.454,-132.615 661.825,-96.4276 662.813,-70.3344"/>
<polygon fill="black" stroke="black" points="666.316,-70.3151 663.197,-60.1898 659.321,-70.0501 666.316,-70.3151"/>
<text text-anchor="start" x="662" y="-116.4" font-family="Verdana" font-size="12.00"> &#160;</text>
<text text-anchor="start" x="670" y="-116.4" font-family="Verdana" font-weight="bold" font-size="12.00">refund</text>
<text text-anchor="start" x="662" y="-104.4" font-family="Verdana" font-size="12.00"> &#160;c:DummyPayment/Refund (by order)</text>
<text text-anchor="start" x="710.5" y="-92.4" font-family="Verdana" font-size="12.00"> &#160;manually executable</text>
</g>
</g>
</svg>
