<?xml version="1.0" encoding="UTF-8"?>
<svg width="86px" height="119px" viewBox="0 0 86 119" version="1.1" xmlns="http://www.w3.org/2000/svg" xmlns:xlink="http://www.w3.org/1999/xlink">
    <!-- Generator: Sketch 51.2 (57519) - http://www.bohemiancoding.com/sketch -->
    <title>tutorial color</title>
    <desc>Created with Sketch.</desc>
    <defs></defs>
    <g id="design" stroke="none" stroke-width="1" fill="none" fill-rule="evenodd">
        <g id="home-hovers-active" transform="translate(-1506.000000, -1179.000000)" fill-rule="nonzero">
            <g id="tutorial-color" transform="translate(1506.000000, 1179.000000)">
                <path d="M79.6455556,108.528 L0,108.528 L0,0 L79.636,0 C83.1032437,6.34766201e-15 85.914,2.80029771 85.914,6.25464 L85.914,102.30192 C85.8982398,105.741393 83.0979062,108.522801 79.6455556,108.528 Z" id="Shape" fill="#0461B1"></path>
                <path d="M9.70844444,35.5096 L76.3011111,35.5096 C78.4893333,35.5096 80.2666667,37.5564 80.2666667,40.06968 L80.2666667,68.544 C80.2666667,71.0668 78.4893333,73.10408 76.3011111,73.10408 L9.70844444,73.10408 C7.51066667,73.08504 5.73333333,71.04776 5.73333333,68.544 L5.73333333,40.06968 C5.73333333,37.54688 7.51066667,35.5096 9.70844444,35.5096 Z" id="Shape" fill="#065396"></path>
                <polygon id="Shape" fill="#EA5340" points="20.9553333 119 14.6677778 114.82072 8.38022222 119 8.38022222 108.55656 20.9553333 108.55656"></polygon>
                <rect id="Rectangle-path" fill="#ECF0F1" x="21.0222222" y="48.552" width="42.0444444" height="3.808" rx="1.904"></rect>
                <rect id="Rectangle-path" fill="#ECF0F1" x="21.0222222" y="57.12" width="16.2444444" height="3.808" rx="1.904"></rect>
                <rect id="Rectangle-path" fill="#ECF0F1" x="39.1777778" y="57.12" width="23.8888889" height="3.808" rx="1.904"></rect>
            </g>
        </g>
    </g>
</svg>