<?xml version="1.0" encoding="UTF-8"?>
<svg width="60px" height="54px" viewBox="0 0 60 54" version="1.1" xmlns="http://www.w3.org/2000/svg" xmlns:xlink="http://www.w3.org/1999/xlink">
    <!-- Generator: sketchtool 52.4 (67378) - http://www.bohemiancoding.com/sketch -->
    <title>AAD28655-094B-4F90-A85E-7DBBBB20FE39</title>
    <desc>Created with sketchtool.</desc>
    <g id="desktop" stroke="none" stroke-width="1" fill="none" fill-rule="evenodd">
        <g id="home-new" transform="translate(-707.000000, -473.000000)" fill-rule="nonzero">
            <g id="about" transform="translate(707.000000, 473.000000)">
                <g id="Shape">
                    <path d="M59.9398442,14.3451835 C59.822438,13.8984627 59.5325634,13.5178932 59.1350668,13.2886105 L36.7420439,0.238111315 C36.3448321,0.00365479784 35.8713014,-0.0608815961 35.4267278,0.0588499416 C34.9821541,0.178581479 34.6033842,0.472657444 34.3746268,0.875698515 L15.0491413,34.6933236 C14.5751653,35.5255386 14.857644,36.5880311 15.6806931,37.0687914 L38.0556716,50.1192905 C38.8800089,50.597796 39.9324439,50.3126178 40.4086533,49.4817033 L59.7666186,15.6713649 C59.9980948,15.2706124 60.0605046,14.7928154 59.9398442,14.3451835 Z" fill="#DDE1E6"></path>
                    <path d="M33.8009896,5.47297297 L31.6438519,5.47297297 L15.0482726,34.7154004 C14.5760878,35.5517035 14.857499,36.6194154 15.6774378,37.1025373 L37.5903614,49.9864865 L37.5903614,9.32827234 C37.5863992,7.19929379 35.891579,5.47498714 33.8009896,5.47297297 Z" fill="#D1D6DE"></path>
                    <path d="M49.6814781,16.0540541 C49.5194687,16.0539621 49.3603647,16.0111424 49.2203008,15.9299372 L39.1036803,10.0891458 C38.6855898,9.82506311 38.5509662,9.27896207 38.7986101,8.85162769 C39.046254,8.4242933 39.587901,8.26803451 40.026035,8.49753007 L50.1426555,14.3383216 C50.5032728,14.5468811 50.6788104,14.9707562 50.5708681,15.3723373 C50.4629258,15.7739184 50.0983373,16.0533752 49.6814781,16.0540541 Z" fill="#C1C9D1"></path>
                    <path d="M48.6172712,25.529612 C48.4575334,25.5295202 48.3006602,25.4867902 48.1625602,25.4057552 L31.8687497,15.9234274 C31.4565215,15.6598981 31.3237855,15.1149413 31.567957,14.6885023 C31.8121286,14.2620632 32.346181,14.1061319 32.7781717,14.3351466 L49.0647645,23.828403 C49.4203255,24.0365256 49.5934018,24.4595125 49.486973,24.8602522 C49.3805442,25.2609919 49.0210678,25.5398631 48.6100535,25.5405405 L48.6172712,25.529612 Z" fill="#C1C9D1"></path>
                    <path d="M46.4481597,29.1891892 C46.2889821,29.1890977 46.1326592,29.1465072 45.9950435,29.0657366 L29.7619767,19.6034588 C29.4675878,19.4473538 29.2815148,19.1410011 29.2771856,18.8052931 C29.2728564,18.4695851 29.4509664,18.1584447 29.74123,17.9946536 C30.0314937,17.8308625 30.3872877,17.8407295 30.6682091,18.0203609 L46.8976797,27.4826387 C47.2519936,27.6900821 47.4244629,28.1116888 47.3184074,28.5111208 C47.2123519,28.9105528 46.8541362,29.188514 46.4445636,29.1891892 L46.4481597,29.1891892 Z" fill="#C1C9D1"></path>
                    <path d="M44.2727042,32.8378378 C44.1129663,32.8377461 43.9560932,32.7950161 43.8179932,32.7139811 L27.5314003,23.2207247 C27.1191721,22.9571954 26.9864361,22.4122386 27.2306076,21.9857996 C27.4747792,21.5593605 28.0088316,21.4034292 28.4408223,21.6324439 L44.7274151,31.1257003 C45.0829761,31.3338229 45.2560524,31.7568098 45.1496236,32.1575495 C45.0431948,32.5582892 44.6837184,32.8371604 44.2727042,32.8378378 Z" fill="#C1C9D1"></path>
                    <path d="M42.0971772,36.8367987 C41.9375031,36.8367071 41.7806926,36.7940321 41.6426477,36.7131013 L25.3625568,27.2320591 C24.9504931,26.9688688 24.8178101,26.4246131 25.0618842,25.9987228 C25.3059582,25.5728325 25.8397974,25.4171017 26.2716157,25.6458218 L42.5589214,35.1414166 C42.9143404,35.3492714 43.0873477,35.7717142 42.9809614,36.1719383 C42.874575,36.5721624 42.5152421,36.8506748 42.1043919,36.8513514 L42.0971772,36.8367987 Z" fill="#C1C9D1"></path>
                    <path d="M31.9942581,3.64864865 L5.22746124,3.64864865 C3.13937705,3.65669564 1.44972662,5.37817497 1.44578313,7.50156435 L1.44578313,50.1470843 C1.44974317,52.2733206 3.14376251,53.995973 5.23465759,54 L31.9942581,54 C34.0851532,53.995973 35.7791725,52.2733206 35.7831325,50.1470843 L35.7831325,7.50156435 C35.7791725,5.37532803 34.0851532,3.65267562 31.9942581,3.64864865 Z" fill="#DDE1E6"></path>
                    <path d="M32.2569133,3.64864865 L28.9156627,3.64864865 C31.0625171,3.65066157 32.8029508,5.37390211 32.8070197,7.50156435 L32.8070197,50.1470843 C32.8029564,52.2733206 31.0647674,53.995973 28.9193546,54 L32.2569133,54 C34.4023261,53.995973 36.140515,52.2733206 36.1445783,50.1470843 L36.1445783,7.50156435 C36.140515,5.37532803 34.4023261,3.65267562 32.2569133,3.64864865 Z" fill="#C1C9D1"></path>
                    <path d="M-5.01820807e-14,12.1784761 L-5.01820807e-14,15.1865708 C-5.01820807e-14,15.464534 0.104819277,15.6891892 0.234939759,15.6891892 L4.10240964,15.6891892 C4.23253012,15.6891892 4.3373494,15.464534 4.3373494,15.1865708 L4.3373494,12.1784761 C4.3373494,11.900513 4.23253012,11.6758578 4.10240964,11.6758578 L0.234939759,11.6758578 C0.104819277,11.6682424 -5.01820807e-14,11.900513 -5.01820807e-14,12.1784761 Z" fill="#C1C9D1"></path>
                    <path d="M-5.01820807e-14,27.1377763 L-5.01820807e-14,30.1460075 C-5.01820807e-14,30.4239833 0.104819277,30.6486486 0.234939759,30.6486486 L4.10240964,30.6486486 C4.23253012,30.6486486 4.3373494,30.4239833 4.3373494,30.1460075 L4.3373494,27.1377763 C4.3373494,26.8598005 4.23253012,26.6351351 4.10240964,26.6351351 L0.234939759,26.6351351 C0.104819277,26.638943 -5.01820807e-14,26.8636084 -5.01820807e-14,27.1377763 Z" fill="#C1C9D1"></path>
                    <path d="M-5.01820807e-14,42.0972358 L-5.01820807e-14,45.1054669 C-5.01820807e-14,45.3834427 0.104819277,45.6081081 0.234939759,45.6081081 L4.10240964,45.6081081 C4.23253012,45.6081081 4.3373494,45.3834427 4.3373494,45.1054669 L4.3373494,42.0972358 C4.3373494,41.81926 4.23253012,41.5945946 4.10240964,41.5945946 L0.234939759,41.5945946 C0.104819277,41.5945946 -5.01820807e-14,41.81926 -5.01820807e-14,42.0972358 Z" fill="#C1C9D1"></path>
                    <path d="M25.3657043,18.972973 L11.8632113,18.972973 C11.4995914,18.972973 11.2048193,18.6723479 11.2048193,18.3015081 L11.2048193,13.4417351 C11.2048193,13.0708953 11.4995914,12.7702703 11.8632113,12.7702703 L25.3657043,12.7702703 C25.5403208,12.7702703 25.7077854,12.8410137 25.8312578,12.9669378 C25.9547303,13.0928618 26.0240964,13.2636516 26.0240964,13.4417351 L26.0240964,18.3015081 C26.0240964,18.4795917 25.9547303,18.6503814 25.8312578,18.7763055 C25.7077854,18.9022296 25.5403208,18.972973 25.3657043,18.972973 Z" fill="#C1C9D1"></path>
                </g>
            </g>
        </g>
    </g>
</svg>