<?xml version="1.0" encoding="UTF-8"?>
<svg width="80px" height="72px" viewBox="0 0 80 72" version="1.1" xmlns="http://www.w3.org/2000/svg" xmlns:xlink="http://www.w3.org/1999/xlink">
    <!-- Generator: sketchtool 52.4 (67378) - http://www.bohemiancoding.com/sketch -->
    <title>0C370218-06D4-42AD-B2BE-9DDECC7E7FC7</title>
    <desc>Created with sketchtool.</desc>
    <g id="design" stroke="none" stroke-width="1" fill="none" fill-rule="evenodd">
        <g id="home-2-hover" transform="translate(-620.000000, -489.000000)" fill-rule="nonzero">
            <g id="about-color" transform="translate(620.000000, 489.000000)">
                <g id="Shape">
                    <path d="M79.4443114,19.5028188 C79.2884661,18.910329 78.9036858,18.4055762 78.3760479,18.1014765 L48.651497,0.792483221 C48.1242372,0.481521454 47.4956715,0.39592626 46.9055433,0.554727265 C46.3154152,0.71352827 45.8126352,1.10356384 45.508982,1.63812081 L19.8562874,46.4907383 C19.2271306,47.5945124 19.6020935,49.0037057 20.6946108,49.6413423 L50.3952096,66.9503356 C51.4894368,67.5849817 52.8864415,67.2067473 53.5185629,66.104698 L79.2143713,21.261745 C79.5216334,20.7302233 79.6044763,20.096517 79.4443114,19.5028188 Z" fill="#E1F0FF"></path>
                    <path d="M44.8431138,7.89583893 L41.9688623,7.89583893 L19.8562874,46.4907383 C19.2271306,47.5945124 19.6020935,49.0037057 20.6946108,49.6413423 L49.8922156,66.645906 L49.8922156,12.9841611 C49.8869361,10.174281 47.6286939,7.89849728 44.8431138,7.89583893 Z" fill="#D1D6DE"></path>
                    <path d="M65.2694611,21.7981208 L52.0287425,14.0665772 C51.4815422,13.717007 51.3053456,12.9941248 51.629464,12.4284559 C51.9535824,11.8627869 52.6624947,11.6559448 53.2359281,11.9597315 L66.4766467,19.6912752 C66.9486257,19.9673486 67.1783708,20.5284384 67.037095,21.0600174 C66.8958192,21.5915964 66.4186427,21.9615175 65.8730539,21.9624161 C65.6610146,21.9622944 65.4527779,21.9056133 65.2694611,21.7981208 Z" fill="#0461B1"></path>
                    <path d="M64.388024,34.3087248 C64.1759846,34.3086031 63.967748,34.251922 63.7844311,34.1444295 L42.1556886,21.5661745 C41.6084883,21.2166043 41.4322917,20.4937222 41.7564101,19.9280532 C42.0805285,19.3623842 42.7894408,19.1555421 43.3628743,19.4593289 L64.9820359,32.0520805 C65.4540149,32.328154 65.6837601,32.8892438 65.5424843,33.4208228 C65.4012085,33.9524017 64.924032,34.3223229 64.3784431,34.3232215 L64.388024,34.3087248 Z" fill="#656D88"></path>
                    <path d="M61.5664671,39.2569128 C61.3544278,39.256791 61.1461911,39.2001099 60.9628743,39.0926174 L39.3389222,26.4998658 C38.9467687,26.2921154 38.6989023,25.8844098 38.6931354,25.4376371 C38.6873685,24.9908644 38.9246275,24.5767872 39.3112857,24.3588078 C39.6979438,24.1408285 40.1718944,24.1539599 40.5461078,24.3930201 L62.1652695,36.9857718 C62.6372485,37.2618453 62.8669936,37.8229351 62.7257178,38.354514 C62.584442,38.886093 62.1072655,39.2560142 61.5616766,39.2569128 L61.5664671,39.2569128 Z" fill="#656D88"></path>
                    <path d="M58.7401198,44.190604 C58.5280804,44.1904823 58.3198438,44.1338012 58.1365269,44.0263087 L36.5173653,31.433557 C35.9701649,31.0839869 35.7939684,30.3611047 36.1180868,29.7954358 C36.4422052,29.2297668 37.1511174,29.0229247 37.7245509,29.3267114 L59.3437126,41.9194631 C59.8156916,42.1955365 60.0454367,42.7566263 59.9041609,43.2882053 C59.7628851,43.8197843 59.2857086,44.1897055 58.7401198,44.190604 Z" fill="#656D88"></path>
                    <path d="M55.9137725,49.1242953 C55.7017331,49.1241736 55.4934965,49.0674925 55.3101796,48.96 L33.691018,36.3672483 C33.1438176,36.0176781 32.9676211,35.294796 33.2917395,34.729127 C33.6158579,34.1634581 34.3247701,33.956616 34.8982036,34.2604027 L56.5269461,46.8724832 C56.9989251,47.1485567 57.2286702,47.7096465 57.0873944,48.2412255 C56.9461186,48.7728044 56.4689421,49.1427256 55.9233533,49.1436242 L55.9137725,49.1242953 Z" fill="#656D88"></path>
                    <path d="M42.5868263,5.1366443 L6.9508982,5.1366443 C4.17093097,5.14727149 1.92141782,7.42072932 1.91616766,10.2249664 L1.91616766,66.5444295 C1.92143986,69.3524264 4.17676953,71.6274335 6.96047904,71.6327517 L42.5868263,71.6327517 C45.3705359,71.6274335 47.6258655,69.3524264 47.6311377,66.5444295 L47.6311377,10.2249664 C47.6258655,7.41696954 45.3705359,5.14196249 42.5868263,5.1366443 Z" fill="#0461B1"></path>
                    <path d="M42.5868263,5.1366443 L38.251497,5.1366443 C41.0370771,5.13930265 43.2953193,7.41508641 43.3005988,10.2249664 L43.3005988,66.5444295 C43.2953266,69.3524264 41.0399969,71.6274335 38.2562874,71.6327517 L42.5868263,71.6327517 C45.3705359,71.6274335 47.6258655,69.3524264 47.6311377,66.5444295 C47.6311377,61.8748402 47.6311377,58.3726482 47.6311377,56.0378536 C47.6311377,45.857212 47.6311377,30.5862496 47.6311377,10.2249664 C47.6258655,7.41696954 45.3705359,5.14196249 42.5868263,5.1366443 Z" fill="#065396"></path>
                    <path d="M-3.06421555e-14,16.5938255 L-3.06421555e-14,20.4112752 C-3.06421555e-14,20.7640268 0.138922156,21.0491275 0.311377246,21.0491275 L5.43712575,21.0491275 C5.60958084,21.0491275 5.74850299,20.7640268 5.74850299,20.4112752 L5.74850299,16.5938255 C5.74850299,16.2410738 5.60958084,15.9559732 5.43712575,15.9559732 L0.311377246,15.9559732 C0.138922156,15.9463087 -3.06421555e-14,16.2410738 -3.06421555e-14,16.5938255 Z" fill="#EA5340"></path>
                    <path d="M-3.06421555e-14,36.4832215 L-3.06421555e-14,40.3006711 C-3.06421555e-14,40.6534228 0.138922156,40.9385235 0.311377246,40.9385235 L5.43712575,40.9385235 C5.60958084,40.9385235 5.74850299,40.6534228 5.74850299,40.3006711 L5.74850299,36.4832215 C5.74850299,36.1304698 5.60958084,35.8453691 5.43712575,35.8453691 L0.311377246,35.8453691 C0.138922156,35.8502013 -3.06421555e-14,36.135302 -3.06421555e-14,36.4832215 Z" fill="#EA5340"></path>
                    <path d="M-3.06421555e-14,56.3774497 L-3.06421555e-14,60.1948993 C-3.06421555e-14,60.547651 0.138922156,60.8327517 0.311377246,60.8327517 L5.43712575,60.8327517 C5.60958084,60.8327517 5.74850299,60.547651 5.74850299,60.1948993 L5.74850299,56.3774497 C5.74850299,56.024698 5.60958084,55.7395973 5.43712575,55.7395973 L0.311377246,55.7395973 C0.138922156,55.7395973 -3.06421555e-14,56.024698 -3.06421555e-14,56.3774497 Z" fill="#EA5340"></path>
                    <path d="M33.6622754,25.6687248 L15.8802395,25.6687248 C15.4013723,25.6687248 15.0131737,25.2771393 15.0131737,24.794094 L15.0131737,18.4638926 C15.0131737,17.9808473 15.4013723,17.5892617 15.8802395,17.5892617 L33.6622754,17.5892617 C33.8922356,17.5892617 34.1127772,17.6814101 34.2753836,17.8454352 C34.43799,18.0094603 34.5293413,18.2319261 34.5293413,18.4638926 L34.5293413,24.794094 C34.5293413,25.0260605 34.43799,25.2485263 34.2753836,25.4125514 C34.1127772,25.5765765 33.8922356,25.6687248 33.6622754,25.6687248 Z" fill="#065396"></path>
                </g>
            </g>
        </g>
    </g>
</svg>