<?xml version="1.0" encoding="UTF-8"?>
<svg width="60px" height="54px" viewBox="0 0 60 54" version="1.1" xmlns="http://www.w3.org/2000/svg" xmlns:xlink="http://www.w3.org/1999/xlink">
    <!-- Generator: Sketch 52.4 (67378) - http://www.bohemiancoding.com/sketch -->
    <title>about color</title>
    <desc>Created with Sketch.</desc>
    <g id="desktop" stroke="none" stroke-width="1" fill="none" fill-rule="evenodd">
        <g id="home-new-hover" transform="translate(-707.000000, -473.000000)" fill-rule="nonzero">
            <g id="about-color" transform="translate(707.000000, 473.000000)">
                <g id="Shape">
                    <path d="M59.5832335,14.6271141 C59.4663496,14.1827467 59.1777644,13.8041822 58.7820359,13.5761074 L36.4886228,0.594362416 C36.0931779,0.361141091 35.6217536,0.296944695 35.1791575,0.416045449 C34.7365614,0.535146203 34.3594764,0.827672882 34.1317365,1.2285906 L14.8922156,34.8680537 C14.4203479,35.6958843 14.7015701,36.7527793 15.5209581,37.2310067 L37.7964072,50.2127517 C38.6170776,50.6887363 39.6648311,50.4050605 40.1389222,49.5785235 L59.4107784,15.9463087 C59.641225,15.5476675 59.7033572,15.0723877 59.5832335,14.6271141 Z" fill="#E1F0FF"></path>
                    <path d="M33.6323353,5.92187919 L31.4766467,5.92187919 L14.8922156,34.8680537 C14.4203479,35.6958843 14.7015701,36.7527793 15.5209581,37.2310067 L37.4191617,49.9844295 L37.4191617,9.73812081 C37.4152021,7.63071078 35.7215204,5.92387296 33.6323353,5.92187919 Z" fill="#D1D6DE"></path>
                    <path d="M48.9520958,16.3485906 L39.0215569,10.5499329 C38.6111566,10.2877553 38.4790092,9.74559363 38.722098,9.32134191 C38.9651868,8.89709019 39.496871,8.74195861 39.9269461,8.96979866 L49.857485,14.7684564 C50.2114693,14.9755115 50.3837781,15.3963288 50.2778213,15.795013 C50.1718644,16.1936973 49.8139821,16.4711382 49.4047904,16.4718121 C49.2457609,16.4717208 49.0895834,16.42921 48.9520958,16.3485906 Z" fill="#0461B1"></path>
                    <path d="M48.291018,25.7315436 C48.1319885,25.7314523 47.975811,25.6889415 47.8383234,25.6083221 L31.6167665,16.1746309 C31.2063662,15.9124532 31.0742188,15.3702916 31.3173076,14.9460399 C31.5603964,14.5217882 32.0920806,14.3666566 32.5221557,14.5944966 L48.7365269,24.0390604 C49.0905112,24.2461155 49.26282,24.6669328 49.1568632,25.0656171 C49.0509063,25.4643013 48.693024,25.7417422 48.2838323,25.7424161 L48.291018,25.7315436 Z" fill="#656D88"></path>
                    <path d="M46.1748503,29.4426846 C46.0158208,29.4425933 45.8596433,29.4000824 45.7221557,29.3194631 L29.5041916,19.8748993 C29.2100766,19.7190866 29.0241767,19.4133074 29.0198515,19.0782278 C29.0155264,18.7431483 29.1934706,18.4325904 29.4834643,18.2691059 C29.7734579,18.1056214 30.1289208,18.1154699 30.4095808,18.2947651 L46.6239521,27.7393289 C46.9779364,27.9463839 47.1502452,28.3672013 47.0442883,28.7658855 C46.9383315,29.1645698 46.5804491,29.4420106 46.1712575,29.4426846 L46.1748503,29.4426846 Z" fill="#656D88"></path>
                    <path d="M44.0550898,33.142953 C43.8960603,33.1428617 43.7398828,33.1003509 43.6023952,33.0197315 L27.388024,23.5751678 C26.9776237,23.3129902 26.8454763,22.7708285 27.0885651,22.3465768 C27.3316539,21.9223251 27.8633381,21.7671935 28.2934132,21.9950336 L44.5077844,31.4395973 C44.8617687,31.6466524 45.0340775,32.0674698 44.9281207,32.466154 C44.8221638,32.8648382 44.4642815,33.1422791 44.0550898,33.142953 Z" fill="#656D88"></path>
                    <path d="M41.9353293,36.8432215 C41.7762999,36.8431302 41.6201224,36.8006194 41.4826347,36.72 L25.2682635,27.2754362 C24.8578632,27.0132586 24.7257158,26.471097 24.9688046,26.0468453 C25.2118934,25.6225935 25.7435776,25.467462 26.1736527,25.695302 L42.3952096,35.1543624 C42.7491938,35.3614175 42.9215027,35.7822349 42.8155458,36.1809191 C42.709589,36.5796033 42.3517066,36.8570442 41.942515,36.8577181 L41.9353293,36.8432215 Z" fill="#656D88"></path>
                    <path d="M31.9401198,3.85248322 L5.21317365,3.85248322 C3.12819823,3.86045362 1.44106336,5.56554699 1.43712575,7.66872483 L1.43712575,49.9083221 C1.44107989,52.0143198 3.13257715,53.7205751 5.22035928,53.7245638 L31.9401198,53.7245638 C34.0279019,53.7205751 35.7193991,52.0143198 35.7233533,49.9083221 L35.7233533,7.66872483 C35.7193991,5.56272715 34.0279019,3.85647186 31.9401198,3.85248322 Z" fill="#0461B1"></path>
                    <path d="M31.9401198,3.85248322 L28.6886228,3.85248322 C30.7778078,3.85447699 32.4714895,5.56131481 32.4754491,7.66872483 L32.4754491,49.9083221 C32.471495,52.0143198 30.7799977,53.7205751 28.6922156,53.7245638 L31.9401198,53.7245638 C34.0279019,53.7205751 35.7193991,52.0143198 35.7233533,49.9083221 C35.7233533,46.4061302 35.7233533,43.7794862 35.7233533,42.0283902 C35.7233533,34.392909 35.7233533,22.9396872 35.7233533,7.66872483 C35.7193991,5.56272715 34.0279019,3.85647186 31.9401198,3.85248322 Z" fill="#065396"></path>
                    <path d="M-3.06421555e-14,12.4453691 L-3.06421555e-14,15.3084564 C-3.06421555e-14,15.5730201 0.104191617,15.7868456 0.233532934,15.7868456 L4.07784431,15.7868456 C4.20718563,15.7868456 4.31137725,15.5730201 4.31137725,15.3084564 L4.31137725,12.4453691 C4.31137725,12.1808054 4.20718563,11.9669799 4.07784431,11.9669799 L0.233532934,11.9669799 C0.104191617,11.9597315 -3.06421555e-14,12.1808054 -3.06421555e-14,12.4453691 Z" fill="#EA5340"></path>
                    <path d="M-3.06421555e-14,27.3624161 L-3.06421555e-14,30.2255034 C-3.06421555e-14,30.4900671 0.104191617,30.7038926 0.233532934,30.7038926 L4.07784431,30.7038926 C4.20718563,30.7038926 4.31137725,30.4900671 4.31137725,30.2255034 L4.31137725,27.3624161 C4.31137725,27.0978523 4.20718563,26.8840268 4.07784431,26.8840268 L0.233532934,26.8840268 C0.104191617,26.887651 -3.06421555e-14,27.1014765 -3.06421555e-14,27.3624161 Z" fill="#EA5340"></path>
                    <path d="M-3.06421555e-14,42.2830872 L-3.06421555e-14,45.1461745 C-3.06421555e-14,45.4107383 0.104191617,45.6245638 0.233532934,45.6245638 L4.07784431,45.6245638 C4.20718563,45.6245638 4.31137725,45.4107383 4.31137725,45.1461745 L4.31137725,42.2830872 C4.31137725,42.0185235 4.20718563,41.804698 4.07784431,41.804698 L0.233532934,41.804698 C0.104191617,41.804698 -3.06421555e-14,42.0185235 -3.06421555e-14,42.2830872 Z" fill="#EA5340"></path>
                    <path d="M25.2467066,19.2515436 L11.9101796,19.2515436 C11.5510292,19.2515436 11.2598802,18.9578544 11.2598802,18.5955705 L11.2598802,13.8479195 C11.2598802,13.4856355 11.5510292,13.1919463 11.9101796,13.1919463 L25.2467066,13.1919463 C25.4191767,13.1919463 25.5845829,13.2610576 25.7065377,13.3840764 C25.8284925,13.5070952 25.897006,13.6739446 25.897006,13.8479195 L25.897006,18.5955705 C25.897006,18.7695454 25.8284925,18.9363947 25.7065377,19.0594135 C25.5845829,19.1824324 25.4191767,19.2515436 25.2467066,19.2515436 Z" fill="#065396"></path>
                </g>
            </g>
        </g>
    </g>
</svg>