<?xml version="1.0" encoding="UTF-8"?>
<svg width="90px" height="115px" viewBox="0 0 90 115" version="1.1" xmlns="http://www.w3.org/2000/svg" xmlns:xlink="http://www.w3.org/1999/xlink">
    <!-- Generator: Sketch 51.2 (57519) - http://www.bohemiancoding.com/sketch -->
    <title>certification</title>
    <desc>Created with Sketch.</desc>
    <defs></defs>
    <g id="design" stroke="none" stroke-width="1" fill="none" fill-rule="evenodd">
        <g id="home" transform="translate(-1050.000000, -1179.000000)" fill-rule="nonzero">
            <g id="certification" transform="translate(1050.000000, 1179.000000)">
                <path d="M89.1891089,27.7604651 L61.4405941,0 L8.91089109,0 C3.98954183,-3.01475509e-16 6.02691461e-16,3.99125998 0,8.91472868 L0,106.085271 C6.02691461e-16,111.00874 3.98954183,115 8.91089109,115 L80.1980198,115 C85.1193691,115 89.1089109,111.00874 89.1089109,106.085271 L89.1891089,27.7604651 Z" id="Shape" fill="#ECF0F1"></path>
                <path d="M61.4405897,0 L61.4405941,18.6050388 C61.4382292,21.0323887 62.4004179,23.3611306 64.1152395,25.0783628 C65.8300612,26.7955951 68.1568622,27.7604663 70.5831683,27.7604651 L89.180198,27.7604651 L61.4405897,0 Z" id="Shape" fill="#C1C9D1"></path>
                <path d="M24.0594059,77.6562016 C19.719802,79.9205426 18.2584158,84.244186 17.7237624,88.7282946 L15.2643564,86.6689922 C13.3663366,85.0286822 10.5148515,87.8189922 12.4752475,89.4682171 L18.0356436,94.1306202 C18.6140134,94.655243 19.4441882,94.7962825 20.1632468,94.4920816 C20.8823054,94.1878806 21.3594686,93.4937659 21.3861386,92.7131783 C21.5287129,88.4162791 21.7336634,83.3081395 26.0376238,81.0705426 C28.3366337,79.9027132 26.3316832,76.4794574 24.0594059,77.6562016 Z" id="Shape" fill="#C1C9D1"></path>
                <path d="M42.5762376,87.7387597 C41.5090117,85.8666205 39.3000602,84.9679266 37.229703,85.5635659 C34.5564356,86.3302326 31.3217822,89.6108527 29.4326733,85.7775194 C28.3009901,83.4864341 24.8881188,85.4922481 26.0108911,87.7744186 C27.5334812,91.0181625 31.3271902,92.5026154 34.6455446,91.1531008 C35.4475248,90.85 38.4594059,88.4786822 39.1009901,89.7356589 C40.4019802,91.9732558 43.8237624,89.9674419 42.5762376,87.7387597 Z" id="Shape" fill="#C1C9D1"></path>
                <path d="M66.4841584,57.6782946 C66.793348,58.5437489 67.4539605,59.2380273 68.30277,59.5895858 C69.1515796,59.9411443 70.1094121,59.9171906 70.939604,59.5236434 C72.1815012,58.9361366 73.6584475,59.1925814 74.629832,60.1643843 C75.6012165,61.1361871 75.8575509,62.6137695 75.270297,63.8562016 C74.8769192,64.6867509 74.8529759,65.644996 75.204383,66.4941711 C75.5557902,67.3433462 76.2497697,68.0042431 77.1148515,68.3135659 C78.4062752,68.7777798 79.2675354,70.002929 79.2675354,71.3757752 C79.2675354,72.7486214 78.4062752,73.9737706 77.1148515,74.4379845 C76.2497697,74.7473073 75.5557902,75.4082042 75.204383,76.2573793 C74.8529759,77.1065544 74.8769192,78.0647994 75.270297,78.8953488 C75.8575509,80.1377809 75.6012165,81.6153632 74.629832,82.5871661 C73.6584475,83.558969 72.1815012,83.8154138 70.939604,83.227907 C70.1094121,82.8343597 69.1515796,82.8104061 68.30277,83.1619646 C67.4539605,83.5135231 66.793348,84.2078015 66.4841584,85.0732558 C66.0201443,86.3652357 64.7955225,87.2268668 63.4232673,87.2268668 C62.0510121,87.2268668 60.8263903,86.3652357 60.3623762,85.0732558 C60.0531866,84.2078015 59.3925742,83.5135231 58.5437646,83.1619646 C57.6949551,82.8104061 56.7371226,82.8343597 55.9069307,83.227907 C54.6650335,83.8154138 53.1880872,83.558969 52.2167027,82.5871661 C51.2453181,81.6153632 50.9889837,80.1377809 51.5762376,78.8953488 C51.9696154,78.0647994 51.9935588,77.1065544 51.6421516,76.2573793 C51.2907445,75.4082042 50.5967649,74.7473073 49.7316832,74.4379845 C48.4402594,73.9737706 47.5789993,72.7486214 47.5789993,71.3757752 C47.5789993,70.002929 48.4402594,68.7777798 49.7316832,68.3135659 C50.5967649,68.0042431 51.2907445,67.3433462 51.6421516,66.4941711 C51.9935588,65.644996 51.9696154,64.6867509 51.5762376,63.8562016 C50.9889837,62.6137695 51.2453181,61.1361871 52.2167027,60.1643843 C53.1880872,59.1925814 54.6650335,58.9361366 55.9069307,59.5236434 C56.7371226,59.9171906 57.6949551,59.9411443 58.5437646,59.5895858 C59.3925742,59.2380273 60.0531866,58.5437489 60.3623762,57.6782946 C60.8263903,56.3863147 62.0510121,55.5246836 63.4232673,55.5246836 C64.7955225,55.5246836 66.0201443,56.3863147 66.4841584,57.6782946 Z" id="Shape" fill="#C1C9D1"></path>
                <path d="M70.939604,83.2368217 C70.1094121,82.8432745 69.1515796,82.8193208 68.30277,83.1708793 C67.4539605,83.5224378 66.793348,84.2167162 66.4841584,85.0821705 C66.0201443,86.3741505 64.7955225,87.2357815 63.4232673,87.2357815 C62.0510121,87.2357815 60.8263903,86.3741505 60.3623762,85.0821705 C60.0555113,84.2149149 59.3951003,83.5187327 58.5454432,83.1668231 C57.695786,82.8149136 56.7367509,82.8403564 55.9069307,83.2368217 C55.7732559,83.2875923 55.6363117,83.3292889 55.4970297,83.3616279 L55.4970297,103.722868 C55.4988433,103.952225 55.6377663,104.158197 55.849682,104.245723 C56.0615977,104.333248 56.3053013,104.28531 56.4683168,104.124031 L62.2247525,98.3651163 C62.8892999,97.7008473 63.9661456,97.7008473 64.6306931,98.3651163 L70.3960396,104.115116 C70.5590551,104.276395 70.8027587,104.324334 71.0146744,104.236808 C71.2265901,104.149282 71.3655132,103.94331 71.3673267,103.713953 L71.3673267,83.3527132 C71.2222265,83.3241044 71.0793037,83.2853795 70.939604,83.2368217 Z" id="Shape" fill="#DDE1E6"></path>
                <path d="M29.9316832,28.5271318 L13.8920792,28.5271318 C12.9078094,28.5271318 12.109901,27.7288798 12.109901,26.744186 C12.109901,25.7594923 12.9078094,24.9612403 13.8920792,24.9612403 L29.9316832,24.9612403 C30.915953,24.9612403 31.7138614,25.7594923 31.7138614,26.744186 C31.7138614,27.7288798 30.915953,28.5271318 29.9316832,28.5271318 Z" id="Shape" fill="#C1C9D1"></path>
                <path d="M40.6247525,28.5271318 L37.060396,28.5271318 C36.0761262,28.5271318 35.2782178,27.7288798 35.2782178,26.744186 C35.2782178,25.7594923 36.0761262,24.9612403 37.060396,24.9612403 L40.6247525,24.9612403 C41.6090223,24.9612403 42.4069307,25.7594923 42.4069307,26.744186 C42.4069307,27.7288798 41.6090223,28.5271318 40.6247525,28.5271318 Z" id="Shape" fill="#C1C9D1"></path>
                <path d="M37.060396,39.2248062 L13.8920792,39.2248062 C12.9078094,39.2248062 12.109901,38.4265542 12.109901,37.4418605 C12.109901,36.4571667 12.9078094,35.6589147 13.8920792,35.6589147 L37.060396,35.6589147 C38.0446659,35.6589147 38.8425743,36.4571667 38.8425743,37.4418605 C38.8425743,38.4265542 38.0446659,39.2248062 37.060396,39.2248062 Z" id="Shape" fill="#C1C9D1"></path>
                <rect id="Rectangle-path" fill="#C1C9D1" x="12.109901" y="45.4651163" width="39.2079208" height="3.56589147" rx="1.78217822"></rect>
            </g>
        </g>
    </g>
</svg>