<?xml version="1.0" encoding="UTF-8"?>
<svg width="40px" height="56px" viewBox="0 0 40 56" version="1.1" xmlns="http://www.w3.org/2000/svg" xmlns:xlink="http://www.w3.org/1999/xlink">
    <!-- Generator: sketchtool 52.4 (67378) - http://www.bohemiancoding.com/sketch -->
    <title>2F421E60-DD1D-4B09-9296-64FA776EDCE2</title>
    <desc>Created with sketchtool.</desc>
    <g id="desktop" stroke="none" stroke-width="1" fill="none" fill-rule="evenodd">
        <g id="home-new" transform="translate(-1034.000000, -698.000000)" fill-rule="nonzero">
            <g id="tutorial" transform="translate(1034.000000, 698.000000)">
                <g>
                    <path d="M37.0444444,51.072 L-3.55271368e-15,51.072 L-3.55271368e-15,-3.05533376e-13 L37.04,-3.05533376e-13 C38.6526715,-3.02546241e-13 39.96,1.31778716 39.96,2.94336 L39.96,48.14208 C39.9526697,49.7606554 38.6501889,51.0695533 37.0444444,51.072 Z" id="Shape" fill="#BFC9D1"></path>
                    <path d="M4.51555556,16.7104 L35.4888889,16.7104 C36.5066667,16.7104 37.3333333,17.6736 37.3333333,18.85632 L37.3333333,32.256 C37.3333333,33.4432 36.5066667,34.40192 35.4888889,34.40192 L4.51555556,34.40192 C3.49333333,34.39296 2.66666667,33.43424 2.66666667,32.256 L2.66666667,18.85632 C2.66666667,17.66912 3.49333333,16.7104 4.51555556,16.7104 Z" id="Shape" fill="#ECF0F1"></path>
                    <polygon id="Shape" fill="#AFB8BF" points="9.74666667 56 6.82222222 54.03328 3.89777778 56 3.89777778 51.08544 9.74666667 51.08544"></polygon>
                    <rect id="Rectangle-path" fill="#C1C9D1" x="9.77777778" y="22.848" width="19.5555556" height="1.792" rx="0.888888889"></rect>
                    <rect id="Rectangle-path" fill="#C1C9D1" x="9.77777778" y="26.88" width="7.55555556" height="1.792" rx="0.888888889"></rect>
                    <rect id="Rectangle-path" fill="#C1C9D1" x="18.2222222" y="26.88" width="11.1111111" height="1.792" rx="0.888888889"></rect>
                </g>
            </g>
        </g>
    </g>
</svg>