<?xml version="1.0" encoding="UTF-8"?>
<svg width="58px" height="81px" viewBox="0 0 58 81" version="1.1" xmlns="http://www.w3.org/2000/svg" xmlns:xlink="http://www.w3.org/1999/xlink">
    <!-- Generator: sketchtool 52.4 (67378) - http://www.bohemiancoding.com/sketch -->
    <title>0550E976-4BAE-4E9B-BACA-FAB1B7C4DAC4</title>
    <desc>Created with sketchtool.</desc>
    <g id="design" stroke="none" stroke-width="1" fill="none" fill-rule="evenodd">
        <g id="home-2" transform="translate(-1517.000000, -818.000000)" fill-rule="nonzero">
            <g id="tutorial" transform="translate(1517.000000, 818.000000)">
                <g>
                    <path d="M53.7144444,73.872 L-3.55271368e-15,73.872 L-3.55271368e-15,-3.05533376e-13 L53.708,-3.05533376e-13 C56.0463736,-3.01212699e-13 57.942,1.906085 57.942,4.25736 L57.942,69.63408 C57.931371,71.9752338 56.042774,73.868461 53.7144444,73.872 Z" id="Shape" fill="#C1C9D1"></path>
                    <path d="M6.54755556,24.1704 L51.4588889,24.1704 C52.9346667,24.1704 54.1333333,25.5636 54.1333333,27.27432 L54.1333333,46.656 C54.1333333,48.3732 52.9346667,49.75992 51.4588889,49.75992 L6.54755556,49.75992 C5.06533333,49.74696 3.86666667,48.36024 3.86666667,46.656 L3.86666667,27.27432 C3.86666667,25.55712 5.06533333,24.1704 6.54755556,24.1704 Z" id="Shape" fill="#ECF0F1"></path>
                    <polygon id="Shape" fill="#AFB8BF" points="14.1326667 81 9.89222222 78.15528 5.65177778 81 5.65177778 73.89144 14.1326667 73.89144"></polygon>
                    <rect id="Rectangle-path" fill="#C1C9D1" x="14.1777778" y="33.048" width="28.3555556" height="2.592" rx="1.28888889"></rect>
                    <rect id="Rectangle-path" fill="#C1C9D1" x="14.1777778" y="38.88" width="10.9555556" height="2.592" rx="1.28888889"></rect>
                    <rect id="Rectangle-path" fill="#C1C9D1" x="26.4222222" y="38.88" width="16.1111111" height="2.592" rx="1.28888889"></rect>
                </g>
            </g>
        </g>
    </g>
</svg>