<?xml version="1.0" encoding="UTF-8"?>
<svg width="70px" height="67px" viewBox="0 0 70 67" version="1.1" xmlns="http://www.w3.org/2000/svg" xmlns:xlink="http://www.w3.org/1999/xlink">
    <!-- Generator: sketchtool 52.4 (67378) - http://www.bohemiancoding.com/sketch -->
    <title>DB529DC9-29B1-4FB6-9982-A48E86BD0F61</title>
    <desc>Created with sketchtool.</desc>
    <g id="design" stroke="none" stroke-width="1" fill="none" fill-rule="evenodd">
        <g id="home-2-hover" transform="translate(-1071.000000, -988.000000)" fill-rule="nonzero">
            <g id="forum-color" transform="translate(1071.000000, 988.000000)">
                <g id="Shape">
                    <path d="M70,5.477036 C70,4.02443574 69.423884,2.6313302 68.398391,1.6041867 C67.3728979,0.577043208 65.9820309,-1.16178228e-13 64.5317647,-1.13686838e-13 L22.9682353,-1.13686838e-13 C19.9482123,-1.13872058e-13 17.5,2.45215255 17.5,5.477036 L17.5,35.0563298 C17.5,38.0812133 19.9482123,40.5333659 22.9682353,40.5333659 L64.5317647,40.5333659 C65.9820309,40.5333659 67.3728979,39.9563226 68.398391,38.9291791 C69.423884,37.9020357 70,36.5089301 70,35.0563298 L70,5.477036 Z" fill="#E1F0FF"></path>
                    <path d="M55.7776471,7.67114983 L14.2223529,7.67114983 C11.2042105,7.67569228 8.7586528,10.1251859 8.75411765,13.1481858 L8.75411765,42.7274797 C8.7586528,45.7504796 11.2042105,48.1999732 14.2223529,48.2045157 L55.7776471,48.2045157 C58.7957895,48.1999732 61.2413472,45.7504796 61.2458824,42.7274797 L61.2458824,13.1481858 C61.2413472,10.1251859 58.7957895,7.67569228 55.7776471,7.67114983 Z" fill="#C2D5E7"></path>
                    <path d="M47.0317647,15.3340511 L5.46823529,15.3340511 C2.45009285,15.3385936 0.00453515785,17.7880872 0,20.8110871 L0,50.390381 C0.00453515785,53.4133809 2.45009285,55.8628745 5.46823529,55.867417 L10.9364706,55.867417 L10.9364706,65.7656748 C10.9500426,66.1845626 11.1989825,66.5597292 11.5793118,66.7344729 C11.9596411,66.9092167 12.4059279,66.8534747 12.7317647,66.5905296 L25.5294118,55.867417 L47.0317647,55.867417 C50.0499071,55.8628745 52.4954648,53.4133809 52.5,50.390381 L52.5,20.8110871 C52.4954648,17.7880872 50.0499071,15.3385936 47.0317647,15.3340511 Z" fill="#E1F0FF"></path>
                    <path d="M3.29411765,50.390381 L3.29411765,20.8110871 C3.2986528,17.7880872 5.7442105,15.3385936 8.76235294,15.3340511 L5.46823529,15.3340511 C2.45009285,15.3385936 0.00453515785,17.7880872 1.08357767e-13,20.8110871 L1.08357767e-13,50.390381 C0.00453515785,53.4133809 2.45009285,55.8628745 5.46823529,55.867417 L8.76235294,55.867417 C5.7442105,55.8628745 3.2986528,53.4133809 3.29411765,50.390381 Z" fill="#C2D5E7"></path>
                    <path d="M14.2223529,55.867417 L10.9282353,55.867417 L10.9282353,65.7656748 C10.9418073,66.1845626 11.1907472,66.5597292 11.5710765,66.7344729 C11.9514058,66.9092167 12.3976926,66.8534747 12.7235294,66.5905296 L14.2141176,65.3532474 L14.2223529,55.867417 Z" fill="#C2D5E7"></path>
                    <path d="M21.8729412,27.38518 L13.1270588,27.38518 C12.5221446,27.38518 12.0317647,26.8940109 12.0317647,26.2881231 C12.0317647,25.6822353 12.5221446,25.1910662 13.1270588,25.1910662 L21.8729412,25.1910662 C22.4778554,25.1910662 22.9682353,25.6822353 22.9682353,26.2881231 C22.9682353,26.8940109 22.4778554,27.38518 21.8729412,27.38518 Z" fill="#0461B1"></path>
                    <path d="M32.8094118,27.38518 L26.2211765,27.38518 C25.6162622,27.38518 25.1258824,26.8940109 25.1258824,26.2881231 C25.1258824,25.6822353 25.6162622,25.1910662 26.2211765,25.1910662 L32.8094118,25.1910662 C33.414326,25.1910662 33.9047059,25.6822353 33.9047059,26.2881231 C33.9047059,26.8940109 33.414326,27.38518 32.8094118,27.38518 Z" fill="#0461B1"></path>
                    <path d="M27.3411765,36.1533868 L13.1270588,36.1533868 C12.5221446,36.1533867 12.0317648,35.6622176 12.0317648,35.0563298 C12.0317648,34.4504421 12.5221446,33.959273 13.1270588,33.9592729 L27.3411765,33.9592729 C27.9460907,33.9592729 28.4364706,34.450442 28.4364706,35.0563298 C28.4364706,35.6622177 27.9460907,36.1533868 27.3411765,36.1533868 Z" fill="#C1C9D1"></path>
                    <path d="M44.8411765,36.1533868 L32.8094118,36.1533868 C32.2044976,36.1533867 31.7141177,35.6622176 31.7141177,35.0563298 C31.7141177,34.4504421 32.2044976,33.959273 32.8094118,33.9592729 L44.8411765,33.9592729 C45.4460907,33.9592729 45.9364706,34.450442 45.9364706,35.0563298 C45.9364706,35.6622177 45.4460907,36.1533868 44.8411765,36.1533868 Z" fill="#C1C9D1"></path>
                    <path d="M21.8729412,41.6304228 L13.1270588,41.6304228 C12.5221446,41.6304228 12.0317647,41.1392537 12.0317647,40.5333659 C12.0317647,39.9274781 12.5221446,39.4363089 13.1270588,39.4363089 L21.8729412,39.4363089 C22.4778554,39.4363089 22.9682353,39.9274781 22.9682353,40.5333659 C22.9682353,41.1392537 22.4778554,41.6304228 21.8729412,41.6304228 Z" fill="#C1C9D1"></path>
                    <path d="M44.8411765,41.6304228 L26.2541176,41.6304228 C25.6492034,41.6304228 25.1588235,41.1392537 25.1588235,40.5333659 C25.1588235,39.9274781 25.6492034,39.4363089 26.2541176,39.4363089 L44.8411765,39.4363089 C45.4460907,39.4363089 45.9364706,39.9274781 45.9364706,40.5333659 C45.9364706,41.1392537 45.4460907,41.6304228 44.8411765,41.6304228 Z" fill="#EA5340"></path>
                    <path d="M32.8094118,47.1074588 L13.1270588,47.1074588 C12.5221446,47.1074587 12.0317648,46.6162896 12.0317648,46.0104019 C12.0317648,45.4045141 12.5221446,44.913345 13.1270588,44.9133449 L32.8094118,44.9133449 C33.414326,44.9133449 33.9047059,45.4045141 33.9047059,46.0104019 C33.9047059,46.6162897 33.414326,47.1074588 32.8094118,47.1074588 Z" fill="#C1C9D1"></path>
                </g>
            </g>
        </g>
    </g>
</svg>