<?xml version="1.0" encoding="UTF-8"?>
<svg width="58px" height="74px" viewBox="0 0 58 74" version="1.1" xmlns="http://www.w3.org/2000/svg" xmlns:xlink="http://www.w3.org/1999/xlink">
    <!-- Generator: sketchtool 52.4 (67378) - http://www.bohemiancoding.com/sketch -->
    <title>221712C6-C591-41E2-8040-0021B2CE86DE</title>
    <desc>Created with sketchtool.</desc>
    <g id="design" stroke="none" stroke-width="1" fill="none" fill-rule="evenodd">
        <g id="home-2" transform="translate(-1077.000000, -819.000000)" fill-rule="nonzero">
            <g id="certification" transform="translate(1077.000000, 819.000000)">
                <g>
                    <path d="M57.4774257,17.8632558 L39.5950495,0 L5.74257426,0 C2.57103807,-1.93992936e-16 3.94111484e-15,2.56828903 3.55271368e-15,5.73643411 L3.55271368e-15,68.2635659 C3.94111484e-15,71.431711 2.57103807,74 5.74257426,74 L51.6831683,74 C54.8547045,74 57.4257426,71.431711 57.4257426,68.2635659 L57.4774257,17.8632558 Z" id="Shape" fill="#ECF0F1"></path>
                    <path d="M39.5950467,4.08562073e-13 L39.5950495,11.971938 C39.5935255,13.5338849 40.2136026,15.0323797 41.3187099,16.1373813 C42.4238172,17.2423829 43.9233112,17.8632566 45.4869307,17.8632558 L57.4716832,17.8632558 L39.5950467,4.08562073e-13 Z" id="Shape" fill="#C1C9D1"></path>
                    <path d="M15.5049505,49.9700775 C12.7083168,51.4271318 11.7665347,54.2093023 11.4219802,57.0947287 L9.8370297,55.7696124 C8.61386139,54.7141085 6.77623762,56.5096124 8.03960396,57.5708527 L11.6229703,60.5710078 C11.9956975,60.9085911 12.530699,60.999347 12.9940924,60.8036003 C13.4574857,60.6078536 13.7649909,60.1612059 13.7821782,59.6589147 C13.8740594,56.8939535 14.0061386,53.6069767 16.779802,52.1671318 C18.2613861,51.4156589 16.9693069,49.2128682 15.5049505,49.9700775 Z" id="Shape" fill="#C1C9D1"></path>
                    <path d="M27.4380198,56.4579845 C26.750252,55.2533036 25.3267054,54.6750137 23.9924752,55.0582946 C22.269703,55.5516279 20.1851485,57.6626357 18.9677228,55.195969 C18.2384158,53.7217054 16.0390099,55.0124031 16.7625743,56.4809302 C17.743799,58.5682089 20.1886337,59.5234221 22.3271287,58.6550388 C22.8439604,58.46 24.7849505,56.9341085 25.1984158,57.7429457 C26.0368317,59.1827907 28.2419802,57.892093 27.4380198,56.4579845 Z" id="Shape" fill="#C1C9D1"></path>
                    <path d="M42.8453465,37.1147287 C43.0446021,37.6716297 43.4703301,38.1183828 44.0173407,38.344603 C44.5643513,38.5708233 45.1816211,38.5554096 45.7166337,38.3021705 C46.5169674,37.9241227 47.4687773,38.0891393 48.0947806,38.7144734 C48.720784,39.3398074 48.8859773,40.2905995 48.5075248,41.0900775 C48.2540146,41.624518 48.2385845,42.2411278 48.4650469,42.7875536 C48.6915092,43.3339793 49.1387405,43.7592521 49.6962376,43.9582946 C50.5284885,44.2570062 51.0835228,45.045363 51.0835228,45.9287597 C51.0835228,46.8121564 50.5284885,47.6005132 49.6962376,47.8992248 C49.1387405,48.0982673 48.6915092,48.5235401 48.4650469,49.0699658 C48.2385845,49.6163915 48.2540146,50.2330014 48.5075248,50.7674419 C48.8859773,51.5669199 48.720784,52.517712 48.0947806,53.143046 C47.4687773,53.76838 46.5169674,53.9333967 45.7166337,53.5553488 C45.1816211,53.3021098 44.5643513,53.2866961 44.0173407,53.5129164 C43.4703301,53.7391366 43.0446021,54.1858897 42.8453465,54.7427907 C42.5463152,55.5741517 41.7571145,56.1285926 40.8727723,56.1285926 C39.98843,56.1285926 39.1992293,55.5741517 38.900198,54.7427907 C38.7009425,54.1858897 38.2752145,53.7391366 37.7282039,53.5129164 C37.1811933,53.2866961 36.5639234,53.3021098 36.0289109,53.5553488 C35.2285771,53.9333967 34.2767673,53.76838 33.6507639,53.143046 C33.0247606,52.517712 32.8595673,51.5669199 33.2380198,50.7674419 C33.4915299,50.2330014 33.5069601,49.6163915 33.2804977,49.0699658 C33.0540353,48.5235401 32.6068041,48.0982673 32.0493069,47.8992248 C31.2170561,47.6005132 30.6620217,46.8121564 30.6620217,45.9287597 C30.6620217,45.045363 31.2170561,44.2570062 32.0493069,43.9582946 C32.6068041,43.7592521 33.0540353,43.3339793 33.2804977,42.7875536 C33.5069601,42.2411278 33.4915299,41.624518 33.2380198,41.0900775 C32.8595673,40.2905995 33.0247606,39.3398074 33.6507639,38.7144734 C34.2767673,38.0891393 35.2285771,37.9241227 36.0289109,38.3021705 C36.5639234,38.5554096 37.1811933,38.5708233 37.7282039,38.344603 C38.2752145,38.1183828 38.7009425,37.6716297 38.900198,37.1147287 C39.1992293,36.2833677 39.98843,35.7289268 40.8727723,35.7289268 C41.7571145,35.7289268 42.5463152,36.2833677 42.8453465,37.1147287 Z" id="Shape" fill="#C1C9D1"></path>
                    <path d="M45.7166337,53.5610853 C45.1816211,53.3078462 44.5643513,53.2924325 44.0173407,53.5186528 C43.4703301,53.744873 43.0446021,54.1916261 42.8453465,54.7485271 C42.5463152,55.5798881 41.7571145,56.134329 40.8727723,56.134329 C39.98843,56.134329 39.1992293,55.5798881 38.900198,54.7485271 C38.7024406,54.190467 38.2768424,53.7424888 37.7292856,53.5160427 C37.1817288,53.2895966 36.5636839,53.3059684 36.0289109,53.5610853 C35.9427649,53.5937551 35.854512,53.6205859 35.7647525,53.6413953 L35.7647525,66.7434109 C35.7659212,66.8909968 35.8554494,67.0235354 35.9920173,67.0798563 C36.1285852,67.1361773 36.2856386,67.1053296 36.3906931,67.0015504 L40.100396,63.295814 C40.5286599,62.8683713 41.2226272,62.8683713 41.6508911,63.295814 L45.3663366,66.995814 C45.4713911,67.0995932 45.6284445,67.1304409 45.7650124,67.0741199 C45.9015803,67.017799 45.9911085,66.8852604 45.9922772,66.7376744 L45.9922772,53.6356589 C45.8987682,53.6172498 45.8066624,53.5923311 45.7166337,53.5610853 Z" id="Shape" fill="#DDE1E6"></path>
                    <path d="M19.2893069,18.3565891 L8.95267327,18.3565891 C8.31836603,18.3565891 7.80415842,17.8429313 7.80415842,17.2093023 C7.80415842,16.5756733 8.31836603,16.0620155 8.95267327,16.0620155 L19.2893069,16.0620155 C19.9236142,16.0620155 20.4378218,16.5756733 20.4378218,17.2093023 C20.4378218,17.8429313 19.9236142,18.3565891 19.2893069,18.3565891 Z" id="Shape" fill="#C1C9D1"></path>
                    <path d="M26.180396,18.3565891 L23.8833663,18.3565891 C23.2490591,18.3565891 22.7348515,17.8429313 22.7348515,17.2093023 C22.7348515,16.5756733 23.2490591,16.0620155 23.8833663,16.0620155 L26.180396,16.0620155 C26.8147033,16.0620155 27.3289109,16.5756733 27.3289109,17.2093023 C27.3289109,17.8429313 26.8147033,18.3565891 26.180396,18.3565891 Z" id="Shape" fill="#C1C9D1"></path>
                    <path d="M23.8833663,25.2403101 L8.95267327,25.2403101 C8.31836603,25.2403101 7.80415842,24.7266523 7.80415842,24.0930233 C7.80415842,23.4593942 8.31836603,22.9457364 8.95267327,22.9457364 L23.8833663,22.9457364 C24.5176736,22.9457364 25.0318812,23.4593942 25.0318812,24.0930233 C25.0318812,24.7266523 24.5176736,25.2403101 23.8833663,25.2403101 Z" id="Shape" fill="#C1C9D1"></path>
                    <rect id="Rectangle-path" fill="#C1C9D1" x="7.80415842" y="29.255814" width="25.2673267" height="2.29457364" rx="1.14728682"></rect>
                </g>
            </g>
        </g>
    </g>
</svg>