<?xml version="1.0" encoding="UTF-8"?>
<svg width="110px" height="105px" viewBox="0 0 110 105" version="1.1" xmlns="http://www.w3.org/2000/svg" xmlns:xlink="http://www.w3.org/1999/xlink">
    <!-- Generator: Sketch 51.2 (57519) - http://www.bohemiancoding.com/sketch -->
    <title>forum color</title>
    <desc>Created with Sketch.</desc>
    <defs></defs>
    <g id="design" stroke="none" stroke-width="1" fill="none" fill-rule="evenodd">
        <g id="home-hovers-active" transform="translate(-1040.000000, -1488.000000)" fill-rule="nonzero">
            <g id="forum-color" transform="translate(1040.000000, 1488.000000)">
                <path d="M110,8.58341463 C110,6.30695153 109.094675,4.12372644 107.483186,2.51402394 C105.871697,0.904321445 103.686049,-3.90441764e-15 101.407059,0 L36.0929412,0 C31.3471908,-2.90271234e-16 27.5,3.84292563 27.5,8.58341463 L27.5,54.9390244 C27.5,59.6795134 31.3471908,63.522439 36.0929412,63.522439 L101.407059,63.522439 C103.686049,63.522439 105.871697,62.6181176 107.483186,61.0084151 C109.094675,59.3987126 110,57.2154875 110,54.9390244 L110,8.58341463 Z" id="Shape" fill="#E1F0FF"></path>
                <path d="M87.6505882,12.0219512 L22.3494118,12.0219512 C17.6066165,12.02907 13.7635973,15.8678287 13.7564706,20.6053659 L13.7564706,66.9609756 C13.7635973,71.6985128 17.6066165,75.5372715 22.3494118,75.5443902 L87.6505882,75.5443902 C92.3933835,75.5372715 96.2364027,71.6985128 96.2435294,66.9609756 L96.2435294,20.6053659 C96.2364027,15.8678287 92.3933835,12.02907 87.6505882,12.0219512 Z" id="Shape" fill="#C2D5E7"></path>
                <path d="M73.9070588,24.0309756 L8.59294118,24.0309756 C3.85014591,24.0380944 0.00712667662,27.8768531 0,32.6143902 L0,78.97 C0.00712667662,83.7075372 3.85014591,87.5462959 8.59294118,87.5534146 L17.1858824,87.5534146 L17.1858824,103.06561 C17.2072097,103.722076 17.5984011,104.310023 18.1960614,104.583875 C18.7937217,104.857728 19.4950296,104.770371 20.0070588,104.358293 L40.1176471,87.5534146 L73.9070588,87.5534146 C78.6498541,87.5462959 82.4928733,83.7075372 82.5,78.97 L82.5,32.6143902 C82.4928733,27.8768531 78.6498541,24.0380944 73.9070588,24.0309756 Z" id="Shape" fill="#E1F0FF"></path>
                <path d="M5.17647059,78.97 L5.17647059,32.6143902 C5.18359726,27.8768531 9.0266165,24.0380944 13.7694118,24.0309756 L8.59294118,24.0309756 C3.85014591,24.0380944 0.00712667662,27.8768531 8.8817842e-16,32.6143902 L8.8817842e-16,78.97 C0.00712667662,83.7075372 3.85014591,87.5462959 8.59294118,87.5534146 L13.7694118,87.5534146 C9.0266165,87.5462959 5.18359726,83.7075372 5.17647059,78.97 Z" id="Shape" fill="#C2D5E7"></path>
                <path d="M22.3494118,87.5534146 L17.1729412,87.5534146 L17.1729412,103.06561 C17.1942685,103.722076 17.5854599,104.310023 18.1831202,104.583875 C18.7807806,104.857728 19.4820884,104.770371 19.9941176,104.358293 L22.3364706,102.419268 L22.3494118,87.5534146 Z" id="Shape" fill="#C2D5E7"></path>
                <path d="M34.3717647,42.9170732 L20.6282353,42.9170732 C19.6776558,42.9170732 18.9070588,42.1473305 18.9070588,41.1978049 C18.9070588,40.2482792 19.6776558,39.4785366 20.6282353,39.4785366 L34.3717647,39.4785366 C35.3223442,39.4785366 36.0929412,40.2482792 36.0929412,41.1978049 C36.0929412,42.1473305 35.3223442,42.9170732 34.3717647,42.9170732 Z" id="Shape" fill="#0461B1"></path>
                <path d="M51.5576471,42.9170732 L41.2047059,42.9170732 C40.2541264,42.9170732 39.4835294,42.1473305 39.4835294,41.1978049 C39.4835294,40.2482792 40.2541264,39.4785366 41.2047059,39.4785366 L51.5576471,39.4785366 C52.5082266,39.4785366 53.2788235,40.2482792 53.2788235,41.1978049 C53.2788235,42.1473305 52.5082266,42.9170732 51.5576471,42.9170732 Z" id="Shape" fill="#0461B1"></path>
                <path d="M42.9647059,56.6582927 L20.6282353,56.6582927 C19.6776558,56.6582926 18.9070589,55.88855 18.9070589,54.9390244 C18.9070589,53.9894988 19.6776558,53.2197562 20.6282353,53.2197561 L42.9647059,53.2197561 C43.9152854,53.2197561 44.6858824,53.9894987 44.6858824,54.9390244 C44.6858824,55.88855 43.9152854,56.6582927 42.9647059,56.6582927 Z" id="Shape" fill="#C1C9D1"></path>
                <path d="M70.4647059,56.6582927 L51.5576471,56.6582927 C50.6070676,56.6582926 49.8364707,55.88855 49.8364707,54.9390244 C49.8364707,53.9894988 50.6070676,53.2197562 51.5576471,53.2197561 L70.4647059,53.2197561 C71.4152854,53.2197561 72.1858824,53.9894987 72.1858824,54.9390244 C72.1858824,55.88855 71.4152854,56.6582927 70.4647059,56.6582927 Z" id="Shape" fill="#C1C9D1"></path>
                <path d="M34.3717647,65.2417073 L20.6282353,65.2417073 C19.6776558,65.2417073 18.9070588,64.4719647 18.9070588,63.522439 C18.9070588,62.5729134 19.6776558,61.8031707 20.6282353,61.8031707 L34.3717647,61.8031707 C35.3223442,61.8031707 36.0929412,62.5729134 36.0929412,63.522439 C36.0929412,64.4719647 35.3223442,65.2417073 34.3717647,65.2417073 Z" id="Shape" fill="#C1C9D1"></path>
                <path d="M70.4647059,65.2417073 L41.2564706,65.2417073 C40.3058911,65.2417073 39.5352941,64.4719647 39.5352941,63.522439 C39.5352941,62.5729134 40.3058911,61.8031707 41.2564706,61.8031707 L70.4647059,61.8031707 C71.4152854,61.8031707 72.1858824,62.5729134 72.1858824,63.522439 C72.1858824,64.4719647 71.4152854,65.2417073 70.4647059,65.2417073 Z" id="Shape" fill="#EA5340"></path>
                <path d="M51.5576471,73.825122 L20.6282353,73.825122 C19.6776558,73.8251219 18.907059,73.0553793 18.907059,72.1058537 C18.907059,71.1563281 19.6776558,70.3865854 20.6282353,70.3865854 L51.5576471,70.3865854 C52.5082266,70.3865854 53.2788235,71.156328 53.2788235,72.1058537 C53.2788235,73.0553793 52.5082266,73.825122 51.5576471,73.825122 Z" id="Shape" fill="#C1C9D1"></path>
            </g>
        </g>
    </g>
</svg>