<?xml version="1.0" encoding="UTF-8"?>
<svg width="116px" height="116px" viewBox="0 0 116 116" version="1.1" xmlns="http://www.w3.org/2000/svg" xmlns:xlink="http://www.w3.org/1999/xlink">
    <!-- Generator: Sketch 51.2 (57519) - http://www.bohemiancoding.com/sketch -->
    <title>developer color</title>
    <desc>Created with Sketch.</desc>
    <defs></defs>
    <g id="design" stroke="none" stroke-width="1" fill="none" fill-rule="evenodd">
        <g id="home-hovers-active" transform="translate(-581.000000, -884.000000)" fill-rule="nonzero">
            <g id="developer-color" transform="translate(581.000000, 884.000000)">
                <rect id="Rectangle-path" fill="#E1F0FF" x="0" y="0" width="116" height="116" rx="10.06"></rect>
                <path d="M0,11 L14,11 L14,116 L10,116 C4.48,116 0,110.89 0,104.59 L0,11 Z" id="Shape" fill="#C2D5E7"></path>
                <path d="M6,36 L8,36 C9.1045695,36 10,35.1045695 10,34 C10,32.8954305 9.1045695,32 8,32 L6,32 C4.8954305,32 4,32.8954305 4,34 C4,35.1045695 4.8954305,36 6,36 Z" id="Shape" fill="#EBEEF2"></path>
                <path d="M6,28 L8,28 C9.1045695,28 10,27.1045695 10,26 C10,24.8954305 9.1045695,24 8,24 L6,24 C4.8954305,24 4,24.8954305 4,26 C4,27.1045695 4.8954305,28 6,28 Z" id="Shape" fill="#EBEEF2"></path>
                <path d="M6,20 L8,20 C9.1045695,20 10,19.1045695 10,18 C10,16.8954305 9.1045695,16 8,16 L6,16 C4.8954305,16 4,16.8954305 4,18 C4,19.1045695 4.8954305,20 6,20 Z" id="Shape" fill="#EBEEF2"></path>
                <path d="M8,40 L6,40 C4.8954305,40 4,40.8954305 4,42 C4,43.1045695 4.8954305,44 6,44 L8,44 C9.1045695,44 10,43.1045695 10,42 C10,40.8954305 9.1045695,40 8,40 Z" id="Shape" fill="#EBEEF2"></path>
                <path d="M8,48 L6,48 C4.8954305,48 4,48.8954305 4,50 C4,51.1045695 4.8954305,52 6,52 L8,52 C9.1045695,52 10,51.1045695 10,50 C10,48.8954305 9.1045695,48 8,48 Z" id="Shape" fill="#EBEEF2"></path>
                <path d="M8,56 L6,56 C4.8954305,56 4,56.8954305 4,58 C4,59.1045695 4.8954305,60 6,60 L8,60 C9.1045695,60 10,59.1045695 10,58 C10,56.8954305 9.1045695,56 8,56 Z" id="Shape" fill="#EBEEF2"></path>
                <path d="M8,64 L6,64 C4.8954305,64 4,64.8954305 4,66 C4,67.1045695 4.8954305,68 6,68 L8,68 C9.1045695,68 10,67.1045695 10,66 C10,64.8954305 9.1045695,64 8,64 Z" id="Shape" fill="#EBEEF2"></path>
                <path d="M8,72 L6,72 C4.8954305,72 4,72.8954305 4,74 C4,75.1045695 4.8954305,76 6,76 L8,76 C9.1045695,76 10,75.1045695 10,74 C10,72.8954305 9.1045695,72 8,72 Z" id="Shape" fill="#EBEEF2"></path>
                <path d="M8,80 L6,80 C4.8954305,80 4,80.8954305 4,82 C4,83.1045695 4.8954305,84 6,84 L8,84 C9.1045695,84 10,83.1045695 10,82 C10,80.8954305 9.1045695,80 8,80 Z" id="Shape" fill="#EBEEF2"></path>
                <path d="M8,88 L6,88 C4.8954305,88 4,88.8954305 4,90 C4,91.1045695 4.8954305,92 6,92 L8,92 C9.1045695,92 10,91.1045695 10,90 C10,88.8954305 9.1045695,88 8,88 Z" id="Shape" fill="#EBEEF2"></path>
                <path d="M8,96 L6,96 C4.8954305,96 4,96.8954305 4,98 C4,99.1045695 4.8954305,100 6,100 L8,100 C9.1045695,100 10,99.1045695 10,98 C10,96.8954305 9.1045695,96 8,96 Z" id="Shape" fill="#EBEEF2"></path>
                <path d="M8,104 L6,104 C4.8954305,104 4,104.895431 4,106 C4,107.104569 4.8954305,108 6,108 L8,108 C9.1045695,108 10,107.104569 10,106 C10,104.895431 9.1045695,104 8,104 Z" id="Shape" fill="#EBEEF2"></path>
                <path d="M50,36 L24,36 C22.8954305,36 22,35.1045695 22,34 C22,32.8954305 22.8954305,32 24,32 L50,32 C51.1045695,32 52,32.8954305 52,34 C52,35.1045695 51.1045695,36 50,36 Z" id="Shape" fill="#656D88"></path>
                <path d="M78,36 L58,36 C56.8954305,36 56,35.1045695 56,34 C56,32.8954305 56.8954305,32 58,32 L78,32 C79.1045695,32 80,32.8954305 80,34 C80,35.1045695 79.1045695,36 78,36 Z" id="Shape" fill="#C1C9D1"></path>
                <path d="M90,36 L86,36 C84.8954305,36 84,35.1045695 84,34 C84,32.8954305 84.8954305,32 86,32 L90,32 C91.1045695,32 92,32.8954305 92,34 C92,35.1045695 91.1045695,36 90,36 Z" id="Shape" fill="#0461B1"></path>
                <path d="M100,44 L70,44 C68.8954305,44 68,43.1045695 68,42 C68,40.8954305 68.8954305,40 70,40 L100,40 C101.104569,40 102,40.8954305 102,42 C102,43.1045695 101.104569,44 100,44 Z" id="Shape" fill="#656D88"></path>
                <path d="M62,44 L34,44 C32.8954305,44 32,43.1045695 32,42 C32,40.8954305 32.8954305,40 34,40 L62,40 C63.1045695,40 64,40.8954305 64,42 C64,43.1045695 63.1045695,44 62,44 Z" id="Shape" fill="#EA5340"></path>
                <path d="M26,44 L24,44 C22.8954305,44 22,43.1045695 22,42 C22,40.8954305 22.8954305,40 24,40 L26,40 C27.1045695,40 28,40.8954305 28,42 C28,43.1045695 27.1045695,44 26,44 Z" id="Shape" fill="#EA5340"></path>
                <path d="M42,52 L24,52 C22.8954305,52 22,51.1045695 22,50 C22,48.8954305 22.8954305,48 24,48 L42,48 C43.1045695,48 44,48.8954305 44,50 C44,51.1045695 43.1045695,52 42,52 Z" id="Shape" fill="#656D88"></path>
                <path d="M54,52 L50,52 C48.8954305,52 48,51.1045695 48,50 C48,48.8954305 48.8954305,48 50,48 L54,48 C55.1045695,48 56,48.8954305 56,50 C56,51.1045695 55.1045695,52 54,52 Z" id="Shape" fill="#C1C9D1"></path>
                <path d="M90,52 L62,52 C60.8954305,52 60,51.1045695 60,50 C60,48.8954305 60.8954305,48 62,48 L90,48 C91.1045695,48 92,48.8954305 92,50 C92,51.1045695 91.1045695,52 90,52 Z" id="Shape" fill="#0461B1"></path>
                <path d="M50,60 L24,60 C22.8954305,60 22,59.1045695 22,58 C22,56.8954305 22.8954305,56 24,56 L50,56 C51.1045695,56 52,56.8954305 52,58 C52,59.1045695 51.1045695,60 50,60 Z" id="Shape" fill="#C1C9D1"></path>
                <path d="M78,60 L58,60 C56.8954305,60 56,59.1045695 56,58 C56,56.8954305 56.8954305,56 58,56 L78,56 C79.1045695,56 80,56.8954305 80,58 C80,59.1045695 79.1045695,60 78,60 Z" id="Shape" fill="#0461B1"></path>
                <path d="M86,68 L70,68 C68.8954305,68 68,67.1045695 68,66 C68,64.8954305 68.8954305,64 70,64 L86,64 C87.1045695,64 88,64.8954305 88,66 C88,67.1045695 87.1045695,68 86,68 Z" id="Shape" fill="#C1C9D1"></path>
                <path d="M62,68 L34,68 C32.8954305,68 32,67.1045695 32,66 C32,64.8954305 32.8954305,64 34,64 L62,64 C63.1045695,64 64,64.8954305 64,66 C64,67.1045695 63.1045695,68 62,68 Z" id="Shape" fill="#656D88"></path>
                <path d="M26,68 L24,68 C22.8954305,68 22,67.1045695 22,66 C22,64.8954305 22.8954305,64 24,64 L26,64 C27.1045695,64 28,64.8954305 28,66 C28,67.1045695 27.1045695,68 26,68 Z" id="Shape" fill="#0461B1"></path>
                <path d="M42,76 L24,76 C22.8954305,76 22,75.1045695 22,74 C22,72.8954305 22.8954305,72 24,72 L42,72 C43.1045695,72 44,72.8954305 44,74 C44,75.1045695 43.1045695,76 42,76 Z" id="Shape" fill="#C1C9D1"></path>
                <path d="M54,76 L50,76 C48.8954305,76 48,75.1045695 48,74 C48,72.8954305 48.8954305,72 50,72 L54,72 C55.1045695,72 56,72.8954305 56,74 C56,75.1045695 55.1045695,76 54,76 Z" id="Shape" fill="#656D88"></path>
                <path d="M92,76 L62,76 C60.8954305,76 60,75.1045695 60,74 C60,72.8954305 60.8954305,72 62,72 L92,72 C93.1045695,72 94,72.8954305 94,74 C94,75.1045695 93.1045695,76 92,76 Z" id="Shape" fill="#EA5340"></path>
                <path d="M42,28 L24,28 C22.8954305,28 22,27.1045695 22,26 C22,24.8954305 22.8954305,24 24,24 L42,24 C43.1045695,24 44,24.8954305 44,26 C44,27.1045695 43.1045695,28 42,28 Z" id="Shape" fill="#C1C9D1"></path>
                <path d="M54,28 L50,28 C48.8954305,28 48,27.1045695 48,26 C48,24.8954305 48.8954305,24 50,24 L54,24 C55.1045695,24 56,24.8954305 56,26 C56,27.1045695 55.1045695,28 54,28 Z" id="Shape" fill="#656D88"></path>
                <path d="M92,28 L62,28 C60.8954305,28 60,27.1045695 60,26 C60,24.8954305 60.8954305,24 62,24 L92,24 C93.1045695,24 94,24.8954305 94,26 C94,27.1045695 93.1045695,28 92,28 Z" id="Shape" fill="#EA5340"></path>
                <path d="M50,84 L24,84 C22.8954305,84 22,83.1045695 22,82 C22,80.8954305 22.8954305,80 24,80 L50,80 C51.1045695,80 52,80.8954305 52,82 C52,83.1045695 51.1045695,84 50,84 Z" id="Shape" fill="#656D88"></path>
                <path d="M78,84 L58,84 C56.8954305,84 56,83.1045695 56,82 C56,80.8954305 56.8954305,80 58,80 L78,80 C79.1045695,80 80,80.8954305 80,82 C80,83.1045695 79.1045695,84 78,84 Z" id="Shape" fill="#0461B1"></path>
                <path d="M100,84 L86,84 C84.8954305,84 84,83.1045695 84,82 C84,80.8954305 84.8954305,80 86,80 L100,80 C101.104569,80 102,80.8954305 102,82 C102,83.1045695 101.104569,84 100,84 Z" id="Shape" fill="#EA5340"></path>
                <path d="M50,20 L24,20 C22.8954305,20 22,19.1045695 22,18 C22,16.8954305 22.8954305,16 24,16 L50,16 C51.1045695,16 52,16.8954305 52,18 C52,19.1045695 51.1045695,20 50,20 Z" id="Shape" fill="#0461B1"></path>
                <path d="M78,20 L58,20 C56.8954305,20 56,19.1045695 56,18 C56,16.8954305 56.8954305,16 58,16 L78,16 C79.1045695,16 80,16.8954305 80,18 C80,19.1045695 79.1045695,20 78,20 Z" id="Shape" fill="#656D88"></path>
                <path d="M100,20 L86,20 C84.8954305,20 84,19.1045695 84,18 C84,16.8954305 84.8954305,16 86,16 L100,16 C101.104569,16 102,16.8954305 102,18 C102,19.1045695 101.104569,20 100,20 Z" id="Shape" fill="#EA5340"></path>
                <path d="M78,92 L70,92 C68.8954305,92 68,91.1045695 68,90 C68,88.8954305 68.8954305,88 70,88 L78,88 C79.1045695,88 80,88.8954305 80,90 C80,91.1045695 79.1045695,92 78,92 Z" id="Shape" fill="#656D88"></path>
                <path d="M62,92 L34,92 C32.8954305,92 32,91.1045695 32,90 C32,88.8954305 32.8954305,88 34,88 L62,88 C63.1045695,88 64,88.8954305 64,90 C64,91.1045695 63.1045695,92 62,92 Z" id="Shape" fill="#EA5340"></path>
                <path d="M26,92 L24,92 C22.8954305,92 22,91.1045695 22,90 C22,88.8954305 22.8954305,88 24,88 L26,88 C27.1045695,88 28,88.8954305 28,90 C28,91.1045695 27.1045695,92 26,92 Z" id="Shape" fill="#C1C9D1"></path>
                <path d="M42,100 L24,100 C22.8954305,100 22,99.1045695 22,98 C22,96.8954305 22.8954305,96 24,96 L42,96 C43.1045695,96 44,96.8954305 44,98 C44,99.1045695 43.1045695,100 42,100 Z" id="Shape" fill="#0461B1"></path>
                <path d="M54,100 L50,100 C48.8954305,100 48,99.1045695 48,98 C48,96.8954305 48.8954305,96 50,96 L54,96 C55.1045695,96 56,96.8954305 56,98 C56,99.1045695 55.1045695,100 54,100 Z" id="Shape" fill="#656D88"></path>
                <path d="M76,100 L62,100 C60.8954305,100 60,99.1045695 60,98 C60,96.8954305 60.8954305,96 62,96 L76,96 C77.1045695,96 78,96.8954305 78,98 C78,99.1045695 77.1045695,100 76,100 Z" id="Shape" fill="#EA5340"></path>
                <path d="M86,100 L84,100 C82.8954305,100 82,99.1045695 82,98 C82,96.8954305 82.8954305,96 84,96 L86,96 C87.1045695,96 88,96.8954305 88,98 C88,99.1045695 87.1045695,100 86,100 Z" id="Shape" fill="#C1C9D1"></path>
                <path d="M10,0 L106,0 C111.522847,3.38176876e-16 116,4.4771525 116,10 L116,11 L0,11 L0,10 C-6.76353751e-16,4.4771525 4.4771525,1.01453063e-15 10,0 Z" id="Shape" fill="#656D88"></path>
                <circle id="Oval" fill="#EA5340" cx="8" cy="6" r="2"></circle>
                <circle id="Oval" fill="#F0C419" cx="14" cy="6" r="2"></circle>
                <circle id="Oval" fill="#4FC2A0" cx="20" cy="6" r="2"></circle>
            </g>
        </g>
    </g>
</svg>