<svg xmlns:xlink="http://www.w3.org/1999/xlink" version="1.1" xmlns="http://www.w3.org/2000/svg" viewBox="0 0 643 273" width="643" height="273" xml:space="preserve">
    <g id="arvato_logo">
    	<path fill="#0779B5" d="M187.51,38.6c-11.05,0-20.17,1.57-31.82,12.28L152.5,38.6H127.36v116.11h29.811V73.88
    		c6.87-6.46,15.12-7.61,21.99-7.61c2.33,0,5.26,0.3,8.35,1.27V38.6z"/>
    	<path fill="#0779B5" d="M317.06,38.6h-30.27l-28.04,75.39L231.73,38.6h-32.64l47.31,116.11h22.36L317.06,38.6z"/>
    	<path fill="#0779B5" d="M508.15,130.9v23.81h-20.86c-22.68,0-32.229-13.04-32.229-30.76v-61.4h-17.2V38.6h17.2V11.84L484.52,3v35.6
    		h27.15v23.95h-27.15v52.5c0,10.96,4.07,15.85,14.56,15.85H508.15z"/>
    	<path fill="#0779B5" d="M104.37,154.71H77.1l-2.42-10.31c-7.62,6.869-18.17,12.77-33.64,12.77C19.68,157.17,3,141.98,3,119.15
    		C3,95.09,21.9,81.38,51.59,80.39l20.979-0.73v-2.61c0-13.99-10.17-17.43-22.439-17.43c-10.44,0-32.7,1.08-32.7,1.08V38.6
    		c0,0,20.72-1.07,38.59-1.07c28.71,0,46.15,10.95,46.15,41.4v45.1C102.17,140.72,102.66,149.3,104.37,154.71z M72.57,126.48v-26.44
    		l-17.04,0.49c-15.97,0.46-23.079,6.6-23.079,16.41c0,9.57,6.619,16.91,18.899,16.91C61.66,133.85,68.64,129.92,72.57,126.48z"/>
    	<path fill="#0779B5" d="M609.26,96.66c0,21.84-9.33,38.97-27.74,38.97c-17.91,0-28.47-16.39-28.47-38.97
    		c0-21.6,9.08-38.47,27.739-38.47C598.949,58.19,609.26,74.32,609.26,96.66z M639.46,96.41c0-39.47-25.73-61.44-58.181-61.44
    		c-31.5,0-58.17,22.72-58.17,62.43c0,34.23,21.48,60.94,57.92,60.94C616.84,158.34,639.46,131.52,639.46,96.41z"/>
    	<path fill="#0779B5" d="M421.619,154.71h-27.26l-2.43-10.31c-7.62,6.869-18.17,12.77-33.63,12.77
    		c-21.36,0-38.05-15.189-38.05-38.02c0-24.06,18.899-37.77,48.6-38.76l20.97-0.73v-2.61c0-13.99-10.18-17.43-22.439-17.43
    		c-10.431,0-32.7,1.08-32.7,1.08V38.6c0,0,20.729-1.07,38.59-1.07c28.72,0,46.14,10.95,46.14,41.4v45.1
    		C419.42,140.72,419.92,149.3,421.619,154.71z M389.82,126.48v-26.44l-17.05,0.49c-15.95,0.46-23.07,6.6-23.07,16.41
    		c0,9.57,6.63,16.91,18.9,16.91C378.92,133.85,385.9,129.92,389.82,126.48z"/>
    	<path fill="#1D1D1B" d="M136.69,235.68h1.24c9.44,0,16.39-3.399,16.39-13.14c0-6.31-4.59-11.181-12.51-11.181h-8.149l-0.021,56.561
    		h-9.58V203.7h20.07c14.39,0,20.26,9.09,20.26,19.069c0,9.58-5.93,15.4-13.17,17.891l18.22,27.26h-12L136.69,235.68z"/>
    	<path fill="#1D1D1B" d="M82.34,230.1l22.71-0.01v8.32H82.34v21.21h27.26v8.31l-37.07-0.01v-64.21l36.101-0.01v8.3H82.35
    		L82.34,230.1z"/>
    	<path fill="#1D1D1B" d="M201.19,212.1v55.82h-9.8V212.1h-18.01V203.7h45.8v8.399H201.19z"/>
    	<path fill="#1D1D1B" d="M24.77,260.33l10.851-0.01c8.479,0,14.439-3.811,14.439-10.7c0-8.75-7.5-12.351-16.97-12.351h-2.98
    		l3.381-7.569c5.01,0,13.649-0.82,13.649-9.98c0-4.26-2.8-8.569-12.12-8.569H24.77V260.33z M15.31,203.42h20.7
    		c15.05,0,20.95,7.46,20.95,16c0,6.6-4.24,11.02-8.431,13.3c5.16,1.97,11.49,6.25,11.49,16.22c0,10.07-6.979,19.25-24.18,19.25
    		H15.31V203.42z"/>
    	<path fill="#1D1D1B" d="M240.04,230.1l22.699-0.01v8.32H240.04v21.21h27.26v8.31l-37.07-0.01v-64.21l36.101-0.01v8.3h-26.28
    		L240.04,230.1z"/>
    	<path fill="#1D1D1B" d="M551.44,248.15V203.7h9.41v64.22h-6.84l-33.391-45.939v45.939h-9.43V203.7h7.95L551.44,248.15z"/>
    	<path fill="#1D1D1B" d="M586.9,267.92h-9.41v-64.21h7.94l32.29,44.44v-44.44h9.43v64.21h-6.84L586.9,221.98V267.92z"/>
    	<path fill="#1D1D1B" d="M460.4,252.59l-5.6,15.33h-10.41l25.399-64.77h6.891l25.1,64.77H490.96l-5.62-15.33H460.4z M472.88,218.54
    		l-9.471,25.86h18.931L472.88,218.54z"/>
    	<path fill="#1D1D1B" d="M381.53,222.75l-4.08,45.17H367.34l6.76-64.22h8.61l19.25,40.29l18.579-40.29h8.631l6.739,64.22h-9.97
    		l-4.24-46.16l-18.01,39.08h-3.96L381.53,222.75z"/>
    	<path fill="#1D1D1B" d="M338.11,201.93c8.46,0,15.69,3.82,17.61,5.061l-3.46,7.67c-2.391-1.471-8.141-4.35-14.03-4.35
    		c-7.01,0-11.39,3-11.39,8.359c0,13.8,32.05,6.221,32.05,30.311c0,10.939-8.71,18.959-24,18.959l-16.021-0.02l3.811-8.42h11.939
    		c8.341,0,13.98-3.12,13.98-9.79c0-16.36-31.91-7.72-31.91-30.34C316.69,208.77,325.079,201.93,338.11,201.93z"/>
    	<path fill="#1D1D1B" d="M289.54,259.5h25.51l-3.82,8.43l-31.479-0.01v-64.21h9.81L289.54,259.5z"/>
    </g>
</svg>