<?xml version="1.0" encoding="UTF-8"?>
<svg width="64px" height="76px" viewBox="0 0 64 76" version="1.1" xmlns="http://www.w3.org/2000/svg" xmlns:xlink="http://www.w3.org/1999/xlink">
    <!-- Generator: sketchtool 52.4 (67378) - http://www.bohemiancoding.com/sketch -->
    <title>5F8036A8-9DCD-4CED-9D55-9C9A6D1E2D97</title>
    <desc>Created with sketchtool.</desc>
    <g id="design" stroke="none" stroke-width="1" fill="none" fill-rule="evenodd">
        <g id="home-2" transform="translate(-628.000000, -817.000000)" fill-rule="nonzero">
            <g id="integration" transform="translate(628.000000, 817.000000)">
                <g>
                    <path d="M50.1125664,42.3348148 L32.8155752,42.3348148 L32.8155752,34.1155556 L30.6973451,34.1155556 L30.6973451,42.3348148 L13.400354,42.3348148 C12.8154209,42.3348148 12.3412389,42.8061429 12.3412389,43.3875556 L12.3412389,52.6539259 L14.459469,52.6539259 L14.459469,44.4346667 L49.0534513,44.4346667 L49.0534513,52.6539259 L51.1716814,52.6539259 L51.1716814,43.3875556 C51.1716814,42.8061429 50.6974995,42.3348148 50.1125664,42.3348148 Z" id="Shape" fill="#DDE1E6"></path>
                    <polygon id="Rectangle-path" fill="#DDE1E6" points="25.299823 24.4551111 38.179115 24.4551111 38.179115 35.0162963 25.299823 35.0162963"></polygon>
                    <path d="M42.659115,36.5925926 L20.8254867,36.5925926 C19.962163,36.5925926 19.2623009,35.8969426 19.2623009,35.0388148 C19.2623009,34.180687 19.962163,33.485037 20.8254867,33.485037 L42.659115,33.485037 C43.5224387,33.485037 44.2223009,34.180687 44.2223009,35.0388148 C44.2223009,35.8969426 43.5224387,36.5925926 42.659115,36.5925926 Z" id="Shape" fill="#ECF0F1"></path>
                    <path d="M51.539823,22.5185185 C51.539823,24.7197037 49.7444248,26.4986667 46.4028319,26.4986667 L14.8106195,26.4986667 C13.7288496,26.4986667 11.939115,24.7140741 11.939115,22.5185185 L11.939115,3.94074074 C11.9608585,1.75797065 13.7472685,-0.000106995886 15.9433628,-1.33226763e-13 L47.5412389,-1.33226763e-13 C49.7505118,0.00310605161 51.5398252,1.78416966 51.539823,3.98014815 L51.539823,22.5185185 Z" id="Shape" fill="#C1C9D1"></path>
                    <rect id="Rectangle-path" fill="#DDE1E6" x="45.7515044" y="67.8032593" width="8.71646018" height="7.144"></rect>
                    <path d="M57.5037168,76 L42.7214159,76 C42.1364828,76 41.6623009,75.5286719 41.6623009,74.9472593 C41.6623009,74.3658466 42.1364828,73.8945185 42.7214159,73.8945185 L57.4980531,73.8945185 C58.0829862,73.8945185 58.5571681,74.3658466 58.5571681,74.9472593 C58.5571681,75.5286719 58.0829862,76 57.4980531,76 L57.5037168,76 Z" id="Shape" fill="#ECF0F1"></path>
                    <path d="M63.5185841,66.5084444 C63.5185841,67.9977314 62.3039683,69.205037 60.8056637,69.205037 L39.419469,69.205037 C38.6999578,69.205037 38.0099159,68.9209326 37.5011446,68.4152234 C36.9923734,67.9095141 36.7065487,67.2236253 36.7065487,66.5084444 L36.7065487,53.9487407 C36.7005073,53.2296663 36.9836628,52.5379781 37.4930903,52.0273881 C38.0025178,51.5167981 38.6960153,51.2296046 39.419469,51.2296296 L60.8056637,51.2296296 C61.5251749,51.2296296 62.2152168,51.5137341 62.7239881,52.0194433 C63.2327594,52.5251525 63.5185841,53.2110414 63.5185841,53.9262222 L63.5185841,66.4915556 L63.5185841,66.5084444 Z" id="Shape" fill="#C1C9D1"></path>
                    <rect id="Rectangle-path" fill="#DDE1E6" x="9.04495575" y="67.8032593" width="8.71646018" height="7.144"></rect>
                    <path d="M20.7915044,76 L6.01486726,76 C5.42993417,76 4.95575221,75.5286719 4.95575221,74.9472593 C4.95575221,74.3658466 5.42993417,73.8945185 6.01486726,73.8945185 L20.7915044,73.8945185 C21.3764375,73.8945185 21.8506195,74.3658466 21.8506195,74.9472593 C21.8506195,75.5286719 21.3764375,76 20.7915044,76 Z" id="Shape" fill="#ECF0F1"></path>
                    <path d="M26.8063717,66.5084444 C26.8063717,67.9977314 25.5917559,69.205037 24.0934513,69.205037 L2.71292035,69.205037 C1.21461581,69.205037 3.06613594e-14,67.9977314 3.04778582e-14,66.5084444 L3.04778582e-14,53.9487407 C-0.00604136727,53.2296663 0.277114099,52.5379781 0.786541632,52.0273881 C1.29596917,51.5167981 1.98946668,51.2296046 2.71292035,51.2296296 L24.0934513,51.2296296 C25.5917559,51.2296296 26.8063717,52.4369353 26.8063717,53.9262222 L26.8063717,66.5084444 Z" id="Shape" fill="#C1C9D1"></path>
                    <path d="M39.0343363,12.5428148 L38.2244248,12.5428148 C38.0671237,11.8695381 37.7992244,11.2266455 37.4315044,10.64 L37.9978761,10.077037 C38.0950642,9.98089355 38.149703,9.85021879 38.149703,9.71392593 C38.149703,9.57763306 38.0950642,9.4469583 37.9978761,9.35081481 L36.6782301,8.03911111 C36.5815045,7.94250793 36.4500385,7.88819801 36.3129204,7.88819801 C36.1758022,7.88819801 36.0443362,7.94250793 35.9476106,8.03911111 L35.3812389,8.60207407 C34.7910414,8.23656721 34.144256,7.9702803 33.4669027,7.81392593 L33.4669027,7.00888889 C33.4669027,6.72595546 33.236151,6.49659259 32.9515044,6.49659259 L31.0938053,6.49659259 C30.8091587,6.49659259 30.5784071,6.72595546 30.5784071,7.00888889 L30.5784071,7.81392593 C29.9010537,7.9702803 29.2542684,8.23656721 28.6640708,8.60207407 L28.0976991,8.03911111 C28.0009735,7.94250793 27.8695075,7.88819801 27.7323894,7.88819801 C27.5952713,7.88819801 27.4638053,7.94250793 27.3670796,8.03911111 L26.0530973,9.34518519 C25.9559092,9.44132867 25.9012705,9.57200343 25.9012705,9.7082963 C25.9012705,9.84458916 25.9559092,9.97526392 26.0530973,10.0714074 L26.619469,10.6343704 C26.2516567,11.2209687 25.9837509,11.863877 25.8265487,12.5371852 L25.0166372,12.5371852 C24.7319906,12.5371852 24.5012389,12.766548 24.5012389,13.0494815 L24.5012389,14.9016296 C24.5012389,15.1845631 24.7319906,15.4139259 25.0166372,15.4139259 L25.8265487,15.4139259 C25.9832591,16.0891551 26.2511768,16.7339942 26.619469,17.3223704 L26.0530973,17.8853333 C25.9559092,17.9814768 25.9012705,18.1121516 25.9012705,18.2484444 C25.9012705,18.3847373 25.9559092,18.5154121 26.0530973,18.6115556 L27.3727434,19.9232593 C27.469469,20.0198624 27.600935,20.0741724 27.7380531,20.0741724 C27.8751712,20.0741724 28.0066372,20.0198624 28.1033628,19.9232593 L28.6697345,19.3602963 C29.2603453,19.7237411 29.9070966,19.988112 30.5840708,20.1428148 L30.5840708,20.9478519 C30.5840708,21.2307853 30.8148224,21.4601481 31.099469,21.4601481 L32.9628319,21.4601481 C33.2474784,21.4601481 33.4782301,21.2307853 33.4782301,20.9478519 L33.4782301,20.1428148 C34.1555834,19.9864604 34.8023688,19.7201735 35.3925664,19.3546667 L35.9589381,19.9176296 C36.0556637,20.0142328 36.1871297,20.0685427 36.3242478,20.0685427 C36.4613659,20.0685427 36.5928319,20.0142328 36.6895575,19.9176296 L38.0092035,18.6059259 C38.1063917,18.5097824 38.1610304,18.3791077 38.1610304,18.2428148 C38.1610304,18.106522 38.1063917,17.9758472 38.0092035,17.8797037 L37.4428319,17.3167407 C37.8103678,16.7300012 38.078254,16.0871397 38.2357522,15.4139259 L39.0456637,15.4139259 C39.3303103,15.4139259 39.5610619,15.1845631 39.5610619,14.9016296 L39.5610619,13.0551111 C39.5610954,12.9172682 39.5052425,12.7852278 39.4061227,12.6888233 C39.3070029,12.5924188 39.1729803,12.5397853 39.0343363,12.5428148 Z M32.0283186,16.568 C30.5894457,16.568 29.4230088,15.4085833 29.4230088,13.9783704 C29.4230088,12.5481574 30.5894457,11.3887407 32.0283186,11.3887407 C33.4671914,11.3887407 34.6336283,12.5481574 34.6336283,13.9783704 C34.6336283,15.4085833 33.4671914,16.568 32.0283186,16.568 Z" id="Shape" fill="#ECF0F1"></path>
                    <path d="M32.0283186,10.2402963 C29.9513369,10.2402963 28.2676106,11.9138891 28.2676106,13.9783704 C28.2676106,16.0428517 29.9513369,17.7164444 32.0283186,17.7164444 C34.1053002,17.7164444 35.7890265,16.0428517 35.7890265,13.9783704 C35.7890265,12.9869715 35.3928102,12.0361777 34.6875407,11.3351528 C33.9822711,10.634128 33.0257203,10.2402963 32.0283186,10.2402963 Z M32.0283186,16.568 C30.5894457,16.568 29.4230088,15.4085833 29.4230088,13.9783704 C29.4230088,12.5481574 30.5894457,11.3887407 32.0283186,11.3887407 C33.4671914,11.3887407 34.6336283,12.5481574 34.6336283,13.9783704 C34.6336283,15.4085833 33.4671914,16.568 32.0283186,16.568 Z" id="Shape" fill="#DDE1E6"></path>
                </g>
            </g>
        </g>
    </g>
</svg>