<svg xmlns="http://www.w3.org/2000/svg" width="24" height="24" viewBox="0 0 24 24">
    <path fill="#FFF" fill-rule="nonzero" d="M22.364 0H5.454c-.903 0-1.636.733-1.636 1.636v2.182H1.636C.733 3.818 0 4.551 0 5.455v16.909C0 23.267.733 24 1.636 24h16.91c.903 0 1.636-.733 1.636-1.636v-2.182h2.182c.903 0 1.636-.733 1.636-1.637V1.636C24 .733 23.267 0 22.364 0zM19.09 22.364a.545.545 0 0 1-.546.545H1.636a.545.545 0 0 1-.545-.545V5.454c0-.3.244-.545.545-.545h2.182v13.636c0 .904.733 1.637 1.637 1.637H19.09v2.182zm3.818-3.819a.545.545 0 0 1-.545.546H5.454a.545.545 0 0 1-.545-.546V1.636c0-.3.244-.545.546-.545h16.909c.3 0 .545.244.545.545v16.91z"/>
</svg>
