<?xml version="1.0" encoding="UTF-8"?>
<svg width="24px" height="24px" viewBox="0 0 24 24" version="1.1" xmlns="http://www.w3.org/2000/svg" xmlns:xlink="http://www.w3.org/1999/xlink">
    <!-- Generator: Sketch 51.2 (57519) - http://www.bohemiancoding.com/sketch -->
    <title>full view close</title>
    <desc>Created with Sketch.</desc>
    <defs></defs>
    <g id="design" stroke="none" stroke-width="1" fill="none" fill-rule="evenodd">
        <g id="ui-elements" transform="translate(-1219.000000, -346.000000)" fill="#EA5441" fill-rule="nonzero">
            <g id="full-view-close" transform="translate(1213.000000, 339.000000)">
                <g transform="translate(6.000000, 7.000000)" id="Shape">
                    <g>
                        <path d="M19.225,24 L18.225,24 C17.9488576,24 17.725,23.7761424 17.725,23.5 C17.725,23.2238576 17.9488576,23 18.225,23 L19.225,23 C19.5011424,23 19.725,23.2238576 19.725,23.5 C19.725,23.7761424 19.5011424,24 19.225,24 Z M16.225,24 L15.225,24 C14.9488576,24 14.725,23.7761424 14.725,23.5 C14.725,23.2238576 14.9488576,23 15.225,23 L16.225,23 C16.5011424,23 16.725,23.2238576 16.725,23.5 C16.725,23.7761424 16.5011424,24 16.225,24 Z M13.225,24 L12.25,24 C11.9738576,24 11.75,23.7761424 11.75,23.5 C11.75,23.2238576 11.9738576,23 12.25,23 L13.25,23 C13.5261424,23 13.75,23.2238576 13.75,23.5 C13.75,23.7761424 13.5261424,24 13.25,24 L13.225,24 Z M10.25,24 L9.25,24 C8.97385763,24 8.75,23.7761424 8.75,23.5 C8.75,23.2238576 8.97385763,23 9.25,23 L10.25,23 C10.5261424,23 10.75,23.2238576 10.75,23.5 C10.75,23.7761424 10.5261424,24 10.25,24 Z M7.25,24 L6.25,24 C5.97385763,24 5.75,23.7761424 5.75,23.5 C5.75,23.2238576 5.97385763,23 6.25,23 L7.25,23 C7.52614237,23 7.75,23.2238576 7.75,23.5 C7.75,23.7761424 7.52614237,24 7.25,24 Z M4.25,24 L3.5,24 C3.405,24 3.3125,24 3.22,24 C2.94385763,23.9779086 2.73790861,23.7361424 2.76,23.46 C2.78209139,23.1838576 3.02385763,22.9779086 3.3,23 C3.365,23 3.4325,23 3.5,23 L4.25,23 C4.52614237,23 4.75,23.2238576 4.75,23.5 C4.75,23.7761424 4.52614237,24 4.25,24 Z M21.205,23.915 C20.9528321,23.9142218 20.7407083,23.7257873 20.7102126,23.475469 C20.679717,23.2251507 20.8403948,22.9912988 21.085,22.93 C21.3513815,22.8630328 21.6048175,22.7523657 21.835,22.6025 C22.0656158,22.4651128 22.3635667,22.5343442 22.5099802,22.7593375 C22.6563937,22.9843308 22.5990177,23.28479 22.38,23.44 C22.0535212,23.6506847 21.6945407,23.8061022 21.3175,23.9 C21.2830316,23.9081965 21.2478847,23.9132175 21.2125,23.915 L21.205,23.915 Z M1.455,23.2025 C1.3290215,23.2027432 1.20759414,23.1554223 1.115,23.07 C0.829162861,22.8065447 0.589211831,22.4973121 0.405,22.155 C0.320149419,21.9978031 0.325607777,21.80728 0.419318962,21.6551988 C0.513030147,21.5031176 0.680757201,21.4125831 0.859318966,21.4176988 C1.03788073,21.4228145 1.20014942,21.5228031 1.285,21.68 C1.41452105,21.9235992 1.5834712,22.1440792 1.785,22.3325 C1.88262464,22.4225819 1.94039077,22.5478086 1.9455501,22.680544 C1.95070943,22.8132794 1.90283783,22.9426122 1.8125,23.04 C1.72348386,23.1376175 1.5994519,23.1960384 1.4675,23.2025 L1.455,23.2025 Z M23.3225,21.98 C23.2665219,21.9804746 23.210825,21.9720357 23.1575,21.955 C23.0316484,21.9118526 22.9281823,21.8203273 22.8700012,21.7006808 C22.8118202,21.5810343 22.8037224,21.4431337 22.8475,21.3175 C22.9445946,21.0556943 22.9961723,20.7792041 23,20.5 C22.9998404,20.2208896 23.2210492,19.9919385 23.5,19.9825 C23.6307761,19.978452 23.7576403,20.0274132 23.8517902,20.1182679 C23.9459401,20.2091226 23.9993882,20.3341627 24,20.465 L24,20.5 C24.0000283,20.8897222 23.9349666,21.2767125 23.8075,21.645 C23.7373001,21.8458105 23.5477271,21.9802167 23.335,21.98 L23.3225,21.98 Z M0.5,20.4825 C0.223857625,20.4825 3.38176876e-17,20.2586424 0,19.9825 L0,18.9825 C-3.38176876e-17,18.7063576 0.223857625,18.4825 0.5,18.4825 C0.776142375,18.4825 1,18.7063576 1,18.9825 L1,19.9825 C1,20.2586424 0.776142375,20.4825 0.5,20.4825 Z M23.5,18.9825 C23.2238576,18.9825 23,18.7586424 23,18.4825 L23,17.4825 C23,17.2063576 23.2238576,16.9825 23.5,16.9825 C23.7761424,16.9825 24,17.2063576 24,17.4825 L24,18.4825 C23.9932167,18.7537488 23.7713336,18.9700848 23.5,18.97 L23.5,18.9825 Z M0.5,17.5 C0.223857625,17.5 3.38176876e-17,17.2761424 0,17 L0,16 C-3.38176876e-17,15.7238576 0.223857625,15.5 0.5,15.5 C0.776142375,15.5 1,15.7238576 1,16 L1,17 C1,17.2761424 0.776142375,17.5 0.5,17.5 Z M23.5,16 C23.2238576,16 23,15.7761424 23,15.5 L23,14.5 C23,14.2238576 23.2238576,14 23.5,14 C23.7761424,14 24,14.2238576 24,14.5 L24,15.5 C23.9879586,15.7673181 23.767589,15.9777711 23.5,15.9775 L23.5,16 Z M0.5,14.5 C0.223857625,14.5 3.38176876e-17,14.2761424 0,14 L0,13 C-3.38176876e-17,12.7238576 0.223857625,12.5 0.5,12.5 C0.776142375,12.5 1,12.7238576 1,13 L1,14 C1,14.2761424 0.776142375,14.5 0.5,14.5 Z M23.5,12.9875 C23.2238576,12.9875 23,12.7636424 23,12.4875 L23,11.4875 C23,11.2113576 23.2238576,10.9875 23.5,10.9875 C23.7761424,10.9875 24,11.2113576 24,11.4875 L24,12.4875 C23.997258,12.7616878 23.7742015,12.9825137 23.5,12.9825 L23.5,12.9875 Z M0.5,11.5 C0.223857625,11.5 3.38176876e-17,11.2761424 0,11 L0,10 C-3.38176876e-17,9.72385763 0.223857625,9.5 0.5,9.5 C0.776142375,9.5 1,9.72385763 1,10 L1,11 C1,11.2761424 0.776142375,11.5 0.5,11.5 Z M23.5,10 C23.2238576,10 23,9.77614237 23,9.5 L23,8.5 C23,8.22385763 23.2238576,8 23.5,8 C23.7761424,8 24,8.22385763 24,8.5 L24,9.5 C24,9.77614237 23.7761424,10 23.5,10 Z M0.5,8.5 C0.223857625,8.5 3.38176876e-17,8.27614237 0,8 L0,7 C-3.38176876e-17,6.72385763 0.223857625,6.5 0.5,6.5 C0.776142375,6.5 1,6.72385763 1,7 L1,8 C1,8.27614237 0.776142375,8.5 0.5,8.5 Z M23.5,7 C23.2238576,7 23,6.77614237 23,6.5 L23,5.5 C23,5.22385763 23.2238576,5 23.5,5 C23.7761424,5 24,5.22385763 24,5.5 L24,6.5 C24,6.77614237 23.7761424,7 23.5,7 Z M0.5,5.515 C0.223857625,5.515 3.38176876e-17,5.29114237 0,5.015 L0,4.015 C-3.38176876e-17,3.73885763 0.223857625,3.515 0.5,3.515 C0.776142375,3.515 1,3.73885763 1,4.015 L1,5.015 C1,5.29114237 0.776142375,5.515 0.5,5.515 Z M23.5,4 C23.2238576,4 23,3.77614237 23,3.5 C23.000507,3.22272668 22.9548843,2.94730054 22.865,2.685 C22.8064978,2.51619201 22.8424975,2.32899642 22.9594383,2.193928 C23.0763792,2.05885957 23.2564952,1.99643843 23.4319383,2.030178 C23.6073815,2.06391757 23.7514978,2.18869201 23.81,2.3575 C23.9367527,2.72503503 24.0009766,3.11122333 24,3.5 C24,3.77614237 23.7761424,4 23.5,4 Z M0.86,2.58 C0.680120883,2.58252421 0.51275225,2.48822202 0.421721827,2.33305653 C0.330691403,2.17789103 0.330033876,1.985785 0.42,1.83 C0.606198493,1.49341855 0.846008696,1.18943379 1.13,0.93 C1.25824131,0.794456148 1.45128757,0.741599159 1.63069022,0.792908628 C1.81009286,0.844218097 1.94599754,0.991155631 1.98317642,1.17400995 C2.0203553,1.35686426 1.95262145,1.54520663 1.8075,1.6625 C1.60678528,1.85260634 1.43796162,2.07376534 1.3075,2.3175 C1.21894988,2.48159797 1.04644434,2.58278837 0.86,2.58 Z M22.125,1.4825 C22.0291942,1.48225171 21.9354768,1.45448359 21.855,1.4025 C21.6248507,1.2520003 21.3714478,1.14050305 21.105,1.0725 C20.8371419,1.0034644 20.6759644,0.730358102 20.745,0.462500004 C20.8140356,0.194641907 21.0871419,0.0334644168 21.355,0.1025 C21.7320848,0.196267471 22.0910861,0.351693903 22.4175,0.5625 C22.6398121,0.718911291 22.6964431,1.02427411 22.545,1.25 C22.453793,1.39403516 22.2954821,1.48167153 22.125,1.4825 Z M3.25,1 C2.97385763,1.01104569 2.74104571,0.79614237 2.73000001,0.52 C2.71895432,0.243857629 2.93385763,0.0110457007 3.21,0 C3.3025,0 3.395,0 3.4875,0 L4.2375,0 C4.51364237,1.69088438e-17 4.7375,0.223857625 4.7375,0.5 C4.7375,0.776142375 4.51364237,1 4.2375,1 L3.5,1 C3.435,1 3.3675,1 3.3,1 L3.25,1 Z M19.2275,1 L18.2275,1 C17.9513576,1 17.7275,0.776142375 17.7275,0.5 C17.7275,0.223857625 17.9513576,5.07265313e-17 18.2275,0 L19.2275,0 C19.5036424,1.69088438e-17 19.7275,0.223857625 19.7275,0.5 C19.7275,0.776142375 19.5036424,1 19.2275,1 Z M16.2275,1 L15.2275,1 C14.9513576,1 14.7275,0.776142375 14.7275,0.5 C14.7275,0.223857625 14.9513576,5.07265313e-17 15.2275,0 L16.2275,0 C16.5036424,1.69088438e-17 16.7275,0.223857625 16.7275,0.5 C16.7275,0.776142375 16.5036424,1 16.2275,1 Z M13.25,1 L12.25,1 C11.9738576,1 11.75,0.776142375 11.75,0.5 C11.75,0.223857625 11.9738576,5.07265313e-17 12.25,0 L13.25,0 C13.5261424,1.69088438e-17 13.75,0.223857625 13.75,0.5 C13.75,0.776142375 13.5261424,1 13.25,1 Z M10.25,1 L9.25,1 C8.97385763,1 8.75,0.776142375 8.75,0.5 C8.75,0.223857625 8.97385763,5.07265313e-17 9.25,0 L10.25,0 C10.5261424,1.69088438e-17 10.75,0.223857625 10.75,0.5 C10.75,0.776142375 10.5261424,1 10.25,1 Z M7.25,1 L6.25,1 C5.97385763,1 5.75,0.776142375 5.75,0.5 C5.75,0.223857625 5.97385763,5.07265313e-17 6.25,0 L7.25,0 C7.52614237,1.69088438e-17 7.75,0.223857625 7.75,0.5 C7.75,0.776142375 7.52614237,1 7.25,1 Z"></path>
                        <path d="M11.5,15 L3.5,15 C1.56700338,15 2.36723813e-16,13.4329966 0,11.5 L0,3.5 C-2.36723813e-16,1.56700338 1.56700338,3.55085719e-16 3.5,0 L11.5,0 C13.4329966,1.18361906e-16 15,1.56700338 15,3.5 L15,11.5 C15,13.4329966 13.4329966,15 11.5,15 Z M3.5,1 C2.11928813,1 1,2.11928813 1,3.5 L1,11.5 C1,12.8807119 2.11928813,14 3.5,14 L11.5,14 C12.1630412,14 12.798926,13.7366079 13.267767,13.267767 C13.7366079,12.798926 14,12.1630412 14,11.5 L14,3.5 C14,2.83695878 13.7366079,2.20107399 13.267767,1.73223305 C12.798926,1.2633921 12.1630412,1 11.5,1 L3.5,1 Z"></path>
                        <path d="M19.5627812,20.0952812 C19.42952,20.0953868 19.3017303,20.042291 19.2077812,19.9477812 L15.1452812,15.8527812 C14.9506008,15.6567201 14.9517201,15.3399616 15.1477812,15.1452812 C15.3438423,14.9506008 15.6606008,14.9517201 15.8552812,15.1477812 L19.9177812,19.2502812 C20.0602142,19.3935641 20.1024222,19.6084851 20.0247562,19.7949929 C19.9470902,19.9815007 19.7648137,20.1029414 19.5627812,20.1027812 L19.5627812,20.0952812 Z"></path>
                        <path d="M18,18.5 L15.5,18.5 C15.2238576,18.5 15,18.2761424 15,18 C15,17.7238576 15.2238576,17.5 15.5,17.5 L17.5,17.5 L17.5,15.5 C17.5,15.2238576 17.7238576,15 18,15 C18.2761424,15 18.5,15.2238576 18.5,15.5 L18.5,18 C18.5,18.2761424 18.2761424,18.5 18,18.5 Z" transform="translate(16.750000, 16.750000) rotate(-180.000000) translate(-16.750000, -16.750000) "></path>
                    </g>
                </g>
            </g>
        </g>
    </g>
</svg>