<svg xmlns="http://www.w3.org/2000/svg" width="26" height="26" viewBox="0 0 26 26">
    <path d="M13.5 0C6.057 0 0 6.057 0 13.5c0 5.888 3.791 10.905 9.058 12.745a.463.463 0 0 0 .258.088c1.316.43 2.724.667 4.184.667C20.943 27 27 20.943 27 13.5S20.943 0 13.5 0zm0 .931c6.93 0 12.569 5.639 12.569 12.569 0 5.428-3.459 10.061-8.287 11.818a1.903 1.903 0 0 1-.092-.527v-2.446c0-.975-.477-2.037-.946-2.75 2.584-.436 5.537-1.776 5.537-6.779 0-1.37-.429-2.58-1.275-3.598.186-.611.415-1.9-.225-3.52a.47.47 0 0 0-.291-.272c-.13-.04-1.326-.35-3.806 1.277a12.921 12.921 0 0 0-6.36 0c-2.481-1.63-3.68-1.319-3.809-1.277a.47.47 0 0 0-.29.273C5.582 7.319 5.811 8.607 6 9.218c-.85 1.018-1.279 2.227-1.279 3.598 0 4.957 2.9 6.323 5.463 6.778-.322.407-.66.934-.81 1.47-.661.184-2.018.19-2.929-1.37-.032-.06-.829-1.475-2.4-1.584-.25.002-.882.042-1.035.525-.169.537.424.944.679 1.117l.058.034c.029.015.707.371 1.213 1.644.105.333 1.03 2.84 4.353 2.399.002.367 0 .552-.004.7v.26c0 .15-.045.378-.096.525C4.386 23.558.931 18.924.931 13.5.931 6.57 6.57.931 13.5.931zm6.51 5.375c.5 1.471.158 2.537.035 2.839a.468.468 0 0 0 .089.49c.805.883 1.214 1.952 1.214 3.181 0 4.72-2.796 5.666-5.535 5.97a.464.464 0 0 0-.253.815c.368.314 1.199 1.68 1.199 2.744v2.446c0 .009.001.414.134.809a12.513 12.513 0 0 1-6.792-.002c.135-.396.139-.802.139-.81l.001-.248c.002-.211.006-.497 0-1.266a.473.473 0 0 0-.174-.362.47.47 0 0 0-.391-.09c-3.126.681-3.802-1.576-3.828-1.67l-.016-.047c-.448-1.135-1.037-1.713-1.388-1.975.759.267 1.182 1.007 1.193 1.024 1.231 2.107 3.264 2.162 4.328 1.685a.463.463 0 0 0 .27-.36c.095-.665.826-1.545 1.196-1.87a.464.464 0 0 0 .136-.488.461.461 0 0 0-.39-.324c-2.73-.31-5.524-1.266-5.524-5.98 0-1.228.41-2.3 1.219-3.181a.464.464 0 0 0 .087-.491c-.124-.302-.467-1.364.031-2.837.396.013 1.362.182 2.988 1.286.112.076.256.1.387.063.973-.27 2.058-.416 3.135-.421 1.08.005 2.166.15 3.14.421.131.037.273.013.386-.063 1.635-1.11 2.6-1.275 2.984-1.288z"/>
</svg>
