<?xml version="1.0" encoding="UTF-8"?>
<svg width="20px" height="20px" viewBox="0 0 20 20" version="1.1" xmlns="http://www.w3.org/2000/svg" xmlns:xlink="http://www.w3.org/1999/xlink">
    <!-- Generator: Sketch 51.2 (57519) - http://www.bohemiancoding.com/sketch -->
    <title>instagram</title>
    <desc>Created with Sketch.</desc>
    <defs></defs>
    <g id="design" stroke="none" stroke-width="1" fill="none" fill-rule="evenodd">
        <g id="Instagram" fill="#818181" fill-rule="nonzero">
            <g id="instagram">
                <path d="M19.94,5.88 C19.9228322,5.05053701 19.7650368,4.23000101 19.4733333,3.45333333 C18.9553498,2.11024833 17.8952336,1.04771171 16.5533333,0.526666667 C15.7766657,0.234963213 14.9561297,0.0771678265 14.1266667,0.06 C13.0533333,0 12.7133333,0 10,0 C7.28666667,0 6.94666667,0 5.88,0.06 C5.05053701,0.0771678265 4.23000101,0.234963213 3.45333333,0.526666667 C2.11024833,1.04465016 1.04771171,2.10476641 0.526666667,3.44666667 C0.234963213,4.22333434 0.0771678265,5.04387035 0.06,5.87333333 C0,6.94666667 0,7.28666667 0,10 C0,12.7133333 0,13.0533333 0.06,14.12 C0.0771678265,14.949463 0.234963213,15.769999 0.526666667,16.5466667 C1.04615149,17.891095 2.10890502,18.9538485 3.45333333,19.4733333 C4.23000101,19.7650368 5.05053701,19.9228322 5.88,19.94 C6.94666667,19.9866667 7.28666667,20 10,20 C12.7133333,20 13.0533333,20 14.12,19.94 C14.949463,19.9228322 15.769999,19.7650368 16.5466667,19.4733333 C17.891095,18.9538485 18.9538485,17.891095 19.4733333,16.5466667 C19.7650368,15.769999 19.9228322,14.949463 19.94,14.12 C20,13.0533333 20,12.7133333 20,10 C20,7.28666667 20,6.94666667 19.94,5.88 Z M18.14,14.0466667 C18.1320868,14.6819713 18.0148173,15.3111674 17.7933333,15.9066667 C17.4546212,16.7785211 16.7651877,17.4679546 15.8933333,17.8066667 C15.297834,18.0281506 14.668638,18.1454201 14.0333333,18.1533333 C12.98,18.2 12.66,18.2133333 9.99333333,18.2133333 C7.32666667,18.2133333 7.00666667,18.2133333 5.95333333,18.1533333 C5.31802871,18.1454201 4.68883265,18.0281506 4.09333333,17.8066667 C3.22147892,17.4679546 2.53204544,16.7785211 2.19333333,15.9066667 C1.97184937,15.3111674 1.85457986,14.6819713 1.84666667,14.0466667 C1.81333333,12.9866667 1.8,12.6666667 1.8,10 C1.8,7.33333333 1.8,7.01333333 1.86,5.96 C1.86791319,5.32469538 1.98518271,4.69549932 2.20666667,4.1 C2.54542206,3.23200884 3.23200884,2.54542206 4.1,2.20666667 C4.69549932,1.98518271 5.32469538,1.86791319 5.96,1.86 C7.01333333,1.81333333 7.33333333,1.8 10,1.8 C12.6666667,1.8 12.9866667,1.8 14.04,1.86 C14.6753046,1.86791319 15.3045007,1.98518271 15.9,2.20666667 C16.7718544,2.54537878 17.4612879,3.23481225 17.8,4.10666667 C18.021484,4.70216598 18.1387535,5.33136205 18.1466667,5.96666667 C18.1933333,7.02 18.2066667,7.34 18.2066667,10.0066667 C18.2066667,12.6733333 18.2066667,12.9933333 18.1466667,14.0466667 L18.14,14.0466667 Z M15.3333333,3.46 C14.6723417,3.46368249 14.1387932,4.00120911 14.1400207,4.66220982 C14.1412482,5.32321053 14.6767895,5.85875181 15.3377902,5.85997931 C15.9987909,5.86120681 16.5363175,5.32765826 16.54,4.66666667 C16.541786,4.3460946 16.415229,4.03813544 16.1885468,3.81145324 C15.9618646,3.58477104 15.6539054,3.45821404 15.3333333,3.46 Z M10,4.86666667 C7.16493828,4.86666667 4.86666667,7.16493828 4.86666667,10 C4.86666667,12.8350617 7.16493828,15.1333333 10,15.1333333 C12.8350617,15.1333333 15.1333333,12.8350617 15.1333333,10 C15.1333333,7.16493828 12.8350617,4.86666667 10,4.86666667 Z M10,13.3333333 C8.15905083,13.3333333 6.66666667,11.8409492 6.66666667,10 C6.66666667,8.15905083 8.15905083,6.66666667 10,6.66666667 C11.8409492,6.66666667 13.3333333,8.15905083 13.3333333,10 C13.3333333,11.8409492 11.8409492,13.3333333 10,13.3333333 Z" id="Shape"></path>
            </g>
        </g>
    </g>
</svg>