<?xml version="1.0" encoding="UTF-8"?>
<svg width="21px" height="20px" viewBox="0 0 21 20" version="1.1" xmlns="http://www.w3.org/2000/svg" xmlns:xlink="http://www.w3.org/1999/xlink">
    <!-- Generator: Sketch 51.2 (57519) - http://www.bohemiancoding.com/sketch -->
    <title>linkedin</title>
    <desc>Created with Sketch.</desc>
    <defs></defs>
    <g id="design" stroke="none" stroke-width="1" fill="none" fill-rule="evenodd">
        <g id="linkedin" fill="#818181" fill-rule="nonzero">
            <g id="Shape">
                <path d="M20.0666667,12.4 L20.0666667,19.8666667 L15.7333333,19.8666667 L15.7333333,12.9333333 C15.7333333,11.2 15.1333333,10 13.5333333,10 C12.5333333,10 11.6666667,10.6666667 11.3333333,11.6 C11.2,11.9333333 11.2,12.2666667 11.2,12.6666667 L11.2,19.9333333 L6.86666667,19.9333333 C6.86666667,19.9333333 6.93333333,8.13333333 6.86666667,6.93333333 L11.2,6.93333333 L11.2,8.8 L11.2,8.86666667 L11.2,8.8 C12,7.4 13.5333333,6.6 15.0666667,6.66666667 C17.9333333,6.53333333 20.0666667,8.4 20.0666667,12.4 Z M2.33333333,0.6 C1.06666667,0.6 0.0666666667,1.6 0.0666666667,2.8 C0.0666666667,4 1.06666667,5.06666667 2.26666667,5.06666667 C3.53333333,5.06666667 4.53333333,4.06666667 4.53333333,2.86666667 C4.6,1.6 3.6,0.6 2.33333333,0.6 Z M0.2,19.8666667 L4.53333333,19.8666667 L4.53333333,6.86666667 L0.2,6.86666667 L0.2,19.8666667 Z"></path>
            </g>
        </g>
    </g>
</svg>