<?xml version="1.0" encoding="UTF-8"?>
<svg width="13px" height="13px" viewBox="0 0 13 13" version="1.1" xmlns="http://www.w3.org/2000/svg" xmlns:xlink="http://www.w3.org/1999/xlink">
    <!-- Generator: Sketch 52.4 (67378) - http://www.bohemiancoding.com/sketch -->
    <title>new tab new</title>
    <desc>Created with Sketch.</desc>
    <g id="desktop" stroke="none" stroke-width="1" fill="none" fill-rule="evenodd">
        <g id="ui-elements-versions,-info-blocks,-accordions-final-popup-default" transform="translate(-852.000000, -869.000000)" fill="#0461B1">
            <g id="new-tab-new" transform="translate(852.000000, 869.000000)">
                <path d="M2.44927536,12.8681159 L9.23188406,12.8681159 C10.5845815,12.8681159 11.6811594,11.771538 11.6811594,10.4188406 L11.6811594,6.27391304 C11.6811594,5.9617521 11.428103,5.70869565 11.115942,5.70869565 C10.8037811,5.70869565 10.5507246,5.9617521 10.5507246,6.27391304 L10.5507246,10.4188406 C10.5507246,11.1472161 9.9602596,11.7376812 9.23188406,11.7376812 L2.44927536,11.7376812 C1.72089982,11.7376812 1.13043478,11.1472161 1.13043478,10.4188406 L1.13043478,3.63623188 C1.13043478,2.90785634 1.72089982,2.3173913 2.44927536,2.3173913 L6.5942029,2.3173913 C6.90636384,2.3173913 7.15942029,2.06433486 7.15942029,1.75217391 C7.15942029,1.44001297 6.90636384,1.18695652 6.5942029,1.18695652 L2.44927536,1.18695652 C1.09657793,1.18695652 1.65657658e-16,2.28353445 0,3.63623188 L0,10.4188406 C1.65657658e-16,11.771538 1.09657793,12.8681159 2.44927536,12.8681159 Z" id="Path"></path>
                <path d="M12.8869565,4.03188406 L12.8869565,0.584057971 C12.8899261,0.545406959 12.8834605,0.506613149 12.8681159,0.471014493 C12.8681159,0.452173913 12.8681159,0.433333333 12.8492754,0.433333333 C12.8304348,0.433333333 12.8304348,0.395652174 12.8304348,0.376811594 C12.8304348,0.357971014 12.8115942,0.339130435 12.7927536,0.320289855 C12.7907626,0.306007256 12.7841445,0.292771091 12.773913,0.282608696 C12.7336856,0.223262484 12.6825346,0.172111514 12.6231884,0.131884058 L12.5855072,0.113043478 C12.5640273,0.0695034851 12.5209161,0.0407626694 12.4724638,0.0376811594 L12.415942,0.0188405797 C12.3782609,0.0188405797 12.3405797,0 12.3028986,0 L8.85507246,0 C8.54291152,-1.91143451e-17 8.28985507,0.253056446 8.28985507,0.565217391 C8.28985507,0.877378337 8.54291152,1.13043478 8.85507246,1.13043478 L10.9463768,1.13043478 L5.76521739,6.33043478 C5.58828892,6.46313114 5.50500751,6.68682823 5.5520836,6.90292046 C5.59915968,7.11901269 5.76794384,7.28779684 5.98403606,7.33487292 C6.20012829,7.38194901 6.42382538,7.29866761 6.55652174,7.12173913 L11.7565217,1.94057971 L11.7565217,4.03188406 C11.7565217,4.18178903 11.8160713,4.32555429 11.9220701,4.43155311 C12.0280689,4.53755193 12.1718342,4.59710145 12.3217391,4.59710145 C12.6277997,4.58284327 12.8726983,4.33794463 12.8869565,4.03188406 Z" id="Path"></path>
            </g>
        </g>
    </g>
</svg>