<?xml version="1.0" encoding="UTF-8"?>
<svg width="24px" height="25px" viewBox="0 0 24 25" version="1.1" xmlns="http://www.w3.org/2000/svg" xmlns:xlink="http://www.w3.org/1999/xlink">
    <!-- Generator: Sketch 51.2 (57519) - http://www.bohemiancoding.com/sketch -->
    <title>print</title>
    <desc>Created with Sketch.</desc>
    <defs></defs>
    <g id="design" stroke="none" stroke-width="1" fill="none" fill-rule="evenodd">
        <g id="ui-elements" transform="translate(-1173.000000, -301.000000)" fill="#EA5441" fill-rule="nonzero">
            <g id="icons" transform="translate(1074.000000, 252.000000)">
                <g id="print" transform="translate(92.000000, 42.000000)">
                    <g transform="translate(7.000000, 7.000000)" id="Shape">
                        <g>
                            <path d="M23.9924051,17.494898 L23.9924051,8.2755102 C23.9924051,7.11734694 23.0556962,6.17346939 21.9063291,6.17346939 L19.3949367,6.17346939 L19.3949367,1.35204082 C19.3949367,0.607142857 18.7924051,0 18.0531646,0 L5.94683544,0 C5.20759494,0 4.60506329,0.607142857 4.60506329,1.35204082 L4.60506329,6.17346939 L2.09367089,6.17346939 C0.944303797,6.17346939 0.00759493671,7.11734694 0.00759493671,8.2755102 L0.00759493671,17.494898 C0.00759493671,18.6530612 0.944303797,19.5969388 2.09367089,19.5969388 L4.60506329,19.5969388 L4.60506329,23.6479592 C4.60506329,24.3928571 5.20759494,25 5.94683544,25 L18.0531646,25 C18.7924051,25 19.3949367,24.3928571 19.3949367,23.6479592 L19.3949367,19.5918367 L21.9063291,19.5918367 C23.0607595,19.5918367 23.9924051,18.6530612 23.9924051,17.494898 Z M5.60759494,1.35204082 C5.60759494,1.16326531 5.75949367,1.01020408 5.94683544,1.01020408 L18.0531646,1.01020408 C18.2405063,1.01020408 18.3924051,1.16326531 18.3924051,1.35204082 L18.3924051,6.17346939 L5.60759494,6.17346939 L5.60759494,1.35204082 Z M18.3974684,23.6479592 C18.3974684,23.8367347 18.2455696,23.9897959 18.0582278,23.9897959 L5.94683544,23.9897959 C5.75949367,23.9897959 5.60759494,23.8367347 5.60759494,23.6479592 L5.60759494,13.3928571 L18.3924051,13.3928571 L18.3924051,23.6479592 L18.3974684,23.6479592 Z M22.9898734,17.494898 C22.9898734,18.0969388 22.5037975,18.5867347 21.9063291,18.5867347 L19.3949367,18.5867347 L19.3949367,12.8877551 C19.3949367,12.6071429 19.1721519,12.3826531 18.8936709,12.3826531 L5.10632911,12.3826531 C4.8278481,12.3826531 4.60506329,12.6071429 4.60506329,12.8877551 L4.60506329,18.5867347 L2.09367089,18.5867347 C1.49620253,18.5867347 1.01012658,18.0969388 1.01012658,17.494898 L1.01012658,8.2755102 C1.01012658,7.67346939 1.49620253,7.18367347 2.09367089,7.18367347 L21.9063291,7.18367347 C22.5037975,7.18367347 22.9898734,7.67346939 22.9898734,8.2755102 L22.9898734,17.494898 Z"></path>
                            <path d="M8.45316456,19.1938776 L15.556962,19.1938776 C15.835443,19.1938776 16.0582278,18.9693878 16.0582278,18.6887755 C16.0582278,18.4081633 15.835443,18.1836735 15.556962,18.1836735 L8.45316456,18.1836735 C8.17468354,18.1836735 7.95189873,18.4081633 7.95189873,18.6887755 C7.95189873,18.9693878 8.17468354,19.1938776 8.45316456,19.1938776 Z"></path>
                            <path d="M8.45316456,22.0561224 L15.556962,22.0561224 C15.835443,22.0561224 16.0582278,21.8316327 16.0582278,21.5510204 C16.0582278,21.2704082 15.835443,21.0459184 15.556962,21.0459184 L8.45316456,21.0459184 C8.17468354,21.0459184 7.95189873,21.2704082 7.95189873,21.5510204 C7.95189873,21.8316327 8.17468354,22.0561224 8.45316456,22.0561224 Z"></path>
                            <path d="M8.45316456,16.3316327 L15.556962,16.3316327 C15.835443,16.3316327 16.0582278,16.1071429 16.0582278,15.8265306 C16.0582278,15.5459184 15.835443,15.3214286 15.556962,15.3214286 L8.45316456,15.3214286 C8.17468354,15.3214286 7.95189873,15.5459184 7.95189873,15.8265306 C7.95189873,16.1071429 8.17468354,16.3316327 8.45316456,16.3316327 Z"></path>
                        </g>
                    </g>
                </g>
            </g>
        </g>
    </g>
</svg>