<?xml version="1.0" encoding="UTF-8"?>
<svg width="20px" height="17px" viewBox="0 0 20 17" version="1.1" xmlns="http://www.w3.org/2000/svg" xmlns:xlink="http://www.w3.org/1999/xlink">
    <!-- Generator: Sketch 51.2 (57519) - http://www.bohemiancoding.com/sketch -->
    <title>twitter</title>
    <desc>Created with Sketch.</desc>
    <defs></defs>
    <g id="design" stroke="none" stroke-width="1" fill="none" fill-rule="evenodd">
        <g id="Twitter" fill="#818181" fill-rule="nonzero">
            <g id="twitter">
                <path d="M20,1.92666667 C19.2536459,2.26624587 18.4602318,2.49100909 17.6466667,2.59333333 C18.5069499,2.07475647 19.1473349,1.25885855 19.4466667,0.3 C18.640814,0.778825691 17.7593363,1.11698848 16.84,1.3 C15.6874111,0.0728754957 13.9026019,-0.326482958 12.3369555,0.292425135 C10.7713092,0.911333228 9.74198998,2.42313116 9.74,4.10666667 C9.74087472,4.42076836 9.7766498,4.73380026 9.84666667,5.04 C6.54860071,4.87413283 3.47598051,3.31601391 1.39333333,0.753333333 C0.306919131,2.63007159 0.864075223,5.02788471 2.66666667,6.23333333 C2.01227165,6.21446079 1.37202677,6.03839344 0.8,5.72 L0.8,5.77333333 C0.811999698,7.71833234 2.18681803,9.38815218 4.09333333,9.77333333 C3.48908799,9.93786211 2.85535613,9.96293783 2.24,9.84666667 C2.77819807,11.5172043 4.31853638,12.6610729 6.07333333,12.6933333 C4.6227987,13.8395119 2.82872108,14.4641515 0.98,14.4666667 C0.652439484,14.4658985 0.32520772,14.4458639 -1.77635684e-15,14.4066667 C3.59152287,16.7109365 8.1545286,16.8705869 11.8983154,14.8229647 C15.6421022,12.7753426 17.9693158,8.84716406 17.9666667,4.58 C17.9666667,4.4 17.9666667,4.22666667 17.9666667,4.04666667 C18.764723,3.46608219 19.4532121,2.74824762 20,1.92666667 Z" id="Twitter"></path>
            </g>
        </g>
    </g>
</svg>