<?xml version="1.0" encoding="UTF-8"?>
<svg width="110px" height="110px" viewBox="0 0 110 110" version="1.1" xmlns="http://www.w3.org/2000/svg" xmlns:xlink="http://www.w3.org/1999/xlink">
    <!-- Generator: Sketch 51.2 (57519) - http://www.bohemiancoding.com/sketch -->
    <title>get started_1</title>
    <desc>Created with Sketch.</desc>
    <defs></defs>
    <g id="design" stroke="none" stroke-width="1" fill="none" fill-rule="evenodd">
        <g id="home" transform="translate(-1030.000000, -592.000000)" fill-rule="nonzero">
            <g id="get-started_1" transform="translate(1030.000000, 592.000000)">
                <path d="M26.6495798,57.8747899 L17.7478992,71.5184874 C16.9401264,72.7536385 17.1099344,74.3861112 18.1546218,75.4285714 L34.5436975,91.8084034 C35.6034651,92.8697459 37.2619462,93.0433079 38.5184874,92.2243697 L52.1252101,83.3504202 L26.6495798,57.8747899 Z" id="Shape" fill="#DDE1E6"></path>
                <path d="M86.0680672,56.7378151 L53.2621849,23.9319328 L27.3058824,27.9806723 C25.3207593,28.2899443 23.4853292,29.2222263 22.0647059,30.6428571 L8.19915966,44.5084034 C7.8509332,44.8590786 7.74246025,45.3822165 7.92254684,45.8424378 C8.10263343,46.3026591 8.5373465,46.613246 9.03109244,46.6344538 L29.6815126,47.5033613 L62.5151261,80.2907563 L63.3470588,100.016807 C63.3762031,100.671072 63.7885032,101.246578 64.3986231,101.484625 C65.0087431,101.722672 65.7018524,101.578457 66.1663866,101.116807 L78.9042017,88.3789916 C80.6150611,86.6673352 81.7382172,84.4566276 82.1117647,82.0655462 L86.0680672,56.7378151 Z" id="Shape" fill="#DDE1E6"></path>
                <path d="M108.761345,8.4394958 C108.282083,4.67891584 105.321084,1.71791743 101.560504,1.23865546 C84.5151261,-0.868907563 69.207563,7.96806723 61.6277311,15.5663866 L23.4512605,53.7428571 C22.8545984,54.3362202 22.5191185,55.1429757 22.5191185,55.9844538 C22.5191185,56.8259318 22.8545984,57.6326874 23.4512605,58.2260504 L51.8201681,86.5857143 C53.0329045,87.7975541 54.9981879,87.7975541 56.2109244,86.5857143 L94.4336134,48.3630252 C102.031933,40.7739496 110.868908,25.4848739 108.761345,8.4394958 Z" id="Shape" fill="#C1C9D1"></path>
                <path d="M33.092437,76.907563 C32.1157084,75.9295502 32.1157084,74.3452397 33.092437,73.3672269 L67.894958,38.5647059 C68.8821795,37.6465958 70.4189572,37.6744582 71.3722495,38.6277505 C72.3255418,39.5810428 72.3534042,41.1178205 71.4352941,42.105042 L36.6327731,76.907563 C35.6547603,77.8842916 34.0704498,77.8842916 33.092437,76.907563 Z" id="Shape" fill="#ECF0F1"></path>
                <circle id="Oval" fill="#ECF0F1" cx="86.0773109" cy="23.9226891" r="9.25294118"></circle>
                <path d="M1.65462185,92.1966387 C0.677893243,91.2186258 0.677893243,89.6343154 1.65462185,88.6563025 L11.212605,79.0983193 C11.8450252,78.4592942 12.7703213,78.2062028 13.6399433,78.4343822 C14.5095653,78.6625616 15.191397,79.3373459 15.4285988,80.2045503 C15.6658007,81.0717548 15.4223361,81.9996304 14.789916,82.6386555 L5.19495798,92.1966387 C4.21694513,93.1733673 2.6326347,93.1733673 1.65462185,92.1966387 Z" id="Shape" fill="#C1C9D1"></path>
                <path d="M17.8033613,108.345378 C16.8266327,107.367365 16.8266327,105.783055 17.8033613,104.805042 L27.3613445,95.210084 C27.985581,94.5388576 28.926582,94.2621753 29.814784,94.4886997 C30.702986,94.7152242 31.3965406,95.4087787 31.623065,96.2969807 C31.8495894,97.1851827 31.5729071,98.1261837 30.9016807,98.7504202 L21.3436975,108.345378 C20.3656846,109.322107 18.7813742,109.322107 17.8033613,108.345378 Z" id="Shape" fill="#C1C9D1"></path>
                <path d="M5.70336134,103.936134 C4.72663274,102.958122 4.72663274,101.373811 5.70336134,100.395798 L19.1067227,86.992437 C20.0939443,86.0743269 21.6307219,86.1021893 22.5840142,87.0554816 C23.5373065,88.0087739 23.5651689,89.5455515 22.6470588,90.5327731 L9.24369748,103.936134 C8.26568463,104.912863 6.6813742,104.912863 5.70336134,103.936134 Z" id="Shape" fill="#C1C9D1"></path>
            </g>
        </g>
    </g>
</svg>