<svg xmlns="http://www.w3.org/2000/svg" width="24" height="24" viewBox="0 0 24 24">
    <g>
        <path d="M19.225 24h-1a.5.5 0 1 1 0-1h1a.5.5 0 1 1 0 1zm-3 0h-1a.5.5 0 1 1 0-1h1a.5.5 0 1 1 0 1zm-3 0h-.975a.5.5 0 1 1 0-1h1a.5.5 0 1 1 0 1h-.025zm-2.975 0h-1a.5.5 0 1 1 0-1h1a.5.5 0 1 1 0 1zm-3 0h-1a.5.5 0 1 1 0-1h1a.5.5 0 1 1 0 1zm-3 0H3.22a.502.502 0 1 1 .08-1h.95a.5.5 0 1 1 0 1zm16.955-.085a.5.5 0 0 1-.12-.985c.266-.067.52-.178.75-.328a.5.5 0 0 1 .545.838c-.326.21-.685.366-1.063.46a.58.58 0 0 1-.105.015h-.007zm-19.75-.712a.5.5 0 0 1-.34-.133 3.5 3.5 0 0 1-.71-.915.5.5 0 0 1 .88-.475 2.5 2.5 0 0 0 .5.652.5.5 0 0 1 .028.708.5.5 0 0 1-.345.163h-.013zm21.867-1.223a.5.5 0 0 1-.475-.663c.098-.261.15-.538.153-.817 0-.28.221-.508.5-.517a.485.485 0 0 1 .5.482v.035a3.5 3.5 0 0 1-.192 1.145.5.5 0 0 1-.473.335h-.012zM.5 20.483a.5.5 0 0 1-.5-.5v-1a.5.5 0 1 1 1 0v1a.5.5 0 0 1-.5.5zm23-1.5a.5.5 0 0 1-.5-.5v-1a.5.5 0 1 1 1 0v1a.5.5 0 0 1-.5.487v.013zM.5 17.5A.5.5 0 0 1 0 17v-1a.5.5 0 1 1 1 0v1a.5.5 0 0 1-.5.5zm23-1.5a.5.5 0 0 1-.5-.5v-1a.5.5 0 1 1 1 0v1a.5.5 0 0 1-.5.477V16zm-23-1.5A.5.5 0 0 1 0 14v-1a.5.5 0 1 1 1 0v1a.5.5 0 0 1-.5.5zm23-1.512a.5.5 0 0 1-.5-.5v-1a.5.5 0 1 1 1 0v1a.5.5 0 0 1-.5.495v.005zM.5 11.5A.5.5 0 0 1 0 11v-1a.5.5 0 0 1 1 0v1a.5.5 0 0 1-.5.5zm23-1.5a.5.5 0 0 1-.5-.5v-1a.5.5 0 1 1 1 0v1a.5.5 0 0 1-.5.5zM.5 8.5A.5.5 0 0 1 0 8V7a.5.5 0 0 1 1 0v1a.5.5 0 0 1-.5.5zm23-1.5a.5.5 0 0 1-.5-.5v-1a.5.5 0 1 1 1 0v1a.5.5 0 0 1-.5.5zM.5 5.515a.5.5 0 0 1-.5-.5v-1a.5.5 0 0 1 1 0v1a.5.5 0 0 1-.5.5zM23.5 4a.5.5 0 0 1-.5-.5 2.5 2.5 0 0 0-.135-.815.5.5 0 0 1 .945-.328c.127.368.191.754.19 1.143a.5.5 0 0 1-.5.5zM.86 2.58a.5.5 0 0 1-.44-.75 3.54 3.54 0 0 1 .71-.9.5.5 0 1 1 .678.733c-.201.19-.37.41-.5.654a.5.5 0 0 1-.448.263zm21.265-1.098a.5.5 0 0 1-.27-.08 2.5 2.5 0 0 0-.75-.33.5.5 0 0 1 .25-.97c.377.094.736.25 1.063.46a.5.5 0 0 1 .127.688.5.5 0 0 1-.42.232zM3.25 1a.5.5 0 0 1-.04-1H4.237a.5.5 0 0 1 0 1H3.25zm15.977 0h-1a.5.5 0 1 1 0-1h1a.5.5 0 1 1 0 1zm-3 0h-1a.5.5 0 1 1 0-1h1a.5.5 0 1 1 0 1zM13.25 1h-1a.5.5 0 1 1 0-1h1a.5.5 0 1 1 0 1zm-3 0h-1a.5.5 0 0 1 0-1h1a.5.5 0 1 1 0 1zm-3 0h-1a.5.5 0 0 1 0-1h1a.5.5 0 0 1 0 1z"/>
        <path d="M11.5 15h-8A3.5 3.5 0 0 1 0 11.5v-8A3.5 3.5 0 0 1 3.5 0h8A3.5 3.5 0 0 1 15 3.5v8a3.5 3.5 0 0 1-3.5 3.5zm-8-14A2.5 2.5 0 0 0 1 3.5v8A2.5 2.5 0 0 0 3.5 14h8a2.5 2.5 0 0 0 2.5-2.5v-8A2.5 2.5 0 0 0 11.5 1h-8zM19.063 19.595a.5.5 0 0 1-.355-.147l-4.063-4.096a.5.5 0 1 1 .71-.704l4.063 4.102a.5.5 0 0 1-.355.852v-.007z"/>
        <path d="M19.5 20H17a.5.5 0 1 1 0-1h2v-2a.5.5 0 1 1 1 0v2.5a.5.5 0 0 1-.5.5z"/>
    </g>
</svg>
