<svg xmlns="http://www.w3.org/2000/svg" width="24" height="25" viewBox="0 0 24 25">
    <g>
        <path d="M23.992 17.495v-9.22a2.098 2.098 0 0 0-2.086-2.102h-2.511V1.352A1.35 1.35 0 0 0 18.053 0H5.947a1.35 1.35 0 0 0-1.342 1.352v4.821H2.094c-1.15 0-2.086.944-2.086 2.103v9.219c0 1.158.936 2.102 2.086 2.102h2.511v4.051A1.35 1.35 0 0 0 5.947 25h12.106a1.35 1.35 0 0 0 1.342-1.352v-4.056h2.511a2.09 2.09 0 0 0 2.086-2.097zM5.608 1.352a.34.34 0 0 1 .339-.342h12.106a.34.34 0 0 1 .34.342v4.821H5.607V1.352zm12.79 22.296a.34.34 0 0 1-.34.342H5.947a.34.34 0 0 1-.34-.342V13.393h12.785v10.255h.005zm4.592-6.153c0 .602-.486 1.092-1.084 1.092h-2.511v-5.7a.501.501 0 0 0-.501-.504H5.106a.501.501 0 0 0-.5.505v5.699H2.093c-.598 0-1.084-.49-1.084-1.092v-9.22c0-.602.486-1.091 1.084-1.091h19.812c.598 0 1.084.49 1.084 1.092v9.219z"/>
        <path d="M8.453 19.194h7.104a.501.501 0 0 0 .501-.505.501.501 0 0 0-.501-.505H8.453a.501.501 0 0 0-.501.505c0 .28.223.505.501.505zM8.453 22.056h7.104a.501.501 0 0 0 .501-.505.501.501 0 0 0-.501-.505H8.453a.501.501 0 0 0-.501.505c0 .28.223.505.501.505zM8.453 16.332h7.104a.501.501 0 0 0 .501-.505.501.501 0 0 0-.501-.506H8.453a.501.501 0 0 0-.501.506c0 .28.223.505.501.505z"/>
    </g>
</svg>
