<svg xmlns="http://www.w3.org/2000/svg" width="26" height="21" viewBox="0 0 26 21">
    <path fill="#B1BBC7" fill-rule="nonzero" d="M14.841 21h9.703c.804 0 1.456-.669 1.456-1.493V1.493C26 .67 25.348 0 24.544 0h-9.418c-.804 0-1.456.669-1.456 1.493v.91H6.868c-.804 0-1.456.669-1.456 1.494v.91h-3.95a1.44 1.44 0 0 0-1.032.435c-.274.28-.429.66-.43 1.057v8.458c0 .396.153.776.427 1.056.273.28.643.438 1.03.438h3.955v1.144c0 .664.525 1.202 1.172 1.202h7.086v1.201c0 .32.123.625.343.85.22.225.517.352.828.352zm.291-19.798h9.405c.077 0 .151.031.206.087a.303.303 0 0 1 .085.211v18c0 .079-.03.155-.085.21a.288.288 0 0 1-.206.088h-9.405a.288.288 0 0 1-.205-.087.303.303 0 0 1-.086-.211v-18c0-.079.03-.155.086-.21a.288.288 0 0 1 .205-.088zM1.172 14.75V6.307c0-.165.13-.299.29-.299h3.95v9.041h-3.95a.288.288 0 0 1-.205-.087.303.303 0 0 1-.085-.212zm5.412 2.404V3.904c0-.165.13-.3.29-.3h6.796v13.848H6.875a.295.295 0 0 1-.291-.298z"/>
</svg>
