<?xml version="1.0" encoding="UTF-8"?>
<svg width="21px" height="20px" viewBox="0 0 21 20" version="1.1" xmlns="http://www.w3.org/2000/svg" xmlns:xlink="http://www.w3.org/1999/xlink">
    <!-- Generator: Sketch 51.2 (57519) - http://www.bohemiancoding.com/sketch -->
    <title>important copy 2</title>
    <desc>Created with Sketch.</desc>
    <defs></defs>
    <g id="design" stroke="none" stroke-width="1" fill="none" fill-rule="evenodd">
        <g id="important-copy-2" fill="#B21016">
            <g id="important">
                <path d="M18.6558584,18.6097618 L2.35429828,18.6097618 C2.26871127,18.6094365 2.1832438,18.6032539 2.09848005,18.5912561 C2.16015051,18.6005089 2.21953689,18.6074486 2.28120736,18.6167014 C2.13787432,18.5937281 1.99762409,18.5541437 1.86321864,18.4987278 L2.02767321,18.568124 C1.93380737,18.5262347 1.84383532,18.4759141 1.75883566,18.4177655 C1.74284702,18.4061994 1.70858565,18.3738145 1.69031292,18.3691881 C1.70858565,18.3738145 1.83649477,18.4917881 1.75426748,18.4154523 C1.71772201,18.3807541 1.67889246,18.3483692 1.64463109,18.3113579 C1.61265381,18.278973 1.58296062,18.2419616 1.55326744,18.2072635 C1.47789242,18.1216748 1.65833564,18.3553088 1.59438108,18.2604673 C1.57839244,18.2373352 1.5624038,18.2142031 1.54869925,18.1910711 C1.49480952,18.1054138 1.44746693,18.0157082 1.40708559,17.9227389 L1.47560833,18.0892899 C1.4187873,17.9523024 1.37963528,17.8084699 1.35911967,17.6613463 C1.36825603,17.723803 1.37510831,17.7839464 1.38424467,17.846403 C1.36597118,17.6958399 1.36597118,17.5435772 1.38424467,17.3930142 C1.37510831,17.4554708 1.36825603,17.5156142 1.35911967,17.5780708 C1.38149854,17.4310883 1.42138009,17.2873933 1.47789242,17.1501273 L1.40936968,17.3166783 C1.49159697,17.1316216 1.59438108,16.9535046 1.69031292,16.7753875 C1.89816523,16.3867685 2.10601755,16.0004627 2.31158577,15.6118437 C2.61993811,15.0358548 2.92600635,14.4621792 3.23435869,13.8861903 C3.61077694,13.1829749 3.98689066,12.4789885 4.36269982,11.774231 C4.76926809,11.0108723 5.17659772,10.2482846 5.58468871,9.48646796 L6.8043935,7.2033313 C7.17898449,6.50474237 7.55281411,5.80615345 7.92588237,5.10756452 C8.22966652,4.54082847 8.53116658,3.97409242 8.83495073,3.40735637 C9.03595077,3.0303034 9.23695081,2.65556365 9.43795086,2.27851068 C9.48820087,2.18366914 9.54073497,2.0888276 9.59098498,1.99398605 L9.62524635,1.93152943 C9.62753044,1.92690301 9.62981453,1.9245898 9.62981453,1.91996338 C9.64580317,1.88989168 9.6640759,1.85981997 9.68234863,1.82974826 C9.70062136,1.79967655 9.71889409,1.77191805 9.73716683,1.74415955 C9.75020785,1.73004018 9.7616957,1.71452779 9.7714282,1.69789538 C9.7714282,1.70483501 9.65722363,1.83668788 9.71661,1.77191805 C9.75840097,1.72265928 9.80261613,1.67556434 9.8490873,1.63081234 C9.87192822,1.60999346 9.89705322,1.58917459 9.91989414,1.56835571 C10.015826,1.482767 9.7965532,1.65625763 9.8764964,1.60305384 C9.9779107,1.53262892 10.085756,1.47220929 10.1985533,1.42262359 L10.0340987,1.49201984 C10.1705921,1.43626682 10.3132408,1.39743155 10.4589397,1.37635942 C10.3972692,1.38561225 10.3378829,1.39255188 10.2762124,1.40180471 C10.4210588,1.38329853 10.5676274,1.38329853 10.7124738,1.40180471 C10.6508034,1.39255188 10.591417,1.38561225 10.5297465,1.37635942 C10.675665,1.39633639 10.8184463,1.43520776 10.9545875,1.49201984 L10.7901329,1.42262359 C10.9060835,1.47534611 11.016956,1.53884573 11.1213262,1.61230667 C11.1715762,1.64469159 11.0299625,1.5359708 11.0368148,1.54522363 C11.0488618,1.55866715 11.0626994,1.57034544 11.0779285,1.57992175 L11.1395989,1.63543876 C11.1898489,1.68401613 11.2355308,1.73721992 11.2812126,1.78811051 C11.3337467,1.84594072 11.1807126,1.64931801 11.2263944,1.71408784 C11.2355308,1.72565388 11.242383,1.73721992 11.2515194,1.74878597 C11.2697921,1.77654447 11.290349,1.80430297 11.3063376,1.83437468 C11.3223262,1.86444638 11.340599,1.89451809 11.3588717,1.9245898 C11.3611558,1.92921622 11.3634399,1.93152943 11.365724,1.93615584 C11.3977013,1.99629926 11.4296785,2.05875589 11.4639399,2.1188993 C11.6352468,2.43812206 11.8042695,2.75734481 11.9755764,3.07656757 C12.2565196,3.6008948 12.5374628,4.12676417 12.8184061,4.65417568 C13.1792925,5.32731931 13.5394176,6.00046295 13.8987813,6.67360658 C14.3007814,7.4253993 14.7020201,8.17642095 15.1024975,8.92667154 C15.5136339,9.69465671 15.924009,10.4626419 16.3336227,11.2306271 C16.7219182,11.9546613 17.1094524,12.6794666 17.4962252,13.4050429 C17.8228503,14.0180432 18.1502367,14.6302723 18.4783845,15.2417304 C18.7136459,15.68124 18.9489073,16.1230628 19.1841687,16.5625724 L19.5062256,17.1663197 C19.5336347,17.2172103 19.5587597,17.2704141 19.5838847,17.3259311 L19.515362,17.1593801 C19.5718743,17.2966461 19.6117559,17.4403411 19.6341347,17.5873237 C19.6249984,17.524867 19.6181461,17.4647236 19.6090097,17.402267 C19.6295661,17.5526797 19.6295661,17.7052432 19.6090097,17.8556558 C19.6181461,17.7931992 19.6249984,17.7330558 19.6341347,17.6705992 C19.6136191,17.8177228 19.5744671,17.9615553 19.5176461,18.0985427 L19.5861688,17.9319917 C19.5466953,18.0254053 19.499314,18.1151842 19.4445552,18.2003239 C19.4285665,18.223456 19.4125779,18.2465881 19.3988733,18.2697201 C19.341771,18.3553088 19.4993734,18.1471201 19.4468393,18.2049503 C19.4125779,18.2442748 19.3828847,18.2812862 19.3463392,18.3182975 C19.314362,18.3506824 19.2801006,18.3830673 19.2458392,18.4131391 C19.2024415,18.4501504 19.1179301,18.501041 19.2983733,18.3761277 C19.2755324,18.3923202 19.2549756,18.4085126 19.2298506,18.4247051 C19.1446324,18.48289 19.0544296,18.5332114 18.9603278,18.5750636 L19.1247824,18.5056674 C18.9911997,18.5634883 18.8506507,18.603157 18.7067936,18.623641 C18.7684641,18.6143882 18.8278505,18.6074486 18.889521,18.5981957 C18.8187141,18.6028221 18.7387709,18.6097618 18.6565436,18.6097618 C18.2979413,18.612075 17.9553276,18.9266713 17.9713162,19.3037243 C17.9873049,19.6761508 18.2728163,20 18.6565436,19.9976868 C19.2533788,19.9937938 19.8271043,19.763524 20.264544,19.3523017 C20.6848168,18.956743 20.9177941,18.4177655 20.9863168,17.8487162 C21.0479873,17.3282443 20.8949532,16.8332177 20.6528395,16.3798289 C20.365044,15.8408514 20.0764871,15.3011027 19.7871689,14.760583 L18.1768844,11.7487857 C17.5327707,10.5459174 16.8894183,9.34227797 16.2468272,8.13786748 C15.6255544,6.97663688 15.0050429,5.81617735 14.3852928,4.65648889 C13.9284745,3.802915 13.4724176,2.94934111 13.017122,2.09576722 C12.765872,1.62387271 12.5328947,1.07101591 12.1537355,0.687023324 C11.4068376,-0.0740222297 10.166576,-0.226693982 9.266644,0.349294902 C8.88291665,0.594494989 8.60197341,0.939163036 8.38955292,1.33703488 C8.09262104,1.89220488 7.79568916,2.44814596 7.49875728,3.00485811 L5.87476831,6.04441391 C5.22608636,7.25653509 4.57816578,8.46942735 3.93100656,9.68309067 C3.31658598,10.8327552 2.7021654,11.9816487 2.08774482,13.1297711 C1.63777882,13.971779 1.18781282,14.8130158 0.737846816,15.6534815 L0.381528562,16.3196855 C0.356403557,16.3659497 0.331278552,16.414527 0.306153546,16.4607912 C0.146874072,16.7597191 0.0472956728,17.0874941 0.0131046233,17.4253991 C-0.112520402,18.5426787 0.680059304,19.6483923 1.74672998,19.9236641 C2.02310503,19.9953736 2.297196,20 2.57813924,20 L18.6581425,20 C19.0167448,20 19.3593586,19.6807772 19.3433699,19.3060375 C19.3250972,18.9266713 19.0395858,18.6097618 18.6558584,18.6097618 Z" id="Shape" fill-rule="nonzero"></path>
                <path d="M9.62887168,6.01503982 L9.62887168,12.1958498 C9.62887168,12.5244146 9.6201604,12.8553604 9.62887168,13.1839253 C9.62887168,13.5720128 10.0295907,13.9291485 10.5,13.9124821 C10.9704093,13.8958158 11.3711283,13.5982027 11.3711283,13.1982107 L11.3711283,7.01740076 C11.3711283,6.68883589 11.3798396,6.35789012 11.3711283,6.02932525 C11.3711283,5.64123777 10.9704093,5.28410204 10.5,5.30076837 C10.0295907,5.31743471 9.62887168,5.61504781 9.62887168,6.01503982 Z" id="Shape" fill-rule="nonzero"></path>
                <ellipse id="Oval" cx="10.5" cy="16.1904762" rx="1" ry="1"></ellipse>
            </g>
        </g>
    </g>
</svg>