<?xml version="1.0" encoding="UTF-8"?>
<svg width="22px" height="22px" viewBox="0 0 22 22" version="1.1" xmlns="http://www.w3.org/2000/svg" xmlns:xlink="http://www.w3.org/1999/xlink">
    <!-- Generator: Sketch 51.2 (57519) - http://www.bohemiancoding.com/sketch -->
    <title>note copy</title>
    <desc>Created with Sketch.</desc>
    <defs></defs>
    <g id="design" stroke="none" stroke-width="1" fill="none" fill-rule="evenodd">
        <g id="note-copy">
            <g id="note" transform="translate(0.956522, 0.956522)">
                <path d="M9.18595895,20.0869565 L2.34007945,20.0869565 C1.04768926,20.0869565 9.05624431e-17,19.0549826 0,17.7819783 L0,2.30497826 C-1.81124886e-16,1.03197392 1.04768926,1.78408013e-16 2.34007945,0 L15.0958067,0 C16.3881969,8.92040065e-17 17.4358861,1.03197392 17.4358861,2.30497826 L17.4358861,6.35400652" id="Shape" stroke="#FC5704" stroke-width="1.3255352" stroke-linecap="round"></path>
                <rect id="Rectangle-path" fill="#FC5704" fill-rule="nonzero" x="3.19453984" y="2.9894413" width="5.57999338" height="1.50652174" rx="0.75326087"></rect>
                <rect id="Rectangle-path" fill="#FC5704" fill-rule="nonzero" x="3.19453984" y="6.85618043" width="10.129638" height="1.50652174" rx="0.75326087"></rect>
                <rect id="Rectangle-path" fill="#FC5704" fill-rule="nonzero" x="3.19453984" y="10.7229196" width="10.129638" height="1.50652174" rx="0.75326087"></rect>
                <path d="M11.8120481,16.4466978 L17.496045,10.2945652 C17.8143285,9.95034241 18.3555453,9.92517081 18.705341,10.2383217 L19.7994173,11.218063 C19.9704987,11.3713129 20.0713991,11.5861913 20.0791766,11.8138406 C20.0869541,12.0414898 20.0009476,12.2625636 19.8407129,12.4267957 L14.033849,18.373037 C13.931083,18.4782506 13.7979474,18.5497807 13.6525028,18.5779239 L11.7891062,18.9384848 C11.7073116,18.9542821 11.6226515,18.9327974 11.5587894,18.8800359 C11.4949273,18.8272745 11.458714,18.7488961 11.4602715,18.6668087 L11.626983,16.8589826 C11.6416801,16.7054307 11.7066288,16.5607391 11.8120481,16.4466978 Z" id="Shape" stroke="#FC5704" stroke-width="1.3255352"></path>
                <rect id="Rectangle-path" fill="#FC5704" fill-rule="nonzero" transform="translate(17.435781, 12.654987) rotate(-47.630000) translate(-17.435781, -12.654987) " x="16.7730138" y="11.1552444" width="1.3255352" height="2.99948478"></rect>
            </g>
        </g>
    </g>
</svg>