<svg xmlns="http://www.w3.org/2000/svg" width="22" height="21" viewBox="0 0 22 21">
    <path fill="#FFF" fill-rule="nonzero" d="M21.001 7.008l-6.272-.84-2.863-5.58A1.084 1.084 0 0 0 10.899 0c-.411.005-.785.24-.963.605L7.177 6.24l-6.26.958a1.078 1.078 0 0 0-.865.735c-.124.387-.014.81.283 1.09l4.577 4.322-1.002 6.158c-.066.4.105.803.44 1.039.335.235.777.263 1.14.071l5.579-2.961 5.633 2.847c.366.185.807.15 1.137-.092.33-.242.494-.647.421-1.047l-1.136-6.129 4.494-4.406c.292-.287.394-.712.263-1.097a1.079 1.079 0 0 0-.88-.719zm-5.028 5.34a1.059 1.059 0 0 0-.303.946l1.036 5.627-5.165-2.623a1.095 1.095 0 0 0-1.006 0l-5.093 2.734.924-5.645a1.06 1.06 0 0 0-.321-.93L1.857 8.494l5.717-.876a1.08 1.08 0 0 0 .808-.59l2.524-5.151 2.615 5.104c.16.313.466.529.819.576l5.741.77-4.108 4.021z"/>
</svg>
