<?xml version="1.0" encoding="UTF-8"?>
<svg width="22px" height="22px" viewBox="0 0 22 22" version="1.1" xmlns="http://www.w3.org/2000/svg" xmlns:xlink="http://www.w3.org/1999/xlink">
    <!-- Generator: Sketch 51.2 (57519) - http://www.bohemiancoding.com/sketch -->
    <title>info copy</title>
    <desc>Created with Sketch.</desc>
    <defs></defs>
    <g id="design" stroke="none" stroke-width="1" fill="none" fill-rule="evenodd">
        <g id="info-copy" fill="#0062B7" fill-rule="nonzero">
            <g id="info">
                <path d="M11,0 C4.92486775,-3.71994563e-16 7.43989126e-16,4.92486775 0,11 C-7.43989126e-16,17.0751322 4.92486775,22 11,22 C17.0751322,22 22,17.0751322 22,11 C21.9915456,4.92837311 17.0716269,0.00845435468 11,0 Z M11,20.4651163 C5.77256062,20.4651163 1.53488372,16.2274394 1.53488372,11 C1.53488372,5.77256062 5.77256062,1.53488372 11,1.53488372 C16.2274394,1.53488372 20.4651163,5.77256062 20.4651163,11 C20.4651163,13.5103049 19.4679015,15.9177943 17.6928479,17.6928479 C15.9177943,19.4679015 13.5103049,20.4651163 11,20.4651163 Z" id="Shape"></path>
                <path d="M11,9.61434109 C10.5761536,9.61434109 10.2325581,9.95793651 10.2325581,10.3817829 L10.2325581,16.2655039 C10.2325581,16.6893503 10.5761536,17.0329457 11,17.0329457 C11.4238464,17.0329457 11.7674419,16.6893503 11.7674419,16.2655039 L11.7674419,10.3817829 C11.7674419,9.95793651 11.4238464,9.61434109 11,9.61434109 Z" id="Shape"></path>
                <path d="M11,5.88372093 C10.4348714,5.88372093 9.97674419,6.34184816 9.97674419,6.90697674 C9.97674419,7.47210533 10.4348714,7.93023256 11,7.93023256 C11.5651286,7.93023256 12.0232558,7.47210533 12.0232558,6.90697674 C12.0232558,6.34184816 11.5651286,5.88372093 11,5.88372093 Z" id="Shape"></path>
            </g>
        </g>
    </g>
</svg>