<?xml version="1.0" encoding="UTF-8"?>
<svg width="16px" height="24px" viewBox="0 0 16 24" version="1.1" xmlns="http://www.w3.org/2000/svg" xmlns:xlink="http://www.w3.org/1999/xlink">
    <!-- Generator: Sketch 51.2 (57519) - http://www.bohemiancoding.com/sketch -->
    <title>tip copy 2</title>
    <desc>Created with Sketch.</desc>
    <defs></defs>
    <g id="design" stroke="none" stroke-width="1" fill="none" fill-rule="evenodd">
        <g id="tip-copy-2" fill="#138535" fill-rule="nonzero">
            <g id="tip">
                <path d="M8,0 C3.581722,-2.705415e-16 5.41083001e-16,3.581722 0,8 C0,9.69333333 1.10666667,11.3333333 2.10666667,12.9466667 C2.98030511,14.1510897 3.62233188,15.5074843 4,16.9466667 L4,17.3333333 L4,20 C4,22.209139 5.790861,24 8,24 C10.209139,24 12,22.209139 12,20 L12,17.3333333 L12,16.96 C12.3776681,15.5208176 13.0196949,14.1644231 13.8933333,12.96 C14.8933333,11.3333333 16,9.69333333 16,8 C16,3.581722 12.418278,2.705415e-16 8,0 Z M8,1.33333333 C9.76810993,1.33333333 11.4638027,2.03571227 12.7140452,3.28595479 C13.9642877,4.53619732 14.6666667,6.23189007 14.6666667,8 C14.3768972,9.54971186 13.7385886,11.0132623 12.8,12.28 C11.988421,13.4257229 11.3379082,14.6773992 10.8666667,16 L5.13333333,16 C4.6641442,14.6723504 4.01353201,13.4159958 3.2,12.2666667 C2.26364987,11.003604 1.62546956,9.5449062 1.33333333,8 C1.33333333,4.31810167 4.31810167,1.33333333 8,1.33333333 Z M5.33333333,17.3333333 L10.6666667,17.3333333 L10.6666667,20 L5.33333333,20 L5.33333333,17.3333333 Z M5.69333333,21.3333333 L10.36,21.3333333 C9.89034976,22.1821755 8.99677203,22.7090056 8.02666667,22.7090056 C7.05656131,22.7090056 6.16298357,22.1821755 5.69333333,21.3333333 Z" id="Shape"></path>
            </g>
        </g>
    </g>
</svg>