<?xml version="1.0" encoding="UTF-8"?>
<svg width="70px" height="70px" viewBox="0 0 70 70" version="1.1" xmlns="http://www.w3.org/2000/svg" xmlns:xlink="http://www.w3.org/1999/xlink">
    <!-- Generator: sketchtool 52.4 (67378) - http://www.bohemiancoding.com/sketch -->
    <title>8E3B6671-25D2-47FE-88A0-834EE4675193</title>
    <desc>Created with sketchtool.</desc>
    <g id="design" stroke="none" stroke-width="1" fill="none" fill-rule="evenodd">
        <g id="home-2" transform="translate(-1071.000000, -493.000000)" fill-rule="nonzero">
            <g id="get-started" transform="translate(1071.000000, 493.000000)">
                <g>
                    <path d="M16.9588235,36.8294118 L11.2941176,45.5117647 C10.7800804,46.2977699 10.8881401,47.3366162 11.5529412,48 L21.9823529,58.4235294 C22.6567505,59.0989292 23.7121476,59.2093777 24.5117647,58.6882353 L33.1705882,53.0411765 L16.9588235,36.8294118 Z" id="Shape" fill="#DDE1E6"></path>
                    <path d="M54.7705882,36.1058824 L33.8941176,15.2294118 L17.3764706,17.8058824 C16.1132105,18.0026919 14.9452095,18.5959622 14.0411765,19.5 L5.21764706,28.3235294 C4.9960484,28.5466864 4.92702016,28.8795923 5.04162072,29.1724604 C5.15622127,29.4653285 5.43285687,29.6629747 5.74705882,29.6764706 L18.8882353,30.2294118 L39.7823529,51.0941176 L40.3117647,63.6470588 C40.3303111,64.0634095 40.5926839,64.4296406 40.980942,64.5811249 C41.3692001,64.7326092 41.8102697,64.640836 42.1058824,64.3470588 L50.2117647,56.2411765 C51.3004935,55.1519406 52.0152291,53.7451266 52.2529412,52.2235294 L54.7705882,36.1058824 Z" id="Shape" fill="#DDE1E6"></path>
                    <path d="M69.2117647,5.37058824 C68.9067798,2.9774919 67.0225081,1.09322018 64.6294118,0.788235294 C53.7823529,-0.552941176 44.0411765,5.07058824 39.2176471,9.90588235 L14.9235294,34.2 C14.5438354,34.5775946 14.3303481,35.0909846 14.3303481,35.6264706 C14.3303481,36.1619566 14.5438354,36.6753465 14.9235294,37.0529412 L32.9764706,55.1 C33.748212,55.8711708 34.9988469,55.8711708 35.7705882,55.1 L60.0941176,30.7764706 C64.9294118,25.9470588 70.5529412,16.2176471 69.2117647,5.37058824 Z" id="Shape" fill="#C1C9D1"></path>
                    <path d="M21.0588235,48.9411765 C20.437269,48.3188047 20.437269,47.3106071 21.0588235,46.6882353 L43.2058824,24.5411765 C43.8341143,23.9569246 44.8120636,23.9746552 45.4187042,24.5812958 C46.0253448,25.1879364 46.0430754,26.1658857 45.4588235,26.7941176 L23.3117647,48.9411765 C22.6893929,49.562731 21.6811953,49.562731 21.0588235,48.9411765 Z" id="Shape" fill="#ECF0F1"></path>
                    <circle id="Oval" fill="#ECF0F1" cx="54.7764706" cy="15.2235294" r="5.88823529"></circle>
                    <path d="M1.05294118,58.6705882 C0.431386609,58.0482164 0.431386609,57.0400189 1.05294118,56.4176471 L7.13529412,50.3352941 C7.53774329,49.9286418 8.1265681,49.7675836 8.67996393,49.9127887 C9.23335976,50.0579937 9.66725262,50.4874019 9.81819925,51.0392593 C9.96914588,51.5911167 9.81421391,52.181583 9.41176471,52.5882353 L3.30588235,58.6705882 C2.68351054,59.2921428 1.67531299,59.2921428 1.05294118,58.6705882 Z" id="Shape" fill="#C1C9D1"></path>
                    <path d="M11.3294118,68.9470588 C10.7078572,68.324687 10.7078572,67.3164895 11.3294118,66.6941176 L17.4117647,60.5882353 C17.8090061,60.1610912 18.4078249,59.9850206 18.9730444,60.1291725 C19.5382638,60.2733245 19.9796167,60.7146774 20.1237686,61.2798968 C20.2679205,61.8451163 20.09185,62.4439351 19.6647059,62.8411765 L13.5823529,68.9470588 C12.9599811,69.5686134 11.9517836,69.5686134 11.3294118,68.9470588 Z" id="Shape" fill="#C1C9D1"></path>
                    <path d="M3.62941176,66.1411765 C3.0078572,65.5188047 3.0078572,64.5106071 3.62941176,63.8882353 L12.1588235,55.3588235 C12.7870554,54.7745717 13.7650048,54.7923023 14.3716454,55.3989428 C14.9782859,56.0055834 14.9960165,56.9835328 14.4117647,57.6117647 L5.88235294,66.1411765 C5.25998113,66.762731 4.25178358,66.762731 3.62941176,66.1411765 Z" id="Shape" fill="#C1C9D1"></path>
                </g>
            </g>
        </g>
    </g>
</svg>