<?xml version="1.0" encoding="UTF-8"?>
<svg width="74px" height="74px" viewBox="0 0 74 74" version="1.1" xmlns="http://www.w3.org/2000/svg" xmlns:xlink="http://www.w3.org/1999/xlink">
    <!-- Generator: sketchtool 52.4 (67378) - http://www.bohemiancoding.com/sketch -->
    <title>E720BF15-8D99-4239-B6EE-A5C384CEB714</title>
    <desc>Created with sketchtool.</desc>
    <g id="design" stroke="none" stroke-width="1" fill="none" fill-rule="evenodd">
        <g id="home-2-hover" transform="translate(-623.000000, -652.000000)" fill-rule="nonzero">
            <g id="developer-color" transform="translate(623.000000, 652.000000)">
                <g>
                    <rect id="Rectangle-path" fill="#E1F0FF" x="0" y="0" width="74" height="74" rx="6.41758621"></rect>
                    <path d="M-7.99360578e-15,7.01724138 L8.93103448,7.01724138 L8.93103448,74 L6.37931034,74 C2.85793103,74 -7.99360578e-15,70.7401724 -7.99360578e-15,66.7212069 L-7.99360578e-15,7.01724138 Z" id="Shape" fill="#C2D5E7"></path>
                    <path d="M3.82758621,22.9655172 L5.10344828,22.9655172 C5.80808744,22.9655172 6.37931034,22.3942943 6.37931034,21.6896552 C6.37931034,20.985016 5.80808744,20.4137931 5.10344828,20.4137931 L3.82758621,20.4137931 C3.12294704,20.4137931 2.55172414,20.985016 2.55172414,21.6896552 C2.55172414,22.3942943 3.12294704,22.9655172 3.82758621,22.9655172 Z" id="Shape" fill="#EBEEF2"></path>
                    <path d="M3.82758621,17.862069 L5.10344828,17.862069 C5.80808744,17.862069 6.37931034,17.2908461 6.37931034,16.5862069 C6.37931034,15.8815677 5.80808744,15.3103448 5.10344828,15.3103448 L3.82758621,15.3103448 C3.12294704,15.3103448 2.55172414,15.8815677 2.55172414,16.5862069 C2.55172414,17.2908461 3.12294704,17.862069 3.82758621,17.862069 Z" id="Shape" fill="#EBEEF2"></path>
                    <path d="M3.82758621,12.7586207 L5.10344828,12.7586207 C5.80808744,12.7586207 6.37931034,12.1873978 6.37931034,11.4827586 C6.37931034,10.7781195 5.80808744,10.2068966 5.10344828,10.2068966 L3.82758621,10.2068966 C3.12294704,10.2068966 2.55172414,10.7781195 2.55172414,11.4827586 C2.55172414,12.1873978 3.12294704,12.7586207 3.82758621,12.7586207 Z" id="Shape" fill="#EBEEF2"></path>
                    <path d="M5.10344828,25.5172414 L3.82758621,25.5172414 C3.12294704,25.5172414 2.55172414,26.0884643 2.55172414,26.7931034 C2.55172414,27.4977426 3.12294704,28.0689655 3.82758621,28.0689655 L5.10344828,28.0689655 C5.80808744,28.0689655 6.37931034,27.4977426 6.37931034,26.7931034 C6.37931034,26.0884643 5.80808744,25.5172414 5.10344828,25.5172414 Z" id="Shape" fill="#EBEEF2"></path>
                    <path d="M5.10344828,30.6206897 L3.82758621,30.6206897 C3.12294704,30.6206897 2.55172414,31.1919126 2.55172414,31.8965517 C2.55172414,32.6011909 3.12294704,33.1724138 3.82758621,33.1724138 L5.10344828,33.1724138 C5.80808744,33.1724138 6.37931034,32.6011909 6.37931034,31.8965517 C6.37931034,31.1919126 5.80808744,30.6206897 5.10344828,30.6206897 Z" id="Shape" fill="#EBEEF2"></path>
                    <path d="M5.10344828,35.7241379 L3.82758621,35.7241379 C3.12294704,35.7241379 2.55172414,36.2953608 2.55172414,37 C2.55172414,37.7046392 3.12294704,38.2758621 3.82758621,38.2758621 L5.10344828,38.2758621 C5.80808744,38.2758621 6.37931034,37.7046392 6.37931034,37 C6.37931034,36.2953608 5.80808744,35.7241379 5.10344828,35.7241379 Z" id="Shape" fill="#EBEEF2"></path>
                    <path d="M5.10344828,40.8275862 L3.82758621,40.8275862 C3.12294704,40.8275862 2.55172414,41.3988091 2.55172414,42.1034483 C2.55172414,42.8080874 3.12294704,43.3793103 3.82758621,43.3793103 L5.10344828,43.3793103 C5.80808744,43.3793103 6.37931034,42.8080874 6.37931034,42.1034483 C6.37931034,41.3988091 5.80808744,40.8275862 5.10344828,40.8275862 Z" id="Shape" fill="#EBEEF2"></path>
                    <path d="M5.10344828,45.9310345 L3.82758621,45.9310345 C3.12294704,45.9310345 2.55172414,46.5022574 2.55172414,47.2068966 C2.55172414,47.9115357 3.12294704,48.4827586 3.82758621,48.4827586 L5.10344828,48.4827586 C5.80808744,48.4827586 6.37931034,47.9115357 6.37931034,47.2068966 C6.37931034,46.5022574 5.80808744,45.9310345 5.10344828,45.9310345 Z" id="Shape" fill="#EBEEF2"></path>
                    <path d="M5.10344828,51.0344828 L3.82758621,51.0344828 C3.12294704,51.0344828 2.55172414,51.6057057 2.55172414,52.3103448 C2.55172414,53.014984 3.12294704,53.5862069 3.82758621,53.5862069 L5.10344828,53.5862069 C5.80808744,53.5862069 6.37931034,53.014984 6.37931034,52.3103448 C6.37931034,51.6057057 5.80808744,51.0344828 5.10344828,51.0344828 Z" id="Shape" fill="#EBEEF2"></path>
                    <path d="M5.10344828,56.137931 L3.82758621,56.137931 C3.12294704,56.137931 2.55172414,56.7091539 2.55172414,57.4137931 C2.55172414,58.1184323 3.12294704,58.6896552 3.82758621,58.6896552 L5.10344828,58.6896552 C5.80808744,58.6896552 6.37931034,58.1184323 6.37931034,57.4137931 C6.37931034,56.7091539 5.80808744,56.137931 5.10344828,56.137931 Z" id="Shape" fill="#EBEEF2"></path>
                    <path d="M5.10344828,61.2413793 L3.82758621,61.2413793 C3.12294704,61.2413793 2.55172414,61.8126022 2.55172414,62.5172414 C2.55172414,63.2218805 3.12294704,63.7931034 3.82758621,63.7931034 L5.10344828,63.7931034 C5.80808744,63.7931034 6.37931034,63.2218805 6.37931034,62.5172414 C6.37931034,61.8126022 5.80808744,61.2413793 5.10344828,61.2413793 Z" id="Shape" fill="#EBEEF2"></path>
                    <path d="M5.10344828,66.3448276 L3.82758621,66.3448276 C3.12294704,66.3448276 2.55172414,66.9160505 2.55172414,67.6206897 C2.55172414,68.3253288 3.12294704,68.8965517 3.82758621,68.8965517 L5.10344828,68.8965517 C5.80808744,68.8965517 6.37931034,68.3253288 6.37931034,67.6206897 C6.37931034,66.9160505 5.80808744,66.3448276 5.10344828,66.3448276 Z" id="Shape" fill="#EBEEF2"></path>
                    <path d="M31.8965517,22.9655172 L15.3103448,22.9655172 C14.6057057,22.9655172 14.0344828,22.3942943 14.0344828,21.6896552 C14.0344828,20.985016 14.6057057,20.4137931 15.3103448,20.4137931 L31.8965517,20.4137931 C32.6011909,20.4137931 33.1724138,20.985016 33.1724138,21.6896552 C33.1724138,22.3942943 32.6011909,22.9655172 31.8965517,22.9655172 Z" id="Shape" fill="#656D88"></path>
                    <path d="M49.7586207,22.9655172 L37,22.9655172 C36.2953608,22.9655172 35.7241379,22.3942943 35.7241379,21.6896552 C35.7241379,20.985016 36.2953608,20.4137931 37,20.4137931 L49.7586207,20.4137931 C50.4632599,20.4137931 51.0344828,20.985016 51.0344828,21.6896552 C51.0344828,22.3942943 50.4632599,22.9655172 49.7586207,22.9655172 Z" id="Shape" fill="#C1C9D1"></path>
                    <path d="M57.4137931,22.9655172 L54.862069,22.9655172 C54.1574298,22.9655172 53.5862069,22.3942943 53.5862069,21.6896552 C53.5862069,20.985016 54.1574298,20.4137931 54.862069,20.4137931 L57.4137931,20.4137931 C58.1184323,20.4137931 58.6896552,20.985016 58.6896552,21.6896552 C58.6896552,22.3942943 58.1184323,22.9655172 57.4137931,22.9655172 Z" id="Shape" fill="#0461B1"></path>
                    <path d="M63.7931034,28.0689655 L44.6551724,28.0689655 C43.9505333,28.0689655 43.3793103,27.4977426 43.3793103,26.7931034 C43.3793103,26.0884643 43.9505333,25.5172414 44.6551724,25.5172414 L63.7931034,25.5172414 C64.4977426,25.5172414 65.0689655,26.0884643 65.0689655,26.7931034 C65.0689655,27.4977426 64.4977426,28.0689655 63.7931034,28.0689655 Z" id="Shape" fill="#656D88"></path>
                    <path d="M39.5517241,28.0689655 L21.6896552,28.0689655 C20.985016,28.0689655 20.4137931,27.4977426 20.4137931,26.7931034 C20.4137931,26.0884643 20.985016,25.5172414 21.6896552,25.5172414 L39.5517241,25.5172414 C40.2563633,25.5172414 40.8275862,26.0884643 40.8275862,26.7931034 C40.8275862,27.4977426 40.2563633,28.0689655 39.5517241,28.0689655 Z" id="Shape" fill="#EA5340"></path>
                    <path d="M16.5862069,28.0689655 L15.3103448,28.0689655 C14.6057057,28.0689655 14.0344828,27.4977426 14.0344828,26.7931034 C14.0344828,26.0884643 14.6057057,25.5172414 15.3103448,25.5172414 L16.5862069,25.5172414 C17.2908461,25.5172414 17.862069,26.0884643 17.862069,26.7931034 C17.862069,27.4977426 17.2908461,28.0689655 16.5862069,28.0689655 Z" id="Shape" fill="#EA5340"></path>
                    <path d="M26.7931034,33.1724138 L15.3103448,33.1724138 C14.6057057,33.1724138 14.0344828,32.6011909 14.0344828,31.8965517 C14.0344828,31.1919126 14.6057057,30.6206897 15.3103448,30.6206897 L26.7931034,30.6206897 C27.4977426,30.6206897 28.0689655,31.1919126 28.0689655,31.8965517 C28.0689655,32.6011909 27.4977426,33.1724138 26.7931034,33.1724138 Z" id="Shape" fill="#656D88"></path>
                    <path d="M34.4482759,33.1724138 L31.8965517,33.1724138 C31.1919126,33.1724138 30.6206897,32.6011909 30.6206897,31.8965517 C30.6206897,31.1919126 31.1919126,30.6206897 31.8965517,30.6206897 L34.4482759,30.6206897 C35.152915,30.6206897 35.7241379,31.1919126 35.7241379,31.8965517 C35.7241379,32.6011909 35.152915,33.1724138 34.4482759,33.1724138 Z" id="Shape" fill="#C1C9D1"></path>
                    <path d="M57.4137931,33.1724138 L39.5517241,33.1724138 C38.847085,33.1724138 38.2758621,32.6011909 38.2758621,31.8965517 C38.2758621,31.1919126 38.847085,30.6206897 39.5517241,30.6206897 L57.4137931,30.6206897 C58.1184323,30.6206897 58.6896552,31.1919126 58.6896552,31.8965517 C58.6896552,32.6011909 58.1184323,33.1724138 57.4137931,33.1724138 Z" id="Shape" fill="#0461B1"></path>
                    <path d="M31.8965517,38.2758621 L15.3103448,38.2758621 C14.6057057,38.2758621 14.0344828,37.7046392 14.0344828,37 C14.0344828,36.2953608 14.6057057,35.7241379 15.3103448,35.7241379 L31.8965517,35.7241379 C32.6011909,35.7241379 33.1724138,36.2953608 33.1724138,37 C33.1724138,37.7046392 32.6011909,38.2758621 31.8965517,38.2758621 Z" id="Shape" fill="#C1C9D1"></path>
                    <path d="M49.7586207,38.2758621 L37,38.2758621 C36.2953608,38.2758621 35.7241379,37.7046392 35.7241379,37 C35.7241379,36.2953608 36.2953608,35.7241379 37,35.7241379 L49.7586207,35.7241379 C50.4632599,35.7241379 51.0344828,36.2953608 51.0344828,37 C51.0344828,37.7046392 50.4632599,38.2758621 49.7586207,38.2758621 Z" id="Shape" fill="#0461B1"></path>
                    <path d="M54.862069,43.3793103 L44.6551724,43.3793103 C43.9505333,43.3793103 43.3793103,42.8080874 43.3793103,42.1034483 C43.3793103,41.3988091 43.9505333,40.8275862 44.6551724,40.8275862 L54.862069,40.8275862 C55.5667081,40.8275862 56.137931,41.3988091 56.137931,42.1034483 C56.137931,42.8080874 55.5667081,43.3793103 54.862069,43.3793103 Z" id="Shape" fill="#C1C9D1"></path>
                    <path d="M39.5517241,43.3793103 L21.6896552,43.3793103 C20.985016,43.3793103 20.4137931,42.8080874 20.4137931,42.1034483 C20.4137931,41.3988091 20.985016,40.8275862 21.6896552,40.8275862 L39.5517241,40.8275862 C40.2563633,40.8275862 40.8275862,41.3988091 40.8275862,42.1034483 C40.8275862,42.8080874 40.2563633,43.3793103 39.5517241,43.3793103 Z" id="Shape" fill="#656D88"></path>
                    <path d="M16.5862069,43.3793103 L15.3103448,43.3793103 C14.6057057,43.3793103 14.0344828,42.8080874 14.0344828,42.1034483 C14.0344828,41.3988091 14.6057057,40.8275862 15.3103448,40.8275862 L16.5862069,40.8275862 C17.2908461,40.8275862 17.862069,41.3988091 17.862069,42.1034483 C17.862069,42.8080874 17.2908461,43.3793103 16.5862069,43.3793103 Z" id="Shape" fill="#0461B1"></path>
                    <path d="M26.7931034,48.4827586 L15.3103448,48.4827586 C14.6057057,48.4827586 14.0344828,47.9115357 14.0344828,47.2068966 C14.0344828,46.5022574 14.6057057,45.9310345 15.3103448,45.9310345 L26.7931034,45.9310345 C27.4977426,45.9310345 28.0689655,46.5022574 28.0689655,47.2068966 C28.0689655,47.9115357 27.4977426,48.4827586 26.7931034,48.4827586 Z" id="Shape" fill="#C1C9D1"></path>
                    <path d="M34.4482759,48.4827586 L31.8965517,48.4827586 C31.1919126,48.4827586 30.6206897,47.9115357 30.6206897,47.2068966 C30.6206897,46.5022574 31.1919126,45.9310345 31.8965517,45.9310345 L34.4482759,45.9310345 C35.152915,45.9310345 35.7241379,46.5022574 35.7241379,47.2068966 C35.7241379,47.9115357 35.152915,48.4827586 34.4482759,48.4827586 Z" id="Shape" fill="#656D88"></path>
                    <path d="M58.6896552,48.4827586 L39.5517241,48.4827586 C38.847085,48.4827586 38.2758621,47.9115357 38.2758621,47.2068966 C38.2758621,46.5022574 38.847085,45.9310345 39.5517241,45.9310345 L58.6896552,45.9310345 C59.3942943,45.9310345 59.9655172,46.5022574 59.9655172,47.2068966 C59.9655172,47.9115357 59.3942943,48.4827586 58.6896552,48.4827586 Z" id="Shape" fill="#EA5340"></path>
                    <path d="M26.7931034,17.862069 L15.3103448,17.862069 C14.6057057,17.862069 14.0344828,17.2908461 14.0344828,16.5862069 C14.0344828,15.8815677 14.6057057,15.3103448 15.3103448,15.3103448 L26.7931034,15.3103448 C27.4977426,15.3103448 28.0689655,15.8815677 28.0689655,16.5862069 C28.0689655,17.2908461 27.4977426,17.862069 26.7931034,17.862069 Z" id="Shape" fill="#C1C9D1"></path>
                    <path d="M34.4482759,17.862069 L31.8965517,17.862069 C31.1919126,17.862069 30.6206897,17.2908461 30.6206897,16.5862069 C30.6206897,15.8815677 31.1919126,15.3103448 31.8965517,15.3103448 L34.4482759,15.3103448 C35.152915,15.3103448 35.7241379,15.8815677 35.7241379,16.5862069 C35.7241379,17.2908461 35.152915,17.862069 34.4482759,17.862069 Z" id="Shape" fill="#656D88"></path>
                    <path d="M58.6896552,17.862069 L39.5517241,17.862069 C38.847085,17.862069 38.2758621,17.2908461 38.2758621,16.5862069 C38.2758621,15.8815677 38.847085,15.3103448 39.5517241,15.3103448 L58.6896552,15.3103448 C59.3942943,15.3103448 59.9655172,15.8815677 59.9655172,16.5862069 C59.9655172,17.2908461 59.3942943,17.862069 58.6896552,17.862069 Z" id="Shape" fill="#EA5340"></path>
                    <path d="M31.8965517,53.5862069 L15.3103448,53.5862069 C14.6057057,53.5862069 14.0344828,53.014984 14.0344828,52.3103448 C14.0344828,51.6057057 14.6057057,51.0344828 15.3103448,51.0344828 L31.8965517,51.0344828 C32.6011909,51.0344828 33.1724138,51.6057057 33.1724138,52.3103448 C33.1724138,53.014984 32.6011909,53.5862069 31.8965517,53.5862069 Z" id="Shape" fill="#656D88"></path>
                    <path d="M49.7586207,53.5862069 L37,53.5862069 C36.2953608,53.5862069 35.7241379,53.014984 35.7241379,52.3103448 C35.7241379,51.6057057 36.2953608,51.0344828 37,51.0344828 L49.7586207,51.0344828 C50.4632599,51.0344828 51.0344828,51.6057057 51.0344828,52.3103448 C51.0344828,53.014984 50.4632599,53.5862069 49.7586207,53.5862069 Z" id="Shape" fill="#0461B1"></path>
                    <path d="M63.7931034,53.5862069 L54.862069,53.5862069 C54.1574298,53.5862069 53.5862069,53.014984 53.5862069,52.3103448 C53.5862069,51.6057057 54.1574298,51.0344828 54.862069,51.0344828 L63.7931034,51.0344828 C64.4977426,51.0344828 65.0689655,51.6057057 65.0689655,52.3103448 C65.0689655,53.014984 64.4977426,53.5862069 63.7931034,53.5862069 Z" id="Shape" fill="#EA5340"></path>
                    <path d="M31.8965517,12.7586207 L15.3103448,12.7586207 C14.6057057,12.7586207 14.0344828,12.1873978 14.0344828,11.4827586 C14.0344828,10.7781195 14.6057057,10.2068966 15.3103448,10.2068966 L31.8965517,10.2068966 C32.6011909,10.2068966 33.1724138,10.7781195 33.1724138,11.4827586 C33.1724138,12.1873978 32.6011909,12.7586207 31.8965517,12.7586207 Z" id="Shape" fill="#0461B1"></path>
                    <path d="M49.7586207,12.7586207 L37,12.7586207 C36.2953608,12.7586207 35.7241379,12.1873978 35.7241379,11.4827586 C35.7241379,10.7781195 36.2953608,10.2068966 37,10.2068966 L49.7586207,10.2068966 C50.4632599,10.2068966 51.0344828,10.7781195 51.0344828,11.4827586 C51.0344828,12.1873978 50.4632599,12.7586207 49.7586207,12.7586207 Z" id="Shape" fill="#656D88"></path>
                    <path d="M63.7931034,12.7586207 L54.862069,12.7586207 C54.1574298,12.7586207 53.5862069,12.1873978 53.5862069,11.4827586 C53.5862069,10.7781195 54.1574298,10.2068966 54.862069,10.2068966 L63.7931034,10.2068966 C64.4977426,10.2068966 65.0689655,10.7781195 65.0689655,11.4827586 C65.0689655,12.1873978 64.4977426,12.7586207 63.7931034,12.7586207 Z" id="Shape" fill="#EA5340"></path>
                    <path d="M49.7586207,58.6896552 L44.6551724,58.6896552 C43.9505333,58.6896552 43.3793103,58.1184323 43.3793103,57.4137931 C43.3793103,56.7091539 43.9505333,56.137931 44.6551724,56.137931 L49.7586207,56.137931 C50.4632599,56.137931 51.0344828,56.7091539 51.0344828,57.4137931 C51.0344828,58.1184323 50.4632599,58.6896552 49.7586207,58.6896552 Z" id="Shape" fill="#656D88"></path>
                    <path d="M39.5517241,58.6896552 L21.6896552,58.6896552 C20.985016,58.6896552 20.4137931,58.1184323 20.4137931,57.4137931 C20.4137931,56.7091539 20.985016,56.137931 21.6896552,56.137931 L39.5517241,56.137931 C40.2563633,56.137931 40.8275862,56.7091539 40.8275862,57.4137931 C40.8275862,58.1184323 40.2563633,58.6896552 39.5517241,58.6896552 Z" id="Shape" fill="#EA5340"></path>
                    <path d="M16.5862069,58.6896552 L15.3103448,58.6896552 C14.6057057,58.6896552 14.0344828,58.1184323 14.0344828,57.4137931 C14.0344828,56.7091539 14.6057057,56.137931 15.3103448,56.137931 L16.5862069,56.137931 C17.2908461,56.137931 17.862069,56.7091539 17.862069,57.4137931 C17.862069,58.1184323 17.2908461,58.6896552 16.5862069,58.6896552 Z" id="Shape" fill="#C1C9D1"></path>
                    <path d="M26.7931034,63.7931034 L15.3103448,63.7931034 C14.6057057,63.7931034 14.0344828,63.2218805 14.0344828,62.5172414 C14.0344828,61.8126022 14.6057057,61.2413793 15.3103448,61.2413793 L26.7931034,61.2413793 C27.4977426,61.2413793 28.0689655,61.8126022 28.0689655,62.5172414 C28.0689655,63.2218805 27.4977426,63.7931034 26.7931034,63.7931034 Z" id="Shape" fill="#0461B1"></path>
                    <path d="M34.4482759,63.7931034 L31.8965517,63.7931034 C31.1919126,63.7931034 30.6206897,63.2218805 30.6206897,62.5172414 C30.6206897,61.8126022 31.1919126,61.2413793 31.8965517,61.2413793 L34.4482759,61.2413793 C35.152915,61.2413793 35.7241379,61.8126022 35.7241379,62.5172414 C35.7241379,63.2218805 35.152915,63.7931034 34.4482759,63.7931034 Z" id="Shape" fill="#656D88"></path>
                    <path d="M48.4827586,63.7931034 L39.5517241,63.7931034 C38.847085,63.7931034 38.2758621,63.2218805 38.2758621,62.5172414 C38.2758621,61.8126022 38.847085,61.2413793 39.5517241,61.2413793 L48.4827586,61.2413793 C49.1873978,61.2413793 49.7586207,61.8126022 49.7586207,62.5172414 C49.7586207,63.2218805 49.1873978,63.7931034 48.4827586,63.7931034 Z" id="Shape" fill="#EA5340"></path>
                    <path d="M54.862069,63.7931034 L53.5862069,63.7931034 C52.8815677,63.7931034 52.3103448,63.2218805 52.3103448,62.5172414 C52.3103448,61.8126022 52.8815677,61.2413793 53.5862069,61.2413793 L54.862069,61.2413793 C55.5667081,61.2413793 56.137931,61.8126022 56.137931,62.5172414 C56.137931,63.2218805 55.5667081,63.7931034 54.862069,63.7931034 Z" id="Shape" fill="#C1C9D1"></path>
                    <path d="M6.37931034,6.27053964e-13 L67.6206897,6.27053964e-13 C71.1438855,6.27269698e-13 74,2.85611453 74,6.37931034 L74,7.01724138 L0,7.01724138 L0,6.37931034 C-4.31467048e-16,2.85611453 2.85611453,6.27701165e-13 6.37931034,6.27053964e-13 Z" id="Shape" fill="#656D88"></path>
                    <circle id="Oval" fill="#EA5340" cx="5.10344828" cy="3.82758621" r="1.27586207"></circle>
                    <circle id="Oval" fill="#F0C419" cx="8.93103448" cy="3.82758621" r="1.27586207"></circle>
                    <circle id="Oval" fill="#4FC2A0" cx="12.7586207" cy="3.82758621" r="1.27586207"></circle>
                </g>
            </g>
        </g>
    </g>
</svg>