<?xml version="1.0" encoding="UTF-8"?>
<svg width="52px" height="52px" viewBox="0 0 52 52" version="1.1" xmlns="http://www.w3.org/2000/svg" xmlns:xlink="http://www.w3.org/1999/xlink">
    <!-- Generator: sketchtool 52.4 (67378) - http://www.bohemiancoding.com/sketch -->
    <title>E1899301-6BF4-440B-8CFD-694C19FCB1FB</title>
    <desc>Created with sketchtool.</desc>
    <g id="desktop" stroke="none" stroke-width="1" fill="none" fill-rule="evenodd">
        <g id="home-new" transform="translate(-1029.000000, -809.000000)">
            <g id="roadmap-color" transform="translate(1029.000000, 809.000000)">
                <rect id="Rectangle" fill="#ECF0F1" x="0" y="0" width="52" height="52" rx="6"></rect>
                <path d="M4.48275862,-6.90558721e-13 L47.5172414,-6.90558721e-13 C49.9930006,-6.90407125e-13 52,2.0069994 52,4.48275862 L52,4.93103448 L-3.55271368e-15,4.93103448 L-3.55271368e-15,4.48275862 C-3.85590674e-15,2.0069994 2.0069994,-6.90103932e-13 4.48275862,-6.90558721e-13 Z" id="Shape" fill="#C1C9D1" fill-rule="nonzero"></path>
                <circle id="Oval" fill="#DDE1E6" fill-rule="nonzero" cx="2.89655172" cy="2.89655172" r="1"></circle>
                <circle id="Oval" fill="#DDE1E6" fill-rule="nonzero" cx="5.89655172" cy="2.89655172" r="1"></circle>
                <circle id="Oval" fill="#DDE1E6" fill-rule="nonzero" cx="8.89655172" cy="2.89655172" r="1"></circle>
                <g id="roadmap" transform="translate(8.000000, 10.000000)">
                    <polygon id="Path" fill="#C1C9D1" points="2.4 14.4979592 7.2 14.4979592 7.2 16.9142857 2.4 16.9142857"></polygon>
                    <polygon id="Path" fill="#C1C9D1" points="2.4 14.4979592 6 14.4979592 6 15.7061224 2.4 15.7061224"></polygon>
                    <polygon id="Path" fill="#C1C9D1" points="0 16.9142857 9.6 16.9142857 9.6 19.3306122 0 19.3306122"></polygon>
                    <polygon id="Path" fill="#C1C9D1" points="0 16.9142857 7.2 16.9142857 7.2 19.3306122 0 19.3306122"></polygon>
                    <path d="M36,25.9755102 C36,22.8530453 33.3858398,20.3455756 30.2405273,20.550279 C27.3703125,20.7375797 25.2,23.2662867 25.2,26.1616311 L25.2,26.316191 C25.2,27.6674107 25.6092773,28.9873645 26.3736328,30.0984853 L30.6,36.244898 L34.8263671,30.0984853 C35.5907227,28.9873645 36,27.6674107 36,26.316191 L36,25.9755102 Z" id="Path" fill="#AFB8BF"></path>
                    <path d="M33.6,25.9755102 C33.6,27.6435188 32.2567383,28.9959184 30.6,28.9959184 C28.9432617,28.9959184 27.6,27.6435188 27.6,25.9755102 C27.6,24.3075016 28.9432617,22.955102 30.6,22.955102 C32.2567383,22.955102 33.6,24.3075016 33.6,25.9755102 Z" id="Path" fill="#ECF0F1"></path>
                    <path d="M5.4,33.2244898 C5.4,34.5588967 4.32539063,35.6408163 3,35.6408163 C1.67460938,35.6408163 0.6,34.5588967 0.6,33.2244898 C0.6,31.8900829 1.67460938,30.8081633 3,30.8081633 C4.32539063,30.8081633 5.4,31.8900829 5.4,33.2244898 Z" id="Path" fill="#ECF0F1"></path>
                    <path d="M21,33.2244898 C21,34.5588967 19.9253906,35.6408163 18.6,35.6408163 C17.2746094,35.6408163 16.2,34.5588967 16.2,33.2244898 C16.2,31.8900829 17.2746094,30.8081633 18.6,30.8081633 C19.9253906,30.8081633 21,31.8900829 21,33.2244898 Z" id="Path" fill="#ECF0F1"></path>
                    <path d="M27,9.06122449 C27,10.0620296 26.194043,10.8734694 25.2,10.8734694 C24.205957,10.8734694 23.4,10.0620296 23.4,9.06122449 C23.4,8.06041934 24.205957,7.24897959 25.2,7.24897959 C26.194043,7.24897959 27,8.06041934 27,9.06122449 Z" id="Path" fill="#ECF0F1"></path>
                    <path d="M16.2,11.477551 C16.2,12.4783562 15.3940429,13.2897959 14.4,13.2897959 C13.405957,13.2897959 12.6,12.4783562 12.6,11.477551 C12.6,10.4767459 13.405957,9.66530612 14.4,9.66530612 C15.3940429,9.66530612 16.2,10.4767459 16.2,11.477551 Z" id="Path" fill="#ECF0F1"></path>
                    <path d="M21.6,3.02040816 C21.6,4.35481505 20.5253906,5.43673469 19.2,5.43673469 C17.8746094,5.43673469 16.8,4.35481505 16.8,3.02040816 C16.8,1.68600128 17.8746094,0.604081633 19.2,0.604081633 C20.5253906,0.604081633 21.6,1.68600128 21.6,3.02040816 Z" id="Path" fill="#ECF0F1"></path>
                    <path d="M35.4,9.06122449 C35.4,10.3956314 34.3253906,11.477551 33,11.477551 C31.6746094,11.477551 30.6,10.3956314 30.6,9.06122449 C30.6,7.7268176 31.6746094,6.64489796 33,6.64489796 C34.3253906,6.64489796 35.4,7.7268176 35.4,9.06122449 Z" id="Path" fill="#ECF0F1"></path>
                    <polygon id="Path" fill="#AFB8BF" points="15 7.24897959 4.2 7.24897959 4.2 0 15 0 12 3.6244898"></polygon>
                    <polygon id="Path" fill="#C1C9D1" points="4.2 7.24897959 5.4 7.24897959 5.4 14.4979592 4.2 14.4979592"></polygon>
                    <polygon id="Path" fill="#C1C9D1" points="4.2 7.24897959 4.8 7.24897959 4.8 14.4979592 4.2 14.4979592"></polygon>
                    <g id="Group" transform="translate(2.400000, 5.436735)" fill="#C1C9D1">
                        <path d="M30.6,9.06122449 L16.8,9.06122449 C16.4689453,9.06122449 16.2,8.79044958 16.2,8.45714286 L16.2,0 L17.4,0 L17.4,7.85306122 L30,7.85306122 L30,6.04081633 L31.2,6.04081633 L31.2,8.45714286 C31.2,8.79044958 30.9310547,9.06122449 30.6,9.06122449 Z" id="Path"></path>
                        <path d="M22.8,13.2897959 L12,13.2897959 C11.6689453,13.2897959 11.4,13.019021 11.4,12.6857143 L11.4,7.85306122 L12.6,7.85306122 L12.6,12.0816327 L22.2,12.0816327 L22.2,5.43673469 L23.4,5.43673469 L23.4,12.6857143 C23.4,13.019021 23.1310547,13.2897959 22.8,13.2897959 Z" id="Path"></path>
                        <path d="M7.2,30.8081633 L6,30.8081633 L6,22.3510204 C6,22.0177137 6.26894535,21.7469388 6.6,21.7469388 L15,21.7469388 L15,12.6857143 L16.2,12.6857143 L16.2,22.3510204 C16.2,22.6843271 15.9310547,22.955102 15.6,22.955102 L7.2,22.955102 L7.2,30.8081633 Z" id="Path"></path>
                        <path d="M26.4,30.8081633 L23.4,30.8081633 C22.4077148,30.8081633 21.6,29.9949538 21.6,28.9959184 C21.6,28.6632015 21.3304688,28.3918367 21,28.3918367 L18.6,28.3918367 L18.6,27.1836735 L21,27.1836735 C21.9922852,27.1836735 22.8,27.996883 22.8,28.9959184 C22.8,29.3286352 23.0695313,29.6 23.4,29.6 L26.4,29.6 L26.4,30.8081633 Z" id="Path"></path>
                        <polygon id="Path" points="3 27.1836735 13.8 27.1836735 13.8 28.3918367 3 28.3918367"></polygon>
                        <path d="M1.2,25.3714286 L0,25.3714286 L0,19.3306122 C0,18.3315768 0.807714825,17.5183673 1.8,17.5183673 C2.13046875,17.5183673 2.4,17.2470026 2.4,16.9142857 L2.4,15.1020408 L3.6,15.1020408 L3.6,16.9142857 C3.6,17.9133211 2.79228517,18.7265306 1.8,18.7265306 C1.46953125,18.7265306 1.2,18.9978954 1.2,19.3306122 L1.2,25.3714286 Z" id="Path"></path>
                    </g>
                    <path d="M3,36.244898 C1.3458984,36.244898 0,34.8898438 0,33.2244898 C0,31.5591358 1.3458984,30.2040816 3,30.2040816 C4.6541016,30.2040816 6,31.5591358 6,33.2244898 C6,34.8898438 4.6541016,36.244898 3,36.244898 Z M3,31.4122449 C2.00771482,31.4122449 1.2,32.2254544 1.2,33.2244898 C1.2,34.2235252 2.00771482,35.0367347 3,35.0367347 C3.99228518,35.0367347 4.8,34.2235252 4.8,33.2244898 C4.8,32.2254544 3.99228518,31.4122449 3,31.4122449 Z" id="Shape" fill="#C1C9D1" fill-rule="nonzero"></path>
                    <path d="M18.6,36.244898 C16.9458984,36.244898 15.6,34.8898438 15.6,33.2244898 C15.6,31.5591358 16.9458984,30.2040816 18.6,30.2040816 C20.2541016,30.2040816 21.6,31.5591358 21.6,33.2244898 C21.6,34.8898438 20.2541016,36.244898 18.6,36.244898 Z M18.6,31.4122449 C17.6077148,31.4122449 16.8,32.2254544 16.8,33.2244898 C16.8,34.2235252 17.6077148,35.0367347 18.6,35.0367347 C19.5922852,35.0367347 20.4,34.2235252 20.4,33.2244898 C20.4,32.2254544 19.5922852,31.4122449 18.6,31.4122449 Z" id="Shape" fill="#C1C9D1" fill-rule="nonzero"></path>
                    <path d="M19.2,6.04081633 C17.5458984,6.04081633 16.2,4.68576216 16.2,3.02040816 C16.2,1.35505417 17.5458984,0 19.2,0 C20.8541016,0 22.2,1.35505417 22.2,3.02040816 C22.2,4.68576216 20.8541016,6.04081633 19.2,6.04081633 Z M19.2,1.20816327 C18.2077148,1.20816327 17.4,2.02137275 17.4,3.02040816 C17.4,4.01944358 18.2077148,4.83265306 19.2,4.83265306 C20.1922852,4.83265306 21,4.01944358 21,3.02040816 C21,2.02137275 20.1922852,1.20816327 19.2,1.20816327 Z" id="Shape" fill="#C1C9D1" fill-rule="nonzero"></path>
                    <path d="M33,12.0816327 C31.3458984,12.0816327 30,10.7265785 30,9.06122449 C30,7.3958705 31.3458984,6.04081633 33,6.04081633 C34.6541016,6.04081633 36,7.3958705 36,9.06122449 C36,10.7265785 34.6541016,12.0816327 33,12.0816327 Z M33,7.24897959 C32.0077148,7.24897959 31.2,8.06218908 31.2,9.06122449 C31.2,10.0602599 32.0077148,10.8734694 33,10.8734694 C33.9922852,10.8734694 34.8,10.0602599 34.8,9.06122449 C34.8,8.06218908 33.9922852,7.24897959 33,7.24897959 Z" id="Shape" fill="#C1C9D1" fill-rule="nonzero"></path>
                    <path d="M25.2,11.477551 C23.8763672,11.477551 22.8,10.3938616 22.8,9.06122449 C22.8,7.72858733 23.8763672,6.64489796 25.2,6.64489796 C26.5236329,6.64489796 27.6,7.72858733 27.6,9.06122449 C27.6,10.3938616 26.5236329,11.477551 25.2,11.477551 Z M25.2,7.85306122 C24.5381836,7.85306122 24,8.39490591 24,9.06122449 C24,9.72754307 24.5381836,10.2693878 25.2,10.2693878 C25.8618164,10.2693878 26.4,9.72754307 26.4,9.06122449 C26.4,8.39490591 25.8618164,7.85306122 25.2,7.85306122 Z" id="Shape" fill="#C1C9D1" fill-rule="nonzero"></path>
                    <path d="M14.4,13.8938776 C13.0763671,13.8938776 12,12.8101882 12,11.477551 C12,10.1449139 13.0763671,9.06122449 14.4,9.06122449 C15.7236329,9.06122449 16.8,10.1449139 16.8,11.477551 C16.8,12.8101882 15.7236329,13.8938776 14.4,13.8938776 Z M14.4,10.2693878 C13.7381836,10.2693878 13.2,10.8112324 13.2,11.477551 C13.2,12.1438696 13.7381836,12.6857143 14.4,12.6857143 C15.0618164,12.6857143 15.6,12.1438696 15.6,11.477551 C15.6,10.8112324 15.0618164,10.2693878 14.4,10.2693878 Z" id="Shape" fill="#C1C9D1" fill-rule="nonzero"></path>
                </g>
            </g>
        </g>
    </g>
</svg>