<?xml version="1.0" encoding="UTF-8"?>
<svg width="96px" height="68px" viewBox="0 0 96 68" version="1.1" xmlns="http://www.w3.org/2000/svg" xmlns:xlink="http://www.w3.org/1999/xlink">
    <!-- Generator: sketchtool 52.4 (67378) - http://www.bohemiancoding.com/sketch -->
    <title>78D9900B-DEE6-4682-AE47-27A265C39108</title>
    <desc>Created with sketchtool.</desc>
    <g id="design" stroke="none" stroke-width="1" fill="none" fill-rule="evenodd">
        <g id="home-2-hover" transform="translate(-1496.000000, -659.000000)" fill-rule="nonzero">
            <g id="administration-color" transform="translate(1496.000000, 659.000000)">
                <g>
                    <rect id="Rectangle-path" fill="#E1F0FF" x="9.00148148" y="6.04245614" width="78.002963" height="48.3157895"></rect>
                    <path d="M86.0859259,-4.19905824e-13 L9.90814815,-4.19905824e-13 C6.09899696,-1.26908934e-05 3.00831908,3.10299428 2.99851852,6.93719298 L2.99851852,61.9038596 C2.99851852,62.3041039 3.15647574,62.6879552 3.43764139,62.9709706 C3.71880704,63.253986 4.1001495,63.4129825 4.49777778,63.4129825 L91.5022222,63.4129825 C92.3302402,63.4129825 93.0014815,62.7373252 93.0014815,61.9038596 L93.0014815,6.93719298 C92.9916764,3.10066487 89.8973899,-0.00330303869 86.0859259,-4.19905824e-13 Z M9.00148148,52.8431579 L9.00148148,7.55157895 C9.00148148,6.71811344 9.67272272,6.04245614 10.5007407,6.04245614 L85.4992593,6.04245614 C86.3272773,6.04245614 86.9985185,6.71811344 86.9985185,7.55157895 L86.9985185,52.8431579 C86.9985185,53.6766234 86.3272773,54.3522807 85.4992593,54.3522807 L10.5007407,54.3522807 C9.67272272,54.3522807 9.00148148,53.6766234 9.00148148,52.8431579 Z" id="Shape" fill="#656D88"></path>
                    <path d="M94.5007407,60.3947368 L1.49925926,60.3947368 C0.671241234,60.3947368 -7.0040244e-15,61.0703941 -7.10542736e-15,61.9038596 C0.00652096395,65.2382934 2.6903229,67.9397519 6.00296296,67.9463158 L89.997037,67.9463158 C93.3096771,67.9397519 95.993479,65.2382934 96,61.9038596 C96,61.0703941 95.3287588,60.3947368 94.5007407,60.3947368 Z" id="Shape" fill="#C2D5E7"></path>
                    <path d="M26.9985185,13.5880702 L16.4977778,13.5880702 C15.6697598,13.5880702 14.9985185,12.9124129 14.9985185,12.0789474 C14.9985185,11.2454819 15.6697598,10.5698246 16.4977778,10.5698246 L26.9985185,10.5698246 C27.8265365,10.5698246 28.4977778,11.2454819 28.4977778,12.0789474 C28.4977778,12.9124129 27.8265365,13.5880702 26.9985185,13.5880702 Z" id="Shape" fill="#0461B1"></path>
                    <path d="M54.002963,13.5880702 L52.4977778,13.5880702 C51.6697598,13.5880702 50.9985185,12.9124129 50.9985185,12.0789474 C50.9985185,11.2454819 51.6697598,10.5698246 52.4977778,10.5698246 L53.997037,10.5698246 C54.8250551,10.5698246 55.4962963,11.2454819 55.4962963,12.0789474 C55.4962963,12.9124129 54.8250551,13.5880702 53.997037,13.5880702 L54.002963,13.5880702 Z" id="Shape" fill="#C1D0DC"></path>
                    <path d="M61.4992593,13.5880702 L60,13.5880702 C59.171982,13.5880702 58.5007407,12.9124129 58.5007407,12.0789474 C58.5007407,11.2454819 59.171982,10.5698246 60,10.5698246 L61.4992593,10.5698246 C62.3272773,10.5698246 62.9985185,11.2454819 62.9985185,12.0789474 C62.9985185,12.9124129 62.3272773,13.5880702 61.4992593,13.5880702 Z" id="Shape" fill="#C1D0DC"></path>
                    <path d="M69.0014815,13.5880702 L67.5022222,13.5880702 C66.6742042,13.5880702 66.002963,12.9124129 66.002963,12.0789474 C66.002963,11.2454819 66.6742042,10.5698246 67.5022222,10.5698246 L69.0014815,10.5698246 C69.8294995,10.5698246 70.5007407,11.2454819 70.5007407,12.0789474 C70.5007407,12.9124129 69.8294995,13.5880702 69.0014815,13.5880702 Z" id="Shape" fill="#C1D0DC"></path>
                    <path d="M76.4977778,13.5880702 L74.9985185,13.5880702 C74.1705005,13.5880702 73.4992593,12.9124129 73.4992593,12.0789474 C73.4992593,11.2454819 74.1705005,10.5698246 74.9985185,10.5698246 L76.4977778,10.5698246 C77.3257958,10.5698246 77.997037,11.2454819 77.997037,12.0789474 C77.997037,12.9124129 77.3257958,13.5880702 76.4977778,13.5880702 Z" id="Shape" fill="#C1D0DC"></path>
                    <path d="M42.002963,49.8249123 L16.5214815,49.8249123 C16.1197622,49.8313062 15.7323018,49.6751369 15.4459885,49.3914255 C15.1596752,49.1077141 14.9984683,48.7202022 14.9985185,48.3157895 L14.9985185,24.1578947 C15.0082552,23.3314259 15.676653,22.6666086 16.4977778,22.6666667 L41.9792593,22.6666667 C42.3768875,22.6666667 42.75823,22.8256631 43.0393956,23.1086785 C43.3205613,23.3916939 43.4785185,23.7755452 43.4785185,24.1757895 L43.4785185,48.3157895 C43.4786209,49.1400254 42.8217094,49.8118809 42.002963,49.8249123 Z" id="Shape" fill="#0461B1"></path>
                    <path d="M78.002963,25.6491228 L49.4992593,25.6491228 C48.6712412,25.6491228 48,24.9734655 48,24.14 C48,23.3065345 48.6712412,22.6308772 49.4992593,22.6308772 L77.997037,22.6308772 C78.8250551,22.6308772 79.4962963,23.3065345 79.4962963,24.14 C79.4962963,24.9734655 78.8250551,25.6491228 77.997037,25.6491228 L78.002963,25.6491228 Z" id="Shape" fill="#656D88"></path>
                    <path d="M61.4992593,37.7459649 L49.4992593,37.7459649 C48.6712412,37.7459649 48,37.0703076 48,36.2368421 C48,35.4033766 48.6712412,34.7277193 49.4992593,34.7277193 L61.4992593,34.7277193 C62.3272773,34.7277193 62.9985185,35.4033766 62.9985185,36.2368421 C62.9985185,37.0703076 62.3272773,37.7459649 61.4992593,37.7459649 Z" id="Shape" fill="#C1D0DC"></path>
                    <path d="M61.4992593,43.7884211 L49.4992593,43.7884211 C48.6712412,43.7884211 48,43.1127638 48,42.2792982 C48,41.4458327 48.6712412,40.7701754 49.4992593,40.7701754 L61.4992593,40.7701754 C62.3272773,40.7701754 62.9985185,41.4458327 62.9985185,42.2792982 C62.9985185,43.1127638 62.3272773,43.7884211 61.4992593,43.7884211 Z" id="Shape" fill="#C1D0DC"></path>
                    <path d="M61.4992593,49.8249123 L49.4992593,49.8249123 C48.6712412,49.8249123 48,49.149255 48,48.3157895 C48,47.482324 48.6712412,46.8066667 49.4992593,46.8066667 L61.4992593,46.8066667 C62.3272773,46.8066667 62.9985185,47.482324 62.9985185,48.3157895 C62.9985185,49.149255 62.3272773,49.8249123 61.4992593,49.8249123 Z" id="Shape" fill="#C1D0DC"></path>
                    <path d="M79.5022222,37.7459649 L67.5022222,37.7459649 C66.6742042,37.7459649 66.002963,37.0703076 66.002963,36.2368421 C66.002963,35.4033766 66.6742042,34.7277193 67.5022222,34.7277193 L79.5022222,34.7277193 C80.3302402,34.7277193 81.0014815,35.4033766 81.0014815,36.2368421 C81.0014815,37.0703076 80.3302402,37.7459649 79.5022222,37.7459649 Z" id="Shape" fill="#C1D0DC"></path>
                    <path d="M79.5022222,43.7884211 L67.5022222,43.7884211 C66.6742042,43.7884211 66.002963,43.1127638 66.002963,42.2792982 C66.002963,41.4458327 66.6742042,40.7701754 67.5022222,40.7701754 L79.5022222,40.7701754 C80.3302402,40.7701754 81.0014815,41.4458327 81.0014815,42.2792982 C81.0014815,43.1127638 80.3302402,43.7884211 79.5022222,43.7884211 Z" id="Shape" fill="#C1D0DC"></path>
                    <path d="M79.5022222,49.8249123 L67.5022222,49.8249123 C66.6742042,49.8249123 66.002963,49.149255 66.002963,48.3157895 C66.002963,47.482324 66.6742042,46.8066667 67.5022222,46.8066667 L79.5022222,46.8066667 C80.3302402,46.8066667 81.0014815,47.482324 81.0014815,48.3157895 C81.0014815,49.149255 80.3302402,49.8249123 79.5022222,49.8249123 Z" id="Shape" fill="#C1D0DC"></path>
                    <path d="M69.0014815,31.7094737 L49.4992593,31.7094737 C48.6712412,31.7094737 48,31.0338164 48,30.2003509 C48,29.3668854 48.6712412,28.6912281 49.4992593,28.6912281 L69.0014815,28.6912281 C69.8294995,28.6912281 70.5007407,29.3668854 70.5007407,30.2003509 C70.5007407,31.0338164 69.8294995,31.7094737 69.0014815,31.7094737 Z" id="Shape" fill="#656D88"></path>
                    <path d="M42.002963,63.4129825 L54.002963,63.4129825 C54.7982195,63.4129825 55.5609044,63.0949896 56.1232357,62.5289588 C56.685567,61.9629279 57.0014815,61.1952253 57.0014815,60.3947368 L38.9985185,60.3947368 C38.998517,61.1962599 39.3152447,61.9648678 39.8788584,62.5310705 C40.442472,63.0972731 41.2066802,63.4145665 42.002963,63.4129825 Z" id="Shape" fill="#ADC5DC"></path>
                    <path d="M29.0903704,34.9424561 C30.9138816,34.9429335 32.4837834,33.6467347 32.8399639,31.8465817 C33.1961444,30.0464288 32.2393994,28.2437049 30.5548495,27.5409099 C28.8702997,26.8381149 26.9271302,27.430993 25.9137339,28.9569552 C24.9003376,30.4829174 25.0989681,32.5169488 26.3881481,33.8150877 C27.0954485,34.5505562 28.0735706,34.9586292 29.0903704,34.9424561 Z" id="Shape" fill="#EBEEF2"></path>
                    <path d="M36.0651852,40.7940351 C36.0372206,40.4278755 35.9897448,40.0634914 35.922963,39.7024561 C35.8578622,39.3350813 35.7687803,38.9724242 35.6562963,38.6168421 C35.5481266,38.2767623 35.4051363,37.9489193 35.2296296,37.6385965 C35.0717497,37.3409938 34.8721766,37.0677888 34.637037,36.8273684 C34.3900148,36.5942232 34.1001484,36.4118648 33.7837037,36.2905263 C33.430601,36.1522269 33.054423,36.0833809 32.6755556,36.0877193 C32.5227164,36.1309379 32.379775,36.2038921 32.2548148,36.3024561 L31.5140741,36.785614 C31.1780061,36.99115 30.8176657,37.1534682 30.4414815,37.2687719 C29.5794603,37.5554631 28.6486878,37.5554631 27.7866667,37.2687719 C27.394106,37.1572658 27.0176163,36.9948515 26.6666667,36.785614 L25.9259259,36.3024561 C25.8009658,36.2038921 25.6580243,36.1309379 25.5051852,36.0877193 C25.1263178,36.0833809 24.7501398,36.1522269 24.397037,36.2905263 C24.0805242,36.4117268 23.7906325,36.594101 23.5437037,36.8273684 C23.3086267,37.0678424 23.1090605,37.3410379 22.9511111,37.6385965 C22.7736364,37.9487136 22.6286602,38.2765564 22.5185185,38.6168421 C22.4060346,38.9724242 22.3169526,39.3350813 22.2518519,39.7024561 C22.1849453,40.0634715 22.1374687,40.4278624 22.1096296,40.7940351 C22.0859259,41.1320468 22.0740741,41.4780117 22.0740741,41.8319298 C22.0389204,42.5396273 22.3038537,43.2290829 22.802963,43.7287719 C23.32965,44.2098013 24.0244461,44.4608011 24.7348148,44.4266667 L33.44,44.4266667 C34.1503687,44.4608011 34.8451648,44.2098013 35.3718519,43.7287719 C35.8716033,43.2295054 36.1366519,42.5397497 36.1007407,41.8319298 C36.1007407,41.4780117 36.0888889,41.1320468 36.0651852,40.7940351 Z" id="Shape" fill="#EBEEF2"></path>
                    <path d="M74.5659259,43.8719298 L72.2962963,41.617193 L73.8962963,40.6866667 C74.0192861,40.6129116 74.0905353,40.4757303 74.0805134,40.3319797 C74.0704916,40.1882291 73.9809068,40.0624087 73.8488889,40.0066667 L66.7377778,37.1435088 C66.5972999,37.0878217 66.4373877,37.1213088 66.3306294,37.2287695 C66.2238711,37.3362302 66.1906028,37.4971944 66.2459259,37.6385965 L69.0903704,44.7964912 C69.1457481,44.9293777 69.2707462,45.0195519 69.4135572,45.0296396 C69.5563683,45.0397274 69.6926529,44.9680095 69.7659259,44.8442105 L70.6903704,43.2336842 L72.9303704,45.4884211 C73.0781283,45.63549 73.3159458,45.63549 73.4637037,45.4884211 L74.56,44.3849123 C74.6928334,44.2409337 74.6953974,44.0189786 74.5659259,43.8719298 Z" id="Shape" fill="#EA5340"></path>
                </g>
            </g>
        </g>
    </g>
</svg>