<?xml version="1.0" encoding="UTF-8"?>
<svg width="66px" height="47px" viewBox="0 0 66 47" version="1.1" xmlns="http://www.w3.org/2000/svg" xmlns:xlink="http://www.w3.org/1999/xlink">
    <!-- Generator: sketchtool 52.4 (67378) - http://www.bohemiancoding.com/sketch -->
    <title>E75B1CB5-CF12-4B87-949B-55D151835CC3</title>
    <desc>Created with sketchtool.</desc>
    <g id="desktop" stroke="none" stroke-width="1" fill="none" fill-rule="evenodd">
        <g id="home-new-hover" transform="translate(-1021.000000, -588.000000)" fill-rule="nonzero">
            <g id="administration-color" transform="translate(1021.000000, 588.000000)">
                <g>
                    <rect id="Rectangle-path" fill="#E1F0FF" x="6.18851852" y="4.17640351" width="53.627037" height="33.3947368"></rect>
                    <path d="M59.1840741,-2.90229025e-13 L6.81185185,-2.90229025e-13 C4.19306041,-8.77164693e-06 2.06821937,2.14471664 2.06148148,4.79482456 L2.06148148,42.7864912 C2.06148148,43.0631306 2.17007707,43.3284396 2.36337845,43.5240532 C2.55667984,43.7196668 2.81885278,43.8295614 3.09222222,43.8295614 L62.9077778,43.8295614 C63.4770402,43.8295614 63.9385185,43.362563 63.9385185,42.7864912 L63.9385185,4.79482456 C63.9317775,2.1431066 61.8044555,-0.00228298262 59.1840741,-2.90229025e-13 Z M6.18851852,36.5239474 L6.18851852,5.21947368 C6.18851852,4.64340193 6.64999687,4.17640351 7.21925926,4.17640351 L58.7807407,4.17640351 C59.3500031,4.17640351 59.8114815,4.64340193 59.8114815,5.21947368 L59.8114815,36.5239474 C59.8114815,37.1000191 59.3500031,37.5670175 58.7807407,37.5670175 L7.21925926,37.5670175 C6.64999687,37.5670175 6.18851852,37.1000191 6.18851852,36.5239474 Z" id="Shape" fill="#656D88"></path>
                    <path d="M64.9692593,41.7434211 L1.03074074,41.7434211 C0.461478349,41.7434211 -7.03571282e-15,42.2104195 -7.10542736e-15,42.7864912 C0.00448316272,45.0911734 1.84959699,46.9583579 4.12703704,46.9628947 L61.872963,46.9628947 C64.150403,46.9583579 65.9955168,45.0911734 66,42.7864912 C66,42.2104195 65.5385217,41.7434211 64.9692593,41.7434211 Z" id="Shape" fill="#C2D5E7"></path>
                    <path d="M18.5614815,9.39175439 L11.3422222,9.39175439 C10.7729598,9.39175439 10.3114815,8.92475596 10.3114815,8.34868421 C10.3114815,7.77261246 10.7729598,7.30561404 11.3422222,7.30561404 L18.5614815,7.30561404 C19.1307439,7.30561404 19.5922222,7.77261246 19.5922222,8.34868421 C19.5922222,8.92475596 19.1307439,9.39175439 18.5614815,9.39175439 Z" id="Shape" fill="#0461B1"></path>
                    <path d="M37.127037,9.39175439 L36.0922222,9.39175439 C35.5229598,9.39175439 35.0614815,8.92475596 35.0614815,8.34868421 C35.0614815,7.77261246 35.5229598,7.30561404 36.0922222,7.30561404 L37.122963,7.30561404 C37.6922254,7.30561404 38.1537037,7.77261246 38.1537037,8.34868421 C38.1537037,8.92475596 37.6922254,9.39175439 37.122963,9.39175439 L37.127037,9.39175439 Z" id="Shape" fill="#C1D0DC"></path>
                    <path d="M42.2807407,9.39175439 L41.25,9.39175439 C40.6807376,9.39175439 40.2192593,8.92475596 40.2192593,8.34868421 C40.2192593,7.77261246 40.6807376,7.30561404 41.25,7.30561404 L42.2807407,7.30561404 C42.8500031,7.30561404 43.3114815,7.77261246 43.3114815,8.34868421 C43.3114815,8.92475596 42.8500031,9.39175439 42.2807407,9.39175439 Z" id="Shape" fill="#C1D0DC"></path>
                    <path d="M47.4385185,9.39175439 L46.4077778,9.39175439 C45.8385154,9.39175439 45.377037,8.92475596 45.377037,8.34868421 C45.377037,7.77261246 45.8385154,7.30561404 46.4077778,7.30561404 L47.4385185,7.30561404 C48.0077809,7.30561404 48.4692593,7.77261246 48.4692593,8.34868421 C48.4692593,8.92475596 48.0077809,9.39175439 47.4385185,9.39175439 Z" id="Shape" fill="#C1D0DC"></path>
                    <path d="M52.5922222,9.39175439 L51.5614815,9.39175439 C50.9922191,9.39175439 50.5307407,8.92475596 50.5307407,8.34868421 C50.5307407,7.77261246 50.9922191,7.30561404 51.5614815,7.30561404 L52.5922222,7.30561404 C53.1614846,7.30561404 53.622963,7.77261246 53.622963,8.34868421 C53.622963,8.92475596 53.1614846,9.39175439 52.5922222,9.39175439 Z" id="Shape" fill="#C1D0DC"></path>
                    <path d="M28.877037,34.437807 L11.3585185,34.437807 C11.0823365,34.4422263 10.8159575,34.3342858 10.6191171,34.1381911 C10.4222767,33.9420965 10.311447,33.6742574 10.3114815,33.3947368 L10.3114815,16.6973684 C10.3181754,16.1261326 10.7776989,15.6666265 11.3422222,15.6666667 L28.8607407,15.6666667 C29.1341102,15.6666667 29.3962831,15.7765612 29.5895845,15.9721748 C29.7828859,16.1677885 29.8914815,16.4330974 29.8914815,16.7097368 L29.8914815,33.3947368 C29.8915518,33.9644293 29.4399252,34.4288 28.877037,34.437807 Z" id="Shape" fill="#0461B1"></path>
                    <path d="M53.627037,17.7280702 L34.0307407,17.7280702 C33.4614783,17.7280702 33,17.2610718 33,16.685 C33,16.1089282 33.4614783,15.6419298 34.0307407,15.6419298 L53.622963,15.6419298 C54.1922254,15.6419298 54.6537037,16.1089282 54.6537037,16.685 C54.6537037,17.2610718 54.1922254,17.7280702 53.622963,17.7280702 L53.627037,17.7280702 Z" id="Shape" fill="#656D88"></path>
                    <path d="M42.2807407,26.0891228 L34.0307407,26.0891228 C33.4614783,26.0891228 33,25.6221244 33,25.0460526 C33,24.4699809 33.4614783,24.0029825 34.0307407,24.0029825 L42.2807407,24.0029825 C42.8500031,24.0029825 43.3114815,24.4699809 43.3114815,25.0460526 C43.3114815,25.6221244 42.8500031,26.0891228 42.2807407,26.0891228 Z" id="Shape" fill="#C1D0DC"></path>
                    <path d="M42.2807407,30.2655263 L34.0307407,30.2655263 C33.4614783,30.2655263 33,29.7985279 33,29.2224561 C33,28.6463844 33.4614783,28.179386 34.0307407,28.179386 L42.2807407,28.179386 C42.8500031,28.179386 43.3114815,28.6463844 43.3114815,29.2224561 C43.3114815,29.7985279 42.8500031,30.2655263 42.2807407,30.2655263 Z" id="Shape" fill="#C1D0DC"></path>
                    <path d="M42.2807407,34.437807 L34.0307407,34.437807 C33.4614783,34.437807 33,33.9708086 33,33.3947368 C33,32.8186651 33.4614783,32.3516667 34.0307407,32.3516667 L42.2807407,32.3516667 C42.8500031,32.3516667 43.3114815,32.8186651 43.3114815,33.3947368 C43.3114815,33.9708086 42.8500031,34.437807 42.2807407,34.437807 Z" id="Shape" fill="#C1D0DC"></path>
                    <path d="M54.6577778,26.0891228 L46.4077778,26.0891228 C45.8385154,26.0891228 45.377037,25.6221244 45.377037,25.0460526 C45.377037,24.4699809 45.8385154,24.0029825 46.4077778,24.0029825 L54.6577778,24.0029825 C55.2270402,24.0029825 55.6885185,24.4699809 55.6885185,25.0460526 C55.6885185,25.6221244 55.2270402,26.0891228 54.6577778,26.0891228 Z" id="Shape" fill="#C1D0DC"></path>
                    <path d="M54.6577778,30.2655263 L46.4077778,30.2655263 C45.8385154,30.2655263 45.377037,29.7985279 45.377037,29.2224561 C45.377037,28.6463844 45.8385154,28.179386 46.4077778,28.179386 L54.6577778,28.179386 C55.2270402,28.179386 55.6885185,28.6463844 55.6885185,29.2224561 C55.6885185,29.7985279 55.2270402,30.2655263 54.6577778,30.2655263 Z" id="Shape" fill="#C1D0DC"></path>
                    <path d="M54.6577778,34.437807 L46.4077778,34.437807 C45.8385154,34.437807 45.377037,33.9708086 45.377037,33.3947368 C45.377037,32.8186651 45.8385154,32.3516667 46.4077778,32.3516667 L54.6577778,32.3516667 C55.2270402,32.3516667 55.6885185,32.8186651 55.6885185,33.3947368 C55.6885185,33.9708086 55.2270402,34.437807 54.6577778,34.437807 Z" id="Shape" fill="#C1D0DC"></path>
                    <path d="M47.4385185,21.9168421 L34.0307407,21.9168421 C33.4614783,21.9168421 33,21.4498437 33,20.8737719 C33,20.2977002 33.4614783,19.8307018 34.0307407,19.8307018 L47.4385185,19.8307018 C48.0077809,19.8307018 48.4692593,20.2977002 48.4692593,20.8737719 C48.4692593,21.4498437 48.0077809,21.9168421 47.4385185,21.9168421 Z" id="Shape" fill="#656D88"></path>
                    <path d="M28.877037,43.8295614 L37.127037,43.8295614 C37.6737759,43.8295614 38.1981218,43.6097722 38.5847246,43.218545 C38.9713273,42.8273178 39.1885185,42.2966999 39.1885185,41.7434211 L26.8114815,41.7434211 C26.8114804,42.2974149 27.0292308,42.8286587 27.4167151,43.2200046 C27.8041995,43.6113505 28.3295926,43.8306563 28.877037,43.8295614 Z" id="Shape" fill="#ADC5DC"></path>
                    <path d="M19.9996296,24.1514035 C21.2532936,24.1517335 22.3326011,23.2558314 22.5774752,22.011608 C22.8223493,20.7673846 22.1645871,19.5213843 21.006459,19.0356289 C19.848331,18.5498735 18.512402,18.9596569 17.8156921,20.0143661 C17.1189821,21.0690753 17.2555406,22.4749499 18.1418519,23.372193 C18.6281209,23.8805315 19.3005798,24.1625819 19.9996296,24.1514035 Z" id="Shape" fill="#EBEEF2"></path>
                    <path d="M24.7948148,28.1958772 C24.7755891,27.9427963 24.7429496,27.6909426 24.697037,27.4414035 C24.6522802,27.1874827 24.5910364,26.9368226 24.5137037,26.6910526 C24.439337,26.4559974 24.3410312,26.2294001 24.2203704,26.0149123 C24.1118279,25.8092163 23.9746214,25.6203834 23.812963,25.4542105 C23.6431352,25.293066 23.443852,25.1670242 23.2262963,25.0831579 C22.9835382,24.9875686 22.7249158,24.9399839 22.4644444,24.9429825 C22.3593675,24.9728542 22.2610953,25.0232784 22.1751852,25.0914035 L21.6659259,25.4253509 C21.4348792,25.5674125 21.1871452,25.679603 20.9285185,25.7592982 C20.335879,25.9574524 19.6959729,25.9574524 19.1033333,25.7592982 C18.8334478,25.6822278 18.5746112,25.5699709 18.3333333,25.4253509 L17.8240741,25.0914035 C17.738164,25.0232784 17.6398917,24.9728542 17.5348148,24.9429825 C17.2743435,24.9399839 17.0157211,24.9875686 16.772963,25.0831579 C16.5553604,25.1669288 16.3560599,25.2929816 16.1862963,25.4542105 C16.0246808,25.6204205 15.8874791,25.8092468 15.7788889,26.0149123 C15.656875,26.2292579 15.5572039,26.4558551 15.4814815,26.6910526 C15.4041488,26.9368226 15.3429049,27.1874827 15.2981481,27.4414035 C15.2521499,27.6909288 15.2195097,27.9427873 15.2003704,28.1958772 C15.1840741,28.4295029 15.1759259,28.6686257 15.1759259,28.9132456 C15.1517578,29.4023894 15.3338994,29.878925 15.677037,30.2242982 C16.0391344,30.5567744 16.5168067,30.7302596 17.0051852,30.7066667 L22.99,30.7066667 C23.4783785,30.7302596 23.9560508,30.5567744 24.3181481,30.2242982 C24.6617273,29.879217 24.8439482,29.4024741 24.8192593,28.9132456 C24.8192593,28.6686257 24.8111111,28.4295029 24.7948148,28.1958772 Z" id="Shape" fill="#EBEEF2"></path>
                    <path d="M51.2640741,30.3232456 L49.7037037,28.7648246 L50.8037037,28.1216667 C50.8882592,28.0706889 50.937243,27.9758724 50.930353,27.8765154 C50.923463,27.7771584 50.8618735,27.6901943 50.7711111,27.6516667 L45.8822222,25.6727193 C45.7856437,25.6342297 45.6757041,25.6573752 45.6023077,25.7316495 C45.5289114,25.8059238 45.5060394,25.9171785 45.5440741,26.0149123 L47.4996296,30.9622807 C47.5377018,31.0541287 47.623638,31.116455 47.7218206,31.1234274 C47.8200032,31.1303998 47.9136989,31.0808301 47.9640741,30.9952632 L48.5996296,29.8821053 L50.1396296,31.4405263 C50.2412132,31.5421769 50.4047127,31.5421769 50.5062963,31.4405263 L51.26,30.677807 C51.351323,30.5782924 51.3530857,30.4248823 51.2640741,30.3232456 Z" id="Shape" fill="#EA5340"></path>
                </g>
            </g>
        </g>
    </g>
</svg>