<?xml version="1.0" encoding="UTF-8"?>
<svg width="80px" height="72px" viewBox="0 0 80 72" version="1.1" xmlns="http://www.w3.org/2000/svg" xmlns:xlink="http://www.w3.org/1999/xlink">
    <!-- Generator: sketchtool 52.4 (67378) - http://www.bohemiancoding.com/sketch -->
    <title>6F09E98C-14FC-476E-B8A2-14C0F0C74C7A</title>
    <desc>Created with sketchtool.</desc>
    <g id="design" stroke="none" stroke-width="1" fill="none" fill-rule="evenodd">
        <g id="home-2" transform="translate(-620.000000, -491.000000)" fill-rule="nonzero">
            <g id="about" transform="translate(620.000000, 491.000000)">
                <g id="Shape">
                    <path d="M79.9197923,19.1269114 C79.7632507,18.5312836 79.3767511,18.0238576 78.8467557,17.7181473 L48.9893918,0.317481753 C48.4597761,0.00487306378 47.8284019,-0.0811754615 47.235637,0.0784665888 C46.6428721,0.238108639 46.1378456,0.630209926 45.8328357,1.16759802 L20.0655217,46.2577648 C19.4335537,47.3673848 19.810192,48.7840415 20.9075908,49.4250551 L50.7408955,66.8257207 C51.8400118,67.463728 53.2432586,67.0834904 53.8782043,65.9756044 L79.6888248,20.8951532 C79.9974598,20.3608165 80.0806728,19.7237539 79.9197923,19.1269114 Z" fill="#DDE1E6"></path>
                    <path d="M45.0679861,7.2972973 L42.1918025,7.2972973 L20.0643635,46.2872005 C19.4347837,47.4022713 19.8099987,48.8258872 20.9032504,49.4700498 L50.1204819,66.6486486 L50.1204819,12.4376965 C50.1151989,9.59905839 47.8554387,7.29998286 45.0679861,7.2972973 Z" fill="#D1D6DE"></path>
                    <path d="M66.2419709,21.4054054 C66.0259583,21.4052828 65.8138196,21.3481898 65.6270677,21.2399163 L52.1382404,13.4521943 C51.5807864,13.1000841 51.4012883,12.3719494 51.7314801,11.8021702 C52.061672,11.2323911 52.783868,11.024046 53.3680467,11.3300401 L66.856874,19.1177621 C67.3376971,19.3958415 67.5717472,19.9610083 67.4278242,20.4964498 C67.2839011,21.0318913 66.7977831,21.4045003 66.2419709,21.4054054 Z" fill="#C1C9D1"></path>
                    <path d="M64.8230282,34.0394827 C64.6100445,34.0393603 64.4008803,33.982387 64.2167469,33.8743403 L42.4916663,21.2312365 C41.9420286,20.8798641 41.7650473,20.153255 42.0906094,19.5846697 C42.4161714,19.0160843 43.1282413,18.8081758 43.7042289,19.1135288 L65.4196861,31.771204 C65.8937673,32.0487007 66.1245358,32.6126833 65.9826307,33.1470029 C65.8407257,33.6813225 65.3614237,34.0531509 64.8134047,34.0540541 L64.8230282,34.0394827 Z" fill="#C1C9D1"></path>
                    <path d="M61.9308796,38.9189189 C61.7186429,38.918797 61.5102123,38.8620096 61.3267247,38.7543155 L39.6826356,26.1379451 C39.290117,25.9298051 39.0420197,25.5213348 39.0362475,25.0737242 C39.0304752,24.6261135 39.2679552,24.2112596 39.6549734,23.9928714 C40.0419916,23.7744833 40.5163835,23.7876393 40.8909454,24.0271479 L62.5302396,36.6435183 C63.0026582,36.9201095 63.2326172,37.4822517 63.0912099,38.0148277 C62.9498025,38.5474037 62.4721817,38.9180187 61.9260847,38.9189189 L61.9308796,38.9189189 Z" fill="#C1C9D1"></path>
                    <path d="M59.0302722,43.7837838 C58.8172884,43.7836614 58.6081243,43.7266881 58.4239909,43.6186414 L36.7085338,30.9609662 C36.1588961,30.6095938 35.9819148,29.8829847 36.3074768,29.3143994 C36.6330389,28.7458141 37.3451088,28.5379056 37.9210964,28.8432585 L59.6365535,41.5009337 C60.1106348,41.7784305 60.3414033,42.342413 60.1994982,42.8767326 C60.0575931,43.4110522 59.5782912,43.7828806 59.0302722,43.7837838 Z" fill="#C1C9D1"></path>
                    <path d="M56.1295696,49.1157316 C55.9166708,49.1156094 55.7075902,49.0587094 55.5235303,48.9508017 L33.8167424,36.3094121 C33.2673241,35.9584917 33.0904134,35.2328175 33.4158455,34.6649637 C33.7412776,34.0971099 34.4530632,33.8894689 35.0288209,34.194429 L56.7452285,46.8552222 C57.2191206,47.1323619 57.4497969,47.6956189 57.3079485,48.229251 C57.1661001,48.7628832 56.6869895,49.1342331 56.1391893,49.1351351 L56.1295696,49.1157316 Z" fill="#C1C9D1"></path>
                    <path d="M42.6590108,4.86486486 L6.96994833,4.86486486 C4.18583607,4.87559419 1.93296883,7.17089996 1.92771084,10.0020858 L1.92771084,66.8627791 C1.9329909,69.6977608 4.19168334,71.9946307 6.97954345,72 L42.6590108,72 C45.4468709,71.9946307 47.7055633,69.6977608 47.7108434,66.8627791 L47.7108434,10.0020858 C47.7055633,7.16710404 45.4468709,4.87023416 42.6590108,4.86486486 Z" fill="#DDE1E6"></path>
                    <path d="M43.0092177,4.86486486 L38.5542169,4.86486486 C41.4166895,4.86754876 43.7372677,7.16520282 43.7426929,10.0020858 L43.7426929,66.8627791 C43.7372752,69.6977608 41.4196899,71.9946307 38.5591395,72 L43.0092177,72 C45.8697681,71.9946307 48.1873534,69.6977608 48.1927711,66.8627791 L48.1927711,10.0020858 C48.1873534,7.16710404 45.8697681,4.87023416 43.0092177,4.86486486 Z" fill="#C1C9D1"></path>
                    <path d="M-5.01820807e-14,16.2379682 L-5.01820807e-14,20.2487611 C-5.01820807e-14,20.6193787 0.139759036,20.9189189 0.313253012,20.9189189 L5.46987952,20.9189189 C5.64337349,20.9189189 5.78313253,20.6193787 5.78313253,20.2487611 L5.78313253,16.2379682 C5.78313253,15.8673506 5.64337349,15.5678104 5.46987952,15.5678104 L0.313253012,15.5678104 C0.139759036,15.5576565 -5.01820807e-14,15.8673506 -5.01820807e-14,16.2379682 Z" fill="#C1C9D1"></path>
                    <path d="M-5.01820807e-14,36.1837017 L-5.01820807e-14,40.1946767 C-5.01820807e-14,40.565311 0.139759036,40.8648649 0.313253012,40.8648649 L5.46987952,40.8648649 C5.64337349,40.8648649 5.78313253,40.565311 5.78313253,40.1946767 L5.78313253,36.1837017 C5.78313253,35.8130673 5.64337349,35.5135135 5.46987952,35.5135135 L0.313253012,35.5135135 C0.139759036,35.5185907 -5.01820807e-14,35.8181445 -5.01820807e-14,36.1837017 Z" fill="#C1C9D1"></path>
                    <path d="M-5.01820807e-14,56.1296477 L-5.01820807e-14,60.1406226 C-5.01820807e-14,60.511257 0.139759036,60.8108108 0.313253012,60.8108108 L5.46987952,60.8108108 C5.64337349,60.8108108 5.78313253,60.511257 5.78313253,60.1406226 L5.78313253,56.1296477 C5.78313253,55.7590133 5.64337349,55.4594595 5.46987952,55.4594595 L0.313253012,55.4594595 C0.139759036,55.4594595 -5.01820807e-14,55.7590133 -5.01820807e-14,56.1296477 Z" fill="#C1C9D1"></path>
                    <path d="M33.8209391,25.2972973 L15.8176151,25.2972973 C15.3327886,25.2972973 14.939759,24.8964639 14.939759,24.4020109 L14.939759,17.9223135 C14.939759,17.4278604 15.3327886,17.027027 15.8176151,17.027027 L33.8209391,17.027027 C34.053761,17.027027 34.2770472,17.1213516 34.4416771,17.2892504 C34.606307,17.4571491 34.6987952,17.6848687 34.6987952,17.9223135 L34.6987952,24.4020109 C34.6987952,24.6394556 34.606307,24.8671752 34.4416771,25.035074 C34.2770472,25.2029727 34.053761,25.2972973 33.8209391,25.2972973 Z" fill="#C1C9D1"></path>
                </g>
            </g>
        </g>
    </g>
</svg>