<?xml version="1.0" encoding="UTF-8"?>
<svg width="56px" height="57px" viewBox="0 0 56 57" version="1.1" xmlns="http://www.w3.org/2000/svg" xmlns:xlink="http://www.w3.org/1999/xlink">
    <!-- Generator: sketchtool 52.4 (67378) - http://www.bohemiancoding.com/sketch -->
    <title>2C16A787-7B3C-46BC-92EC-09B11602F275</title>
    <desc>Created with sketchtool.</desc>
    <g id="desktop" stroke="none" stroke-width="1" fill="none" fill-rule="evenodd">
        <g id="home-new-hover" transform="translate(-1351.000000, -470.000000)">
            <g id="features-color" transform="translate(1351.000000, 470.000000)">
                <g>
                    <path d="M40.3073684,32.4109489 L38.0631579,32.4109489 C37.6270089,30.5560399 36.8844237,28.7848537 35.8652632,27.1686131 L37.4736842,25.600073 C38.0304175,25.0480365 38.0304175,24.1550292 37.4736842,23.6029927 L33.7978947,19.9708029 C33.2392317,19.4206733 32.3355051,19.4206733 31.7768421,19.9708029 L30.1894737,21.560146 C28.553797,20.5531417 26.7613618,19.8193694 24.8842105,19.3883212 L24.8842105,17.1707299 C24.8853332,16.7952161 24.7348671,16.4347625 24.4661502,16.1692329 C24.1974333,15.9037034 23.832653,15.755022 23.4526316,15.7561314 L18.2863158,15.7561314 C17.9041134,15.7516731 17.5360695,15.8988746 17.2646082,16.1647698 C16.9931469,16.4306651 16.8409511,16.7930364 16.8421053,17.1707299 L16.8421053,19.3883212 C14.9634701,19.8188636 13.1695676,20.5526542 11.5326316,21.560146 L9.96210526,19.9708029 C9.40344227,19.4206733 8.49971563,19.4206733 7.94105263,19.9708029 L4.28631579,23.5821898 C3.72958255,24.1342263 3.72958255,25.0272336 4.28631579,25.5792701 L5.87368421,27.1478102 C4.8521887,28.7703411 4.10952042,30.5487548 3.67578947,32.4109489 L1.43157895,32.4109489 C1.05155755,32.4098396 0.686777184,32.5585209 0.418060303,32.8240505 C0.149343421,33.08958 -0.00112267028,33.4500336 9.3035795e-15,33.8255474 L9.3035795e-15,38.9305839 C-0.00451181948,39.3082529 0.144456643,39.6719313 0.413543622,39.9401727 C0.682630602,40.2084141 1.04935167,40.3588047 1.43157895,40.3576642 L3.67578947,40.3576642 C4.11149998,42.2140163 4.85409879,43.9866408 5.87368421,45.6041606 L4.28631579,47.1727007 C3.72958255,47.7247373 3.72958255,48.6177445 4.28631579,49.169781 L7.94105263,52.7811679 C8.49971563,53.3312975 9.40344227,53.3312975 9.96210526,52.7811679 L11.5494737,51.2126277 C13.1824922,52.2122806 14.9704606,52.940349 16.8421053,53.3678102 L16.8421053,55.5854015 C16.8409864,55.9601932 16.9908754,56.3200134 17.2586802,56.5854224 C17.5264851,56.8508314 17.8901814,57.0000016 18.2694737,57 L23.4526316,57 C23.8319239,57.0000016 24.1956202,56.8508314 24.463425,56.5854224 C24.7312299,56.3200134 24.8811189,55.9601932 24.88,55.5854015 L24.88,53.3678102 C26.7586352,52.9372678 28.5525377,52.2034772 30.1894737,51.1959854 L31.7768421,52.7645255 C32.3355051,53.3146552 33.2392317,53.3146552 33.7978947,52.7645255 L37.4736842,49.1531387 C38.0304175,48.6011022 38.0304175,47.7080949 37.4736842,47.1560584 L35.8863158,45.5875182 C36.8962909,43.973499 37.6316567,42.2067858 38.0631579,40.3576642 L40.3073684,40.3576642 C41.0956822,40.3576642 41.7347368,39.7261897 41.7347368,38.9472263 L41.7347368,33.8255474 C41.7358557,33.4507557 41.5859667,33.0909355 41.3181619,32.8255265 C41.050357,32.5601176 40.6866607,32.4109473 40.3073684,32.4109489 Z M20.8715789,43.5155474 C17.9488502,43.5172305 15.3129651,41.7787995 14.1933049,39.1110617 C13.0736447,36.4433238 13.6907678,33.3717887 15.756847,31.3290255 C17.8229262,29.2862623 20.9309708,28.6746687 23.6313835,29.779493 C26.3317963,30.8843174 28.0926311,33.4879236 28.0926316,36.3759854 C28.0926323,40.3174324 24.8603372,43.5132506 20.8715789,43.5155474 Z" id="Shape" fill="#0461B1" fill-rule="nonzero"></path>
                    <path d="M20.8715789,26.0660584 C15.1092143,26.0660584 10.4378947,30.6819699 10.4378947,36.3759854 C10.4378947,42.0700009 15.1092143,46.6859124 20.8715789,46.6859124 C26.6339436,46.6859124 31.3052632,42.0700009 31.3052632,36.3759854 C31.3052632,33.6416228 30.2060032,31.0192525 28.2493078,29.0857661 C26.2926125,27.1522797 23.638764,26.0660584 20.8715789,26.0660584 Z M20.8715789,43.5155474 C17.9488502,43.5172305 15.3129651,41.7787995 14.1933049,39.1110617 C13.0736447,36.4433238 13.6907678,33.3717887 15.756847,31.3290255 C17.8229262,29.2862623 20.9309708,28.6746687 23.6313835,29.779493 C26.3317963,30.8843174 28.0926311,33.4879236 28.0926316,36.3759854 C28.0926323,40.3174324 24.8603372,43.5132506 20.8715789,43.5155474 Z" id="Shape" fill="#EA5340" fill-rule="nonzero"></path>
                    <path d="M55.0863158,8.4210219 L53.9494737,8.4210219 C53.7288188,7.48324515 53.3532597,6.58781499 52.8378947,5.77072993 L53.6421053,4.99270073 C53.9242408,4.71335043 53.9242408,4.26102913 53.6421053,3.98167883 L51.7894737,2.14270073 C51.5067702,1.8639117 51.0490193,1.8639117 50.7663158,2.14270073 L49.9621053,2.93737226 C49.1351769,2.42818788 48.22901,2.05708817 47.28,1.8389781 L47.28,0.715620438 C47.2800268,0.323621127 46.9608885,0.00455813063 46.5642105,-1.50990331e-13 L43.9494737,-1.50990331e-13 C43.5495033,-1.50935082e-13 43.2252632,0.320394183 43.2252632,0.715620438 L43.2252632,1.8389781 C42.2762296,2.05701572 41.370051,2.42812022 40.5431579,2.93737226 L39.7389474,2.14270073 C39.4562438,1.8639117 38.998493,1.8639117 38.7157895,2.14270073 L36.8715789,3.9650365 C36.5894434,4.24438679 36.5894434,4.6967081 36.8715789,4.97605839 L37.6757895,5.77072993 C37.1600123,6.58760539 36.784424,7.48310517 36.5642105,8.4210219 L35.4273684,8.4210219 C35.2323418,8.42096978 35.045537,8.49864551 34.9092265,8.63647161 C34.7729159,8.77429771 34.6986224,8.96062347 34.7031579,9.15328467 L34.7031579,11.7370073 C34.7031579,12.1322336 35.027398,12.4526277 35.4273684,12.4526277 L36.5642105,12.4526277 C36.7848654,13.3904045 37.1604245,14.2858346 37.6757895,15.1029197 L36.8715789,15.8975912 C36.5894434,16.1769415 36.5894434,16.6292628 36.8715789,16.9086131 L38.7368421,18.7226277 C39.0195456,19.0014168 39.4772965,19.0014168 39.76,18.7226277 L40.5642105,17.9279562 C41.391174,18.437073 42.2973293,18.8081679 43.2463158,19.0263504 L43.2463158,20.149708 C43.2451872,20.339842 43.3211253,20.5225116 43.4571865,20.6569589 C43.5932478,20.7914063 43.77811,20.8664437 43.9705263,20.8653285 L46.5852632,20.8653285 C46.9852336,20.8653285 47.3094737,20.5449343 47.3094737,20.149708 L47.3094737,19.0263504 C48.2585072,18.8083127 49.1646859,18.4372083 49.9915789,17.9279562 L50.7705263,18.7226277 C51.0527382,18.9986599 51.5072618,18.9986599 51.7894737,18.7226277 L53.6378947,16.8961314 C53.9200303,16.6167811 53.9200303,16.1644598 53.6378947,15.8851095 L52.8336842,15.090438 C53.3487757,14.2732139 53.7243155,13.3778298 53.9452632,12.440146 L55.0821053,12.440146 C55.2745216,12.4412612 55.4593838,12.3662238 55.5954451,12.2317765 C55.7315063,12.0973291 55.8074444,11.9146596 55.8063158,11.7245255 L55.8063158,9.15328467 C55.8108373,8.96134301 55.7371164,8.77565632 55.6017205,8.6379544 C55.4663246,8.50025248 55.2806111,8.42208615 55.0863158,8.4210219 Z M45.2547368,14.0378102 C43.2386068,14.0378102 41.6042105,12.4228 41.6042105,10.4305839 C41.6042105,8.43836788 43.2386068,6.82335766 45.2547368,6.82335766 C47.2708669,6.82335766 48.9052632,8.43836788 48.9052632,10.4305839 C48.9029429,12.4218495 47.269905,14.0355175 45.2547368,14.0378102 Z" id="Shape" fill="#656D88" fill-rule="nonzero"></path>
                    <path d="M45.2547368,5.21321168 C43.1204969,5.21152858 41.1954607,6.48061915 40.3775419,8.42852902 C39.5596231,10.3764389 40.0099574,12.6194163 41.5184909,14.1112472 C43.0270243,15.6030781 45.2965654,16.0498614 47.2685098,15.2431997 C49.2404542,14.436538 50.5263151,12.5353491 50.5263158,10.4264234 C50.5263167,7.54887008 48.1668305,5.21550821 45.2547368,5.21321168 Z M45.2547368,14.0378102 C43.2386068,14.0378102 41.6042105,12.4228 41.6042105,10.4305839 C41.6042105,8.43836788 43.2386068,6.82335766 45.2547368,6.82335766 C47.2708669,6.82335766 48.9052632,8.43836788 48.9052632,10.4305839 C48.9029429,12.4218495 47.269905,14.0355175 45.2547368,14.0378102 Z" id="Shape" fill="#0461B1" fill-rule="nonzero"></path>
                    <ellipse id="Oval-2" fill="#E1F0FF" cx="20.7666667" cy="36.3780488" rx="6.76666667" ry="6.7195122"></ellipse>
                    <ellipse id="Oval-2-Copy" fill="#E1F0FF" cx="45.2666667" cy="10.195122" rx="3.26666667" ry="3.24390244"></ellipse>
                </g>
            </g>
        </g>
    </g>
</svg>