<?xml version="1.0" encoding="UTF-8"?>
<svg width="56px" height="58px" viewBox="0 0 56 58" version="1.1" xmlns="http://www.w3.org/2000/svg" xmlns:xlink="http://www.w3.org/1999/xlink">
    <!-- Generator: sketchtool 52.4 (67378) - http://www.bohemiancoding.com/sketch -->
    <title>8414F459-3F4D-4449-86E2-388537DE7B30</title>
    <desc>Created with sketchtool.</desc>
    <g id="desktop" stroke="none" stroke-width="1" fill="none" fill-rule="evenodd">
        <g id="home-new" transform="translate(-1351.000000, -470.000000)" fill-rule="nonzero">
            <g id="features" transform="translate(1351.000000, 470.000000)">
                <g id="Shape">
                    <path d="M40.3073684,32.979562 L38.0631579,32.979562 C37.6270089,31.0921107 36.8844237,29.2898512 35.8652632,27.6452555 L37.4736842,26.0491971 C38.0304175,25.4874757 38.0304175,24.5788017 37.4736842,24.0170803 L33.7978947,20.3211679 C33.2392317,19.7613868 32.3355051,19.7613868 31.7768421,20.3211679 L30.1894737,21.9383942 C28.553797,20.9137231 26.7613618,20.1670776 24.8842105,19.7284672 L24.8842105,17.4719708 C24.8853332,17.089869 24.7348671,16.7230917 24.4661502,16.4529037 C24.1974333,16.1827157 23.832653,16.0314259 23.4526316,16.0325547 L18.2863158,16.0325547 C17.9041134,16.0280182 17.5360695,16.1778022 17.2646082,16.4483623 C16.9931469,16.7189224 16.8409511,17.087651 16.8421053,17.4719708 L16.8421053,19.7284672 C14.9634701,20.1665629 13.1695676,20.9132271 11.5326316,21.9383942 L9.96210526,20.3211679 C9.40344227,19.7613868 8.49971563,19.7613868 7.94105263,20.3211679 L4.28631579,23.9959124 C3.72958255,24.5576338 3.72958255,25.4663078 4.28631579,26.0280292 L5.87368421,27.6240876 C4.8521887,29.2750839 4.10952042,31.0846979 3.67578947,32.979562 L1.43157895,32.979562 C1.05155755,32.9784332 0.686777184,33.129723 0.418060303,33.399911 C0.149343421,33.670099 -0.00112267028,34.0368763 9.30359305e-15,34.4189781 L9.30359305e-15,39.6135766 C-0.00451181948,39.9978714 0.144456643,40.3679301 0.413543622,40.6408775 C0.682630602,40.9138249 1.04935167,41.0668539 1.43157895,41.0656934 L3.67578947,41.0656934 C4.11149998,42.9546131 4.85409879,44.7583363 5.87368421,46.4042336 L4.28631579,48.000292 C3.72958255,48.5620133 3.72958255,49.4706874 4.28631579,50.0324088 L7.94105263,53.7071533 C8.49971563,54.2669343 9.40344227,54.2669343 9.96210526,53.7071533 L11.5494737,52.1110949 C13.1824922,53.1282855 14.9704606,53.8691271 16.8421053,54.3040876 L16.8421053,56.5605839 C16.8409864,56.941951 16.9908754,57.3080838 17.2586802,57.5781491 C17.5264851,57.8482144 17.8901814,58.0000017 18.2694737,58 L23.4526316,58 C23.8319239,58.0000017 24.1956202,57.8482144 24.463425,57.5781491 C24.7312299,57.3080838 24.8811189,56.941951 24.88,56.5605839 L24.88,54.3040876 C26.7586352,53.8659918 28.5525377,53.1193277 30.1894737,52.0941606 L31.7768421,53.690219 C32.3355051,54.25 33.2392317,54.25 33.7978947,53.690219 L37.4736842,50.0154745 C38.0304175,49.4537531 38.0304175,48.545079 37.4736842,47.9833577 L35.8863158,46.3872993 C36.8962909,44.7449639 37.6316567,42.9472557 38.0631579,41.0656934 L40.3073684,41.0656934 C41.0956822,41.0656934 41.7347368,40.4231403 41.7347368,39.6305109 L41.7347368,34.4189781 C41.7358557,34.0376111 41.5859667,33.6714782 41.3181619,33.401413 C41.050357,33.1313477 40.6866607,32.9795604 40.3073684,32.979562 Z M20.8715789,44.2789781 C17.9488502,44.2806906 15.3129651,42.5117609 14.1933049,39.7972206 C13.0736447,37.0826804 13.6907678,33.9572587 15.756847,31.8786575 C17.8229262,29.8000564 20.9309708,29.1777331 23.6313835,30.3019403 C26.3317963,31.4261475 28.0926311,34.075431 28.0926316,37.0141606 C28.0926323,41.0247558 24.8603372,44.2766409 20.8715789,44.2789781 Z" fill="#DDE1E6"></path>
                    <path d="M20.8715789,26.5233577 C15.1092143,26.5233577 10.4378947,31.2202501 10.4378947,37.0141606 C10.4378947,42.808071 15.1092143,47.5049635 20.8715789,47.5049635 C26.6339436,47.5049635 31.3052632,42.808071 31.3052632,37.0141606 C31.3052632,34.2318267 30.2060032,31.5634499 28.2493078,29.5960427 C26.2926125,27.6286355 23.638764,26.5233577 20.8715789,26.5233577 Z M20.8715789,44.2789781 C17.9488502,44.2806906 15.3129651,42.5117609 14.1933049,39.7972206 C13.0736447,37.0826804 13.6907678,33.9572587 15.756847,31.8786575 C17.8229262,29.8000564 20.9309708,29.1777331 23.6313835,30.3019403 C26.3317963,31.4261475 28.0926311,34.075431 28.0926316,37.0141606 C28.0926323,41.0247558 24.8603372,44.2766409 20.8715789,44.2789781 Z" fill="#C1C9D1"></path>
                    <path d="M55.0863158,8.56875912 L53.9494737,8.56875912 C53.7288188,7.61453015 53.3532597,6.70339069 52.8378947,5.8719708 L53.6421053,5.08029197 C53.9242408,4.79604079 53.9242408,4.33578403 53.6421053,4.05153285 L51.7894737,2.18029197 C51.5067702,1.89661191 51.0490193,1.89661191 50.7663158,2.18029197 L49.9621053,2.98890511 C49.1351769,2.47078766 48.22901,2.09317743 47.28,1.87124088 L47.28,0.728175182 C47.2800268,0.329298691 46.9608885,0.00463809784 46.5642105,-1.50990331e-13 L43.9494737,-1.50990331e-13 C43.5495033,-1.50934113e-13 43.2252632,0.326015134 43.2252632,0.728175182 L43.2252632,1.87124088 C42.2762296,2.09310372 41.370051,2.47071882 40.5431579,2.98890511 L39.7389474,2.18029197 C39.4562438,1.89661191 38.998493,1.89661191 38.7157895,2.18029197 L36.8715789,4.03459854 C36.5894434,4.31884972 36.5894434,4.77910648 36.8715789,5.06335766 L37.6757895,5.8719708 C37.1600123,6.70317742 36.784424,7.61438771 36.5642105,8.56875912 L35.4273684,8.56875912 C35.2323418,8.56870609 35.045537,8.64774455 34.9092265,8.78798865 C34.7729159,8.92823276 34.6986224,9.11782739 34.7031579,9.31386861 L34.7031579,11.9429197 C34.7031579,12.3450798 35.027398,12.6710949 35.4273684,12.6710949 L36.5642105,12.6710949 C36.7848654,13.6253239 37.1604245,14.5364633 37.6757895,15.3678832 L36.8715789,16.1764964 C36.5894434,16.4607475 36.5894434,16.9210043 36.8715789,17.2052555 L38.7368421,19.0510949 C39.0195456,19.334775 39.4772965,19.334775 39.76,19.0510949 L40.5642105,18.2424818 C41.391174,18.7605304 42.2973293,19.1381358 43.2463158,19.360146 L43.2463158,20.5032117 C43.2451872,20.6966814 43.3211253,20.8825556 43.4571865,21.0193617 C43.5932478,21.1561678 43.77811,21.2325216 43.9705263,21.2313869 L46.5852632,21.2313869 C46.9852336,21.2313869 47.3094737,20.9053717 47.3094737,20.5032117 L47.3094737,19.360146 C48.2585072,19.1382831 49.1646859,18.760668 49.9915789,18.2424818 L50.7705263,19.0510949 C51.0527382,19.3319698 51.5072618,19.3319698 51.7894737,19.0510949 L53.6378947,17.1925547 C53.9200303,16.9083036 53.9200303,16.4480468 53.6378947,16.1637956 L52.8336842,15.3551825 C53.3487757,14.5236212 53.7243155,13.6125286 53.9452632,12.6583942 L55.0821053,12.6583942 C55.2745216,12.6595289 55.4593838,12.5831751 55.5954451,12.446369 C55.7315063,12.3095629 55.8074444,12.1236887 55.8063158,11.930219 L55.8063158,9.31386861 C55.8108373,9.11855956 55.7371164,8.9296152 55.6017205,8.78949746 C55.4663246,8.64937972 55.2806111,8.56984204 55.0863158,8.56875912 Z M45.2547368,14.2840876 C43.2386068,14.2840876 41.6042105,12.6407439 41.6042105,10.6135766 C41.6042105,8.58640942 43.2386068,6.94306569 45.2547368,6.94306569 C47.2708669,6.94306569 48.9052632,8.58640942 48.9052632,10.6135766 C48.9029429,12.6397767 47.269905,14.2817546 45.2547368,14.2840876 Z" fill="#DDE1E6"></path>
                    <path d="M45.2547368,5.30467153 C43.1204969,5.3029589 41.1954607,6.59431422 40.3775419,8.57639795 C39.5596231,10.5584817 40.0099574,12.8408095 41.5184909,14.3588129 C43.0270243,15.8768163 45.2965654,16.3314379 47.2685098,15.5106242 C49.2404542,14.6898106 50.5263151,12.7552675 50.5263158,10.6093431 C50.5263167,7.68130639 48.1668305,5.30700835 45.2547368,5.30467153 Z M45.2547368,14.2840876 C43.2386068,14.2840876 41.6042105,12.6407439 41.6042105,10.6135766 C41.6042105,8.58640942 43.2386068,6.94306569 45.2547368,6.94306569 C47.2708669,6.94306569 48.9052632,8.58640942 48.9052632,10.6135766 C48.9029429,12.6397767 47.269905,14.2817546 45.2547368,14.2840876 Z" fill="#C1C9D1"></path>
                </g>
            </g>
        </g>
    </g>
</svg>