<?xml version="1.0" encoding="UTF-8"?>
<svg width="80px" height="82px" viewBox="0 0 80 82" version="1.1" xmlns="http://www.w3.org/2000/svg" xmlns:xlink="http://www.w3.org/1999/xlink">
    <!-- Generator: sketchtool 52.4 (67378) - http://www.bohemiancoding.com/sketch -->
    <title>F034EE3C-9C77-4816-85F4-2E085E71CFDD</title>
    <desc>Created with sketchtool.</desc>
    <g id="design" stroke="none" stroke-width="1" fill="none" fill-rule="evenodd">
        <g id="home-2" transform="translate(-1506.000000, -486.000000)" fill-rule="nonzero">
            <g id="features" transform="translate(1506.000000, 486.000000)">
                <g id="Shape">
                    <path d="M57.5819549,46.6262774 L54.3759398,46.6262774 C53.7528698,43.9578117 52.6920339,41.4097896 51.2360902,39.0846715 L53.5338346,36.8281752 C54.3291678,36.0340174 54.3291678,34.7493403 53.5338346,33.9551825 L48.2827068,28.729927 C47.4846168,27.9385124 46.1935787,27.9385124 45.3954887,28.729927 L43.1278195,31.0163504 C40.7911386,29.5676775 38.2305168,28.5120752 35.5488722,27.8919708 L35.5488722,24.7017518 C35.550476,24.1615389 35.3355244,23.6429917 34.9516432,23.2610018 C34.5677619,22.8790119 34.0466471,22.6651194 33.5037594,22.6667153 L26.1233083,22.6667153 C25.5773048,22.6603016 25.0515279,22.8720652 24.663726,23.2545812 C24.2759242,23.6370972 24.0585016,24.1584032 24.0601504,24.7017518 L24.0601504,27.8919708 C21.3763858,28.5113476 18.8136679,29.5669762 16.475188,31.0163504 L14.2315789,28.729927 C13.433489,27.9385124 12.1424509,27.9385124 11.3443609,28.729927 L6.12330827,33.9252555 C5.32797507,34.7194133 5.32797507,36.0040904 6.12330827,36.7982482 L8.39097744,39.0547445 C6.93169814,41.3889118 5.87074345,43.9473315 5.25112782,46.6262774 L2.04511278,46.6262774 C1.50222507,46.6246815 0.981110263,46.838574 0.597229004,47.2205638 C0.213347745,47.6025537 -0.00160381468,48.121101 1.32908279e-14,48.6613139 L1.32908279e-14,56.0054015 C-0.0064454564,56.5487147 0.206366632,57.0719012 0.590776603,57.4577923 C0.975186575,57.8436834 1.49907381,58.0600348 2.04511278,58.0583942 L5.25112782,58.0583942 C5.87357139,60.7289358 6.93442685,63.2790271 8.39097744,65.6059854 L6.12330827,67.8624818 C5.32797507,68.6566396 5.32797507,69.9413167 6.12330827,70.7354745 L11.3443609,75.9308029 C12.1424509,76.7222175 13.433489,76.7222175 14.2315789,75.9308029 L16.4992481,73.6743066 C18.8321317,75.1124036 21.3863722,76.1598003 24.0601504,76.7747445 L24.0601504,79.9649635 C24.058552,80.5041376 24.2726791,81.0217737 24.6552575,81.4035901 C25.0378359,81.7854065 25.557402,82.0000023 26.0992481,82 L33.5037594,82 C34.0456055,82.0000023 34.5651717,81.7854065 34.9477501,81.4035901 C35.3303284,81.0217737 35.5444555,80.5041376 35.5428571,79.9649635 L35.5428571,76.7747445 C38.2266217,76.1553677 40.7893396,75.0997391 43.1278195,73.650365 L45.3954887,75.9068613 C46.1935787,76.6982759 47.4846168,76.6982759 48.2827068,75.9068613 L53.5338346,70.7115328 C54.3291678,69.917375 54.3291678,68.6326979 53.5338346,67.8385401 L51.2661654,65.5820438 C52.708987,63.2601214 53.7595095,60.718534 54.3759398,58.0583942 L57.5819549,58.0583942 C58.7081175,58.0583942 59.6210526,57.149957 59.6210526,56.0293431 L59.6210526,48.6613139 C59.622651,48.1221398 59.4085239,47.6045037 59.0259455,47.2226873 C58.6433672,46.8408709 58.123801,46.626275 57.5819549,46.6262774 Z M29.8165414,62.6013139 C25.6412146,62.6037351 21.8756645,60.1028344 20.2761499,56.2650361 C18.6766352,52.4272378 19.5582397,48.0085382 22.5097814,45.0698262 C25.4613231,42.1311142 29.9013868,41.2512778 33.7591193,42.8406742 C37.6168519,44.4300706 40.1323301,48.1756094 40.1323308,52.330365 C40.1323318,58.0005168 35.5147674,62.5980096 29.8165414,62.6013139 Z" fill="#DDE1E6"></path>
                    <path d="M29.8165414,37.4985401 C21.5845918,37.4985401 14.9112782,44.1389743 14.9112782,52.330365 C14.9112782,60.5217556 21.5845918,67.1621898 29.8165414,67.1621898 C38.0484909,67.1621898 44.7218045,60.5217556 44.7218045,52.330365 C44.7218045,48.3967204 43.1514331,44.6241878 40.356154,41.8426811 C37.5608749,39.0611743 33.7696629,37.4985401 29.8165414,37.4985401 Z M29.8165414,62.6013139 C25.6412146,62.6037351 21.8756645,60.1028344 20.2761499,56.2650361 C18.6766352,52.4272378 19.5582397,48.0085382 22.5097814,45.0698262 C25.4613231,42.1311142 29.9013868,41.2512778 33.7591193,42.8406742 C37.6168519,44.4300706 40.1323301,48.1756094 40.1323308,52.330365 C40.1323318,58.0005168 35.5147674,62.5980096 29.8165414,62.6013139 Z" fill="#C1C9D1"></path>
                    <path d="M78.6947368,12.1144526 L77.0706767,12.1144526 C76.7554554,10.7653702 76.2189424,9.47720752 75.4827068,8.30175182 L76.6315789,7.18248175 C77.0346297,6.78060939 77.0346297,6.12990156 76.6315789,5.7280292 L73.9849624,3.08248175 C73.5811002,2.68141684 72.9271705,2.68141684 72.5233083,3.08248175 L71.3744361,4.22569343 C70.1931099,3.49318256 68.8985857,2.95931982 67.5428571,2.64554745 L67.5428571,1.02948905 C67.5428955,0.465560218 67.0869835,0.00655731074 66.5203008,-1.50990331e-13 L62.7849624,-1.50990331e-13 C62.2135761,-1.5091085e-13 61.7503759,0.460917948 61.7503759,1.02948905 L61.7503759,2.64554745 C60.3946137,2.9592156 59.1000728,3.49308522 57.918797,4.22569343 L56.7699248,3.08248175 C56.3660626,2.68141684 55.7121329,2.68141684 55.3082707,3.08248175 L52.6736842,5.70408759 C52.2706335,6.10595995 52.2706335,6.75666779 52.6736842,7.15854015 L53.8225564,8.30175182 C53.0857319,9.47690601 52.5491772,10.7651688 52.2345865,12.1144526 L50.6105263,12.1144526 C50.3319169,12.1143776 50.0650528,12.2261216 49.8703235,12.4243978 C49.6755942,12.6226739 49.5694606,12.8907215 49.5759398,13.1678832 L49.5759398,16.8848175 C49.5759398,17.4533886 50.03914,17.9143066 50.6105263,17.9143066 L52.2345865,17.9143066 C52.5498077,19.2633889 53.0863207,20.5515516 53.8225564,21.7270073 L52.6736842,22.870219 C52.2706335,23.2720913 52.2706335,23.9227992 52.6736842,24.3246715 L55.3383459,26.9343066 C55.7422081,27.3353715 56.3961378,27.3353715 56.8,26.9343066 L57.9488722,25.7910949 C59.1302486,26.5235085 60.4247562,27.0573644 61.7804511,27.3712409 L61.7804511,28.9872993 C61.7788389,29.2608254 61.8873218,29.5236131 62.081695,29.7170286 C62.2760682,29.9104442 62.5401571,30.0183926 62.8150376,30.0167883 L66.5503759,30.0167883 C67.1217623,30.0167883 67.5849624,29.5558704 67.5849624,28.9872993 L67.5849624,27.3712409 C68.9407246,27.0575727 70.2352655,26.5237031 71.4165414,25.7910949 L72.5293233,26.9343066 C72.9324832,27.3314055 73.5818025,27.3314055 73.9849624,26.9343066 L76.6255639,24.3067153 C77.0286147,23.904843 77.0286147,23.2541351 76.6255639,22.8522628 L75.4766917,21.7090511 C76.2125367,20.5333954 76.7490221,19.245299 77.0646617,17.8963504 L78.6887218,17.8963504 C78.9636023,17.8979547 79.2276912,17.7900062 79.4220644,17.5965907 C79.6164376,17.4031752 79.7249205,17.1403874 79.7233083,16.8668613 L79.7233083,13.1678832 C79.7297676,12.8917566 79.624452,12.6246284 79.4310293,12.4265309 C79.2376066,12.2284334 78.9723016,12.1159836 78.6947368,12.1144526 Z M64.6496241,20.1947445 C61.7694383,20.1947445 59.4345865,17.8713965 59.4345865,15.0054015 C59.4345865,12.1394064 61.7694383,9.81605839 64.6496241,9.81605839 C67.5298098,9.81605839 69.8646617,12.1394064 69.8646617,15.0054015 C69.861347,17.8700292 67.5284357,20.1914462 64.6496241,20.1947445 Z" fill="#DDE1E6"></path>
                    <path d="M64.6496241,7.49970803 C61.6007098,7.49728673 58.8506581,9.32299597 57.6822027,12.1252523 C56.5137473,14.9275086 57.157082,18.154248 59.3121298,20.3003906 C61.4671776,22.4465333 64.7093792,23.0892743 67.5264426,21.9288136 C70.343506,20.7683529 72.1804502,18.0333093 72.1804511,14.9994161 C72.1804525,10.859778 68.8097578,7.50301181 64.6496241,7.49970803 Z M64.6496241,20.1947445 C61.7694383,20.1947445 59.4345865,17.8713965 59.4345865,15.0054015 C59.4345865,12.1394064 61.7694383,9.81605839 64.6496241,9.81605839 C67.5298098,9.81605839 69.8646617,12.1394064 69.8646617,15.0054015 C69.861347,17.8700292 67.5284357,20.1914462 64.6496241,20.1947445 Z" fill="#C1C9D1"></path>
                </g>
            </g>
        </g>
    </g>
</svg>