<?xml version="1.0" encoding="UTF-8"?>
<svg width="44px" height="69px" viewBox="0 0 44 69" version="1.1" xmlns="http://www.w3.org/2000/svg" xmlns:xlink="http://www.w3.org/1999/xlink">
    <!-- Generator: sketchtool 52.4 (67378) - http://www.bohemiancoding.com/sketch -->
    <title>AD4DCC0B-0402-4CD6-98DC-EB2F1080A068</title>
    <desc>Created with sketchtool.</desc>
    <g id="design" stroke="none" stroke-width="1" fill="none" fill-rule="evenodd">
        <g id="home-2" transform="translate(-1524.000000, -984.000000)" fill-rule="nonzero">
            <g id="suggest" transform="translate(1524.000000, 984.000000)">
                <g>
                    <polygon id="Shape" fill="#ECF0F1" points="12.7822785 48.7781325 12.7822785 62.6762749 31.1411392 62.6762749 31.1411392 48.7781325"></polygon>
                    <path d="M43.6518987,20.1738162 C42.4634013,9.70943055 34.283127,1.45356257 23.914557,0.254082286 C23.2183544,0.254082286 22.6544304,0.141660508 21.9651899,0.141660508 C21.3133929,0.121475839 20.6610987,0.159094244 20.0158228,0.254082286 C9.66609787,1.49286101 1.50591704,9.72844982 0.278481013,20.1738162 C-0.517881378,27.1537284 1.98936904,34.1045731 7.04556962,38.9342005 C9.83037975,41.5971914 12.093038,45.0752402 12.7822785,48.7711062 L31.1411392,48.7711062 C31.8373418,45.0682138 34.1278481,41.5901651 36.8778481,38.9342005 C41.9340487,34.1045731 44.4412991,27.1537284 43.6449367,20.1738162" id="Shape" fill="#C1C9D1"></path>
                    <path d="M20.8164557,54.5678542 C21.4508841,54.5678542 21.9651899,54.0487957 21.9651899,53.4085046 C21.9651899,52.7682135 21.4508841,52.249155 20.8164557,52.249155 L12.7822785,52.249155 L12.7822785,54.5678542 L20.8164557,54.5678542 Z" id="Shape" fill="#C1C9D1"></path>
                    <path d="M17.3772152,59.2052525 C17.7876184,59.2052526 18.1668466,58.9842818 18.3720483,58.6255778 C18.5772499,58.2668737 18.5772499,57.8249321 18.3720483,57.4662281 C18.1668466,57.1075241 17.7876184,56.8865533 17.3772152,56.8865533 L12.7822785,56.8865533 L12.7822785,59.2052525 L17.3702532,59.2052525 L17.3772152,59.2052525 Z" id="Shape" fill="#C1C9D1"></path>
                    <path d="M31.1411392,52.2561813 L26.5531646,52.2561813 C25.9187362,52.2561813 25.4044304,52.7752398 25.4044304,53.4155309 C25.4044304,54.055822 25.9187362,54.5748805 26.5531646,54.5748805 L31.1411392,54.5748805 L31.1411392,52.2561813 Z" id="Shape" fill="#C1C9D1"></path>
                    <path d="M23.1139241,56.8865533 C22.4794957,56.8865534 21.96519,57.4056119 21.96519,58.0459029 C21.96519,58.686194 22.4794957,59.2052525 23.1139241,59.2052525 L31.1411392,59.2052525 L31.1411392,56.8865533 L23.1139241,56.8865533 Z" id="Shape" fill="#C1C9D1"></path>
                    <path d="M24.3531646,69 L19.6329114,69 C18.1527125,69.004456 16.7580049,68.300658 15.8734177,67.1028825 L12.6012658,62.6762749 L31.3987342,62.6762749 L28.1056962,67.1028825 C27.221109,68.300658 25.8264015,69.004456 24.3462025,69" id="Shape" fill="#C1C9D1"></path>
                    <rect id="Rectangle-path" fill="#ECF0F1" x="17.4746835" y="26.1391968" width="2.08860759" height="23.889628" rx="1.0443038"></rect>
                    <rect id="Rectangle-path" fill="#ECF0F1" x="23.7405063" y="26.1391968" width="2.08860759" height="23.889628" rx="1.0443038"></rect>
                    <rect id="Rectangle-path" fill="#ECF0F1" x="14.6898734" y="22.6260163" width="13.9240506" height="4.2158167" rx="2.08860759"></rect>
                </g>
            </g>
        </g>
    </g>
</svg>