<?xml version="1.0" encoding="UTF-8"?>
<svg width="70px" height="109px" viewBox="0 0 70 109" version="1.1" xmlns="http://www.w3.org/2000/svg" xmlns:xlink="http://www.w3.org/1999/xlink">
    <!-- Generator: Sketch 51.2 (57519) - http://www.bohemiancoding.com/sketch -->
    <title>suggest</title>
    <desc>Created with Sketch.</desc>
    <defs></defs>
    <g id="design" stroke="none" stroke-width="1" fill="none" fill-rule="evenodd">
        <g id="home" transform="translate(-1525.000000, -1483.000000)" fill-rule="nonzero">
            <g id="suggest" transform="translate(1525.000000, 1483.000000)">
                <polygon id="Shape" fill="#ECF0F1" points="20.335443 77.0553108 20.335443 99.0103474 49.5427215 99.0103474 49.5427215 77.0553108"></polygon>
                <path d="M69.4462025,31.8687821 C67.5554112,15.3380859 54.5413384,2.29620753 38.0458861,0.401376365 C36.9382911,0.401376365 36.0411392,0.223782541 34.9446203,0.223782541 C33.9076706,0.191896616 32.8699297,0.251322792 31.8433544,0.401376365 C15.377883,2.35828768 2.39577711,15.3681309 0.443037975,31.8687821 C-0.823902192,42.8950203 3.16490529,53.87534 11.2088608,61.5047516 C15.6392405,65.7115053 19.2389241,71.2058142 20.335443,77.0442112 L49.5427215,77.0442112 C50.6503165,71.1947146 54.2943038,65.7004057 58.6693038,61.5047516 C66.7132593,53.87534 70.7020667,42.8950203 69.4351266,31.8687821" id="Shape" fill="#C1C9D1"></path>
                <path d="M33.1170886,86.2013928 C34.1264065,86.2013928 34.9446203,85.3814308 34.9446203,84.3699565 C34.9446203,83.3584821 34.1264065,82.5385202 33.1170886,82.5385202 L20.335443,82.5385202 L20.335443,86.2013928 L33.1170886,86.2013928 Z" id="Shape" fill="#C1C9D1"></path>
                <path d="M27.6455696,93.527138 C28.2984838,93.5271381 28.9018015,93.1780683 29.2282586,92.6114199 C29.5547157,92.0447715 29.5547157,91.3466319 29.2282586,90.7799835 C28.9018015,90.2133351 28.2984838,89.8642654 27.6455696,89.8642654 L20.335443,89.8642654 L20.335443,93.527138 L27.6344937,93.527138 L27.6455696,93.527138 Z" id="Shape" fill="#C1C9D1"></path>
                <path d="M49.5427215,82.5496198 L42.2436709,82.5496198 C41.234353,82.5496198 40.4161392,83.3695817 40.4161392,84.3810561 C40.4161392,85.3925304 41.234353,86.2124924 42.2436709,86.2124924 L49.5427215,86.2124924 L49.5427215,82.5496198 Z" id="Shape" fill="#C1C9D1"></path>
                <path d="M36.7721519,89.8642654 C35.7628341,89.8642655 34.9446204,90.6842274 34.9446204,91.6957017 C34.9446204,92.707176 35.7628341,93.527138 36.7721519,93.527138 L49.5427215,93.527138 L49.5427215,89.8642654 L36.7721519,89.8642654 Z" id="Shape" fill="#C1C9D1"></path>
                <path d="M38.7436709,109 L31.2341772,109 C28.8793153,109.007039 26.6604623,107.895242 25.2531646,106.003104 L20.0474684,99.0103474 L49.9525316,99.0103474 L44.7136076,106.003104 C43.3063098,107.895242 41.0874569,109.007039 38.7325949,109" id="Shape" fill="#C1C9D1"></path>
                <rect id="Rectangle-path" fill="#ECF0F1" x="27.8006329" y="41.2923544" width="3.32278481" height="37.7386877" rx="1.66139241"></rect>
                <rect id="Rectangle-path" fill="#ECF0F1" x="37.7689873" y="41.2923544" width="3.32278481" height="37.7386877" rx="1.66139241"></rect>
                <rect id="Rectangle-path" fill="#ECF0F1" x="23.3702532" y="35.7425474" width="22.1518987" height="6.65976842" rx="3.32278481"></rect>
            </g>
        </g>
    </g>
</svg>