<?xml version="1.0" encoding="UTF-8"?>
<svg width="18px" height="13px" viewBox="0 0 18 13" version="1.1" xmlns="http://www.w3.org/2000/svg" xmlns:xlink="http://www.w3.org/1999/xlink">
    <!-- Generator: Sketch 51.2 (57519) - http://www.bohemiancoding.com/sketch -->
    <title>left-arrow</title>
    <desc>Created with Sketch.</desc>
    <defs></defs>
    <g id="design" stroke="none" stroke-width="1" fill="none" fill-rule="evenodd">
        <g id="ui-elements" transform="translate(-1083.000000, -306.000000)" fill="#EA5441" fill-rule="nonzero">
            <g id="icons" transform="translate(1074.000000, 252.000000)">
                <g id="arrow_left" transform="translate(18.500000, 60.500000) rotate(-180.000000) translate(-18.500000, -60.500000) translate(0.000000, 42.000000)">
                    <g id="left-arrow" transform="translate(10.000000, 12.000000)">
                        <g id="left">
                            <path d="M5.8716929,0.195519624 C6.12544948,-0.0651732081 6.52494463,-0.0651732081 6.77870121,0.195519624 C7.02388493,0.447405266 7.02388493,0.866627524 6.77870121,1.11792602 L2.17964899,5.84269003 L17.3558926,5.84269003 C17.7096659,5.84269003 18,6.13156587 18,6.49500926 C18,6.85845264 17.7096659,7.15672282 17.3558926,7.15672282 L2.17964899,7.15672282 L6.77870121,11.8726796 C7.02388493,12.1333725 7.02388493,12.5531819 6.77870121,12.8044804 C6.52494463,13.0651732 6.12544948,13.0651732 5.8716929,12.8044804 L0.183887791,6.9612032 C-0.0612959303,6.70931756 -0.0612959303,6.2900953 0.183887791,6.0387968 L5.8716929,0.195519624 Z" id="Shape" transform="translate(9.000000, 6.500000) rotate(-180.000000) translate(-9.000000, -6.500000) "></path>
                        </g>
                    </g>
                </g>
            </g>
        </g>
    </g>
</svg>