<?xml version="1.0" encoding="UTF-8"?>
<svg width="162px" height="114px" viewBox="0 0 162 114" version="1.1" xmlns="http://www.w3.org/2000/svg" xmlns:xlink="http://www.w3.org/1999/xlink">
    <!-- Generator: Sketch 51.2 (57519) - http://www.bohemiancoding.com/sketch -->
    <title>administration </title>
    <desc>Created with Sketch.</desc>
    <defs></defs>
    <g id="design" stroke="none" stroke-width="1" fill="none" fill-rule="evenodd">
        <g id="home" transform="translate(-1429.000000, -886.000000)" fill-rule="nonzero">
            <g id="administration-" transform="translate(1429.000000, 886.000000)">
                <rect id="Rectangle-path" fill="#F5F6F8" x="15.19" y="10.13" width="131.63" height="81"></rect>
                <path d="M145.27,-1.77635515e-15 L16.72,-1.77635515e-15 C10.2920574,-2.12759089e-05 5.07653845,5.20207865 5.06,11.63 L5.06,103.78 C5.06,104.450998 5.32655281,105.094513 5.80101984,105.56898 C6.27548688,106.043447 6.91900228,106.31 7.59,106.31 L154.41,106.31 C155.80728,106.31 156.94,105.17728 156.94,103.78 L156.94,11.63 C156.923454,5.19817346 151.701845,-0.00553744721 145.27,-1.77635515e-15 Z M15.19,88.59 L15.19,12.66 C15.19,11.2627196 16.3227196,10.13 17.72,10.13 L144.28,10.13 C145.67728,10.13 146.81,11.2627196 146.81,12.66 L146.81,88.59 C146.81,89.9872804 145.67728,91.12 144.28,91.12 L17.72,91.12 C16.3227196,91.12 15.19,89.9872804 15.19,88.59 Z" id="Shape" fill="#C1C9D1"></path>
                <path d="M159.47,101.25 L2.53,101.25 C1.13271958,101.25 1.71117499e-16,102.38272 0,103.78 C0.0110041267,109.37008 4.53991989,113.898996 10.13,113.91 L151.87,113.91 C157.46008,113.898996 161.988996,109.37008 162,103.78 C162,102.38272 160.86728,101.25 159.47,101.25 Z" id="Shape" fill="#DDE1E6"></path>
                <path d="M45.56,22.78 L27.84,22.78 C26.4427196,22.78 25.31,21.6472804 25.31,20.25 C25.31,18.8527196 26.4427196,17.72 27.84,17.72 L45.56,17.72 C46.9572804,17.72 48.09,18.8527196 48.09,20.25 C48.09,21.6472804 46.9572804,22.78 45.56,22.78 Z" id="Shape" fill="#DDE1E6"></path>
                <path d="M91.13,22.78 L88.59,22.78 C87.1927196,22.78 86.06,21.6472804 86.06,20.25 C86.06,18.8527196 87.1927196,17.72 88.59,17.72 L91.12,17.72 C92.5172804,17.72 93.65,18.8527196 93.65,20.25 C93.65,21.6472804 92.5172804,22.78 91.12,22.78 L91.13,22.78 Z" id="Shape" fill="#C1C9D1"></path>
                <path d="M103.78,22.78 L101.25,22.78 C99.8527196,22.78 98.72,21.6472804 98.72,20.25 C98.72,18.8527196 99.8527196,17.72 101.25,17.72 L103.78,17.72 C105.17728,17.72 106.31,18.8527196 106.31,20.25 C106.31,21.6472804 105.17728,22.78 103.78,22.78 Z" id="Shape" fill="#C1C9D1"></path>
                <path d="M116.44,22.78 L113.91,22.78 C112.51272,22.78 111.38,21.6472804 111.38,20.25 C111.38,18.8527196 112.51272,17.72 113.91,17.72 L116.44,17.72 C117.83728,17.72 118.97,18.8527196 118.97,20.25 C118.97,21.6472804 117.83728,22.78 116.44,22.78 Z" id="Shape" fill="#C1C9D1"></path>
                <path d="M129.09,22.78 L126.56,22.78 C125.16272,22.78 124.03,21.6472804 124.03,20.25 C124.03,18.8527196 125.16272,17.72 126.56,17.72 L129.09,17.72 C130.48728,17.72 131.62,18.8527196 131.62,20.25 C131.62,21.6472804 130.48728,22.78 129.09,22.78 Z" id="Shape" fill="#C1C9D1"></path>
                <path d="M70.86,83.53 L27.55,83.53 C26.1494475,83.5300431 25.0109847,82.4005094 25,81 L25,40 C24.997341,39.321967 25.2648267,38.6707925 25.7433329,38.1904098 C26.2218392,37.710027 26.8719618,37.4399948 27.55,37.44 L70.86,37.44 C71.5380382,37.4399948 72.1881608,37.710027 72.6666671,38.1904098 C73.1451733,38.6707925 73.412659,39.321967 73.41,40 L73.41,81 C73.3990153,82.4005094 72.2605525,83.5300431 70.86,83.53 Z" id="Shape" fill="#DDE1E6"></path>
                <path d="M131.63,43 L83.53,43 C82.1327196,43 81,41.8672804 81,40.47 C81,39.0727196 82.1327196,37.94 83.53,37.94 L131.62,37.94 C133.01728,37.94 134.15,39.0727196 134.15,40.47 C134.15,41.8672804 133.01728,43 131.62,43 L131.63,43 Z" id="Shape" fill="#C1C9D1"></path>
                <path d="M103.78,63.28 L83.53,63.28 C82.1327196,63.28 81,62.1472804 81,60.75 C81,59.3527196 82.1327196,58.22 83.53,58.22 L103.78,58.22 C105.17728,58.22 106.31,59.3527196 106.31,60.75 C106.31,62.1472804 105.17728,63.28 103.78,63.28 Z" id="Shape" fill="#DDE1E6"></path>
                <path d="M103.78,73.41 L83.53,73.41 C82.1327196,73.41 81,72.2772804 81,70.88 C81,69.4827196 82.1327196,68.35 83.53,68.35 L103.78,68.35 C105.17728,68.35 106.31,69.4827196 106.31,70.88 C106.31,72.2772804 105.17728,73.41 103.78,73.41 Z" id="Shape" fill="#DDE1E6"></path>
                <path d="M103.78,83.53 L83.53,83.53 C82.1327196,83.53 81,82.3972804 81,81 C81,79.6027196 82.1327196,78.47 83.53,78.47 L103.78,78.47 C105.17728,78.47 106.31,79.6027196 106.31,81 C106.31,82.3972804 105.17728,83.53 103.78,83.53 Z" id="Shape" fill="#DDE1E6"></path>
                <path d="M134.16,63.28 L113.91,63.28 C112.51272,63.28 111.38,62.1472804 111.38,60.75 C111.38,59.3527196 112.51272,58.22 113.91,58.22 L134.16,58.22 C135.55728,58.22 136.69,59.3527196 136.69,60.75 C136.69,62.1472804 135.55728,63.28 134.16,63.28 Z" id="Shape" fill="#DDE1E6"></path>
                <path d="M134.16,73.41 L113.91,73.41 C112.51272,73.41 111.38,72.2772804 111.38,70.88 C111.38,69.4827196 112.51272,68.35 113.91,68.35 L134.16,68.35 C135.55728,68.35 136.69,69.4827196 136.69,70.88 C136.69,72.2772804 135.55728,73.41 134.16,73.41 Z" id="Shape" fill="#DDE1E6"></path>
                <path d="M134.16,83.53 L113.91,83.53 C112.51272,83.53 111.38,82.3972804 111.38,81 C111.38,79.6027196 112.51272,78.47 113.91,78.47 L134.16,78.47 C135.55728,78.47 136.69,79.6027196 136.69,81 C136.69,82.3972804 135.55728,83.53 134.16,83.53 Z" id="Shape" fill="#DDE1E6"></path>
                <path d="M116.44,53.16 L83.53,53.16 C82.1327196,53.16 81,52.0272804 81,50.63 C81,49.2327196 82.1327196,48.1 83.53,48.1 L116.44,48.1 C117.83728,48.1 118.97,49.2327196 118.97,50.63 C118.97,52.0272804 117.83728,53.16 116.44,53.16 Z" id="Shape" fill="#C1C9D1"></path>
                <path d="M70.88,106.31 L91.13,106.31 C92.4719954,106.31 93.7590262,105.776894 94.7079603,104.82796 C95.6568944,103.879026 96.19,102.591995 96.19,101.25 L65.81,101.25 C65.8099974,102.59373 66.3444755,103.882278 67.2955735,104.8315 C68.2466715,105.780723 69.5362728,106.312656 70.88,106.31 Z" id="Shape" fill="#B5BDC4"></path>
                <path d="M49.09,58.58 C52.1671753,58.5808003 54.8163845,56.4077611 55.4174391,53.3898576 C56.0184937,50.3719541 54.4039864,47.3497405 51.5613086,46.1715254 C48.7186307,44.9933102 45.4395323,45.987253 43.729426,48.5454838 C42.0193197,51.1037145 42.3545087,54.5137082 44.53,56.69 C45.7235694,57.9229913 47.3741503,58.6071136 49.09,58.58 Z" id="Shape" fill="#B5BDC4"></path>
                <path d="M60.86,68.39 C60.8128097,67.7761443 60.7326944,67.165265 60.62,66.56 C60.5101424,65.9441069 60.3598167,65.3361229 60.17,64.74 C59.9874636,64.1698661 59.7461675,63.620247 59.45,63.1 C59.1835777,62.6010779 58.8467981,62.1430576 58.45,61.74 C58.0331499,61.3491389 57.5440005,61.0434205 57.01,60.84 C56.4141391,60.608145 55.7793387,60.4927268 55.14,60.5 C54.8820839,60.5724548 54.6408702,60.6947603 54.43,60.86 L53.18,61.67 C52.6128852,62.014575 52.0048109,62.2866967 51.37,62.48 C49.9153393,62.9606293 48.3446607,62.9606293 46.89,62.48 C46.2275538,62.2930632 45.5922275,62.0207805 45,61.67 L43.75,60.86 C43.5391298,60.6947603 43.2979161,60.5724548 43.04,60.5 C42.4006613,60.4927268 41.7658609,60.608145 41.17,60.84 C40.6358845,61.043189 40.1466924,61.3489341 39.73,61.74 C39.3333075,62.1431476 38.9965397,62.6011518 38.73,63.1 C38.4305114,63.6199022 38.185864,64.169521 38,64.74 C37.8101833,65.3361229 37.6598576,65.9441069 37.55,66.56 C37.4370952,67.1652316 37.3569784,67.7761223 37.31,68.39 C37.27,68.9566667 37.25,69.5366667 37.25,70.13 C37.1906782,71.3164339 37.6377531,72.4722861 38.48,73.31 C39.3687844,74.1164315 40.5412528,74.5372254 41.74,74.48 L56.43,74.48 C57.6287472,74.5372254 58.8012156,74.1164315 59.69,73.31 C60.5333307,72.4729943 60.9806001,71.3166393 60.92,70.13 C60.92,69.5366667 60.9,68.9566667 60.86,68.39 Z" id="Shape" fill="#C1C9D1"></path>
                <path d="M125.83,73.55 L122,69.77 L124.7,68.21 C124.907545,68.0863518 125.027778,67.8563715 125.010866,67.6153778 C124.993955,67.3743841 124.84278,67.1634499 124.62,67.07 L112.62,62.27 C112.382944,62.1766423 112.113092,62.2327825 111.932937,62.4129371 C111.752782,62.5930918 111.696642,62.8629436 111.79,63.1 L116.59,75.1 C116.68345,75.3227803 116.894384,75.4739546 117.135378,75.4908664 C117.376371,75.5077783 117.606352,75.3875453 117.73,75.18 L119.29,72.48 L123.07,76.26 C123.319341,76.5065568 123.720659,76.5065568 123.97,76.26 L125.82,74.41 C126.044156,74.1686241 126.048483,73.7965229 125.83,73.55 Z" id="Shape" fill="#B5BDC4"></path>
            </g>
        </g>
    </g>
</svg>