<?xml version="1.0" encoding="UTF-8" standalone="no"?>
<!DOCTYPE svg PUBLIC "-//W3C//DTD SVG 1.1//EN"
 "http://www.w3.org/Graphics/SVG/1.1/DTD/svg11.dtd">
<!-- Generated by graphviz version 2.38.0 (20140413.2041)
 -->
<!-- Title: Statemachine Pages: 1 -->
<svg width="833pt" height="1605pt"
 viewBox="0.00 0.00 833.00 1604.85" xmlns="http://www.w3.org/2000/svg" xmlns:xlink="http://www.w3.org/1999/xlink">
<g id="graph0" class="graph" transform="scale(1 1) rotate(0) translate(4 1600.85)">
<title>Statemachine</title>
<polygon fill="white" stroke="none" points="-4,4 -4,-1600.85 829,-1600.85 829,4 -4,4"/>
<g id="clust1" class="cluster"><title>cluster_DummyPayment01</title>
<polygon fill="#cfcfcf" stroke="#ffffff" points="8,-250.113 8,-1588.85 489,-1588.85 489,-250.113 8,-250.113"/>
<text text-anchor="middle" x="248.5" y="-1577.65" font-family="Verdana" font-size="9.00">DummyPayment01</text>
</g>
<g id="clust2" class="cluster"><title>cluster_DummyRefund</title>
<polygon fill="#cfcfcf" stroke="#ffffff" points="497,-8 497,-337.225 729,-337.225 729,-8 497,-8"/>
<text text-anchor="middle" x="613" y="-326.025" font-family="Verdana" font-size="9.00">DummyRefund</text>
</g>
<g id="clust3" class="cluster"><title>cluster_CreateGiftCard</title>
<polygon fill="#cfcfcf" stroke="#ffffff" points="525,-393.225 525,-774.902 817,-774.902 817,-393.225 525,-393.225"/>
<text text-anchor="middle" x="671" y="-763.702" font-family="Verdana" font-size="9.00">CreateGiftCard</text>
</g>
<!-- new -->
<g id="node1" class="node"><title>new</title>
<ellipse fill="#f9f9f9" stroke="black" cx="208" cy="-1543.05" rx="41.0244" ry="19.6"/>
<text text-anchor="start" x="196" y="-1545.25" font-family="Verdana" font-size="11.00">new</text>
<text text-anchor="start" x="187" y="-1535.85" font-family="Verdana" font-size="9.00" fill="blue">reserved</text>
</g>
<!-- db312bb14ae27fdea68a7e94ffda290f -->
<g id="node11" class="node"><title>db312bb14ae27fdea68a7e94ffda290f</title>
<polygon fill="#f9f9f9" stroke="black" points="208,-1455.25 181,-1437.25 208,-1419.25 235,-1437.25 208,-1455.25"/>
<text text-anchor="middle" x="208" y="-1436.95" font-family="Verdana" font-size="1.00" fill="white">?</text>
</g>
<!-- new&#45;&gt;db312bb14ae27fdea68a7e94ffda290f -->
<g id="edge1" class="edge"><title>new&#45;&gt;db312bb14ae27fdea68a7e94ffda290f</title>
<path fill="none" stroke="#70ab28" d="M208,-1512.77C208,-1498.03 208,-1480.27 208,-1465.78"/>
<polygon fill="#70ab28" stroke="#70ab28" points="208,-1513.01 203.5,-1523.01 208,-1518.01 208,-1523.01 208,-1523.01 208,-1523.01 208,-1518.01 212.5,-1523.01 208,-1513.01 208,-1513.01"/>
<polygon fill="#70ab28" stroke="#70ab28" points="211.5,-1465.45 208,-1455.45 204.5,-1465.45 211.5,-1465.45"/>
<text text-anchor="start" x="208" y="-1488.05" font-family="Verdana" font-size="9.00"> &#160;</text>
<text text-anchor="start" x="215" y="-1488.05" font-family="Verdana" font-weight="bold" font-size="9.00">authorize (on enter)</text>
</g>
<!-- payment pending -->
<g id="node2" class="node"><title>payment pending</title>
<ellipse fill="#f9f9f9" stroke="black" cx="208" cy="-1323.67" rx="45.9239" ry="27.6545"/>
<text text-anchor="start" x="183.5" y="-1331.37" font-family="Verdana" font-size="11.00">payment</text>
<text text-anchor="start" x="186.5" y="-1320.37" font-family="Verdana" font-size="11.00">pending</text>
<text text-anchor="start" x="187" y="-1310.97" font-family="Verdana" font-size="9.00" fill="blue">reserved</text>
</g>
<!-- 71d70148d85bb9ca8e7c61d6e2d0cc2e -->
<g id="node12" class="node"><title>71d70148d85bb9ca8e7c61d6e2d0cc2e</title>
<polygon fill="#f9f9f9" stroke="black" points="208,-1202.1 181,-1184.1 208,-1166.1 235,-1184.1 208,-1202.1"/>
<text text-anchor="middle" x="208" y="-1183.8" font-family="Verdana" font-size="1.00" fill="white">?</text>
</g>
<!-- payment pending&#45;&gt;71d70148d85bb9ca8e7c61d6e2d0cc2e -->
<g id="edge4" class="edge"><title>payment pending&#45;&gt;71d70148d85bb9ca8e7c61d6e2d0cc2e</title>
<path fill="none" stroke="#70ab28" d="M208,-1295.82C208,-1271.82 208,-1236.79 208,-1212.59"/>
<polygon fill="#70ab28" stroke="#70ab28" points="211.5,-1212.31 208,-1202.31 204.5,-1212.31 211.5,-1212.31"/>
<text text-anchor="start" x="208" y="-1260.9" font-family="Verdana" font-size="9.00"> &#160;</text>
<text text-anchor="start" x="215" y="-1260.9" font-family="Verdana" font-weight="bold" font-size="9.00">pay</text>
<text text-anchor="start" x="208" y="-1251.9" font-family="Verdana" font-size="9.00"> &#160;timeout: 1 hour</text>
<text text-anchor="start" x="208" y="-1242.9" font-family="Verdana" font-size="9.00"> &#160;c:DummyPayment/Pay (by order)</text>
<text text-anchor="start" x="235" y="-1233.9" font-family="Verdana" font-size="9.00"> &#160;manually executable</text>
</g>
<!-- invalid -->
<g id="node3" class="node"><title>invalid</title>
<ellipse fill="#f9f9f9" stroke="black" cx="389" cy="-1323.67" rx="87.8549" ry="19.6332"/>
<ellipse fill="none" stroke="black" cx="389" cy="-1323.67" rx="91.8628" ry="23.5997"/>
<text text-anchor="start" x="372" y="-1325.87" font-family="Verdana" font-size="11.00">invalid</text>
<text text-anchor="start" x="335" y="-1316.47" font-family="Verdana" font-size="9.00" fill="violet">exclude from customer</text>
</g>
<!-- cancelled -->
<g id="node4" class="node"><title>cancelled</title>
<ellipse fill="#f9f9f9" stroke="black" cx="108" cy="-1074.3" rx="87.8549" ry="19.6332"/>
<ellipse fill="none" stroke="black" cx="108" cy="-1074.3" rx="91.8628" ry="23.5997"/>
<text text-anchor="start" x="82.5" y="-1076.5" font-family="Verdana" font-size="11.00">cancelled</text>
<text text-anchor="start" x="54" y="-1067.1" font-family="Verdana" font-size="9.00" fill="violet">exclude from customer</text>
</g>
<!-- paid -->
<g id="node5" class="node"><title>paid</title>
<ellipse fill="#f9f9f9" stroke="black" cx="284" cy="-1074.3" rx="41.0244" ry="19.6"/>
<text text-anchor="start" x="272.5" y="-1076.5" font-family="Verdana" font-size="11.00">paid</text>
<text text-anchor="start" x="263" y="-1067.1" font-family="Verdana" font-size="9.00" fill="blue">reserved</text>
</g>
<!-- confirmed -->
<g id="node7" class="node"><title>confirmed</title>
<ellipse fill="#f9f9f9" stroke="black" cx="284" cy="-945.701" rx="50.8235" ry="19.6"/>
<text text-anchor="start" x="256" y="-947.901" font-family="Verdana" font-size="11.00">confirmed</text>
<text text-anchor="start" x="263" y="-938.501" font-family="Verdana" font-size="9.00" fill="blue">reserved</text>
</g>
<!-- paid&#45;&gt;confirmed -->
<g id="edge7" class="edge"><title>paid&#45;&gt;confirmed</title>
<path fill="none" stroke="#70ab28" d="M284,-1044.02C284,-1023.52 284,-996.247 284,-975.788"/>
<polygon fill="#70ab28" stroke="#70ab28" points="284,-1044.35 279.5,-1054.35 284,-1049.35 284,-1054.35 284,-1054.35 284,-1054.35 284,-1049.35 288.5,-1054.35 284,-1044.35 284,-1044.35"/>
<polygon fill="#70ab28" stroke="#70ab28" points="287.5,-975.783 284,-965.783 280.5,-975.783 287.5,-975.783"/>
<text text-anchor="start" x="284" y="-1015.3" font-family="Verdana" font-size="9.00"> &#160;</text>
<text text-anchor="start" x="291" y="-1015.3" font-family="Verdana" font-weight="bold" font-size="9.00">confirm (on enter)</text>
<text text-anchor="start" x="284" y="-1006.3" font-family="Verdana" font-size="9.00"> &#160;c:Oms/SendOrderConfirmation (by order)</text>
<text text-anchor="start" x="331" y="-997.3" font-family="Verdana" font-size="9.00"> &#160;manually executable</text>
</g>
<!-- exported -->
<g id="node6" class="node"><title>exported</title>
<ellipse fill="#f9f9f9" stroke="black" cx="284" cy="-717.789" rx="47.2526" ry="19.6"/>
<text text-anchor="start" x="258.5" y="-719.989" font-family="Verdana" font-size="11.00">exported</text>
<text text-anchor="start" x="263" y="-710.589" font-family="Verdana" font-size="9.00" fill="blue">reserved</text>
</g>
<!-- shipped -->
<g id="node8" class="node"><title>shipped</title>
<ellipse fill="#f9f9f9" stroke="black" cx="284" cy="-570.563" rx="41.9398" ry="19.6"/>
<text text-anchor="start" x="262.5" y="-572.763" font-family="Verdana" font-size="11.00">shipped</text>
<text text-anchor="start" x="263" y="-563.363" font-family="Verdana" font-size="9.00" fill="blue">reserved</text>
</g>
<!-- exported&#45;&gt;shipped -->
<g id="edge8" class="edge"><title>exported&#45;&gt;shipped</title>
<path fill="none" stroke="#70ab28" d="M284,-697.803C284,-673.124 284,-629.771 284,-600.859"/>
<polygon fill="#70ab28" stroke="#70ab28" points="287.5,-600.554 284,-590.554 280.5,-600.554 287.5,-600.554"/>
<text text-anchor="start" x="284" y="-651.476" font-family="Verdana" font-size="9.00"> &#160;</text>
<text text-anchor="start" x="291" y="-651.476" font-family="Verdana" font-weight="bold" font-size="9.00">ship</text>
<text text-anchor="start" x="284" y="-642.476" font-family="Verdana" font-size="9.00"> &#160;c:Oms/SendOrderShipped (by order)</text>
<text text-anchor="start" x="320.5" y="-633.476" font-family="Verdana" font-size="9.00"> &#160;manually executable</text>
</g>
<!-- 46dd5c4ca8d35da6e9de81e064e97345 -->
<g id="node13" class="node"><title>46dd5c4ca8d35da6e9de81e064e97345</title>
<polygon fill="#f9f9f9" stroke="black" points="284,-857.902 257,-839.902 284,-821.902 311,-839.902 284,-857.902"/>
<text text-anchor="middle" x="284" y="-839.602" font-family="Verdana" font-size="1.00" fill="white">?</text>
</g>
<!-- confirmed&#45;&gt;46dd5c4ca8d35da6e9de81e064e97345 -->
<g id="edge9" class="edge"><title>confirmed&#45;&gt;46dd5c4ca8d35da6e9de81e064e97345</title>
<path fill="none" stroke="#70ab28" d="M284,-915.417C284,-900.679 284,-882.917 284,-868.431"/>
<polygon fill="#70ab28" stroke="#70ab28" points="284,-915.662 279.5,-925.662 284,-920.662 284,-925.662 284,-925.662 284,-925.662 284,-920.662 288.5,-925.662 284,-915.662 284,-915.662"/>
<polygon fill="#70ab28" stroke="#70ab28" points="287.5,-868.096 284,-858.096 280.5,-868.096 287.5,-868.096"/>
<text text-anchor="start" x="284" y="-890.702" font-family="Verdana" font-size="9.00"> &#160;</text>
<text text-anchor="start" x="291" y="-890.702" font-family="Verdana" font-weight="bold" font-size="9.00">check giftcard purchase (on enter)</text>
</g>
<!-- delivered -->
<g id="node9" class="node"><title>delivered</title>
<ellipse fill="#f9f9f9" stroke="black" cx="284" cy="-432.338" rx="39.1741" ry="18"/>
<text text-anchor="middle" x="284" y="-429.538" font-family="Verdana" font-size="11.00">delivered</text>
</g>
<!-- shipped&#45;&gt;delivered -->
<g id="edge12" class="edge"><title>shipped&#45;&gt;delivered</title>
<path fill="none" stroke="#70ab28" d="M284,-550.622C284,-527.233 284,-487.282 284,-460.597"/>
<polygon fill="#70ab28" stroke="#70ab28" points="287.5,-460.402 284,-450.402 280.5,-460.402 287.5,-460.402"/>
<text text-anchor="start" x="284" y="-504.251" font-family="Verdana" font-size="9.00"> &#160;</text>
<text text-anchor="start" x="291" y="-504.251" font-family="Verdana" font-weight="bold" font-size="9.00">stock&#45;update</text>
<text text-anchor="start" x="284" y="-495.251" font-family="Verdana" font-size="9.00"> &#160;manually executable</text>
</g>
<!-- closed -->
<g id="node10" class="node"><title>closed</title>
<ellipse fill="#f9f9f9" stroke="black" cx="284" cy="-280.113" rx="30.8178" ry="18"/>
<ellipse fill="none" stroke="black" cx="284" cy="-280.113" rx="34.8373" ry="22"/>
<text text-anchor="middle" x="284" y="-277.313" font-family="Verdana" font-size="11.00">closed</text>
</g>
<!-- delivered&#45;&gt;closed -->
<g id="edge14" class="edge"><title>delivered&#45;&gt;closed</title>
<path fill="none" stroke="#70ab28" d="M284,-414.105C284,-389.356 284,-343.333 284,-312.46"/>
<polygon fill="#70ab28" stroke="#70ab28" points="287.5,-312.231 284,-302.231 280.5,-312.231 287.5,-312.231"/>
<text text-anchor="start" x="284" y="-366.025" font-family="Verdana" font-size="9.00"> &#160;</text>
<text text-anchor="start" x="291" y="-366.025" font-family="Verdana" font-weight="bold" font-size="9.00">close</text>
<text text-anchor="start" x="284" y="-357.025" font-family="Verdana" font-size="9.00"> &#160;timeout: 1 hour</text>
<text text-anchor="start" x="284" y="-348.025" font-family="Verdana" font-size="9.00"> &#160;manually executable</text>
</g>
<!-- ready for return -->
<g id="node14" class="node"><title>ready for return</title>
<ellipse fill="#f9f9f9" stroke="black" cx="544" cy="-280.113" rx="35.2113" ry="31.2258"/>
<text text-anchor="start" x="528.5" y="-289.313" font-family="Verdana" font-size="11.00">ready</text>
<text text-anchor="start" x="536" y="-277.313" font-family="Verdana" font-size="11.00">for</text>
<text text-anchor="start" x="527" y="-265.313" font-family="Verdana" font-size="11.00">return</text>
</g>
<!-- delivered&#45;&gt;ready for return -->
<g id="edge13" class="edge"><title>delivered&#45;&gt;ready for return</title>
<path fill="none" stroke="black" d="M316.809,-422.4C361.343,-409.126 441.911,-380.962 499,-337.225 506.862,-331.202 514.172,-323.525 520.517,-315.797"/>
<polygon fill="black" stroke="black" points="523.621,-317.508 527.004,-307.467 518.098,-313.207 523.621,-317.508"/>
<text text-anchor="start" x="484" y="-361.525" font-family="Verdana" font-size="9.00"> &#160;</text>
<text text-anchor="start" x="491" y="-361.525" font-family="Verdana" font-weight="bold" font-size="9.00">return</text>
<text text-anchor="start" x="484" y="-352.525" font-family="Verdana" font-size="9.00"> &#160;manually executable</text>
</g>
<!-- db312bb14ae27fdea68a7e94ffda290f&#45;&gt;payment pending -->
<g id="edge2" class="edge"><title>db312bb14ae27fdea68a7e94ffda290f&#45;&gt;payment pending</title>
<path fill="none" stroke="#70ab28" d="M205.865,-1420.53C204.767,-1411.66 203.548,-1400.36 203,-1390.25 202.497,-1380.97 202.819,-1370.97 203.493,-1361.64"/>
<polygon fill="#70ab28" stroke="#70ab28" points="206.998,-1361.72 204.377,-1351.46 200.024,-1361.12 206.998,-1361.72"/>
<text text-anchor="middle" x="273" y="-1383.05" font-family="Verdana" font-size="9.00"> &#160;DummyPayment/IsAuthorized</text>
</g>
<!-- db312bb14ae27fdea68a7e94ffda290f&#45;&gt;invalid -->
<g id="edge3" class="edge"><title>db312bb14ae27fdea68a7e94ffda290f&#45;&gt;invalid</title>
<path fill="none" stroke="black" d="M230.036,-1433.86C259.838,-1429.63 313.356,-1418.45 349,-1390.25 360.059,-1381.5 368.806,-1368.8 375.265,-1356.89"/>
<polygon fill="black" stroke="black" points="378.57,-1358.11 379.954,-1347.61 372.322,-1354.95 378.57,-1358.11"/>
<text text-anchor="middle" x="373" y="-1383.05" font-family="Verdana" font-size="9.00"> &#160;else</text>
</g>
<!-- 71d70148d85bb9ca8e7c61d6e2d0cc2e&#45;&gt;cancelled -->
<g id="edge6" class="edge"><title>71d70148d85bb9ca8e7c61d6e2d0cc2e&#45;&gt;cancelled</title>
<path fill="none" stroke="black" d="M198.046,-1172.37C183.64,-1156.84 156.433,-1127.51 135.68,-1105.14"/>
<polygon fill="black" stroke="black" points="138.007,-1102.5 128.64,-1097.55 132.875,-1107.26 138.007,-1102.5"/>
<text text-anchor="middle" x="177" y="-1129.9" font-family="Verdana" font-size="9.00"> &#160;else</text>
</g>
<!-- 71d70148d85bb9ca8e7c61d6e2d0cc2e&#45;&gt;paid -->
<g id="edge5" class="edge"><title>71d70148d85bb9ca8e7c61d6e2d0cc2e&#45;&gt;paid</title>
<path fill="none" stroke="#70ab28" d="M216.424,-1171.15C228.16,-1154.5 249.748,-1123.88 265.372,-1101.72"/>
<polygon fill="#70ab28" stroke="#70ab28" points="268.34,-1103.58 271.242,-1093.39 262.619,-1099.55 268.34,-1103.58"/>
<text text-anchor="middle" x="305" y="-1129.9" font-family="Verdana" font-size="9.00"> &#160;DummyPayment/IsPayed</text>
</g>
<!-- 46dd5c4ca8d35da6e9de81e064e97345&#45;&gt;exported -->
<g id="edge10" class="edge"><title>46dd5c4ca8d35da6e9de81e064e97345&#45;&gt;exported</title>
<path fill="none" stroke="#70ab28" d="M284,-821.692C284,-802.541 284,-771.259 284,-748.205"/>
<polygon fill="#70ab28" stroke="#70ab28" points="287.5,-747.952 284,-737.952 280.5,-747.952 287.5,-747.952"/>
<text text-anchor="middle" x="297" y="-785.702" font-family="Verdana" font-size="9.00"> &#160;else</text>
</g>
<!-- gift card purchased -->
<g id="node17" class="node"><title>gift card purchased</title>
<ellipse fill="#f9f9f9" stroke="black" cx="585" cy="-717.789" rx="52.1524" ry="31.2258"/>
<text text-anchor="start" x="576" y="-726.989" font-family="Verdana" font-size="11.00">gift</text>
<text text-anchor="start" x="572.5" y="-714.989" font-family="Verdana" font-size="11.00">card</text>
<text text-anchor="start" x="556" y="-702.989" font-family="Verdana" font-size="11.00">purchased</text>
</g>
<!-- 46dd5c4ca8d35da6e9de81e064e97345&#45;&gt;gift card purchased -->
<g id="edge11" class="edge"><title>46dd5c4ca8d35da6e9de81e064e97345&#45;&gt;gift card purchased</title>
<path fill="none" stroke="#70ab28" d="M303.96,-834.983C342.776,-826.93 430.619,-806.571 499,-774.902 514.674,-767.643 530.803,-757.84 544.796,-748.46"/>
<polygon fill="#70ab28" stroke="#70ab28" points="546.936,-751.237 553.211,-742.7 542.982,-745.461 546.936,-751.237"/>
<text text-anchor="middle" x="529" y="-785.702" font-family="Verdana" font-size="9.00"> &#160;GiftCard/IsGiftCard</text>
</g>
<!-- returned -->
<g id="node15" class="node"><title>returned</title>
<ellipse fill="#f9f9f9" stroke="black" cx="548" cy="-163" rx="38.4712" ry="18"/>
<text text-anchor="middle" x="548" y="-160.2" font-family="Verdana" font-size="11.00">returned</text>
</g>
<!-- ready for return&#45;&gt;returned -->
<g id="edge15" class="edge"><title>ready for return&#45;&gt;returned</title>
<path fill="none" stroke="black" d="M545.398,-238.872C545.945,-223.138 546.558,-205.5 547.051,-191.298"/>
<polygon fill="black" stroke="black" points="545.398,-238.874 540.554,-248.712 545.225,-243.871 545.051,-248.868 545.051,-248.868 545.051,-248.868 545.225,-243.871 549.548,-249.025 545.398,-238.874 545.398,-238.874"/>
<polygon fill="black" stroke="black" points="550.553,-191.31 547.403,-181.195 543.557,-191.067 550.553,-191.31"/>
<text text-anchor="start" x="547" y="-213.8" font-family="Verdana" font-size="9.00"> &#160;</text>
<text text-anchor="start" x="554" y="-213.8" font-family="Verdana" font-weight="bold" font-size="9.00">execute&#45;return (on enter)</text>
</g>
<!-- refunded -->
<g id="node16" class="node"><title>refunded</title>
<ellipse fill="#f9f9f9" stroke="black" cx="548" cy="-38" rx="39.166" ry="18"/>
<ellipse fill="none" stroke="black" cx="548" cy="-38" rx="43.1741" ry="22"/>
<text text-anchor="middle" x="548" y="-35.2" font-family="Verdana" font-size="11.00">refunded</text>
</g>
<!-- returned&#45;&gt;refunded -->
<g id="edge16" class="edge"><title>returned&#45;&gt;refunded</title>
<path fill="none" stroke="black" d="M548,-144.897C548,-125.664 548,-94.025 548,-70.3296"/>
<polygon fill="black" stroke="black" points="551.5,-70.0745 548,-60.0745 544.5,-70.0746 551.5,-70.0745"/>
<text text-anchor="start" x="548" y="-109.8" font-family="Verdana" font-size="9.00"> &#160;</text>
<text text-anchor="start" x="555" y="-109.8" font-family="Verdana" font-weight="bold" font-size="9.00">refund</text>
<text text-anchor="start" x="548" y="-100.8" font-family="Verdana" font-size="9.00"> &#160;c:DummyPayment/Refund (by order)</text>
<text text-anchor="start" x="583" y="-91.8" font-family="Verdana" font-size="9.00"> &#160;manually executable</text>
</g>
<!-- gift card created -->
<g id="node18" class="node"><title>gift card created</title>
<ellipse fill="#f9f9f9" stroke="black" cx="585" cy="-570.563" rx="41.9398" ry="31.2258"/>
<text text-anchor="start" x="576" y="-579.763" font-family="Verdana" font-size="11.00">gift</text>
<text text-anchor="start" x="572.5" y="-567.763" font-family="Verdana" font-size="11.00">card</text>
<text text-anchor="start" x="563.5" y="-555.763" font-family="Verdana" font-size="11.00">created</text>
</g>
<!-- gift card purchased&#45;&gt;gift card created -->
<g id="edge17" class="edge"><title>gift card purchased&#45;&gt;gift card created</title>
<path fill="none" stroke="#70ab28" d="M585,-676.303C585,-656.246 585,-632.093 585,-612.038"/>
<polygon fill="#70ab28" stroke="#70ab28" points="585,-676.345 580.5,-686.345 585,-681.345 585,-686.345 585,-686.345 585,-686.345 585,-681.345 589.5,-686.345 585,-676.345 585,-676.345"/>
<polygon fill="#70ab28" stroke="#70ab28" points="588.5,-611.967 585,-601.967 581.5,-611.967 588.5,-611.967"/>
<text text-anchor="start" x="585" y="-646.976" font-family="Verdana" font-size="9.00"> &#160;</text>
<text text-anchor="start" x="592" y="-646.976" font-family="Verdana" font-weight="bold" font-size="9.00">create giftcard (on enter)</text>
<text text-anchor="start" x="585" y="-637.976" font-family="Verdana" font-size="9.00"> &#160;c:GiftCard/CreateGiftCard (by item)</text>
</g>
<!-- gift card shipped -->
<g id="node19" class="node"><title>gift card shipped</title>
<ellipse fill="#f9f9f9" stroke="black" cx="614" cy="-432.338" rx="41.9398" ry="31.2258"/>
<text text-anchor="start" x="605" y="-441.538" font-family="Verdana" font-size="11.00">gift</text>
<text text-anchor="start" x="601.5" y="-429.538" font-family="Verdana" font-size="11.00">card</text>
<text text-anchor="start" x="592.5" y="-417.538" font-family="Verdana" font-size="11.00">shipped</text>
</g>
<!-- gift card created&#45;&gt;gift card shipped -->
<g id="edge18" class="edge"><title>gift card created&#45;&gt;gift card shipped</title>
<path fill="none" stroke="#70ab28" d="M593.5,-529.636C597.283,-511.864 601.728,-490.983 605.51,-473.217"/>
<polygon fill="#70ab28" stroke="#70ab28" points="593.446,-529.887 586.963,-538.731 592.405,-534.778 591.364,-539.668 591.364,-539.668 591.364,-539.668 592.405,-534.778 595.766,-540.605 593.446,-529.887 593.446,-529.887"/>
<polygon fill="#70ab28" stroke="#70ab28" points="608.992,-473.673 607.651,-463.164 602.145,-472.216 608.992,-473.673"/>
<text text-anchor="start" x="601" y="-504.251" font-family="Verdana" font-size="9.00"> &#160;</text>
<text text-anchor="start" x="608" y="-504.251" font-family="Verdana" font-weight="bold" font-size="9.00">ship giftcard (on enter)</text>
<text text-anchor="start" x="601" y="-495.251" font-family="Verdana" font-size="9.00"> &#160;c:GiftCardMailConnector/ShipGiftCard (by item)</text>
</g>
<!-- gift card shipped&#45;&gt;delivered -->
<g id="edge19" class="edge"><title>gift card shipped&#45;&gt;delivered</title>
<path fill="none" stroke="#70ab28" d="M561.991,-432.338C499.382,-432.338 395.01,-432.338 333.529,-432.338"/>
<polygon fill="#70ab28" stroke="#70ab28" points="562.044,-432.338 572.044,-436.838 567.044,-432.338 572.044,-432.338 572.044,-432.338 572.044,-432.338 567.044,-432.338 572.044,-427.838 562.044,-432.338 562.044,-432.338"/>
<polygon fill="#70ab28" stroke="#70ab28" points="333.151,-428.838 323.151,-432.338 333.151,-435.838 333.151,-428.838"/>
<text text-anchor="start" x="344.184" y="-439.138" font-family="Verdana" font-size="9.00"> &#160;</text>
<text text-anchor="start" x="351.184" y="-439.138" font-family="Verdana" font-weight="bold" font-size="9.00">complete gift card creation (on enter)</text>
</g>
</g>
</svg>
