<svg id="Layer_1" data-name="Layer 1" xmlns="http://www.w3.org/2000/svg" viewBox="0 0 128 128"><defs><style>.cls-1{fill:#231f20;}</style></defs><title>multi_icon_multi-language</title><path d="M30.35,108.23,28,107V93H18l-2-2V46l2-2H60.5a1.5,1.5,0,0,1,0,3H19V90H31v14.13L51,90.27l.86-.27H75V62.5c0-.83,1.17-.5,2-.5s1-.33,1,.5V91l-2,2H52.32Z"/><path class="cls-1" d="M57.51,81.75H55.38L55,81.4l-2.13-5.33-.71-.36H42.59l-.71.36L39.74,81.4l-.35.35H37.26l-.36-.35V78.91l8.53-21.68.36-.35H49l.36.35,8.53,21.68V81.4ZM47.56,62.21h-.35L43.3,72.16l.35.35h7.47l.35-.35Z"/><path d="M106.65,77.63,87,64H62l-2-2V22l2-2h56l2,2V62l-2,2h-9V76.4ZM65.06,23H63V61H87.45l.86.27L106,73.54V61h11V23H65.06Z"/><path class="cls-1" d="M79.93,53.09l-2.08-2.16,1.08-1c.06,0,5.66-5.44,7.31-8.81A14.42,14.42,0,0,0,87.34,34H72V31H88.67l1.48,1.23c0,.23,1,5.63-1.22,10.16-1.87,3.85-7.67,9.43-7.92,9.67Z"/><rect class="cls-1" x="96" y="30" width="3" height="25"/><rect class="cls-1" x="96" y="37" width="12" height="3"/></svg>