<?xml version="1.0" encoding="UTF-8" standalone="no"?>
<!DOCTYPE svg PUBLIC "-//W3C//DTD SVG 1.1//EN"
 "http://www.w3.org/Graphics/SVG/1.1/DTD/svg11.dtd">
<!-- Generated by graphviz version 2.38.0 (20140413.2041)
 -->
<!-- Title: Statemachine Pages: 1 -->
<svg width="520pt" height="952pt"
 viewBox="0.00 0.00 520.00 951.62" xmlns="http://www.w3.org/2000/svg" xmlns:xlink="http://www.w3.org/1999/xlink">
<g id="graph0" class="graph" transform="scale(1 1) rotate(0) translate(4 947.617)">
<title>Statemachine</title>
<polygon fill="white" stroke="none" points="-4,4 -4,-947.617 516,-947.617 516,4 -4,4"/>
<g id="clust1" class="cluster"><title>cluster_Nopayment01</title>
<polygon fill="#cfcfcf" stroke="#ffffff" points="8,-250.113 8,-935.617 264,-935.617 264,-250.113 8,-250.113"/>
<text text-anchor="middle" x="136" y="-924.417" font-family="Verdana" font-size="9.00">Nopayment01</text>
</g>
<g id="clust2" class="cluster"><title>cluster_DummyRefund</title>
<polygon fill="#cfcfcf" stroke="#ffffff" points="272,-8 272,-337.225 504,-337.225 504,-8 272,-8"/>
<text text-anchor="middle" x="388" y="-326.025" font-family="Verdana" font-size="9.00">DummyRefund</text>
</g>
<!-- new -->
<g id="node1" class="node"><title>new</title>
<ellipse fill="#f9f9f9" stroke="black" cx="59" cy="-889.818" rx="41.0244" ry="19.6"/>
<text text-anchor="start" x="47" y="-892.018" font-family="Verdana" font-size="11.00">new</text>
<text text-anchor="start" x="38" y="-882.618" font-family="Verdana" font-size="9.00" fill="blue">reserved</text>
</g>
<!-- paid -->
<g id="node2" class="node"><title>paid</title>
<ellipse fill="#f9f9f9" stroke="black" cx="59" cy="-782.22" rx="41.0244" ry="19.6"/>
<text text-anchor="start" x="47.5" y="-784.42" font-family="Verdana" font-size="11.00">paid</text>
<text text-anchor="start" x="38" y="-775.02" font-family="Verdana" font-size="9.00" fill="blue">reserved</text>
</g>
<!-- new&#45;&gt;paid -->
<g id="edge1" class="edge"><title>new&#45;&gt;paid</title>
<path fill="none" stroke="#70ab28" d="M59,-859.799C59,-845.053 59,-827.178 59,-812.409"/>
<polygon fill="#70ab28" stroke="#70ab28" points="59.0001,-859.94 54.5,-869.939 59,-864.94 59,-869.94 59,-869.94 59,-869.94 59,-864.94 63.5,-869.94 59.0001,-859.94 59.0001,-859.94"/>
<polygon fill="#70ab28" stroke="#70ab28" points="62.5001,-812.292 59,-802.292 55.5001,-812.292 62.5001,-812.292"/>
<text text-anchor="start" x="59" y="-834.819" font-family="Verdana" font-size="9.00"> &#160;</text>
<text text-anchor="start" x="66" y="-834.819" font-family="Verdana" font-weight="bold" font-size="9.00">authorize (on enter)</text>
</g>
<!-- exported -->
<g id="node3" class="node"><title>exported</title>
<ellipse fill="#f9f9f9" stroke="black" cx="63" cy="-657.622" rx="47.2526" ry="19.6"/>
<text text-anchor="start" x="37.5" y="-659.822" font-family="Verdana" font-size="11.00">exported</text>
<text text-anchor="start" x="42" y="-650.422" font-family="Verdana" font-size="9.00" fill="blue">reserved</text>
</g>
<!-- paid&#45;&gt;exported -->
<g id="edge2" class="edge"><title>paid&#45;&gt;exported</title>
<path fill="none" stroke="#70ab28" d="M59.9496,-752.117C60.583,-732.703 61.4126,-707.275 62.0468,-687.838"/>
<polygon fill="#70ab28" stroke="#70ab28" points="59.9424,-752.338 55.1186,-762.186 59.7793,-757.336 59.6162,-762.333 59.6162,-762.333 59.6162,-762.333 59.7793,-757.336 64.1138,-762.48 59.9424,-752.338 59.9424,-752.338"/>
<polygon fill="#70ab28" stroke="#70ab28" points="65.5484,-687.842 62.3765,-677.733 58.5521,-687.614 65.5484,-687.842"/>
<text text-anchor="start" x="62" y="-727.221" font-family="Verdana" font-size="9.00"> &#160;</text>
<text text-anchor="start" x="69" y="-727.221" font-family="Verdana" font-weight="bold" font-size="9.00">export (on enter)</text>
<text text-anchor="start" x="62" y="-718.221" font-family="Verdana" font-size="9.00"> &#160;c:Oms/SendOrderConfirmation (by order)</text>
<text text-anchor="start" x="109" y="-709.221" font-family="Verdana" font-size="9.00"> &#160;manually executable</text>
</g>
<!-- shipped -->
<g id="node4" class="node"><title>shipped</title>
<ellipse fill="#f9f9f9" stroke="black" cx="63" cy="-533.024" rx="41.9398" ry="19.6"/>
<text text-anchor="start" x="41.5" y="-535.224" font-family="Verdana" font-size="11.00">shipped</text>
<text text-anchor="start" x="42" y="-525.824" font-family="Verdana" font-size="9.00" fill="blue">reserved</text>
</g>
<!-- exported&#45;&gt;shipped -->
<g id="edge3" class="edge"><title>exported&#45;&gt;shipped</title>
<path fill="none" stroke="#70ab28" d="M63,-637.735C63,-617.904 63,-586.458 63,-563.387"/>
<polygon fill="#70ab28" stroke="#70ab28" points="66.5001,-563.135 63,-553.135 59.5001,-563.135 66.5001,-563.135"/>
<text text-anchor="start" x="63" y="-602.623" font-family="Verdana" font-size="9.00"> &#160;</text>
<text text-anchor="start" x="70" y="-602.623" font-family="Verdana" font-weight="bold" font-size="9.00">ship</text>
<text text-anchor="start" x="63" y="-593.623" font-family="Verdana" font-size="9.00"> &#160;c:Oms/SendOrderShipped (by order)</text>
<text text-anchor="start" x="99.5" y="-584.623" font-family="Verdana" font-size="9.00"> &#160;manually executable</text>
</g>
<!-- delivered -->
<g id="node5" class="node"><title>delivered</title>
<ellipse fill="#f9f9f9" stroke="black" cx="63" cy="-419.225" rx="39.1741" ry="18"/>
<text text-anchor="middle" x="63" y="-416.425" font-family="Verdana" font-size="11.00">delivered</text>
</g>
<!-- shipped&#45;&gt;delivered -->
<g id="edge4" class="edge"><title>shipped&#45;&gt;delivered</title>
<path fill="none" stroke="#70ab28" d="M63,-513.059C63,-495.105 63,-467.949 63,-447.639"/>
<polygon fill="#70ab28" stroke="#70ab28" points="66.5001,-447.445 63,-437.445 59.5001,-447.445 66.5001,-447.445"/>
<text text-anchor="start" x="63" y="-478.025" font-family="Verdana" font-size="9.00"> &#160;</text>
<text text-anchor="start" x="70" y="-478.025" font-family="Verdana" font-weight="bold" font-size="9.00">stock&#45;update</text>
<text text-anchor="start" x="63" y="-469.025" font-family="Verdana" font-size="9.00"> &#160;manually executable</text>
</g>
<!-- closed -->
<g id="node6" class="node"><title>closed</title>
<ellipse fill="#f9f9f9" stroke="black" cx="63" cy="-280.113" rx="30.8178" ry="18"/>
<ellipse fill="none" stroke="black" cx="63" cy="-280.113" rx="34.8373" ry="22"/>
<text text-anchor="middle" x="63" y="-277.313" font-family="Verdana" font-size="11.00">closed</text>
</g>
<!-- delivered&#45;&gt;closed -->
<g id="edge6" class="edge"><title>delivered&#45;&gt;closed</title>
<path fill="none" stroke="#70ab28" d="M63,-401.137C63,-379.083 63,-340.281 63,-312.771"/>
<polygon fill="#70ab28" stroke="#70ab28" points="66.5001,-312.478 63,-302.478 59.5001,-312.478 66.5001,-312.478"/>
<text text-anchor="start" x="63" y="-366.025" font-family="Verdana" font-size="9.00"> &#160;</text>
<text text-anchor="start" x="70" y="-366.025" font-family="Verdana" font-weight="bold" font-size="9.00">close</text>
<text text-anchor="start" x="63" y="-357.025" font-family="Verdana" font-size="9.00"> &#160;timeout: 1 hour</text>
<text text-anchor="start" x="63" y="-348.025" font-family="Verdana" font-size="9.00"> &#160;manually executable</text>
</g>
<!-- ready for return -->
<g id="node7" class="node"><title>ready for return</title>
<ellipse fill="#f9f9f9" stroke="black" cx="319" cy="-280.113" rx="35.2113" ry="31.2258"/>
<text text-anchor="start" x="303.5" y="-289.313" font-family="Verdana" font-size="11.00">ready</text>
<text text-anchor="start" x="311" y="-277.313" font-family="Verdana" font-size="11.00">for</text>
<text text-anchor="start" x="302" y="-265.313" font-family="Verdana" font-size="11.00">return</text>
</g>
<!-- delivered&#45;&gt;ready for return -->
<g id="edge5" class="edge"><title>delivered&#45;&gt;ready for return</title>
<path fill="none" stroke="black" d="M97.8687,-410.827C142.091,-400.174 219.177,-377.256 274,-337.225 281.999,-331.385 289.361,-323.777 295.712,-316.058"/>
<polygon fill="black" stroke="black" points="298.821,-317.761 302.191,-307.717 293.293,-313.468 298.821,-317.761"/>
<text text-anchor="start" x="259" y="-361.525" font-family="Verdana" font-size="9.00"> &#160;</text>
<text text-anchor="start" x="266" y="-361.525" font-family="Verdana" font-weight="bold" font-size="9.00">return</text>
<text text-anchor="start" x="259" y="-352.525" font-family="Verdana" font-size="9.00"> &#160;manually executable</text>
</g>
<!-- returned -->
<g id="node8" class="node"><title>returned</title>
<ellipse fill="#f9f9f9" stroke="black" cx="323" cy="-163" rx="38.4712" ry="18"/>
<text text-anchor="middle" x="323" y="-160.2" font-family="Verdana" font-size="11.00">returned</text>
</g>
<!-- ready for return&#45;&gt;returned -->
<g id="edge7" class="edge"><title>ready for return&#45;&gt;returned</title>
<path fill="none" stroke="black" d="M320.398,-238.872C320.945,-223.138 321.558,-205.5 322.051,-191.298"/>
<polygon fill="black" stroke="black" points="320.398,-238.874 315.554,-248.712 320.225,-243.871 320.051,-248.868 320.051,-248.868 320.051,-248.868 320.225,-243.871 324.548,-249.025 320.398,-238.874 320.398,-238.874"/>
<polygon fill="black" stroke="black" points="325.553,-191.31 322.403,-181.195 318.557,-191.067 325.553,-191.31"/>
<text text-anchor="start" x="322" y="-213.8" font-family="Verdana" font-size="9.00"> &#160;</text>
<text text-anchor="start" x="329" y="-213.8" font-family="Verdana" font-weight="bold" font-size="9.00">execute&#45;return (on enter)</text>
</g>
<!-- refunded -->
<g id="node9" class="node"><title>refunded</title>
<ellipse fill="#f9f9f9" stroke="black" cx="323" cy="-38" rx="39.166" ry="18"/>
<ellipse fill="none" stroke="black" cx="323" cy="-38" rx="43.1741" ry="22"/>
<text text-anchor="middle" x="323" y="-35.2" font-family="Verdana" font-size="11.00">refunded</text>
</g>
<!-- returned&#45;&gt;refunded -->
<g id="edge8" class="edge"><title>returned&#45;&gt;refunded</title>
<path fill="none" stroke="black" d="M323,-144.897C323,-125.664 323,-94.025 323,-70.3296"/>
<polygon fill="black" stroke="black" points="326.5,-70.0745 323,-60.0745 319.5,-70.0746 326.5,-70.0745"/>
<text text-anchor="start" x="323" y="-109.8" font-family="Verdana" font-size="9.00"> &#160;</text>
<text text-anchor="start" x="330" y="-109.8" font-family="Verdana" font-weight="bold" font-size="9.00">refund</text>
<text text-anchor="start" x="323" y="-100.8" font-family="Verdana" font-size="9.00"> &#160;c:DummyPayment/Refund (by order)</text>
<text text-anchor="start" x="358" y="-91.8" font-family="Verdana" font-size="9.00"> &#160;manually executable</text>
</g>
</g>
</svg>
